<svg width="16" height="16" viewBox="0 0 16 16" fill="none" xmlns="http://www.w3.org/2000/svg">
<g clip-path="url(#clip0_3946_66599)">
<path d="M14.6431 3.004C14.6431 3.004 14.7611 1.814 14.4731 1.52666M14.4731 1.52666C14.1844 1.238 12.9964 1.358 12.9964 1.358M14.4731 1.52666L12.6671 3.33333M14.6431 12.996C14.6431 12.996 14.7611 14.186 14.4731 14.4727M14.4731 14.4727C14.1844 14.762 12.9964 14.642 12.9964 14.642M14.4731 14.4727L12.6671 12.6667M1.52709 1.52666L3.33376 3.33333M1.52709 1.52666C1.81642 1.238 3.00442 1.358 3.00442 1.358M1.52709 1.52666C1.24042 1.814 1.35776 3.004 1.35776 3.004M1.52709 14.4733L3.33376 12.6667M1.52709 14.4733C1.81642 14.762 3.00442 14.642 3.00442 14.642M1.52709 14.4733C1.24042 14.1867 1.35776 12.996 1.35776 12.996M12.6671 8C12.6671 8.61283 12.5464 9.21967 12.3119 9.78585C12.0773 10.352 11.7336 10.8665 11.3003 11.2998C10.8669 11.7332 10.3525 12.0769 9.78628 12.3114C9.2201 12.546 8.61326 12.6667 8.00042 12.6667C7.38759 12.6667 6.78075 12.546 6.21457 12.3114C5.64838 12.0769 5.13393 11.7332 4.70059 11.2998C4.26725 10.8665 3.92351 10.352 3.68899 9.78585C3.45446 9.21967 3.33376 8.61283 3.33376 8C3.33376 6.76232 3.82542 5.57534 4.70059 4.70017C5.57576 3.825 6.76275 3.33333 8.00042 3.33333C9.2381 3.33333 10.4251 3.825 11.3003 4.70017C12.1754 5.57534 12.6671 6.76232 12.6671 8Z" stroke="#F3F5FA" stroke-linecap="round" stroke-linejoin="round"/>
<path d="M7.94299 6.20066C7.20633 6.20066 6.66699 6.62866 6.66699 7.126C6.66699 7.62333 7.01499 7.93266 8.00033 7.93266C9.08566 7.93266 9.33366 8.428 9.33366 8.92533C9.33366 9.422 8.85899 9.814 7.94299 9.814M7.94299 6.20066C8.52299 6.20066 8.83033 6.404 9.07299 6.678M7.94299 6.20066V5.63733M7.94299 9.814C7.36299 9.814 7.13633 9.69866 6.81699 9.40933M7.94299 9.814V10.3387" stroke="#F3F5FA" stroke-linecap="round" stroke-linejoin="round"/>
</g>
<defs>
<clipPath id="clip0_3946_66599">
<rect width="16" height="16" fill="white"/>
</clipPath>
</defs>
</svg>
