<svg width="16" height="16" viewBox="0 0 16 16" fill="none" xmlns="http://www.w3.org/2000/svg">
<g clip-path="url(#clip0_3946_66603)">
<path d="M10.6663 4C10.6663 2.74267 10.6663 2.11467 10.2757 1.724C9.88501 1.33334 9.25701 1.33334 7.99967 1.33334C6.74234 1.33334 6.11434 1.33334 5.72367 1.724C5.33301 2.11467 5.33301 2.74267 5.33301 4M1.33301 9.33334C1.33301 6.99534 1.33301 5.82667 1.93834 5.04C2.04945 4.89556 2.17256 4.764 2.30767 4.64534C3.04634 4 4.14101 4 6.33301 4H9.66634C11.8583 4 12.9537 4 13.6917 4.64534C13.8268 4.76445 13.9499 4.896 14.061 5.04C14.6663 5.82667 14.6663 6.99534 14.6663 9.33334C14.6663 11.6713 14.6663 12.84 14.061 13.6267C13.9515 13.7702 13.8278 13.9022 13.6917 14.0207C12.953 14.6667 11.8583 14.6667 9.66634 14.6667H6.33301C4.14167 14.6667 3.04567 14.6667 2.30767 14.0213C2.17151 13.9026 2.04777 13.7704 1.93834 13.6267C1.33301 12.84 1.33301 11.6713 1.33301 9.33334Z" stroke="#F3F5FA" stroke-linecap="round" stroke-linejoin="round"/>
<path d="M7.99967 7.33334C7.26301 7.33334 6.66634 7.78134 6.66634 8.33334C6.66634 8.88534 7.26301 9.33334 7.99967 9.33334C8.73634 9.33334 9.33301 9.78134 9.33301 10.3333C9.33301 10.8853 8.73634 11.3333 7.99967 11.3333M7.99967 7.33334C8.57967 7.33334 9.07434 7.61134 9.25701 8.00001M7.99967 7.33334V6.66667M7.99967 11.3333C7.41967 11.3333 6.92501 11.0553 6.74234 10.6667M7.99967 11.3333V12M3.99967 8.00001H1.33301M14.6663 8.00001H11.9997" stroke="#F3F5FA" stroke-linecap="round" stroke-linejoin="round"/>
</g>
<defs>
<clipPath id="clip0_3946_66603">
<rect width="16" height="16" fill="white"/>
</clipPath>
</defs>
</svg>
