<svg width="16" height="16" viewBox="0 0 16 16" fill="none" xmlns="http://www.w3.org/2000/svg">
<path opacity="0.4" d="M7.99967 14.6667C11.6815 14.6667 14.6663 11.6819 14.6663 7.99999C14.6663 4.31809 11.6815 1.33333 7.99967 1.33333C4.31777 1.33333 1.33301 4.31809 1.33301 7.99999C1.33301 11.6819 4.31777 14.6667 7.99967 14.6667Z" fill="#F3F5FA"/>
<path d="M8.70594 8.00006L10.2393 6.46673C10.4326 6.2734 10.4326 5.9534 10.2393 5.76007C10.0459 5.56673 9.72594 5.56673 9.5326 5.76007L7.99927 7.29339L6.46592 5.76007C6.27258 5.56673 5.95258 5.56673 5.75926 5.76007C5.56592 5.9534 5.56592 6.2734 5.75926 6.46673L7.2926 8.00006L5.75926 9.53339C5.56592 9.72673 5.56592 10.0467 5.75926 10.2401C5.85926 10.3401 5.98592 10.3867 6.11258 10.3867C6.23925 10.3867 6.36592 10.3401 6.46592 10.2401L7.99927 8.70673L9.5326 10.2401C9.6326 10.3401 9.75927 10.3867 9.88594 10.3867C10.0126 10.3867 10.1393 10.3401 10.2393 10.2401C10.4326 10.0467 10.4326 9.72673 10.2393 9.53339L8.70594 8.00006Z" fill="#F3F5FA"/>
</svg>
