<svg width="16" height="16" viewBox="0 0 16 16" fill="none" xmlns="http://www.w3.org/2000/svg">
<g clip-path="url(#clip0_3946_66609)">
<path d="M2.10468 7.33334C1.50903 8.24451 1.24511 9.33291 1.35726 10.4157C1.46941 11.4985 1.9508 12.5097 2.72055 13.2795C3.4903 14.0492 4.50151 14.5306 5.58431 14.6428C6.66711 14.7549 7.75551 14.491 8.66668 13.8953M9.33335 12C10.7478 12 12.1044 11.4381 13.1046 10.4379C14.1048 9.43771 14.6667 8.08116 14.6667 6.66667C14.6667 5.25218 14.1048 3.89563 13.1046 2.89543C12.1044 1.89524 10.7478 1.33334 9.33335 1.33334C7.91886 1.33334 6.56231 1.89524 5.56211 2.89543C4.56192 3.89563 4.00002 5.25218 4.00002 6.66667C4.00002 8.08116 4.56192 9.43771 5.56211 10.4379C6.56231 11.4381 7.91886 12 9.33335 12Z" stroke="#F3F5FA" stroke-linecap="round" stroke-linejoin="round"/>
<path d="M10.5136 5.47C10.3696 4.862 9.63631 4.31334 8.75564 4.72334C7.87498 5.134 7.73498 6.45534 9.06698 6.59534C9.66898 6.65867 10.0616 6.522 10.4203 6.90934C10.7803 7.29667 10.847 8.37467 9.92831 8.66534C9.00964 8.956 8.10031 8.502 8.00098 7.85734M9.32364 4.00267V4.58267M9.32364 8.75467V9.336" stroke="#F3F5FA" stroke-linecap="round" stroke-linejoin="round"/>
</g>
<defs>
<clipPath id="clip0_3946_66609">
<rect width="16" height="16" fill="white"/>
</clipPath>
</defs>
</svg>
