<svg width="16" height="16" viewBox="0 0 16 16" fill="none" xmlns="http://www.w3.org/2000/svg">
<g clip-path="url(#clip0_3670_41865)">
<path d="M8.10059 11V12.4" stroke="#F3F5FA" stroke-linecap="round" stroke-linejoin="round"/>
<path d="M4.7666 14.6667H11.4333V14C11.4333 13.2667 10.8333 12.6667 10.0999 12.6667H6.09993C5.3666 12.6667 4.7666 13.2667 4.7666 14V14.6667Z" stroke="#F3F5FA" stroke-miterlimit="10"/>
<path d="M4.10059 14.6667H12.1006" stroke="#F3F5FA" stroke-linecap="round" stroke-linejoin="round"/>
<path d="M8.00065 10.6667C5.42065 10.6667 3.33398 8.58001 3.33398 6.00001V4.00001C3.33398 2.52668 4.52732 1.33334 6.00065 1.33334H10.0007C11.474 1.33334 12.6673 2.52668 12.6673 4.00001V6.00001C12.6673 8.58001 10.5807 10.6667 8.00065 10.6667Z" stroke="#F3F5FA" stroke-linecap="round" stroke-linejoin="round"/>
<path d="M3.64702 7.76667C3.14702 7.60667 2.70702 7.31334 2.36035 6.96667C1.76035 6.29999 1.36035 5.49999 1.36035 4.56666C1.36035 3.63333 2.09368 2.89999 3.02702 2.89999H3.46035C3.32702 3.20666 3.26035 3.54666 3.26035 3.89999V5.89999C3.26035 6.56666 3.40035 7.19334 3.64702 7.76667Z" stroke="#F3F5FA" stroke-linecap="round" stroke-linejoin="round"/>
<path d="M12.3535 7.76667C12.8535 7.60667 13.2935 7.31334 13.6402 6.96667C14.2402 6.29999 14.6402 5.49999 14.6402 4.56666C14.6402 3.63333 13.9068 2.89999 12.9735 2.89999H12.5402C12.6735 3.20666 12.7402 3.54666 12.7402 3.89999V5.89999C12.7402 6.56666 12.6002 7.19334 12.3535 7.76667Z" stroke="#F3F5FA" stroke-linecap="round" stroke-linejoin="round"/>
</g>
<defs>
<clipPath id="clip0_3670_41865">
<rect width="16" height="16" fill="white"/>
</clipPath>
</defs>
</svg>
