<svg width="16" height="16" viewBox="0 0 16 16" fill="none" xmlns="http://www.w3.org/2000/svg">
<path d="M2 8H14M9.66667 3.66667C9.66667 4.10869 9.49107 4.53262 9.17851 4.84518C8.86595 5.15774 8.44203 5.33333 8 5.33333C7.55797 5.33333 7.13405 5.15774 6.82149 4.84518C6.50893 4.53262 6.33333 4.10869 6.33333 3.66667C6.33333 3.22464 6.50893 2.80072 6.82149 2.48816C7.13405 2.17559 7.55797 2 8 2C8.44203 2 8.86595 2.17559 9.17851 2.48816C9.49107 2.80072 9.66667 3.22464 9.66667 3.66667ZM9.66667 12.3333C9.66667 12.7754 9.49107 13.1993 9.17851 13.5118C8.86595 13.8244 8.44203 14 8 14C7.55797 14 7.13405 13.8244 6.82149 13.5118C6.50893 13.1993 6.33333 12.7754 6.33333 12.3333C6.33333 11.8913 6.50893 11.4674 6.82149 11.1548C7.13405 10.8423 7.55797 10.6667 8 10.6667C8.44203 10.6667 8.86595 10.8423 9.17851 11.1548C9.49107 11.4674 9.66667 11.8913 9.66667 12.3333Z" stroke="#F3F5FA" stroke-linecap="round" stroke-linejoin="round"/>
</svg>
