<svg width="16" height="16" viewBox="0 0 16 16" fill="none" xmlns="http://www.w3.org/2000/svg">
<path d="M5.33626 4.11111V11.8889M5.33626 4.88889H9.69181C10.7418 4.88889 10.9751 5.47222 10.2363 6.21111L9.76959 6.67778C9.45848 6.98889 9.45848 7.49444 9.76959 7.76666L10.2363 8.23333C10.9751 8.97222 10.7029 9.55555 9.69181 9.55555H5.33626M6.00065 14.6668H10.0007C13.334 14.6668 14.6673 13.3335 14.6673 10.0002V6.00016C14.6673 2.66683 13.334 1.3335 10.0007 1.3335H6.00065C2.66732 1.3335 1.33398 2.66683 1.33398 6.00016V10.0002C1.33398 13.3335 2.66732 14.6668 6.00065 14.6668Z" stroke="#F3F5FA" stroke-miterlimit="10" stroke-linecap="round" stroke-linejoin="round"/>
</svg>
