<svg width="43" height="29" viewBox="0 0 43 29" fill="none" xmlns="http://www.w3.org/2000/svg">
    <path d="M11.5333 1.56527C13.0281 -0.198569 14.253 0.276994 14.253 2.62875V9.19613L11.3634 12.6092L11.3565 12.617C10.616 13.5039 9.97177 14.8143 10.5411 16.12C11.1261 17.4614 12.5569 17.8318 13.71 17.8319H16.3311V19.2391L9.39168 27.4344C7.89681 29.1983 6.67099 28.7227 6.67098 26.3709V16.2918H2.50985C0.624561 16.2918 0.0993407 15.0881 1.33797 13.6043L11.5333 1.56527Z" fill="url(#paint0_linear_4145_9139)"/>
    <path d="M22.7344 1.56526C24.2293 -0.198574 25.4551 0.277017 25.4551 2.62873V9.19514L22.5645 12.6092L22.5576 12.617C21.8171 13.5039 21.1729 14.8142 21.7422 16.1199C22.3272 17.4614 23.758 17.8318 24.9112 17.8319H27.5323V19.2391L20.5928 27.4344C19.0979 29.1983 17.8721 28.7227 17.8721 26.3709V16.2918H13.711C11.8258 16.2918 11.3005 15.088 12.5391 13.6043L22.7344 1.56526Z" fill="url(#paint1_linear_4145_9139)"/>
    <path d="M33.9337 1.56527C35.4285 -0.198569 36.6534 0.276994 36.6534 2.62875V12.7079H40.8155C42.7141 12.708 43.2388 13.9256 41.9864 15.3954L31.7921 27.4344C30.2972 29.1983 29.0714 28.7227 29.0714 26.3709V16.2918H24.9102C23.025 16.2918 22.4997 15.0881 23.7384 13.6043L33.9337 1.56527Z" fill="url(#paint2_linear_4145_9139)"/>
    <defs>
        <linearGradient id="paint0_linear_4145_9139" x1="8.49906" y1="0.5" x2="8.49906" y2="28.4997" gradientUnits="userSpaceOnUse">
            <stop stop-color="#518DF9"/>
            <stop offset="1" stop-color="#A8F0FC"/>
        </linearGradient>
        <linearGradient id="paint1_linear_4145_9139" x1="19.7002" y1="0.5" x2="19.7002" y2="28.4997" gradientUnits="userSpaceOnUse">
            <stop stop-color="#518DF9"/>
            <stop offset="1" stop-color="#A8F0FC"/>
        </linearGradient>
        <linearGradient id="paint2_linear_4145_9139" x1="32.8672" y1="0.5" x2="32.8672" y2="28.4999" gradientUnits="userSpaceOnUse">
            <stop stop-color="#518DF9"/>
            <stop offset="1" stop-color="#A8F0FC"/>
        </linearGradient>
    </defs>
</svg>
