<svg width="33" height="29" viewBox="0 0 33 29" fill="none" xmlns="http://www.w3.org/2000/svg">
    <path d="M12.1993 1.5653C13.6942 -0.198562 14.919 0.276962 14.919 2.62877V9.19616L12.0294 12.6092L12.0226 12.6171C11.282 13.504 10.6378 14.8143 11.2071 16.12C11.7922 17.4613 13.223 17.8319 14.3761 17.8319H16.9972V19.2391L10.0577 27.4344C8.56286 29.1983 7.33704 28.7227 7.33701 26.371V16.2919H3.17588C1.29058 16.2919 0.765344 15.0881 2.004 13.6044L12.1993 1.5653Z" fill="url(#paint0_linear_4145_12397)"/>
    <path d="M23.3985 1.56526C24.8933 -0.198574 26.1191 0.277018 26.1192 2.62873V12.7078H30.2803C32.1788 12.7079 32.7041 13.9257 31.4522 15.3953L21.2569 27.4344C19.762 29.1983 18.5362 28.7227 18.5362 26.3709V16.2918H14.375C12.4899 16.2918 11.9646 15.088 13.2031 13.6043L23.3985 1.56526Z" fill="url(#paint1_linear_4145_12397)"/>
    <defs>
        <linearGradient id="paint0_linear_4145_12397" x1="9.16509" y1="0.5" x2="9.16509" y2="28.4997" gradientUnits="userSpaceOnUse">
            <stop stop-color="#518DF9"/>
            <stop offset="1" stop-color="#A8F0FC"/>
        </linearGradient>
        <linearGradient id="paint1_linear_4145_12397" x1="22.3323" y1="0.5" x2="22.3323" y2="28.4997" gradientUnits="userSpaceOnUse">
            <stop stop-color="#518DF9"/>
            <stop offset="1" stop-color="#A8F0FC"/>
        </linearGradient>
    </defs>
</svg>
