<svg width="16" height="16" viewBox="0 0 16 16" fill="none" xmlns="http://www.w3.org/2000/svg">
<path d="M5.99674 14.6615H9.99674C13.3301 14.6615 14.6634 13.3281 14.6634 9.99479V5.99479C14.6634 2.66146 13.3301 1.32812 9.99674 1.32812H5.99674C2.66341 1.32812 1.33008 2.66146 1.33008 5.99479V9.99479C1.33008 13.3281 2.66341 14.6615 5.99674 14.6615Z" stroke="#F3F5FA" stroke-miterlimit="10" stroke-linecap="round" stroke-linejoin="round"/>
<path d="M5.57025 8.70036H6.85775V11.7004C6.85775 12.4004 7.23692 12.542 7.69942 12.017L10.8536 8.4337C11.2411 7.9962 11.0786 7.6337 10.4911 7.6337H9.20359V4.6337C9.20359 3.9337 8.82442 3.79203 8.36192 4.31703L5.20775 7.90036C4.82442 8.34203 4.98692 8.70036 5.57025 8.70036Z" stroke="#F3F5FA" stroke-miterlimit="10" stroke-linecap="round" stroke-linejoin="round"/>
</svg>
