<svg width="16" height="16" viewBox="0 0 16 16" fill="none" xmlns="http://www.w3.org/2000/svg">
<g clip-path="url(#clip0_3946_66592)">
<path d="M1.33301 12C1.33301 10.9733 1.33301 10.46 1.56434 10.0827C1.69367 9.87133 1.87101 9.69399 2.08234 9.56466C2.45901 9.33333 2.97301 9.33333 3.99967 9.33333C5.02634 9.33333 5.53967 9.33333 5.91701 9.56466C6.12834 9.69399 6.30567 9.87133 6.43501 10.0827C6.66634 10.4593 6.66634 10.9733 6.66634 12C6.66634 13.0267 6.66634 13.54 6.43501 13.918C6.30567 14.1287 6.12834 14.306 5.91701 14.4353C5.54034 14.6667 5.02634 14.6667 3.99967 14.6667C2.97301 14.6667 2.45967 14.6667 2.08234 14.4353C1.87124 14.3062 1.69373 14.1289 1.56434 13.918C1.33301 13.54 1.33301 13.0267 1.33301 12ZM9.33301 12C9.33301 10.9733 9.33301 10.46 9.56434 10.0827C9.69367 9.87133 9.87101 9.69399 10.0823 9.56466C10.459 9.33333 10.973 9.33333 11.9997 9.33333C13.0263 9.33333 13.5397 9.33333 13.9177 9.56466C14.1283 9.69399 14.3057 9.87133 14.435 10.0827C14.6663 10.4593 14.6663 10.9733 14.6663 12C14.6663 13.0267 14.6663 13.54 14.435 13.918C14.3056 14.1287 14.1284 14.3059 13.9177 14.4353C13.5397 14.6667 13.0263 14.6667 11.9997 14.6667C10.973 14.6667 10.4597 14.6667 10.0823 14.4353C9.87124 14.3062 9.69373 14.1289 9.56434 13.918C9.33301 13.54 9.33301 13.0267 9.33301 12ZM1.33301 3.99999C1.33301 2.97333 1.33301 2.45999 1.56434 2.08266C1.69367 1.87133 1.87101 1.69399 2.08234 1.56466C2.45901 1.33333 2.97301 1.33333 3.99967 1.33333C5.02634 1.33333 5.53967 1.33333 5.91701 1.56466C6.12834 1.69399 6.30567 1.87133 6.43501 2.08266C6.66634 2.45933 6.66634 2.97333 6.66634 3.99999C6.66634 5.02666 6.66634 5.53999 6.43501 5.91733C6.30567 6.12866 6.12834 6.30599 5.91701 6.43533C5.54034 6.66666 5.02634 6.66666 3.99967 6.66666C2.97301 6.66666 2.45967 6.66666 2.08234 6.43533C1.87116 6.30602 1.69365 6.1285 1.56434 5.91733C1.33301 5.54066 1.33301 5.02666 1.33301 3.99999ZM9.33301 3.99999C9.33301 2.97333 9.33301 2.45999 9.56434 2.08266C9.69367 1.87133 9.87101 1.69399 10.0823 1.56466C10.459 1.33333 10.973 1.33333 11.9997 1.33333C13.0263 1.33333 13.5397 1.33333 13.9177 1.56466C14.1283 1.69399 14.3057 1.87133 14.435 2.08266C14.6663 2.45933 14.6663 2.97333 14.6663 3.99999C14.6663 5.02666 14.6663 5.53999 14.435 5.91733C14.3057 6.12866 14.1283 6.30599 13.9177 6.43533C13.5397 6.66666 13.0263 6.66666 11.9997 6.66666C10.973 6.66666 10.4597 6.66666 10.0823 6.43533C9.87116 6.30602 9.69364 6.1285 9.56434 5.91733C9.33301 5.54066 9.33301 5.02666 9.33301 3.99999Z" stroke="#F3F5FA" stroke-linecap="round" stroke-linejoin="round"/>
</g>
<defs>
<clipPath id="clip0_3946_66592">
<rect width="16" height="16" fill="white"/>
</clipPath>
</defs>
</svg>
