<svg width="16" height="16" viewBox="0 0 16 16" fill="none" xmlns="http://www.w3.org/2000/svg">
<path d="M8.00033 11V9.66667M2.84566 12.5633C2.99566 13.6767 3.91766 14.5493 5.04033 14.6007C5.98433 14.644 6.94366 14.6667 8.00033 14.6667C9.05699 14.6667 10.0163 14.644 10.9603 14.6C12.083 14.5493 13.005 13.6767 13.155 12.5633C13.253 11.8367 13.3337 11.092 13.3337 10.3333C13.3337 9.57467 13.253 8.83001 13.155 8.10334C13.005 6.99001 12.083 6.11734 10.9603 6.06601C9.97431 6.02094 8.98737 5.99894 8.00033 6.00001C6.94366 6.00001 5.98433 6.02267 5.04033 6.06667C3.91766 6.11734 2.99566 6.99001 2.84566 8.10334C2.74699 8.83001 2.66699 9.57467 2.66699 10.3333C2.66699 11.092 2.74766 11.8367 2.84566 12.5633Z" stroke="#F3F5FA" stroke-linecap="round" stroke-linejoin="round"/>
<path d="M5 6.00001V4.33334C5 3.53769 5.31607 2.77463 5.87868 2.21202C6.44129 1.64941 7.20435 1.33334 8 1.33334C8.79565 1.33334 9.55871 1.64941 10.1213 2.21202C10.6839 2.77463 11 3.53769 11 4.33334V6.00001" stroke="#F3F5FA" stroke-linecap="round" stroke-linejoin="round"/>
</svg>
