<svg width="16" height="16" viewBox="0 0 16 16" fill="none" xmlns="http://www.w3.org/2000/svg">
<path d="M2.66624 13.3333L13.3329 2.66666M5.51157 3.15466C5.82417 3.46726 5.99979 3.89124 5.99979 4.33333C5.99979 4.77542 5.82417 5.19939 5.51157 5.512C5.19897 5.8246 4.77499 6.00022 4.3329 6.00022C3.89082 6.00022 3.46684 5.8246 3.15424 5.512C2.84163 5.19939 2.66602 4.77542 2.66602 4.33333C2.66602 3.89124 2.84163 3.46726 3.15424 3.15466C3.46684 2.84206 3.89082 2.66644 4.3329 2.66644C4.77499 2.66644 5.19897 2.84206 5.51157 3.15466ZM12.8449 10.488C12.9997 10.6428 13.1225 10.8265 13.2062 11.0288C13.29 11.231 13.3331 11.4478 13.3331 11.6667C13.3331 11.8856 13.29 12.1023 13.2062 12.3046C13.1225 12.5068 12.9997 12.6905 12.8449 12.8453C12.6901 13.0001 12.5064 13.1229 12.3041 13.2067C12.1019 13.2904 11.8851 13.3335 11.6662 13.3335C11.4473 13.3335 11.2306 13.2904 11.0283 13.2067C10.8261 13.1229 10.6424 13.0001 10.4876 12.8453C10.175 12.5327 9.99935 12.1087 9.99935 11.6667C9.99935 11.2246 10.175 10.8006 10.4876 10.488C10.8002 10.1754 11.2242 9.99978 11.6662 9.99978C12.1083 9.99978 12.5323 10.1754 12.8449 10.488Z" stroke="#F3F5FA" stroke-linecap="round" stroke-linejoin="round"/>
</svg>
