<svg width="16" height="16" viewBox="0 0 16 16" fill="none" xmlns="http://www.w3.org/2000/svg">
<path d="M13.6669 10.552C11.9995 14.504 6.5762 15.656 3.46754 12.576C0.420205 9.55601 1.36354 4.08668 5.37154 2.33334" stroke="#F3F5FA" stroke-linecap="round" stroke-linejoin="round"/>
<path d="M11.789 8.33334C13.0477 8.33334 13.677 8.33334 14.083 7.77001C14.0983 7.74867 14.123 7.71134 14.137 7.68934C14.5023 7.09801 14.3143 6.64401 13.9377 5.73601C13.5966 4.9125 13.0966 4.16424 12.4664 3.53396C11.8361 2.90368 11.0878 2.40374 10.2643 2.06267C9.35633 1.68601 8.90233 1.49801 8.31099 1.86267C8.28899 1.87667 8.25099 1.90267 8.23033 1.91734C7.66699 2.32401 7.66699 2.95267 7.66699 4.21067V5.61801C7.66699 6.89801 7.66699 7.53801 8.06433 7.93601C8.46233 8.33334 9.10233 8.33334 10.3817 8.33334H11.789Z" stroke="#F3F5FA" stroke-linecap="round" stroke-linejoin="round"/>
</svg>
