<svg width="16" height="16" viewBox="0 0 16 16" fill="none" xmlns="http://www.w3.org/2000/svg">
<g clip-path="url(#clip0_3946_103655)">
<path d="M14.6663 8.00001C14.6663 4.31801 11.6817 1.33334 7.99967 1.33334M14.6663 8.00001C14.6663 11.682 11.6817 14.6667 7.99967 14.6667M14.6663 8.00001H13.333M7.99967 1.33334C4.31767 1.33334 1.33301 4.31801 1.33301 8.00001M7.99967 1.33334V2.66668M1.33301 8.00001C1.33301 11.682 4.31767 14.6667 7.99967 14.6667M1.33301 8.00001H2.66634M7.99967 14.6667V13.3333" stroke="#F3F5FA" stroke-linecap="round" stroke-linejoin="round"/>
<path d="M7.99935 6.00001C7.26268 6.00001 6.66602 6.44801 6.66602 7.00001C6.66602 7.55201 7.26268 8.00001 7.99935 8.00001C8.73602 8.00001 9.33268 8.44801 9.33268 9.00001C9.33268 9.55201 8.73602 10 7.99935 10M7.99935 6.00001C8.57935 6.00001 9.07402 6.27801 9.25668 6.66668M7.99935 6.00001V5.33334M7.99935 10C7.41935 10 6.92468 9.72201 6.74202 9.33334M7.99935 10V10.6667" stroke="#F3F5FA" stroke-linecap="round" stroke-linejoin="round"/>
</g>
<defs>
<clipPath id="clip0_3946_103655">
<rect width="16" height="16" fill="white"/>
</clipPath>
</defs>
</svg>
