<svg width="16" height="16" viewBox="0 0 16 16" fill="none" xmlns="http://www.w3.org/2000/svg">
<path d="M1.33301 13.3333V4.68134C1.33301 3.40334 1.33301 2.66667 1.62567 2.66667C1.97301 2.66667 2.22301 3.10667 2.83301 4.182L7.16634 11.818C7.77634 12.8933 8.01501 13.3333 8.37301 13.3333C8.66634 13.3333 8.66634 12.5967 8.66634 11.3187V2.66667M10.6663 8.66667H14.6663M11.053 3.05334C11.5697 2.53734 13.763 2.53734 14.2797 3.05334C14.795 3.57 14.795 5.76334 14.2797 6.28C13.763 6.796 11.5697 6.796 11.053 6.28C10.5377 5.76334 10.5377 3.57 11.053 3.05334Z" stroke="#F3F5FA" stroke-linecap="round" stroke-linejoin="round"/>
</svg>
