<svg width="16" height="16" viewBox="0 0 16 16" fill="none" xmlns="http://www.w3.org/2000/svg">
<path opacity="0.4" d="M14.6673 7.99984V11.3332C14.6673 13.3332 13.334 14.6665 11.334 14.6665H5.08732C5.29399 14.4932 5.47397 14.2798 5.61397 14.0398C5.86064 13.6398 6.00065 13.1665 6.00065 12.6665C6.00065 11.1932 4.80732 9.99984 3.33398 9.99984C2.53398 9.99984 1.82065 10.3532 1.33398 10.9065V7.99984C1.33398 6.1865 2.42732 4.91984 4.12732 4.7065C4.30065 4.67984 4.48065 4.6665 4.66732 4.6665H11.334C11.5073 4.6665 11.674 4.67316 11.834 4.69983C13.554 4.89983 14.6673 6.17317 14.6673 7.99984Z" fill="#F3F5FA"/>
<path d="M11.8336 4.70014C11.6736 4.67347 11.507 4.66682 11.3336 4.66682H4.66695C4.48028 4.66682 4.30029 4.68015 4.12695 4.70681C4.22029 4.52015 4.35363 4.34684 4.51363 4.18684L6.6803 2.0135C7.59363 1.10683 9.07361 1.10683 9.98694 2.0135L11.1536 3.19347C11.5803 3.61347 11.807 4.14681 11.8336 4.70014Z" fill="#F3F5FA"/>
<path d="M14.6673 8.3335H12.6673C11.934 8.3335 11.334 8.9335 11.334 9.66683C11.334 10.4002 11.934 11.0002 12.6673 11.0002H14.6673" fill="#F3F5FA"/>
<path d="M3.33268 10C2.53268 10 1.81935 10.3533 1.33268 10.9067C0.919349 11.38 0.666016 11.9933 0.666016 12.6667C0.666016 13.1667 0.806027 13.64 1.05269 14.04C1.51269 14.8133 2.35935 15.3333 3.33268 15.3333C4.00602 15.3333 4.61935 15.0867 5.08602 14.6667C5.29269 14.4933 5.47267 14.28 5.61267 14.04C5.85934 13.64 5.99935 13.1667 5.99935 12.6667C5.99935 11.1933 4.80602 10 3.33268 10ZM4.39933 13.72C4.29933 13.82 4.17269 13.8667 4.04602 13.8667C3.91935 13.8667 3.79267 13.82 3.69267 13.72L3.33936 13.3667L2.9727 13.7333C2.8727 13.8333 2.74601 13.88 2.61934 13.88C2.49268 13.88 2.36603 13.8333 2.26603 13.7333C2.0727 13.54 2.0727 13.22 2.26603 13.0267L2.63269 12.66L2.27934 12.3067C2.086 12.1133 2.086 11.7933 2.27934 11.6C2.47267 11.4067 2.79267 11.4067 2.986 11.6L3.33936 11.9533L3.67269 11.62C3.86602 11.4267 4.18602 11.4267 4.37935 11.62C4.57269 11.8133 4.57269 12.1333 4.37935 12.3267L4.04602 12.66L4.39933 13.0133C4.59267 13.2067 4.59267 13.52 4.39933 13.72Z" fill="#F3F5FA"/>
</svg>
