<svg width="16" height="16" viewBox="0 0 16 16" fill="none" xmlns="http://www.w3.org/2000/svg">
<path d="M7.16708 11.2403V12.5936C7.16708 13.7403 6.1004 14.6669 4.78707 14.6669C3.47374 14.6669 2.40039 13.7403 2.40039 12.5936V11.2403C2.40039 12.3869 3.46707 13.2003 4.78707 13.2003C6.1004 13.2003 7.16708 12.3803 7.16708 11.2403Z" stroke="#F3F5FA" stroke-linecap="round" stroke-linejoin="round"/>
<path d="M7.1669 9.40666C7.1669 9.74 7.07356 10.0467 6.91356 10.3133C6.5202 10.96 5.71352 11.3667 4.78019 11.3667C3.84685 11.3667 3.04018 10.9533 2.64685 10.3133C2.48685 10.0467 2.39355 9.74 2.39355 9.40666C2.39355 8.83333 2.66021 8.32 3.08687 7.94666C3.52021 7.56666 4.11351 7.34 4.77351 7.34C5.43351 7.34 6.02687 7.57333 6.4602 7.94666C6.90023 8.31333 7.1669 8.83333 7.1669 9.40666Z" stroke="#F3F5FA" stroke-linecap="round" stroke-linejoin="round"/>
<path d="M7.16708 9.40666V11.24C7.16708 12.3867 6.1004 13.2 4.78707 13.2C3.47374 13.2 2.40039 12.38 2.40039 11.24V9.40666C2.40039 8.25999 3.46707 7.33333 4.78707 7.33333C5.44707 7.33333 6.04042 7.56666 6.47376 7.93999C6.90042 8.31333 7.16708 8.83333 7.16708 9.40666Z" stroke="#F3F5FA" stroke-linecap="round" stroke-linejoin="round"/>
<path d="M14.6665 7.31327V8.68667C14.6665 9.05333 14.3732 9.35327 13.9998 9.3666H12.6931C11.9731 9.3666 11.3132 8.83993 11.2532 8.11993C11.2132 7.69993 11.3731 7.3066 11.6531 7.03327C11.8998 6.77993 12.2398 6.6333 12.6132 6.6333H13.9998C14.3732 6.64663 14.6665 6.9466 14.6665 7.31327Z" stroke="#F3F5FA" stroke-linecap="round" stroke-linejoin="round"/>
<path d="M1.33301 7V5.66666C1.33301 3.85333 2.42634 2.58666 4.12634 2.37333C4.29967 2.34666 4.47967 2.33333 4.66634 2.33333H10.6663C10.8397 2.33333 11.0063 2.33999 11.1663 2.36665C12.8863 2.56665 13.9997 3.83999 13.9997 5.66666V6.63334H12.613C12.2397 6.63334 11.8997 6.78 11.653 7.03333C11.373 7.30666 11.213 7.7 11.253 8.12C11.313 8.84 11.973 9.36666 12.693 9.36666H13.9997V10.3333C13.9997 12.3333 12.6663 13.6667 10.6663 13.6667H8.99967" stroke="#F3F5FA" stroke-linecap="round" stroke-linejoin="round"/>
</svg>
