<svg width="242" height="48" viewBox="0 0 242 48" fill="none" xmlns="http://www.w3.org/2000/svg">
    <g clip-path="url(#clip0_4120_54398)">
        <path d="M226.642 35.3202V31.3202V25.1904L221.993 20.0377L221.985 20.0225V20.0301V31.3202V39.9767H239.306L241.978 35.3507V35.3202H226.642Z" fill="white"/>
        <path d="M220.061 33.6645C220.061 35.466 219.428 36.9775 218.16 38.1836C216.893 39.382 215.351 39.9851 213.542 39.9851H201.817C200.008 39.9851 198.466 39.382 197.199 38.1836C195.931 36.9775 195.298 35.4736 195.298 33.6645V26.3362C195.298 24.5347 195.931 23.0233 197.199 21.8172C198.466 20.6187 200.008 20.0156 201.817 20.0156H213.542C215.351 20.0156 216.893 20.6187 218.16 21.8172C219.428 23.0233 220.061 24.5271 220.061 26.3362V33.6645ZM215.405 26.3439C215.405 25.237 214.786 24.6797 213.542 24.6797H201.817C200.573 24.6797 199.954 25.237 199.954 26.3439V33.6568C199.954 34.7637 200.573 35.321 201.817 35.321H213.542C214.786 35.321 215.405 34.7637 215.405 33.6568V26.3439Z" fill="white"/>
        <path d="M193.084 35.3202H180.328C179.313 35.3202 178.466 34.4728 178.466 33.4576V26.5415C178.466 25.5263 179.313 24.6789 180.328 24.6789H193.084L195.771 20.0225H180.321C176.733 20.0225 173.802 22.9538 173.802 26.5415V33.4499C173.802 37.0377 176.733 39.969 180.321 39.969H195.771L193.084 35.3202Z" fill="white"/>
        <path d="M172.123 33.6645C172.123 35.466 171.489 36.9775 170.222 38.1836C168.955 39.382 167.413 39.9851 165.604 39.9851H153.878C152.069 39.9851 150.527 39.382 149.26 38.1836C147.993 36.9775 147.359 35.4736 147.359 33.6645V26.3362C147.359 24.5347 147.993 23.0233 149.26 21.8172C150.527 20.6187 152.069 20.0156 153.878 20.0156H165.604C167.413 20.0156 168.955 20.6187 170.222 21.8172C171.489 23.0233 172.123 24.5271 172.123 26.3362V33.6645ZM167.466 26.3439C167.466 25.237 166.848 24.6797 165.604 24.6797H153.878C152.634 24.6797 152.016 25.237 152.016 26.3439V33.6568C152.016 34.7637 152.634 35.321 153.878 35.321H165.604C166.848 35.321 167.466 34.7637 167.466 33.6568V26.3439Z" fill="white"/>
        <path d="M125.504 20.0225L128.191 24.6789H134.504V39.969H139.16V24.6789H145.473L148.16 20.0225H125.504Z" fill="white"/>
        <path d="M126.298 33.6645C126.298 35.466 125.664 36.9775 124.397 38.1836C123.13 39.382 121.588 39.9851 119.778 39.9851H108.053C106.244 39.9851 104.702 39.382 103.435 38.1836C102.168 36.9775 101.534 35.4736 101.534 33.6645V26.3362C101.534 24.5347 102.168 23.0233 103.435 21.8172C104.702 20.6187 106.244 20.0156 108.053 20.0156H119.778C121.588 20.0156 123.13 20.6187 124.397 21.8172C125.664 23.0233 126.298 24.5271 126.298 26.3362V33.6645ZM121.641 26.3439C121.641 25.237 121.023 24.6797 119.778 24.6797H108.053C106.809 24.6797 106.191 25.237 106.191 26.3439V33.6568C106.191 34.7637 106.809 35.321 108.053 35.321H119.778C121.023 35.321 121.641 34.7637 121.641 33.6568V26.3439Z" fill="white"/>
        <path d="M93.6111 20.0225H75.3516L78.0386 24.6789H93.6111C94.7485 24.6789 95.6874 25.6255 95.6874 26.7553C95.6874 27.8927 94.7409 28.8316 93.6111 28.8316H80.3974L83.0844 33.4881L86.8248 39.969H92.2065L88.4661 33.4881H93.6111C97.3134 33.4881 100.344 30.4576 100.344 26.7553C100.344 23.053 97.3134 20.0225 93.6111 20.0225Z" fill="white"/>
        <path d="M69.6258 20.0225H58.3738H51.3738V24.6789H54.0609H58.3738H69.6258C70.7632 24.6789 71.7021 25.6255 71.7021 26.7553C71.7021 27.8927 70.7555 28.8316 69.6258 28.8316H51.3662V39.969H56.0227V33.4881H69.6258C73.328 33.4881 76.3586 30.4576 76.3586 26.7553C76.3662 23.053 73.3357 20.0225 69.6258 20.0225Z" fill="white"/>
        <path d="M36.1606 39.9767H41.901L34.0384 30.0835L41.9087 20.0225H36.1606L30.2216 27.4576L24.2903 20.0225H18.5117L26.4125 30.0835L18.5194 39.9767H24.2903L30.2216 32.6026L36.1606 39.9767Z" fill="#518DF9"/>
        <path d="M19.4967 38.3354V20.0225H14.4967L13.2524 21.1446L9.35932 24.6484L0.0234375 33.0377V36.8393H3.03107H14.7334V39.969H19.5044L19.4967 38.3354ZM7.9471 32.1904L14.7257 26.0835V32.1904H7.9471Z" fill="#518DF9"/>
    </g>
    <defs>
        <clipPath id="clip0_4120_54398">
            <rect width="241.985" height="20" fill="white" transform="translate(0.0078125 20)"/>
        </clipPath>
    </defs>
</svg>
