<svg width="40" height="40" viewBox="0 0 40 40" fill="none" xmlns="http://www.w3.org/2000/svg">
    <circle cx="20" cy="20" r="20" fill="white"/>
    <path d="M27.3217 29.9933C25.9068 31.3093 24.3457 31.1041 22.8577 30.4836C21.2757 29.8506 19.8295 29.8106 18.1587 30.4836C16.0781 31.3443 14.9739 31.0941 13.7208 29.9933C6.64623 23.0129 7.69045 12.3799 15.7309 11.9796C17.681 12.0796 19.0463 13.0128 20.195 13.0904C21.9023 12.7576 23.5365 11.8044 25.3638 11.9295C27.5593 12.0996 29.2013 12.9303 30.2978 14.4239C25.7815 17.0259 26.8518 22.7302 31 24.3314C30.1698 26.4205 29.1047 28.4846 27.3191 30.0108L27.3217 29.9933ZM20.0383 11.9045C19.8269 8.80213 22.4505 6.25019 25.4683 6C25.8833 9.57772 22.0745 12.2548 20.0383 11.9045Z"
          fill="#131313"/>
</svg>
