<svg width="40" height="40" viewBox="0 0 40 40" fill="none" xmlns="http://www.w3.org/2000/svg">
    <circle cx="20" cy="20" r="20" fill="url(#paint0_linear)"/>
    <path d="M28.6186 27.6082L21.8557 11.2577C21.4742 10.4124 20.9072 10 20.1598 10H19.5619C18.8144 10 18.2474 10.4124 17.866 11.2577L14.9227 18.3814H12.6959C12.0309 18.3866 11.4897 18.9227 11.4845 19.5928V19.6082C11.4897 20.2732 12.0309 20.8144 12.6959 20.8196H13.8918L11.0825 27.6082C11.0309 27.7577 11 27.9124 11 28.0722C11 28.4536 11.1186 28.7526 11.3299 28.9845C11.5412 29.2165 11.8454 29.3299 12.2268 29.3299C12.4794 29.3247 12.7216 29.2474 12.9227 29.0979C13.1392 28.9485 13.2887 28.732 13.4072 28.4845L16.5 20.8144H18.6443C19.3093 20.8093 19.8505 20.2732 19.8557 19.6031V19.5722C19.8505 18.9072 19.3093 18.366 18.6443 18.3608H17.5L19.8608 12.4794L26.2938 28.4794C26.4124 28.7268 26.5619 28.9433 26.7783 29.0928C26.9794 29.2423 27.2268 29.3196 27.4742 29.3247C27.8557 29.3247 28.1546 29.2113 28.3711 28.9794C28.5876 28.7474 28.701 28.4485 28.701 28.067C28.7062 27.9124 28.6804 27.7526 28.6186 27.6082Z"
          fill="white"/>
    <defs>
        <linearGradient id="paint0_linear" x1="34.9117" y1="7.45291" x2="5.15171" y2="32.4929"
                        gradientUnits="userSpaceOnUse">
            <stop stop-color="#B6509E"/>
            <stop offset="1" stop-color="#2EBAC6"/>
        </linearGradient>
    </defs>
</svg>
