<svg width="40" height="40" viewBox="0 0 40 40" fill="none" xmlns="http://www.w3.org/2000/svg">
    <circle cx="20" cy="20" r="20" fill="black"/>
    <path d="M11.9894 30L15.3274 24.2399L18.6655 18.5L21.9832 12.7399L22.5327 11.8272L22.777 12.7399L23.7947 16.5326L22.6549 18.5L19.3168 24.2399L15.9991 30H19.9885L23.3265 24.2399L25.0566 21.2584L25.8708 24.2399L27.4177 30H31L29.4531 24.2399L27.9062 18.5L27.4991 17.0194L29.9823 12.7399H26.3593L26.2372 12.3139L24.9752 7.60847L24.8124 7H21.3319L21.2504 7.12169L17.9938 12.7399L14.6558 18.5L11.3381 24.2399L8 30H11.9894Z"
          fill="white"/>
</svg>
