<svg width="40" height="40" viewBox="0 0 40 40" fill="none" xmlns="http://www.w3.org/2000/svg">
    <circle cx="20" cy="20" r="20" fill="#CE2540"/>
    <path d="M35.9123 23.2041C35.8538 23.1067 35.7758 23.0189 35.6685 22.9702C35.5711 22.9117 35.4541 22.8824 35.3468 22.8824C35.2396 22.8824 35.1226 22.9117 35.0251 22.9702C34.9277 23.0287 34.8399 23.1067 34.7814 23.2041C34.7229 23.3016 34.6937 23.4186 34.6937 23.5258C34.6937 23.6428 34.7229 23.7501 34.7814 23.8573C34.8399 23.9548 34.9179 24.0425 35.0251 24.0913C35.1226 24.1497 35.2299 24.179 35.3468 24.179C35.4638 24.179 35.5711 24.1497 35.6685 24.0913C35.766 24.0328 35.844 23.9548 35.9123 23.8573C35.9707 23.7598 36 23.6428 36 23.5258C36 23.4186 35.9707 23.3016 35.9123 23.2041ZM35.8245 23.8086C35.7758 23.8963 35.7075 23.9645 35.6198 24.0035C35.5321 24.0523 35.4443 24.0718 35.3468 24.0718C35.2494 24.0718 35.1616 24.0523 35.0739 24.0035C34.9862 23.9548 34.9179 23.8865 34.8692 23.8086C34.8204 23.7208 34.7912 23.6331 34.7912 23.5258C34.7912 23.4284 34.8204 23.3309 34.8692 23.2529C34.9179 23.1652 34.9862 23.0969 35.0739 23.0482C35.1616 22.9994 35.2494 22.9702 35.3468 22.9702C35.4443 22.9702 35.5321 22.9994 35.6198 23.0482C35.7075 23.0969 35.7758 23.1652 35.8245 23.2529C35.8733 23.3406 35.9025 23.4284 35.9025 23.5258C35.8928 23.6331 35.8733 23.7208 35.8245 23.8086Z"
          fill="white"/>
    <path d="M12.7011 16.2144C12.6329 16.2047 10.9562 15.9707 9.01621 16.6531C7.21275 17.2868 4.79512 18.827 3.65455 22.6289C3.45958 23.2723 3.65455 24.14 4.99009 24.023H9.97156C10.5272 24.023 10.9854 23.5745 10.9854 23.0091C10.9854 22.4535 10.5272 21.9953 9.97156 21.9953H6.05268C7.53445 18.8368 10.1665 18.2616 11.5411 18.1934V23.0481C11.5411 23.6038 11.9895 24.062 12.5549 24.062C13.1106 24.062 13.5688 23.6135 13.5688 23.0481V17.2185C13.5688 16.7116 13.1983 16.2827 12.7011 16.2144Z"
          fill="white"/>
    <path d="M22.9273 16.2048C21.66 16.234 20.8314 16.6435 20.2368 17.2869C19.7006 16.6922 18.7842 16.195 17.5462 16.2048C16.1619 16.1073 13.7638 17.3551 13.9392 19.607V23.0482C13.9392 23.6039 14.3877 24.0621 14.9531 24.0621C15.5185 24.0621 15.9669 23.6136 15.9669 23.0482V19.6167C15.9767 18.4274 17.2537 18.2422 17.5462 18.2325C18.989 18.1935 19.2034 19.4413 19.2034 19.6167V23.0482C19.2034 23.6039 19.6811 24.0621 20.2368 24.0621C20.7924 24.0621 21.2701 23.6136 21.2701 23.0482V19.6167C21.3286 18.3494 22.5277 18.213 22.9273 18.2325C23.1613 18.252 24.4384 18.3202 24.5066 19.6167V23.0482C24.5066 23.6039 24.955 24.0621 25.5204 24.0621C26.0761 24.0621 26.5343 23.6136 26.5343 23.0482V19.607C26.5733 19.412 26.4173 16.312 22.9273 16.2048Z"
          fill="white"/>
    <path d="M34.5474 20.767C34.0503 20.5135 33.4361 20.7085 33.1827 21.2154C32.8025 21.9563 32.0518 22.4145 31.2232 22.4145C30.6383 22.4145 30.0826 22.1903 29.6732 21.7711C29.254 21.3519 29.0298 20.806 29.0298 20.2211C29.0298 19.6362 29.254 19.0805 29.6732 18.6711C30.0924 18.2519 30.6383 18.0277 31.2232 18.0277C32.1103 18.0277 32.9194 18.5249 33.2314 19.256C33.4556 19.7727 34.0503 20.0066 34.5669 19.7824C35.0836 19.5582 35.3176 18.9635 35.0934 18.4469C34.4597 16.9846 32.9 16 31.2232 16C28.8933 16 27.0021 17.8912 27.0021 20.2211C27.0021 21.3519 27.4408 22.4048 28.2402 23.2041C29.0396 24.0035 30.0924 24.4422 31.2232 24.4422C32.822 24.4422 34.2647 23.5551 34.9861 22.1318C35.2493 21.6249 35.0446 21.0107 34.5474 20.767Z"
          fill="white"/>
    <path d="M35.5321 23.6916C35.5028 23.6331 35.4736 23.5941 35.4444 23.5747C35.4931 23.5552 35.5418 23.5162 35.5613 23.4772C35.5906 23.4382 35.6003 23.3894 35.6003 23.3504C35.6003 23.3115 35.5906 23.2725 35.5711 23.2432C35.5516 23.2042 35.5223 23.1847 35.4931 23.1652C35.4639 23.1457 35.4151 23.136 35.3469 23.136H35.0934V23.9353H35.2201V23.5942H35.3176C35.3274 23.5942 35.3566 23.6234 35.3859 23.6721L35.4151 23.7209L35.5223 23.9256H35.6686L35.5321 23.6916ZM35.3079 23.4967H35.2201V23.2237H35.3176C35.3664 23.2237 35.3956 23.2335 35.4151 23.2432C35.4346 23.253 35.4444 23.2725 35.4541 23.292C35.4639 23.3115 35.4639 23.331 35.4639 23.3504C35.4639 23.3894 35.4541 23.4187 35.4249 23.4479C35.4054 23.4869 35.3664 23.4967 35.3079 23.4967Z"
          fill="white"/>
</svg>
