<svg width="40" height="40" viewBox="0 0 40 40" fill="none" xmlns="http://www.w3.org/2000/svg">
    <circle cx="20" cy="20" r="20" fill="white"/>
    <path d="M29.018 28.3277C18.8259 33.1783 12.5006 29.1199 8.45153 26.655C8.20098 26.4996 7.77513 26.6913 8.14461 27.1157C9.49355 28.7513 13.9143 32.6936 19.6847 32.6936C25.459 32.6936 28.8942 29.5429 29.324 28.9933C29.7508 28.4483 29.4493 28.1477 29.0179 28.3277H29.018ZM31.8805 26.7469C31.6068 26.3905 30.2162 26.324 29.341 26.4316C28.4645 26.536 27.1489 27.0716 27.2633 27.3933C27.322 27.5138 27.4418 27.4597 28.0439 27.4056C28.6477 27.3453 30.3391 27.1319 30.6915 27.5926C31.0456 28.0565 30.1521 30.2665 29.9889 30.6229C29.8312 30.9793 30.0491 31.0712 30.3453 30.8338C30.6374 30.5965 31.1662 29.982 31.521 29.1124C31.8735 28.238 32.0884 27.0183 31.8804 26.7469H31.8805Z"
          fill="#FF9900"/>
    <path fill-rule="evenodd" clip-rule="evenodd"
          d="M22.165 18.4301C22.165 19.7028 22.1971 20.7642 21.5538 21.8944C21.0346 22.8135 20.2122 23.3786 19.2932 23.3786C18.0388 23.3786 17.3083 22.4229 17.3083 21.0123C17.3083 18.2279 19.8032 17.7225 22.165 17.7225V18.4301ZM25.4593 26.3928C25.2434 26.5857 24.9309 26.5996 24.6874 26.4708C23.6031 25.5703 23.4101 25.1522 22.8128 24.293C21.0209 26.1217 19.7527 26.6684 17.4278 26.6684C14.6801 26.6684 12.5389 24.9729 12.5389 21.5774C12.5389 18.9263 13.9772 17.1206 16.0217 16.2384C17.7953 15.4572 20.2719 15.3194 22.165 15.1035V14.6808C22.165 13.9042 22.2246 12.9853 21.7698 12.3145C21.37 11.7126 20.6073 11.4645 19.9364 11.4645C18.6913 11.4645 17.5794 12.1031 17.3083 13.4264C17.2531 13.7205 17.0372 14.01 16.7431 14.0237L13.5727 13.6838C13.3063 13.6239 13.0123 13.4081 13.0858 12.9991C13.8163 9.15795 17.2852 8 20.3912 8C21.981 8 24.0578 8.42275 25.3122 9.62661C26.902 11.1107 26.7504 13.091 26.7504 15.2459V20.3369C26.7504 21.8669 27.3845 22.5377 27.9817 23.3648C28.1931 23.6589 28.2391 24.0128 27.9725 24.2332C27.3063 24.7891 26.1208 25.823 25.4685 26.402L25.4592 26.3928"
          fill="black"/>
    <path d="M29.018 28.3277C18.8259 33.1783 12.5006 29.1199 8.45153 26.655C8.20098 26.4996 7.77513 26.6913 8.14461 27.1157C9.49355 28.7513 13.9143 32.6936 19.6847 32.6936C25.459 32.6936 28.8942 29.5429 29.324 28.9933C29.7508 28.4483 29.4493 28.1477 29.0179 28.3277H29.018ZM31.8805 26.7469C31.6068 26.3905 30.2162 26.324 29.341 26.4316C28.4645 26.536 27.1489 27.0716 27.2633 27.3933C27.322 27.5138 27.4418 27.4597 28.0439 27.4056C28.6477 27.3453 30.3391 27.1319 30.6915 27.5926C31.0456 28.0565 30.1521 30.2665 29.9889 30.6229C29.8312 30.9793 30.0491 31.0712 30.3453 30.8338C30.6374 30.5965 31.1662 29.982 31.521 29.1124C31.8735 28.238 32.0884 27.0183 31.8804 26.7469H31.8805Z"
          fill="#FF9900"/>
    <path fill-rule="evenodd" clip-rule="evenodd"
          d="M22.165 18.4301C22.165 19.7028 22.1971 20.7642 21.5538 21.8944C21.0346 22.8135 20.2122 23.3786 19.2932 23.3786C18.0388 23.3786 17.3083 22.4229 17.3083 21.0123C17.3083 18.2279 19.8032 17.7225 22.165 17.7225V18.4301ZM25.4593 26.3928C25.2434 26.5857 24.9309 26.5996 24.6874 26.4708C23.6031 25.5703 23.4101 25.1522 22.8128 24.293C21.0209 26.1217 19.7527 26.6684 17.4278 26.6684C14.6801 26.6684 12.5389 24.9729 12.5389 21.5774C12.5389 18.9263 13.9772 17.1206 16.0217 16.2384C17.7953 15.4572 20.2719 15.3194 22.165 15.1035V14.6808C22.165 13.9042 22.2246 12.9853 21.7698 12.3145C21.37 11.7126 20.6073 11.4645 19.9364 11.4645C18.6913 11.4645 17.5794 12.1031 17.3083 13.4264C17.2531 13.7205 17.0372 14.01 16.7431 14.0237L13.5727 13.6838C13.3063 13.6239 13.0123 13.4081 13.0858 12.9991C13.8163 9.15795 17.2852 8 20.3912 8C21.981 8 24.0578 8.42275 25.3122 9.62661C26.902 11.1107 26.7504 13.091 26.7504 15.2459V20.3369C26.7504 21.8669 27.3845 22.5377 27.9817 23.3648C28.1931 23.6589 28.2391 24.0128 27.9725 24.2332C27.3063 24.7891 26.1208 25.823 25.4685 26.402L25.4592 26.3928"
          fill="black"/>
</svg>
