<svg width="40" height="40" viewBox="0 0 40 40" fill="none" xmlns="http://www.w3.org/2000/svg">
    <mask id="mask0_4179_1370" style="mask-type:alpha" maskUnits="userSpaceOnUse" x="0" y="0" width="40" height="40">
        <path d="M40 20C40 31.0457 31.0457 40 20 40C8.9543 40 0 31.0457 0 20C0 8.9543 8.9543 0 20 0C31.0457 0 40 8.9543 40 20Z"
              fill="black"/>
    </mask>
    <g mask="url(#mask0_4179_1370)">
        <path d="M34.6197 34.7135C31.589 38.0976 27.704 39.8279 23.3338 40.6676C20.3251 41.2683 17.2115 41.0521 14.3135 40.041C14.7247 39.5807 15.28 39.7342 15.7844 39.7193C16.6512 39.6958 17.5202 39.7193 18.3892 39.7193C18.8802 39.757 19.3739 39.6991 19.8431 39.5488C22.0261 38.7816 24.3448 38.9968 26.5765 38.592C29.7006 37.8354 31.714 35.6916 33.3905 33.1046C34.4152 31.5757 35.0985 29.8418 35.3933 28.0221C35.3531 25.629 37.1588 24.5635 38.7314 23.3339C39.3376 23.7792 39.0981 24.4718 39.2274 25.0578C39.2257 25.1826 39.198 25.3057 39.1461 25.4191C39.0943 25.5325 39.0195 25.6337 38.9264 25.7163C37.7883 26.6242 37.4937 27.9028 37.2309 29.2517C36.8844 31.2816 35.9799 33.1735 34.6197 34.7135Z"
              fill="#0249D8"/>
        <path d="M24.2706 -0.45903C25.839 -0.320514 27.2569 0.308137 28.6854 0.906953C28.5412 1.412 28.1025 1.33316 27.7486 1.33316C26.922 1.36938 26.0933 1.33316 25.2667 1.34808C23.1791 1.47594 21.1423 1.79985 19.3111 2.91437C19.0766 3.07233 18.809 3.1737 18.5291 3.21058C17.7788 3.23616 17.1154 2.8611 16.4096 2.73111C15.2778 2.51422 14.1107 2.57267 13.0058 2.90158C11.9915 3.11156 11.03 3.52635 10.1797 4.12085C9.32943 4.71535 8.608 5.47719 8.0591 6.36023C7.89613 6.67104 7.69145 6.95785 7.45082 7.21264C6.81499 7.63884 6.38052 8.50403 5.39498 8.15028C5.0474 7.29788 5.67686 6.6948 5.94391 6.00222C6.10861 5.6127 6.32229 5.24602 6.57973 4.91114C6.76624 4.63411 6.97183 4.36773 7.13927 4.07578C7.18896 3.99221 7.24569 3.91307 7.30882 3.83924C7.50129 3.61391 7.71415 3.40702 7.94465 3.22124C8.03366 3.16157 8.12268 3.10404 8.20745 3.04011C10.4668 1.12219 13.1097 0.418951 16.0154 0.561729C17.6495 1.10514 19.1501 0.710896 20.6782 0.0311013C21.7974 -0.498667 23.0515 -0.669767 24.2706 -0.45903Z"
              fill="#014EEB"/>
        <path d="M7.72213 36.7955C5.72352 35.5301 4.05674 33.8001 2.86229 31.7514C1.74959 29.8761 0.865786 27.9156 0.677157 25.7014C0.583902 24.2268 0.768292 22.8011 1.43167 21.465C1.66269 21.0004 1.828 20.457 2.46171 20.3654C3.39214 20.8576 3.09754 21.7356 3.13781 22.5113C2.76691 23.9625 2.48926 25.4159 3.02759 26.8905C3.35399 28.557 4.17845 30.021 4.9033 31.5255C5.53912 32.6443 6.31696 33.6437 7.41058 34.3576C8.07608 34.9969 9.0489 35.1035 9.75255 35.6853C10.0132 36.0582 10.3439 36.3714 10.6257 36.7252C10.8186 36.9681 11.2022 37.2217 10.7911 37.5989C9.62961 37.8248 8.67163 37.3432 7.72213 36.7955Z"
              fill="#0249DA"/>
        <path d="M-0.755616 18.2939C-0.740828 18.2287 -0.719528 18.1652 -0.692035 18.1043C0.537232 15.741 0.791571 12.9621 2.41505 10.7565C2.79019 10.2493 2.76475 9.5525 2.9004 8.9345C3.04696 8.24656 3.31623 7.59099 3.69518 6.99954C4.64468 5.54619 5.89938 4.39757 7.28337 3.37681C7.318 3.34204 7.36414 3.3213 7.413 3.31855C7.46186 3.3158 7.51003 3.33123 7.5483 3.36189C7.65003 3.65171 7.41901 3.82219 7.30668 4.03529V4.02464C7.11593 4.32085 6.84676 4.56166 6.67085 4.87705C5.63021 6.36876 5.18726 8.07357 4.84603 9.80183C4.66128 10.8108 4.29729 11.7781 3.77148 12.6574C3.01272 13.8976 2.42565 15.2146 2.25609 16.7063C1.69657 18.5667 0.227797 19.8645 -0.651766 21.5821C-0.810723 20.4377 -0.916692 19.3595 -0.755616 18.2939Z"
              fill="#024CE4"/>
        <path d="M29.9994 1.67193C34.0793 3.73902 36.9003 7.01227 38.8692 11.0889C39.2486 11.8753 39.6746 12.6573 39.717 13.5673C39.717 14.1235 39.8272 14.7074 39.3376 15.1442C38.3542 15.2337 38.3415 14.2577 37.854 13.791C37.7141 13.3144 37.6744 12.8136 37.7374 12.3206C37.801 11.2402 37.3729 10.3217 36.8664 9.42245C36.4802 8.85072 35.9871 8.35999 35.4146 7.97762C34.9871 7.64089 34.602 7.25303 34.2679 6.82261C33.2674 5.39314 31.8454 4.31596 30.2029 3.74328C29.2407 3.33626 28.217 3.25102 27.1933 3.15512C26.2594 3.04168 25.3457 2.79856 24.4783 2.43271C24.0226 2.25796 23.4186 2.18125 23.3932 1.48653C24.8365 1.09443 26.3095 1.32032 27.7698 1.26065C28.5365 1.18748 29.3084 1.32987 29.9994 1.67193Z"
              fill="#0150EF"/>
        <path d="M40.0582 14.2558L40.6114 17.0517C40.8233 19.2765 39.9756 21.1773 38.7548 22.944C38.5789 23.1975 38.386 23.5833 37.9282 23.3702C37.5531 22.7308 37.818 21.9829 37.6315 21.3052C38.3711 19.0143 38.8883 16.6553 39.6407 14.3645C39.7043 14.1641 39.8781 14.1237 40.0582 14.2558Z"
              fill="#024CE1"/>
        <path d="M11.607 0.819631C15.1549 -0.861744 18.8873 -1.29008 22.7489 -0.823384C22.7934 -0.352428 22.4267 -0.350302 22.1321 -0.294895C21.543 -0.218288 20.9703 -0.0455313 20.4366 0.216555C19.7948 0.601382 19.078 0.84247 18.3352 0.923379C17.5923 1.00429 16.8408 0.923107 16.132 0.685375C14.9303 0.517025 13.7498 0.685377 12.5777 0.919789C12.2386 0.98585 11.9016 1.14568 11.607 0.819631Z"
              fill="#0453F2"/>
        <path d="M40.3443 24.2608C39.6259 27.809 38.1592 30.9821 35.6816 33.6544C35.3997 33.2154 35.7876 32.9213 35.9423 32.6059C36.6909 31.1569 37.1822 29.5877 37.3941 27.9688C37.4497 27.328 37.7406 26.7308 38.2101 26.2938C38.713 25.8502 39.1568 25.3431 39.5305 24.7851C39.7064 24.5038 39.8929 24.15 40.3443 24.2608Z"
              fill="#044DE0"/>
        <path d="M13.417 39.7876C11.7215 39.3912 10.2379 38.5516 8.77335 37.6459C8.79878 37.5457 8.81785 37.388 8.92806 37.4051C10.8144 37.7077 12.724 37.7162 14.6208 37.8952C14.6893 37.9092 14.7541 37.9375 14.8111 37.9783C14.868 38.019 14.9159 38.0713 14.9515 38.1318C14.8667 38.6176 14.5785 38.4919 14.2817 38.4429C15.2567 38.737 16.2613 39.0012 17.2659 39.2697C17.5902 39.3571 17.9844 39.291 18.1688 39.6959C18.1613 39.7569 18.1312 39.8129 18.0844 39.8524C18.0376 39.8919 17.9776 39.9122 17.9165 39.909C16.4118 39.8302 14.9091 40.0475 13.417 39.7876Z"
              fill="#044BD9"/>
        <path d="M1.15187 28.7914C0.0434126 26.7904 -0.48433 24.621 -0.694153 22.36C-0.435583 21.4181 -0.270269 20.4208 0.668638 19.8561C1.59059 20.2162 1.09252 21.1006 1.34474 21.7058C0.988672 23.1229 0.509689 24.5251 0.836081 26.0232C0.836081 26.6135 1.07134 27.1591 1.17943 27.7281C1.24513 28.0818 1.47615 28.4462 1.15187 28.7914Z"
              fill="#034CE3"/>
        <path d="M-0.713196 17.4289C-0.274474 13.8872 0.906039 10.6373 3.06786 7.77539C3.20778 8.85271 2.99024 9.94634 2.44899 10.8867C1.52492 12.5233 0.715295 14.1727 0.329559 16.0288C0.217229 16.6149 0.0307232 17.2627 -0.713196 17.4289Z"
              fill="#0550EC"/>
        <path d="M39.0896 25.1388C38.6446 24.6359 39.1257 23.8858 38.6297 23.3978C38.5991 23.2953 38.6051 23.1852 38.6467 23.0867C39.4986 21.7098 40.1851 20.2362 40.6919 18.6968C40.8729 19.676 40.9164 20.676 40.8212 21.6674L40.5181 23.3722C40.1833 24.0904 39.895 24.8298 39.0896 25.1388Z"
              fill="#044EE2"/>
        <path d="M40.8148 21.6672V18.9438C40.2701 20.5506 39.4753 21.9869 38.6233 23.3976C37.9155 24.2651 37.1409 25.0753 36.3068 25.8206C35.6095 26.4343 35.743 27.2889 35.6497 28.0773C35.4505 28.1072 35.3636 27.9751 35.2937 27.8216C35.0436 26.7923 35.3615 25.9463 36.1245 25.2516C36.7603 24.6635 37.2753 23.924 38.032 23.4573C39.5961 21.6076 40.3125 19.4084 40.6092 17.0493C40.9716 18.5773 41.1666 20.1095 40.8148 21.6672Z"
              fill="#8A70CB"/>
        <path d="M14.9706 38.2917C13.2114 37.972 11.4078 38.0658 9.65292 37.6929C9.37952 37.6332 9.07856 37.3263 8.77337 37.646C8.34289 37.4755 7.97356 37.1784 7.71365 36.7936C8.79032 36.93 9.77374 37.5416 10.8928 37.4329C11.5032 37.2006 12.139 37.2986 12.7409 37.3903C13.9511 37.5757 15.1613 37.5352 16.3736 37.5671C17.5753 37.6929 18.7622 37.256 19.9767 37.4755C20.1504 37.5778 20.3221 37.6886 20.2013 37.9315C18.4952 38.5495 16.7657 38.9246 14.9706 38.2917Z"
              fill="#886ADC"/>
        <path d="M39.0896 25.1389C39.7254 24.6892 39.9374 23.8922 40.5181 23.3829C40.4948 23.6791 40.6198 24.0052 40.3507 24.2545C39.5665 25.1069 38.7908 25.9593 37.996 26.8117C37.5721 27.2678 37.6018 27.8495 37.5255 28.3972C37.2648 30.2746 36.3746 31.9262 35.6964 33.6545C35.4845 34.1467 35.1899 34.5751 34.6367 34.72C34.6113 34.3215 34.9144 34.0806 35.0966 33.793C36.2093 32.0434 37.0041 30.1702 37.1821 28.0903C37.2839 26.7201 38.4178 26.1021 39.0896 25.1389Z"
              fill="#8974E9"/>
        <path d="M-0.713196 17.4289C-0.102801 16.9452 0.1706 16.2718 0.314721 15.5344C0.552605 14.1797 1.0648 12.8886 1.81952 11.7412C2.6461 10.5244 2.79869 9.1435 3.06785 7.77539C3.10389 7.37475 3.43452 7.21492 3.70368 6.99756C3.16959 8.86646 2.96612 10.8334 1.78136 12.4977C1.19428 13.3224 0.918754 14.3325 0.721648 15.3426C0.536833 16.3858 0.0477256 17.3501 -0.683521 18.113C-0.700476 17.8807 -0.706838 17.6548 -0.713196 17.4289Z"
              fill="#69A8EA"/>
        <path d="M11.607 0.819602C12.7452 0.687478 13.8812 0.536174 15.0235 0.438147C15.4262 0.40192 15.8713 0.323072 16.2422 0.604367C16.2168 0.734359 16.0854 0.749276 16.0048 0.817469C13.0906 0.710918 10.4329 1.40137 8.18414 3.36404C7.80264 2.98898 8.35582 2.82702 8.37065 2.54146C9.36678 1.80626 10.3947 1.13499 11.607 0.819602Z"
              fill="#5B9FF1"/>
        <path d="M40.0582 14.2556C39.4096 15.0313 39.3651 16.052 39.1405 16.9535C38.7717 18.426 38.4008 19.8793 37.7777 21.2624C37.5658 22.0679 37.3284 22.8606 36.2941 22.9416C36.0589 22.3023 36.6819 22.021 36.8515 21.5479C37.6802 20.3354 38.0914 18.9673 38.3499 17.5395C38.4814 16.6709 38.791 15.8392 39.2592 15.0973C39.5517 14.6306 39.3185 14.0063 39.7127 13.5673C39.82 13.6466 39.9073 13.7503 39.9673 13.8699C40.0273 13.9895 40.0584 14.1216 40.0582 14.2556Z"
              fill="#896EE4"/>
        <path d="M16.0048 0.819658L16.2422 0.606556C18.6689 1.32471 20.6294 -0.122255 22.7488 -0.82123C23.3105 -0.932043 23.781 -0.655008 24.2706 -0.458954C22.4458 -0.171266 20.6464 0.167567 18.972 1.01358C17.9865 1.49732 16.9925 0.898505 16.0048 0.819658Z"
              fill="#6EA0E0"/>
        <path d="M0.49696 19.984C-0.0795239 20.6851 -0.270271 21.5822 -0.694157 22.3601C-1.07992 21.0352 -1.10115 19.6301 -0.755615 18.2941C-0.755615 19.28 -0.755615 20.266 -0.755615 21.2519C0.0243338 19.5919 1.46131 18.3495 2.04415 16.5999C2.24338 16.5679 2.3218 16.6958 2.37478 16.8535C2.1798 18.1577 1.41043 19.1145 0.49696 19.984Z"
              fill="#80A9D6"/>
        <path d="M1.15187 28.7914C1.22181 27.8239 0.636848 26.9587 0.727984 25.9891C0.63261 25.7632 0.74282 25.7228 0.939927 25.759C1.15187 27.4894 1.75167 29.1004 2.48288 30.6603C2.64395 31.0056 2.74144 31.3806 2.87072 31.7429C2.47439 31.4019 2.1268 31.0311 2.02295 30.4962C1.89367 30.2448 1.85763 29.9358 1.56939 29.7866C1.30915 29.5205 1.1598 29.1645 1.15187 28.7914Z"
              fill="#989AB8"/>
        <path d="M29.9994 1.67186L27.827 1.42466C27.1064 1.28615 26.3752 1.40761 25.6525 1.35647C25.4405 1.34155 25.129 1.49925 25.1141 1.0837C26.2968 0.883384 27.5091 1.25205 28.6854 0.894043C29.2025 1.03256 29.5946 1.36073 29.9994 1.67186Z"
              fill="#7992CA"/>
        <path d="M13.417 39.7873H18.0797C18.3065 39.6787 18.5036 39.636 18.5036 40.0004L14.305 40.0559C13.9956 40.0303 13.6671 40.0431 13.417 39.7873Z"
              fill="#A374B3"/>
        <path d="M8.37062 2.53735C8.63131 2.88684 7.97641 3.02536 8.18411 3.35993C8.12976 3.3874 8.06867 3.3985 8.0082 3.39189C7.88315 3.46648 7.75599 3.52615 7.62035 3.41107L7.28336 3.37911C7.56312 2.98913 7.99125 2.79521 8.37062 2.53735Z"
              fill="#2F6CF2"/>
        <path d="M1.54819 29.8016C1.98903 29.8528 1.97208 30.1959 2.00175 30.5113C1.77152 30.3364 1.61073 30.0848 1.54819 29.8016Z"
              fill="#5981DF"/>
        <path d="M35.4484 27.8408L35.6604 28.0774C34.8932 32.0879 32.8013 35.244 29.5141 37.603C28.711 38.1888 27.7852 38.5817 26.8075 38.7516C26.5765 38.8305 26.5363 38.6962 26.5405 38.5108C26.7842 38.1677 27.1763 38.0846 27.5388 37.9504C30.5059 36.8401 32.2608 34.4747 33.736 31.8322C34.3079 30.8517 34.718 29.7844 34.9504 28.6719C35.0097 28.3501 34.9631 27.9175 35.4484 27.8408Z"
              fill="#7B6FE2"/>
        <path d="M26.585 38.5386L26.8139 38.7517C26.407 39.1118 25.8517 39.0649 25.4172 39.0586C23.2321 39.0223 21.1487 39.5828 19.0398 40.009C18.8659 40.0227 18.6909 40.0163 18.5185 39.9898L18.0946 39.7767C18.1157 39.7191 18.1327 39.6599 18.1454 39.5998C20.0042 39.114 21.8502 38.5215 23.781 38.4427C24.703 38.4086 25.6588 38.1827 26.585 38.5386Z"
              fill="#7068D1"/>
        <path d="M0.496948 19.9839C0.967461 18.8651 2.00174 18.066 2.23488 16.8108C2.22005 15.2318 2.88979 13.8594 3.68245 12.5914C4.244 11.6645 4.62385 10.6381 4.8015 9.56751C4.90324 9.04115 4.86297 8.41889 5.43733 8.0758C6.31901 8.1653 6.69204 7.30863 7.37237 7.02307C7.43096 7.09015 7.47147 7.17121 7.49002 7.25851C7.50858 7.34581 7.50455 7.43644 7.47834 7.52174C6.64965 9.4908 6.71323 11.7689 5.39918 13.5738C4.81981 14.4168 4.4194 15.3707 4.22291 16.3761C4.21111 17.4433 3.82621 18.4723 3.13564 19.2828C2.47862 20.0777 1.89789 20.9301 1.22815 21.7101C0.853015 21.4735 0.982302 21.0921 0.965346 20.7575C0.948391 20.4229 0.995014 20.0393 0.496948 19.9839Z"
              fill="#0248D9"/>
        <path d="M3.96222 16.391C4.05971 15.7219 4.19535 15.0229 4.58321 14.4966C6.22789 12.2675 6.42076 9.50785 7.37026 7.038C8.54866 4.81535 10.2442 3.24479 12.7727 2.73121C12.9846 2.63958 13.0546 2.76105 13.0758 2.94431C12.9554 3.12292 12.7707 3.24748 12.5607 3.29167C9.43246 4.28899 7.84501 6.60327 7.1456 9.68473C6.87432 12.2611 5.19784 14.2707 4.331 16.6105C4.11905 16.683 4.02792 16.553 3.96222 16.391Z"
              fill="#61A3E8"/>
        <path d="M5.43522 8.0801C4.9414 10.3965 3.95162 12.5126 2.89191 14.6074C2.55068 15.2766 2.45319 16.0714 2.24337 16.8109L2.05261 16.5978C2.14163 15.4108 2.44895 14.2537 3.12716 13.3096C4.46664 11.462 4.54293 9.19462 5.37163 7.1872C5.73617 6.30496 6.05834 5.40993 6.68145 4.66833C6.72409 4.68387 6.76196 4.71032 6.79133 4.74508C6.82069 4.77984 6.84053 4.82169 6.84888 4.86652C6.25968 5.88941 5.65988 6.90165 5.43522 8.0801Z"
              fill="#67A9EB"/>
        <path d="M25.1141 1.08813C25.9746 1.55696 26.9644 0.977319 27.827 1.43123C26.3434 1.55056 24.8365 1.25009 23.3762 1.67629C21.8226 2.12807 20.3814 2.88885 18.8237 3.3321C18.6562 3.28095 18.5185 3.2021 18.546 2.989C20.5722 1.80202 22.7446 1.10092 25.1141 1.08813Z"
              fill="#7199D3"/>
        <path d="M18.5312 2.98904L18.7643 3.20214C18.6414 3.69227 18.2345 3.66457 17.9314 3.54736C16.4478 2.97412 14.926 3.05083 13.3979 3.06788C13.2577 3.06785 13.1216 3.01974 13.0122 2.9315L12.7642 2.7184C14.2796 2.11319 15.8014 2.21122 17.3295 2.67365C17.7343 2.79512 18.1391 2.88675 18.5312 2.98904Z"
              fill="#5496E8"/>
        <path d="M6.84042 4.86849L6.67297 4.67031C6.83617 4.4018 6.9591 4.09707 7.3088 4.03101C7.34483 4.41459 6.99937 4.5872 6.84042 4.86849Z"
              fill="#71B7F1"/>
        <path d="M7.62036 3.41102L8.0082 3.39185C7.83017 3.66888 7.65426 3.94804 7.30667 4.03115C7.25581 3.74986 7.48047 3.60282 7.62036 3.41102Z"
              fill="#6FB5EE"/>
        <path d="M4.16782 16.6401C4.54163 15.2556 5.13954 13.9424 5.93755 12.7531C6.59245 11.7984 6.53523 10.6221 6.91673 9.57366C7.31942 9.39039 7.75178 9.27319 8.12268 9.00255C8.31131 8.86403 8.55928 8.73617 8.70764 9.08992C8.48299 10.831 8.2668 12.5741 7.27279 14.0936C6.42134 15.2295 5.94213 16.6035 5.90151 18.0253C5.8888 18.7157 5.5942 19.24 5.19363 19.745C4.72659 20.2715 4.28795 20.8228 3.87958 21.3966C3.50656 21.7524 3.54895 22.4749 2.86861 22.5601C2.83682 21.8206 3.02545 21.0343 2.44473 20.4078C2.42037 20.2698 2.43262 20.1278 2.48025 19.9961C2.52788 19.8644 2.60921 19.7477 2.71602 19.6577C3.49422 18.8239 4.00073 17.7711 4.16782 16.6401Z"
              fill="#0244CB"/>
        <path d="M16.4117 37.8502C14.5652 37.9475 12.7138 37.8107 10.9012 37.4432C10.5939 36.8039 9.7737 36.5546 9.62958 35.7831C9.71023 35.6911 9.815 35.6237 9.93193 35.5887C10.0489 35.5536 10.1732 35.5523 10.2908 35.585C11.4841 35.7746 12.6879 35.8727 13.8939 35.9728C14.0034 36.0099 14.1059 36.0654 14.1969 36.1369C14.5954 36.6334 15.2185 36.6782 15.7441 36.9232C16.1299 37.1022 16.6661 37.2003 16.4117 37.8502Z"
              fill="#0446CE"/>
        <path d="M4.16782 16.6403C4.25047 17.7612 3.72062 18.635 3.07208 19.4703C2.83894 19.7687 2.64819 20.0968 2.43625 20.4122C1.17731 21.9785 0.855157 23.8219 0.927217 25.759L0.715274 25.9891C0.21297 24.4867 0.853036 23.1186 1.21758 21.7271C1.73962 20.7338 2.36252 19.7976 3.07632 18.9333C3.63865 18.2054 3.949 17.3126 3.96012 16.391L4.16782 16.6403Z"
              fill="#7A9ECD"/>
        <path d="M14.0486 36.1945C12.565 36.2521 11.1047 35.9644 9.63808 35.7683C8.8433 35.3975 7.94254 35.2377 7.30671 34.575C7.26278 34.5362 7.23493 34.4823 7.22865 34.4239C7.22237 34.3655 7.23813 34.3069 7.27281 34.2596C7.36687 34.2106 7.47269 34.189 7.57831 34.1973C7.68392 34.2056 7.78513 34.2434 7.87049 34.3065C9.82036 35.372 11.9652 35.5147 14.1101 35.6724C14.2321 35.6734 14.3528 35.6985 14.4652 35.7465C14.5776 35.7944 14.6794 35.8641 14.765 35.9516C14.6463 36.429 14.358 36.3437 14.0486 36.1945Z"
              fill="#976CCA"/>
        <path d="M2.86858 22.5562C3.15117 22.13 3.43376 21.6995 3.71635 21.2648C3.79853 21.2838 3.87177 21.3305 3.92383 21.3972C3.9759 21.4639 4.00366 21.5465 4.00248 21.6313C3.0551 23.2253 3.089 24.9791 3.1759 26.7457C3.15189 26.8277 3.10635 26.9017 3.04406 26.9598C2.98177 27.0179 2.90504 27.0581 2.82196 27.0761C2.17977 25.5673 2.41078 24.0649 2.86858 22.5562Z"
              fill="#7792C2"/>
        <path d="M2.81564 27.0802L3.02759 26.8224C3.84569 28.2779 4.44125 29.8356 5.05588 31.3849C5.04699 31.4654 5.01313 31.541 4.95912 31.601C4.9051 31.6611 4.83367 31.7025 4.75492 31.7195C3.93471 30.2512 3.15263 28.7595 2.81564 27.0802Z"
              fill="#9992AE"/>
        <path d="M4.75491 31.7193L4.91599 31.5062C5.83969 32.3141 6.6421 33.2522 7.29823 34.2915V34.5898C6.20691 33.883 5.32767 32.8906 4.75491 31.7193Z"
              fill="#B088B9"/>
        <path d="M8.63345 8.94106C8.04213 9.09876 7.73906 10.0471 6.91672 9.58037C7.67335 6.17074 9.48334 3.75204 13.0207 2.93372C14.5996 2.62686 16.1659 2.59276 17.6961 3.19158C18.0522 3.33009 18.4083 3.55385 18.7728 3.20436C20.2755 2.60341 21.6489 1.61675 23.3698 1.67855C24.5965 2.25313 25.8904 2.66984 27.2208 2.91881C26.5151 3.55811 25.6588 3.14469 24.8789 3.26403C23.1766 3.29355 21.5121 3.77351 20.0529 4.65559C19.008 5.2821 17.9801 5.50799 16.8738 4.87934C15.4984 4.36511 13.9831 4.37662 12.6156 4.91168C11.2482 5.44674 10.1237 6.46809 9.45579 7.78179C9.23113 8.19734 9.20569 8.77484 8.63345 8.94106Z"
              fill="#014ADE"/>
        <path d="M39.2592 15.0975C38.5513 17.3201 38.5344 19.7857 36.9914 21.7164C36.5188 21.8357 36.4128 21.4735 36.3153 21.1581C36.237 20.8293 36.1371 20.5061 36.0165 20.1906C36.6248 18.245 37.0762 16.2546 37.6442 14.2941C37.6692 14.1909 37.7168 14.0948 37.7835 14.0125C37.8503 13.9303 37.9345 13.8641 38.0299 13.8188C38.6785 14.0319 38.5768 14.9419 39.2592 15.0975Z"
              fill="#024ADB"/>
        <path d="M38.0299 13.8188C37.3411 15.9286 37.1143 18.1768 36.1648 20.2119C35.8829 21.6866 34.7703 22.507 33.6809 23.3211C33.151 23.7174 32.5682 24.0456 32.0849 24.5102C32.0069 24.5183 31.9284 24.4981 31.8639 24.4531C31.7994 24.4082 31.753 24.3415 31.7331 24.2651C31.6653 23.5278 32.2121 23.2273 32.7081 22.9183C33.3608 22.5113 34.0073 22.1042 34.5138 21.5118C35.5431 20.3844 36.2165 18.9753 36.4489 17.4629C36.5548 16.8236 36.7689 16.2354 36.8961 15.6132C37.6463 13.5397 37.7014 11.4939 36.6608 9.49075C36.6602 9.40604 36.6885 9.32368 36.7409 9.25739C36.7934 9.19109 36.8668 9.14484 36.949 9.12634C38.1613 10.503 38.0617 12.1716 38.0299 13.8188Z"
              fill="#8A6BD6"/>
        <path d="M24.6987 3.00595L27.2145 2.91858C28.3166 2.9889 29.4293 3.01448 30.4339 3.5728C30.4136 3.66185 30.3669 3.74257 30.2999 3.80424C30.2329 3.86592 30.1488 3.90561 30.0588 3.91803C28.501 3.69214 26.9496 3.38953 25.36 3.46199C25.0866 3.3874 24.7242 3.44281 24.6987 3.00595Z"
              fill="#8A96BB"/>
        <path d="M30.188 3.76479L30.436 3.573C32.1162 4.11312 33.5532 5.23134 34.4947 6.73116C34.4758 6.77639 34.443 6.8143 34.401 6.83926C34.359 6.86421 34.3101 6.87488 34.2616 6.86969C33.9557 6.77465 33.6873 6.58529 33.4944 6.3284C32.6974 5.45895 31.8285 4.69817 30.72 4.24853C30.6001 4.215 30.4895 4.15383 30.3972 4.06986C30.3048 3.98589 30.2332 3.88144 30.188 3.76479Z"
              fill="#A993B3"/>
        <path d="M36.9554 9.13066L36.7795 9.33311C36.1076 9.12001 35.7007 8.62348 35.4018 8.01614C35.3957 7.96669 35.4058 7.91657 35.4307 7.87347C35.4556 7.83036 35.4938 7.79664 35.5396 7.77747C36.1095 8.11206 36.5942 8.57533 36.9554 9.13066Z"
              fill="#B47DC8"/>
        <path d="M34.4926 6.73108L35.5396 7.78594C35.4972 7.83495 35.4527 7.88396 35.4082 7.93084C34.6791 7.94789 34.3209 7.59414 34.3485 6.86533C34.3937 6.81277 34.4417 6.76802 34.4926 6.73108Z"
              fill="#AA83C3"/>
        <path d="M26.585 38.5386C23.728 38.5386 20.977 39.3761 18.1475 39.6041C16.6957 39.585 15.3753 39.0586 13.8472 38.5578C14.3135 38.2126 14.6696 38.3575 14.9748 38.2936C16.7356 38.322 18.4949 38.1743 20.2267 37.8524C21.0893 37.1386 22.1151 36.9595 23.1939 36.9723C24.4995 36.9894 25.7944 36.9851 27.0343 36.4843C28.5815 35.8578 29.7726 34.7795 30.7836 33.4881C30.8389 33.3948 30.902 33.3064 30.9722 33.2239C32.5554 31.372 33.5282 29.2218 33.6787 26.7967C33.7656 25.3945 34.3781 24.4782 35.4527 23.7472C35.7243 23.5387 35.9762 23.3055 36.2051 23.0504L36.3343 22.9822C37.0867 22.637 37.2648 21.7973 37.7968 21.2625C38.2991 21.9444 37.8921 22.735 38.0532 23.4574C37.7862 24.1393 37.2309 24.5996 36.6989 25.0216C35.7621 25.7632 35.3213 26.6561 35.4696 27.8409C34.944 30.4983 33.6978 32.7955 32.0468 34.9095C30.6119 36.7336 28.7616 37.8865 26.585 38.5386Z"
              fill="#0246CE"/>
        <path d="M32.0361 24.4464C32.0867 24.2593 32.178 24.0857 32.3033 23.9383C32.4287 23.7909 32.585 23.6733 32.761 23.594C34.287 22.8695 35.317 21.6399 36.1712 20.2291C36.5611 20.2952 36.5357 20.5978 36.5272 20.8791C36.5166 21.2605 36.6078 21.5738 36.9914 21.7315C36.9151 22.2323 36.3047 22.4454 36.3153 22.9931C36.0977 23.3438 35.7988 23.6363 35.4442 23.8455C34.3569 24.6254 33.7677 25.5972 33.7169 27.0249C33.63 29.4692 32.46 31.5278 31.0146 33.4308C29.7429 34.995 28.3187 36.3098 26.3116 36.8575C25.5104 37.0706 24.7029 37.0706 23.9018 37.0706C22.556 37.0812 21.2716 37.4115 19.9703 37.6651C18.7813 37.7141 17.605 38.0338 16.4033 37.8676C16.3821 37.2837 15.8692 37.3092 15.511 37.1324C15.0299 36.8937 14.3707 36.9981 14.0782 36.3908C15.5618 35.8751 17.1472 36.297 18.6583 35.939C19.2327 35.8026 19.8304 35.7408 20.4005 35.5661C21.5708 35.1635 22.8061 34.9864 24.0417 35.044C24.6516 35.1034 25.2672 35.0364 25.8505 34.8473C26.4337 34.6582 26.9722 34.3509 27.4328 33.9444C27.5125 33.8723 27.5968 33.8054 27.685 33.744C28.2994 33.404 28.8118 32.9043 29.1686 32.2971C29.224 32.2071 29.2863 32.1216 29.3551 32.0414C30.987 30.3088 31.8327 28.2673 31.8009 25.8614C31.8094 25.3883 31.6949 24.8769 32.0361 24.4464Z"
              fill="#0343C2"/>
        <path d="M19.9829 37.648C21.3648 36.917 22.8993 36.9106 24.3765 36.8893C26.8033 36.8531 28.6768 35.8387 30.2622 34.0977C30.4911 33.8462 30.6649 33.5159 31.0273 33.4072C29.6454 35.7705 27.5302 37.03 24.8703 37.2047C23.2914 37.307 21.7251 37.3134 20.2076 37.844L19.9829 37.648Z"
              fill="#796CE3"/>
        <path d="M8.63344 8.94083C9.97715 5.06025 12.8087 4.16309 15.352 4.22915C15.8785 4.2228 16.3971 4.3574 16.8547 4.61912C16.8923 4.65876 16.9132 4.71141 16.9132 4.76617C16.9132 4.82092 16.8923 4.87357 16.8547 4.91321C16.115 5.22647 15.4347 4.70011 14.6844 4.78961C11.8677 5.15401 9.8839 6.47738 9.17389 9.37769C9.08063 9.75275 8.94499 10.1193 8.85809 10.4986C8.64615 11.3745 8.5211 12.278 8.14173 13.1027C7.91707 13.5907 7.76872 14.1682 7.10322 14.2726C7.07944 14.2577 7.05957 14.2372 7.04526 14.213C7.03095 14.1887 7.02263 14.1614 7.02097 14.1332C7.01931 14.105 7.02437 14.0769 7.03573 14.0511C7.04709 14.0253 7.06441 14.0026 7.08626 13.985C8.05483 12.4506 8.07391 10.6222 8.63344 8.94083Z"
              fill="#5B9EE5"/>
        <path d="M7.08627 13.9935L7.12018 14.2855C7.31728 14.5774 7.14985 14.8289 7.02692 15.0782C6.55842 15.9953 6.30881 17.0094 6.29785 18.0403C6.29785 18.8267 5.98205 19.4873 5.21058 19.8346C5.15719 19.8506 5.0999 19.8472 5.04875 19.825C4.99761 19.8028 4.95586 19.7632 4.93082 19.7132C5.40875 19.081 5.6738 18.3122 5.68745 17.5182C5.72654 16.2144 6.22188 14.9662 7.08627 13.9935Z"
              fill="#6796D0"/>
        <path d="M3.8753 21.4904L3.70999 21.2773C4.03847 20.7022 4.44746 20.1775 4.92442 19.7195C4.97102 19.7649 5.02472 19.8024 5.08338 19.8303C5.15968 20.5165 4.5726 20.8404 4.278 21.322C4.22619 21.3767 4.16363 21.4199 4.09429 21.4488C4.02496 21.4778 3.95037 21.492 3.8753 21.4904Z"
              fill="#82A2C6"/>
        <path d="M27.8567 33.8355C27.206 34.771 26.2247 35.3464 25.1819 35.2782C22.77 35.1248 20.5319 35.9367 18.2133 36.2734C16.8399 36.4737 15.458 36.3309 14.0973 36.3735C14.0892 36.3156 14.0757 36.2585 14.0571 36.203C14.2817 36.1519 14.5445 36.2222 14.7183 35.9899C15.1422 35.5318 15.6911 35.6405 16.2019 35.6554C17.8636 35.7044 19.4892 35.5595 21.0639 34.982C21.7358 34.7348 22.4479 34.7689 23.1473 34.7987C24.5016 34.8349 25.8051 34.6858 26.9813 33.9293C27.2314 33.7694 27.5281 33.616 27.8567 33.8355Z"
              fill="#7666D5"/>
        <path d="M27.8567 33.8355C26.0679 35.0906 24.0417 35.21 21.9541 35.1141C21.8123 35.0923 21.6675 35.1025 21.5302 35.1439C19.3408 36.1242 17.0115 35.9516 14.7098 35.9963L14.074 35.9303C13.4807 35.6328 12.9086 35.2946 12.3615 34.918C12.0902 34.7433 11.5985 34.4918 12.1962 34.0805C13.7709 34.2169 15.3499 34.153 16.9246 34.1871C17.698 34.2348 18.4736 34.1446 19.2157 33.9207C20.449 33.5131 21.7334 33.2828 23.0307 33.2367C23.5424 33.1331 24.0654 33.0973 24.5864 33.1301C24.9517 33.142 25.3151 33.0717 25.6499 32.9242C25.9847 32.7767 26.2825 32.5558 26.5214 32.2777C26.9262 31.8515 27.4073 31.5148 27.7931 31.0652C29.1622 29.5905 30.0609 27.924 29.9125 25.8292C29.8998 25.6524 29.9316 25.4712 29.9125 25.2986C29.6476 23.4169 30.2177 22.0595 32.1506 21.4351C32.7192 21.224 33.2046 20.8338 33.5346 20.3227C33.6052 20.2043 33.7023 20.1041 33.8182 20.0301C33.9341 19.9561 34.0656 19.9104 34.2022 19.8965C34.8105 20.3909 34.5223 21.109 34.6494 21.7228C34.2255 22.3962 33.5325 22.7435 32.8861 23.1356C32.4325 23.4127 31.9789 23.662 31.873 24.2459C31.926 26.3002 31.9747 28.3417 30.8917 30.2127C30.4235 30.9578 29.9051 31.6698 29.3403 32.3438C28.9254 32.9151 28.4249 33.4183 27.8567 33.8355Z"
              fill="#033FB7"/>
        <path d="M11.9609 34.2766C12.5247 35.0076 13.6416 35.0225 14.0804 35.926C11.7151 35.8259 9.36252 35.666 7.29819 34.2851C6.33389 33.5238 5.52742 32.5797 4.92443 31.5063C4.2441 29.9677 3.39209 28.4994 3.03178 26.8181C2.62485 24.9278 2.74778 23.1229 3.87956 21.4777C3.95586 21.4053 4.03216 21.3328 4.10634 21.2646C4.63831 21.0217 4.75488 21.45 4.90324 21.7825C5.03717 22.1375 5.08582 22.5194 5.04524 22.897C4.75276 23.9327 4.44121 24.9683 4.73157 26.0615C5.07068 27.7834 5.90997 29.3028 6.66449 30.8542C7.16745 31.7715 7.90312 32.5384 8.79663 33.0769C9.43246 33.5031 10.1403 33.6416 10.861 33.7865C11.2615 33.8653 11.696 33.8973 11.9609 34.2766Z"
              fill="#0245CF"/>
        <path d="M16.8356 4.86869C16.8356 4.79197 16.8356 4.71312 16.8462 4.63428C18.1412 5.42275 19.2497 4.84738 20.3687 4.18463C21.6866 3.42874 23.1752 3.0252 24.6924 3.01257C24.8598 3.22568 25.1162 3.16174 25.3282 3.20862C25.201 3.73072 24.758 3.64974 24.3956 3.68171C24.0332 3.71368 23.6242 3.68171 23.2533 3.80531C22.0858 4.04025 20.9664 4.47259 19.9427 5.08392C18.6499 5.82978 17.6304 5.7211 16.8356 4.86869Z"
              fill="#6C98D3"/>
        <path d="M23.16 3.58995C23.8297 3.14457 24.6648 3.62831 25.3388 3.19998C26.9792 3.17015 28.609 3.24473 30.1859 3.76257C31.9153 4.32729 33.2082 5.48869 34.3463 6.8568C34.5909 7.30661 34.9587 7.67642 35.406 7.92231C35.861 8.39256 36.3181 8.86281 36.7773 9.33305C38.1168 11.3938 37.9303 13.5418 37.1376 15.7261C36.3386 15.6622 36.3238 14.7927 35.8172 14.4241C35.7896 13.9685 35.8109 13.5112 35.8808 13.0602C36.0101 11.6729 35.6477 10.4902 34.5244 9.60582C33.8073 9.02864 33.1498 8.38038 32.5618 7.67086C31.3855 5.98948 29.656 5.32673 27.7295 5.04118C26.0921 5.05505 24.4924 4.547 23.16 3.58995Z"
              fill="#014CE4"/>
        <path d="M35.9528 14.4581C36.7137 14.537 36.5505 15.4874 37.1397 15.7367C36.6692 17.5204 36.5399 19.4234 35.3276 20.9492C35.1157 21.222 34.9609 21.5523 34.6346 21.7249C33.9987 21.2816 34.4459 20.5379 34.1704 19.9924C34.1232 19.9221 34.0936 19.8414 34.0844 19.7571C34.0752 19.6728 34.0865 19.5875 34.1174 19.5086C34.5683 18.6403 34.8781 17.7051 35.0351 16.7383C35.1687 15.9264 35.2598 15.0612 35.9528 14.4581Z"
              fill="#0346CC"/>
        <path d="M29.3275 32.3588C31.1396 30.0552 32.0043 27.4574 31.697 24.5145C31.697 24.4335 31.803 24.3419 31.8602 24.2545C31.9196 24.3227 31.9768 24.3909 32.0361 24.4676C32.3244 27.287 31.7415 29.8463 29.8171 32.0072C29.6815 32.1457 29.5649 32.329 29.3275 32.3588Z"
              fill="#6E66D7"/>
        <path d="M31.0209 33.4243C31.2328 32.5719 31.8687 31.9816 32.2671 31.2506C33.0471 29.8356 33.5388 28.3546 33.5621 26.7329C33.5791 25.303 34.3802 24.3888 35.4696 23.6493C35.5142 23.6634 35.555 23.6877 35.5888 23.7202C35.6226 23.7527 35.6485 23.7926 35.6646 23.8368C34.1068 24.7574 33.969 26.3131 33.7571 27.9049C33.4865 30.0012 32.5228 31.9451 31.0209 33.4243Z"
              fill="#7A6BE1"/>
        <path d="M35.6731 23.8347L35.4781 23.6472C35.7748 23.4469 35.9211 23.0505 36.3259 22.9823C36.3174 23.4213 35.9614 23.5982 35.6731 23.8347Z"
              fill="#8B6EE3"/>
        <path d="M27.844 33.8506C28.2132 33.2416 28.7219 32.7301 29.3276 32.3589C29.206 32.7027 29.0097 33.015 28.7531 33.273C28.4965 33.531 28.1859 33.7283 27.844 33.8506Z"
              fill="#766CE1"/>
        <path d="M23.16 3.58995C23.2311 3.58552 23.3025 3.59126 23.372 3.607C24.8301 4.14615 26.2438 4.84938 27.8524 4.83447C26.9347 5.51426 25.8835 5.03052 24.9064 5.17756C23.7153 5.11363 22.6344 5.48869 21.5789 6.00013C20.604 6.47109 19.6714 7.08056 18.5842 7.25957C18.1603 7.29793 17.7237 7.30858 17.357 7.07417C15.1062 5.63573 11.7278 6.54568 10.8588 9.15831C10.8137 9.2541 10.7544 9.34247 10.6829 9.42042C10.3777 9.75499 10.1722 10.1748 9.82033 10.4625C9.41976 10.7864 8.99588 11.0613 8.61438 10.4263C9.15695 7.76249 10.2993 5.60163 13.1521 4.80676C14.3587 4.45884 15.6412 4.48036 16.8356 4.86856C17.9441 5.58246 19.0017 5.37787 20.0614 4.72578C21.0173 4.13336 22.0134 3.64536 23.16 3.58995Z"
              fill="#0247D3"/>
        <path d="M8.61226 10.4284C9.07218 10.7523 9.4134 10.5691 9.75886 10.2153C10.0153 9.94681 10.0874 9.52487 10.4668 9.36292C10.702 10.5691 10.0937 11.6431 9.94962 12.7896C9.70143 13.5257 9.36855 14.2302 8.95773 14.8887C8.20109 16.1438 7.45929 17.3841 8.04001 18.9376C8.08284 19.1487 8.05528 19.3682 7.96159 19.562C7.77285 20.0009 7.45667 20.3723 7.05447 20.6275C6.33175 21.0835 5.92906 21.823 5.4204 22.4708C5.24873 22.6839 5.19574 23.0888 4.76549 22.9673C4.74218 22.328 4.8757 21.6184 4.10211 21.2625C4.4285 20.7838 4.7556 20.305 5.08341 19.8262C5.8358 19.2423 6.11557 18.4837 6.05411 17.5269C5.97781 16.3207 6.61788 15.3191 7.11382 14.2856C8.10995 13.1945 8.26467 11.7752 8.61226 10.4284Z"
              fill="#0341C0"/>
        <path d="M27.8418 31.3829C27.5303 31.7153 27.2314 32.0605 26.797 32.2353C26.4892 32.5971 26.1018 32.8819 25.6654 33.0668C25.2291 33.2518 24.7558 33.3319 24.2833 33.3008C23.7598 33.2741 23.2349 33.3084 22.7192 33.4031C21.7702 33.3583 20.8221 33.5106 19.9343 33.8506C18.0628 34.5155 16.1193 34.2555 14.1927 34.2129C13.5306 33.5654 12.7345 33.0728 11.8614 32.7702C12.245 32.2267 12.7091 32.312 13.133 32.2566C14.1927 32.2438 15.2524 32.2225 16.2973 32.2566C17.4936 32.3212 18.6901 32.1324 19.8092 31.7025C20.4282 31.4362 21.1109 31.357 21.7739 31.4745C22.5963 31.7068 23.4228 31.9007 24.2007 31.8304C23.887 31.7728 23.4779 31.8496 23.0731 31.8069C22.7171 31.3807 23.2003 31.2934 23.3656 31.3083C25.875 31.5427 26.6274 29.5822 27.6045 27.9093C27.6587 27.8196 27.725 27.7378 27.8016 27.6664C28.6197 27.1549 29.1029 26.2812 29.8722 25.7144C30.3428 27.1166 29.6603 28.2844 29.1092 29.4777C28.7956 30.1746 28.1979 30.6967 27.8418 31.3829Z"
              fill="#043CAD"/>
        <path d="M14.0804 34.0275C16.4541 34.0851 18.8385 34.2939 21.1126 33.3136C21.6361 33.0877 22.219 33.205 22.7764 33.2284C22.8972 33.352 23.1176 33.2518 23.213 33.4287C19.4976 34.1618 15.795 34.946 11.9631 34.2811C10.8101 33.987 9.54905 34.0339 8.57199 33.2156C8.59248 33.1297 8.6401 33.0527 8.70773 32.9962C8.77535 32.9397 8.85934 32.9068 8.94713 32.9023C10.293 33.3925 11.7024 33.5417 13.1118 33.7356C13.4446 33.7761 13.8027 33.7867 14.0804 34.0275Z"
              fill="#6465D3"/>
        <path d="M27.8418 31.3827C27.7677 30.9203 28.1576 30.7072 28.3653 30.3961C29.3064 28.9789 30.1372 27.5277 29.7684 25.7078C29.0775 24.2395 29.3954 22.9375 30.7158 21.8059C31.7085 21.4253 32.6241 20.8664 33.418 20.1565C33.6024 20.1352 33.6957 20.2418 33.7444 20.4037C33.2866 21.222 32.5173 21.6546 31.6971 21.9615C30.5526 22.3877 30.046 23.1272 30.1562 24.3695C30.3428 26.5134 30.169 28.589 28.7532 30.3684C28.495 30.7452 28.1886 31.0863 27.8418 31.3827Z"
              fill="#6866D6"/>
        <path d="M23.2193 33.4243L22.7827 33.224C24.2028 33.224 25.6249 33.2431 26.7969 32.2373C26.4239 33.143 25.6185 33.3305 24.7814 33.4115C24.2642 33.4648 23.7407 33.4243 23.2193 33.4243Z"
              fill="#716ADD"/>
        <path d="M33.7444 20.41L33.5537 20.1969C33.527 20.1017 33.5297 20.0005 33.5615 19.9069C33.5933 19.8133 33.6527 19.7316 33.7317 19.6726C33.8425 19.574 33.9865 19.5215 34.1344 19.5256L34.2488 19.6194C34.2234 19.7451 34.1959 19.873 34.1704 19.9987L33.7444 20.41Z"
              fill="#786DDD"/>
        <path d="M4.76548 22.9609C5.4988 22.083 5.92693 20.9386 7.00784 20.3654C7.17315 21.1347 6.42287 21.4309 6.17913 21.9892C5.70111 22.5154 5.33857 23.1368 5.1151 23.8131C4.89163 24.4894 4.81222 25.2054 4.88205 25.9145C4.85261 25.9891 4.80527 26.0552 4.74425 26.1069C4.68323 26.1586 4.61043 26.1942 4.53235 26.2108C4.08091 25.0898 4.38398 24.0222 4.76548 22.9609Z"
              fill="#8499BB"/>
        <path d="M4.54297 26.2107L4.7422 25.9635C5.37802 26.5474 5.37802 27.4169 5.72137 28.1371C6.12194 28.9896 6.56914 29.8292 6.80227 30.7519C6.77896 30.9224 6.73022 31.0694 6.51403 31.0502C5.69382 29.501 4.7973 27.9858 4.54297 26.2107Z"
              fill="#9791AE"/>
        <path d="M6.50342 31.0504L6.67933 30.8373C7.56737 31.3786 8.15233 32.2139 8.77968 33.0109L8.56774 33.2027C7.69447 32.6916 6.97974 31.9464 6.50342 31.0504Z"
              fill="#877FC4"/>
        <path d="M35.9528 14.4581C35.3954 15.7602 35.353 17.1986 34.8698 18.5198C34.7235 18.9162 34.6049 19.3275 34.2488 19.6003C34.2164 19.578 34.1872 19.5515 34.1619 19.5214C34.1343 18.1384 34.8104 16.9024 34.9927 15.5641C35.0463 15.3255 35.1172 15.0912 35.2047 14.863C35.8871 12.9984 35.8066 11.2595 34.3569 9.74856C34.3166 9.5525 34.4183 9.44595 34.59 9.38416C36.4763 10.6969 36.3343 12.5402 35.9528 14.4581Z"
              fill="#6C6BDD"/>
        <path d="M24.6775 4.91753L27.844 4.83655C29.8617 5.08162 31.6187 5.8019 32.7801 7.60687L32.6487 7.71555C32.5074 7.70865 32.3691 7.67232 32.2425 7.60886C32.1159 7.5454 32.0038 7.45619 31.9133 7.34689C30.383 5.82534 28.4862 5.36078 26.4028 5.38209C25.8475 5.38209 25.2752 5.48012 24.7411 5.218C24.7151 5.20457 24.6924 5.18547 24.6746 5.16211C24.6568 5.13875 24.6445 5.11171 24.6384 5.08294C24.6323 5.05417 24.6327 5.02441 24.6394 4.9958C24.6462 4.96718 24.6592 4.94045 24.6775 4.91753Z"
              fill="#9696B4"/>
        <path d="M34.6071 9.38632L34.4163 9.56319C33.4392 9.32238 32.8225 8.73635 32.6593 7.71133C32.6982 7.66985 32.7407 7.63205 32.7865 7.59839L34.6071 9.38632Z"
              fill="#9184CA"/>
        <path d="M9.66986 12.7535C9.9355 11.6169 10.2011 10.4804 10.4668 9.34382C11.3145 7.09986 12.9295 6.00878 15.3415 6.12172C16.0104 6.14554 16.6609 6.3486 17.2256 6.70988C17.6217 6.93946 18.0743 7.05175 18.5312 7.0338C18.5689 7.07232 18.5957 7.12032 18.6088 7.17279C18.6218 7.22526 18.6206 7.28028 18.6054 7.33214C18.0416 7.94161 17.4884 7.51967 16.9904 7.25968C15.9434 6.71414 14.9027 6.53301 13.7392 6.8761C12.5756 7.2192 11.749 7.91178 11.3018 9.0263C10.9606 9.87871 10.613 10.7311 10.5346 11.6624C10.4413 12.0886 10.4011 12.551 9.9793 12.8216C9.92632 12.8387 9.86979 12.8414 9.81546 12.8294C9.76112 12.8174 9.7109 12.7912 9.66986 12.7535Z"
              fill="#5B9CE3"/>
        <path d="M18.5312 7.28078V7.04423C20.3263 6.5818 21.7696 5.23074 23.6517 4.98993C23.9929 4.94518 24.3405 4.94092 24.686 4.91748C24.686 4.9878 24.686 5.056 24.686 5.13058C24.4104 5.84234 23.7026 5.46089 23.2448 5.71235C22.185 5.88709 21.2991 6.52 20.3327 6.93768C19.7583 7.17636 19.2157 7.60683 18.5312 7.28078Z"
              fill="#7698C8"/>
        <path d="M9.90723 12.7852L10.3036 11.707C10.7444 11.5407 11.1916 11.4257 11.482 10.9718C11.8741 10.358 12.0966 10.6351 12.2153 11.1849C12.2226 12.6412 11.8239 14.0704 11.0644 15.3105C10.329 16.5167 9.58084 17.6418 10.2824 19.1208C10.3279 19.2932 10.3129 19.476 10.24 19.6386C9.69953 20.5187 8.8899 21.158 8.21169 21.9167C7.97431 22.1788 7.52076 22.3429 7.70938 22.8564C7.76455 22.9354 7.79144 23.0308 7.78568 23.1271C7.57374 23.4936 7.29822 23.7429 6.83618 23.6726C6.18128 23.2677 6.6751 22.2917 5.96933 21.9103L7.00785 20.3759L7.72846 19.6919C7.84927 19.3701 8.10148 19.0888 7.94041 18.6946C7.47413 17.5587 7.82171 16.5231 8.4321 15.5726C8.97215 14.6702 9.46455 13.7398 9.90723 12.7852Z"
              fill="#043EB5"/>
        <path d="M9.90723 12.7855C9.76735 13.7125 9.29895 14.4903 8.78181 15.2447C8.06121 16.2995 7.64792 17.4119 8.10572 18.7033C8.14514 18.7924 8.16665 18.8884 8.16901 18.9859C8.17137 19.0834 8.15454 19.1804 8.11948 19.2713C8.08442 19.3622 8.03182 19.4453 7.96471 19.5156C7.89761 19.586 7.81732 19.6424 7.72847 19.6815C7.76525 19.5492 7.77675 19.411 7.76237 19.2744C6.99514 17.0752 8.34098 15.4642 9.26505 13.7338C9.41643 13.4178 9.55154 13.0941 9.66986 12.7642L9.90723 12.7855Z"
              fill="#6699D2"/>
        <path d="M21.9223 31.7195C21.5386 31.7345 21.1084 31.6364 20.7778 31.7792C18.2832 32.8447 15.6678 32.54 13.08 32.5442C12.3594 32.2352 11.6409 32.6678 10.897 32.508C8.97256 32.0925 7.15833 30.2619 6.85949 28.3291C6.78107 27.8262 7.00786 27.6898 7.44658 27.7281C7.98491 28.0798 8.68432 27.9412 9.22266 28.3099C9.91359 28.9023 10.8546 28.9492 11.6028 29.418C12.0966 29.5438 12.5904 29.6311 13.0737 29.3754C13.4975 28.7361 13.9744 28.6637 14.4916 29.2412C14.89 29.6865 15.316 29.6567 15.7929 29.4053C16.1526 29.1891 16.5787 29.1133 16.9904 29.1922C17.7216 29.4969 17.9208 28.4697 18.5651 28.5528C19.4807 28.0712 20.5595 27.9775 21.2419 26.9695C21.8226 26.1171 22.8167 25.7655 23.8891 25.6312C25.5083 25.4181 25.5677 25.2285 25.9428 23.6131C26.2183 22.4198 26.691 21.269 27.6977 20.4592C28.9694 20.5914 29.1813 20.8854 28.8486 22.0213C28.058 23.2999 28.4565 24.7383 28.3611 26.1086C28.3357 26.4602 28.3611 26.8139 28.3039 27.1741C28.291 27.2625 28.2599 27.3473 28.2124 27.423C28.1649 27.4986 28.1022 27.5633 28.0283 27.6131C27.6786 28.2524 27.3374 28.9045 26.9686 29.5416C26.1908 30.9204 25.1607 31.8644 23.4292 31.5959C23.2564 31.6009 23.0854 31.6332 22.9226 31.6918C22.6026 31.9049 22.2635 31.8431 21.9223 31.7195Z"
              fill="#FEFEFE"/>
        <path d="M7.525 27.8623C7.10111 27.8048 6.90824 27.8282 7.11383 28.378C8.03578 30.8372 9.52361 32.4888 12.3679 32.3865C12.6108 32.4071 12.8501 32.4586 13.08 32.5399L12.1835 32.6124C13.0758 32.7637 13.7773 33.1174 14.091 34.0274C12.2704 33.9677 10.4562 33.8675 8.79241 33.0173C7.89801 32.4824 7.27914 31.6769 6.69206 30.8436C5.94179 29.2582 5.11945 27.7004 4.74431 25.9636C4.41368 24.3802 4.89902 23.0484 5.98205 21.9019C6.47375 21.7186 6.69418 21.9125 6.6857 22.4176C6.6857 22.8331 6.66662 23.2465 6.89764 23.6173C6.96643 23.6754 7.02146 23.7482 7.05872 23.8304C7.10787 24.1944 7.07307 24.5648 6.95699 24.913C6.87645 25.0238 6.74505 25.0643 6.6412 25.1474C6.73445 25.043 6.61788 25.1815 6.72385 25.0813C7.13078 25.092 7.30458 25.3477 7.38088 25.7057C7.15961 26.1317 7.11026 26.6271 7.24311 27.0888C7.22615 27.3935 7.58858 27.5469 7.525 27.8623Z"
              fill="#0443C2"/>
        <path d="M28.0283 27.6024L28.0961 27.2294C28.2058 26.8894 28.211 26.524 28.111 26.181C28.1004 24.7127 27.6426 23.1975 28.662 21.8507C29.3084 21.5758 28.8952 20.8982 29.177 20.4848C29.2534 20.3443 29.3654 20.2268 29.5017 20.1441C29.638 20.0613 29.7936 20.0164 29.9528 20.0138C30.0591 20.0161 30.1641 20.0385 30.2622 20.0799C30.7709 20.5721 30.7412 21.2903 31.0104 21.8827C29.4547 22.7863 29.779 24.3057 29.7684 25.7185C29.7006 26.3088 28.5921 27.5086 28.0283 27.6024Z"
              fill="#053AA3"/>
        <path d="M21.9223 31.7194L22.9311 31.6853L24.6669 31.7705C23.7492 31.8238 22.8188 32.1605 21.9223 31.7194Z"
              fill="#001F9B"/>
        <path d="M31.0104 21.8826C30.1795 21.6055 30.5865 20.6956 30.1626 20.2097C30.0863 19.8624 30.3745 19.7835 30.5865 19.6471C31.3728 19.5832 31.8581 18.9567 32.494 18.6115C33.1467 18.7628 33.4011 19.3616 33.8059 19.7942L33.5537 20.1863C32.9288 21.0329 32.0291 21.633 31.0104 21.8826Z"
              fill="#053EB1"/>
        <path d="M33.8059 19.7858C33.0683 19.8007 33.0323 18.9653 32.5151 18.7203C32.9157 16.9047 33.2527 15.0698 33.9987 13.3522C34.0523 13.2659 34.1248 13.193 34.2107 13.1391C34.2591 13.1301 34.3088 13.1323 34.3562 13.1456C34.4036 13.1589 34.4474 13.1829 34.4841 13.2159C34.6751 13.8423 35.0048 14.4172 35.4484 14.8972C34.9864 16.4358 34.8486 18.0639 34.1577 19.5365L33.8059 19.7858Z"
              fill="#0344C6"/>
        <path d="M35.4527 14.8846C34.5583 14.6566 34.4142 13.964 34.412 13.1798C34.6537 12.8409 34.4269 12.4382 34.5604 12.0929C34.5604 11.9416 34.3273 12.1441 34.4565 12.0929C34.5704 12.4512 34.5547 12.8384 34.412 13.1861H34.2404C33.9394 11.6028 32.8903 10.5671 31.697 9.61456C31.2901 9.28638 31.1184 8.72166 30.7221 8.36365C29.8051 7.51617 28.602 7.05074 27.3565 7.0616C26.657 7.0616 25.8729 7.35781 25.2625 6.7185C25.9258 6.20279 26.6973 6.63752 27.3077 6.4713C26.6231 6.4713 25.8411 6.51392 25.0675 6.4713C24.2939 6.42868 23.5118 6.37115 23.143 5.50382C23.5881 5.11172 24.2239 5.51874 24.6711 5.13516C26.1123 5.11598 27.5599 4.98812 28.9799 5.36318C30.4202 5.74246 31.7057 6.56686 32.655 7.72008C33.0789 8.49791 33.7423 9.03705 34.412 9.57194C36.0419 11.0637 36.3343 12.5873 35.4527 14.8846Z"
              fill="#0249D9"/>
        <path d="M23.1473 5.4951C24.5716 6.50733 26.2417 6.32619 28.1004 6.41996C27.0216 6.76945 26.1166 6.34324 25.3091 6.76092C24.9679 7.18713 24.4613 7.18712 23.9908 7.26597C23.0977 7.40092 22.2648 7.80002 21.598 8.41246C21.0681 8.97505 20.409 8.51688 19.6163 8.65327C19.6799 8.65327 19.8283 8.83653 19.7986 8.69588C19.7986 8.65113 19.8177 8.62983 19.877 8.62556C20.0831 8.57759 20.2997 8.61197 20.4811 8.72146C19.5315 9.58665 18.3892 9.42257 17.268 9.30536C16.8441 9.26274 16.469 9.04325 16.0854 8.86637C14.2542 8.01396 13.3682 8.3741 12.6455 10.2302C12.5099 10.5797 12.4611 11.0038 12.0097 11.1359C11.9313 11.0741 12.0394 10.5563 11.7426 11.0208C11.4035 11.5557 11.1068 12.1716 10.3036 11.707C10.4053 8.75769 11.7723 7.00386 14.3707 6.45406C15.3266 6.25161 16.1532 6.56913 16.9925 6.96763C17.4672 7.18073 17.9229 7.67939 18.5354 7.28089C19.5464 7.11893 20.4217 6.61814 21.314 6.15784C21.8947 5.85737 22.4542 5.48444 23.1473 5.4951Z"
              fill="#0343C5"/>
        <path d="M12.0097 11.136C12.2026 10.6118 12.3849 10.0833 12.5862 9.56121C13.061 8.31883 14.4513 7.62412 15.5534 8.31457C17.179 9.33107 18.7961 9.17976 20.4895 8.74077C23.6687 7.98213 25.5168 9.66351 25.7881 12.7023C25.8432 13.3416 25.803 13.981 25.8093 14.6075C25.8093 15.3107 25.822 16.0182 25.8093 16.7236C25.7839 17.5398 26.1082 18.0384 26.9072 18.2899C27.8189 18.5511 28.6978 18.9164 29.5268 19.3788C29.7811 19.528 30.3279 19.6644 29.8744 20.1737C29.5798 20.1545 29.4844 20.4166 29.3191 20.5765C28.4713 20.764 27.8567 20.0927 27.0958 19.9606C25.3261 19.4577 24.9001 19.8136 23.6157 21.1881C22.3928 22.4965 21.7315 23.8199 21.9668 25.5907C21.983 25.8059 21.9205 26.0197 21.7909 26.1917C21.7293 26.2996 21.6378 26.3872 21.5275 26.4436C21.4172 26.5 21.2929 26.5228 21.1699 26.5092C20.8477 26.473 20.7651 26.2343 20.7947 25.9765C20.9092 24.9919 20.4027 25.0388 19.6439 25.124C17.9484 25.2945 16.2401 25.416 14.5382 25.124C12.866 24.8619 11.3591 23.9286 9.66351 23.8263C9.01496 23.5919 8.19264 23.7986 7.73908 23.0634L7.48262 23.0101C7.31943 22.5221 7.71788 22.309 7.97009 22.0426C8.67162 21.3031 9.44097 20.6276 10.0492 19.8008C10.1086 19.6333 10.1315 19.4549 10.1166 19.2777C10.1016 19.1005 10.049 18.9286 9.96235 18.7736C9.29262 17.7571 9.69319 16.9068 10.3057 16.0651C11.328 14.6183 11.9191 12.9085 12.0097 11.136Z"
              fill="#FEFEFE"/>
        <path d="M7.7221 23.0483C8.30918 23.4554 9.10396 23.1187 9.66985 23.6045C9.67502 23.73 9.635 23.8532 9.55714 23.9515C9.47928 24.0497 9.3688 24.1165 9.24597 24.1394C8.3982 24.3227 8.27315 24.4889 8.53384 25.0238C8.69342 25.1115 8.8368 25.2261 8.95773 25.3626C9.05635 25.4574 9.14641 25.5608 9.22689 25.6716C9.3816 25.906 9.56388 26.1298 9.50665 26.4409C9.26716 27.0547 9.75675 27.6449 9.566 28.2566C9.5361 28.3249 9.48989 28.3848 9.43148 28.4309C9.37307 28.4769 9.30425 28.5078 9.23113 28.5208C8.77545 28.02 7.88105 28.6551 7.53559 27.8623C7.53559 27.5384 6.70477 27.8453 7.08203 27.2443C7.29397 26.7521 6.87008 26.1554 7.33212 25.7015L6.66238 25.1133L6.87433 24.8853C7.00997 24.7361 7.10958 24.555 7.24523 24.4037C7.75601 23.8347 7.09263 24.0073 6.9146 23.873L6.88916 23.6045L7.7221 23.0483Z"
              fill="#0D36B2"/>
        <path d="M10.0302 19.7856C9.8606 20.5741 9.14635 20.9172 8.67372 21.4585C8.24983 21.9508 7.66276 22.3109 7.46353 22.995C6.94639 22.7989 7.31729 22.4899 7.44657 22.3557C8.28798 21.4905 9.16543 20.6381 10.0302 19.7856Z"
              fill="#0D36B2"/>
        <path d="M14.6187 24.8596C16.4054 25.207 18.1921 25.0535 19.9576 24.7595C20.8371 24.6124 21.1466 24.817 21.0173 25.7142C20.9897 25.9273 20.7566 26.3662 21.2144 26.3854C21.5662 26.4003 21.704 26.0466 21.7103 25.695C21.7334 25.4114 21.7384 25.1267 21.7252 24.8426C21.5832 23.5064 21.7252 22.3024 23.0583 21.5672C23.2547 21.4158 23.4112 21.2182 23.514 20.9918C24.4677 19.385 25.4214 19.0739 27.206 19.7729C27.2611 20.1991 26.9156 20.1692 26.6677 20.2523C25.5105 20.182 24.6203 20.5869 24.0481 21.6588C23.817 22.085 23.3953 22.3962 23.054 22.7542C22.4966 23.3381 22.5878 24.0541 22.6408 24.7595C22.6465 24.8518 22.6835 24.9393 22.7455 25.0075C22.8076 25.0758 22.8911 25.1206 22.982 25.1345C23.8531 25.3966 25.0844 24.7083 25.2816 23.8197C25.5466 22.6418 26.0629 21.5359 26.7948 20.5784C27.081 20.3354 27.3798 19.7601 27.6426 20.6018C27.0068 21.9124 26.0742 23.076 26.0424 24.6508C26.0276 25.3753 25.3663 25.6438 24.6966 25.7738C23.6115 25.9869 22.4564 25.9869 21.6044 26.9075C21.3691 27.1611 21.0554 27.3082 21.0321 27.7152C21.0321 27.8388 20.8795 28.0668 20.8202 28.0583C19.9512 27.9176 19.3874 28.8105 18.546 28.7253C18.4612 28.5697 18.546 28.4525 18.6329 28.3353C19.0568 27.9794 19.0907 27.419 19.3238 26.9629C19.5358 26.7647 19.7329 26.6731 19.9597 26.9352C20.0699 27.0482 20.125 27.3209 20.2733 27.2613C20.4217 27.2016 20.3179 26.9885 20.2352 26.8542C19.8897 26.5751 20.0233 26.3108 20.2522 26.0466C20.2522 25.8804 20.5997 25.6353 20.1419 25.5842C19.6926 26.4579 19.6587 26.4621 19.0674 25.7461C19.0355 25.7251 18.9996 25.7108 18.9619 25.7043C18.9243 25.6977 18.8858 25.6989 18.8486 25.7079C18.8115 25.7169 18.7766 25.7334 18.746 25.7565C18.7155 25.7796 18.69 25.8087 18.6711 25.842C18.5312 26.0999 18.6096 26.5197 18.2324 26.5857C18.0013 26.6262 17.9483 26.3449 17.8615 26.1595C17.0391 25.4904 17.2977 26.5175 17.0137 26.7008C16.8759 26.9139 16.7191 27.1121 16.4181 27.0503C16.0154 26.6539 16.5283 26.1659 16.2846 25.7014C15.831 25.7887 15.8607 26.2107 15.7166 26.4984C15.5195 26.85 15.405 27.3849 14.8349 26.9033C14.8349 26.0509 14.6569 25.3455 13.7074 25.1111C13.8367 24.4398 14.305 24.9278 14.6187 24.8596Z"
              fill="#051B7D"/>
        <path d="M14.6187 24.8597C14.447 25.0728 13.9659 24.5784 13.9511 25.1516C13.8833 25.9699 13.4615 26.7882 13.9511 27.6257C14.4195 27.4979 14.3453 26.7584 14.9176 26.7733C15.5089 27.2549 15.2397 26.3706 15.5343 26.3812C15.8035 26.5155 15.9391 26.7882 16.1447 26.9886C16.2888 27.2017 16.416 27.4148 16.2719 27.6811C16.1157 27.8222 15.9157 27.9043 15.706 27.9134C15.3224 27.9752 15.0702 28.1585 15.0256 28.5762C15.0087 28.7893 15.015 29.0407 15.2567 29.094C15.6297 29.1793 15.7865 28.8404 15.9921 28.6167C16.1328 28.3832 16.2432 28.1325 16.3206 27.8708C16.4499 27.5426 16.6491 27.4446 16.9395 27.7003C17.1514 28.1436 17.1514 28.6252 17.1917 29.1025C17.176 29.2113 17.1236 29.3114 17.0433 29.386C16.6983 29.3373 16.3471 29.4079 16.0472 29.5863C15.3965 29.9741 14.8031 30.1084 14.2584 29.3028C13.7879 28.6103 13.5802 29.3433 13.3089 29.6097C13.097 29.68 12.9041 29.7291 12.7621 29.4946C12.8087 28.3737 12.7388 27.2528 12.7812 26.0467C12.4807 26.3785 12.219 26.7439 12.0012 27.1356C11.1535 28.4142 11.1535 28.4142 12.0012 29.4968C11.8592 29.7461 11.6494 29.6609 11.4459 29.614C10.8101 29.013 9.68681 29.4328 9.20782 28.5186L9.44095 28.3055C9.73343 28.2246 10.0217 28.1734 10.2357 27.8942C10.7062 27.2848 10.6596 27.0632 9.93054 26.8074C9.6974 26.7265 9.47486 26.6476 9.42611 26.362L9.01919 25.695C9.40704 25.4031 10.0217 25.3264 10.0238 24.5805C9.42823 24.6807 9.30955 25.3306 8.84751 25.5203C8.63557 25.4713 8.58895 25.3072 8.57199 25.109C8.3113 24.4505 8.7585 24.2417 9.23749 24.0563C9.37738 23.9071 9.51726 23.7601 9.66138 23.613C10.6766 23.9774 11.8825 23.5193 12.8002 24.5251C13.1394 24.881 13.9998 24.7595 14.6187 24.8597Z"
              fill="#052898"/>
        <path d="M16.8102 27.6705C16.2507 27.8239 16.6131 28.4803 16.2379 28.736C15.9052 28.4185 15.9158 28.0797 16.1807 27.7281C16.2011 27.4923 16.133 27.2574 15.99 27.0696C16.0055 27.0406 16.027 27.0152 16.0531 26.9953C16.0791 26.9753 16.1091 26.9613 16.1411 26.954C16.173 26.9467 16.2062 26.9464 16.2382 26.9531C16.2703 26.9598 16.3005 26.9734 16.327 26.9929C16.4518 26.9808 16.5704 26.9319 16.6677 26.8523C16.765 26.7726 16.8367 26.6658 16.8738 26.5453C17.3994 26.5794 17.6495 26.0765 18.0797 25.9231L18.1603 26.4452C18.4485 26.1703 18.1899 25.7505 18.4994 25.5395C18.989 26.3514 18.9233 25.3903 19.1585 25.3264C19.4807 25.4606 19.2772 25.9209 19.5676 26.085C19.9915 25.8719 19.5782 25.2689 20.0762 25.1453C20.3115 25.4564 20.3009 25.8528 20.4408 26.198C20.3602 26.3557 19.8876 26.556 20.4895 26.6391C20.4259 27.0248 20.1674 27.1122 19.8283 27.0653C19.7053 26.8053 19.5379 26.9758 19.3853 27.0206C18.6096 27.2699 18.6181 27.8431 18.7876 28.4824L18.5312 28.736C18.1582 28.6231 18.1242 28.9662 17.961 29.1494C17.7152 29.4286 17.4545 29.7206 17.0412 29.3966C17.056 29.2837 17.073 29.1708 17.09 29.0578C17.1991 28.9227 17.2989 28.7803 17.3888 28.6316C17.7851 27.8836 17.6982 27.7408 16.8102 27.6705Z"
              fill="#0D2C8A"/>
        <path d="M26.5066 20.0395C26.7503 19.9691 27.0513 20.0586 27.2166 19.7773C27.9817 19.8647 28.5963 20.3506 29.3106 20.5786C29.1177 21.0048 29.5225 21.7549 28.662 21.8572C29.3424 20.5786 28.1322 20.8876 27.6235 20.6084C27.3883 20.0757 27.2229 20.5211 27.0364 20.6511C26.8987 20.6116 26.7753 20.5328 26.6813 20.4243C26.5872 20.3157 26.5265 20.182 26.5066 20.0395Z"
              fill="#113199"/>
        <path d="M12.8214 29.401L13.3089 29.6141C12.6922 29.9337 12.0733 29.8762 11.4544 29.6141L11.9652 29.3882C12.0171 29.3238 12.0829 29.2721 12.1576 29.237C12.2323 29.2019 12.314 29.1843 12.3964 29.1855C12.4789 29.1867 12.5599 29.2067 12.6336 29.2441C12.7072 29.2814 12.7714 29.3351 12.8214 29.401Z"
              fill="#0C3DAA"/>
        <path d="M28.111 26.1787C28.231 26.3276 28.2953 26.514 28.2926 26.7056C28.2899 26.8972 28.2204 27.0818 28.0962 27.2272C28.1004 26.8798 28.1047 26.5303 28.111 26.1787Z"
              fill="#043CAD"/>
        <path d="M6.91245 23.8857C7.23884 23.8602 7.41475 23.3402 7.82168 23.6023C7.8895 23.6449 7.96368 23.8154 7.94461 23.8389C7.58007 24.1862 7.63305 24.9662 6.87218 24.9044C6.55638 24.5485 6.99723 24.2267 6.91245 23.8857Z"
              fill="#F7F9FC"/>
        <path d="M7.32154 25.7014C7.2516 26.2193 7.74543 26.8266 7.07145 27.2443C6.97396 26.7009 6.57339 26.1084 7.32154 25.7014Z"
              fill="#FEFEFE"/>
        <path d="M6.6624 25.1132C6.73885 25.4608 6.67967 25.8246 6.49708 26.1297C6.39322 25.6821 5.86126 25.3199 6.66664 25.1196L6.6624 25.1132Z"
              fill="#E5EBF8"/>
        <path d="M29.8659 20.1757C29.9824 19.7687 29.6412 19.7069 29.406 19.6088C28.5582 19.2551 27.7401 18.8417 26.8627 18.6094C25.8708 18.3451 25.4681 17.7293 25.4575 16.7831C25.4469 16.0799 25.5041 15.3766 25.5317 14.6734C25.7288 14.2344 25.5804 13.7677 25.6291 13.3181C25.6546 13.105 25.6758 12.8919 25.9916 12.9856C26.3858 13.6036 26.2332 14.2642 26.176 14.9334C26.0128 15.513 25.9237 16.0948 26.123 16.6851C26.3074 17.3542 26.7736 17.7357 27.3946 17.9637C28.2038 18.2857 28.9924 18.6579 29.7557 19.0782C30.0884 19.2487 30.4805 19.3659 30.5928 19.8028L30.169 20.2098L29.8659 20.1757Z"
              fill="#0F2594"/>
        <path d="M25.928 15.0974C26.0543 14.3933 26.0607 13.6727 25.947 12.9664C25.6228 12.4826 25.6567 11.9009 25.5232 11.3638C25.0887 9.7123 24.154 8.84285 22.4881 8.59352C22.149 8.54024 21.7803 8.57433 21.5196 8.27812C22.0325 7.44063 22.9205 7.24245 23.7619 6.99951C24.274 6.88491 24.7929 6.80376 25.3155 6.75657C26.71 6.73952 28.1237 6.53281 29.4526 7.18278C30.2864 7.55727 31.0046 8.15057 31.5317 8.90038C31.9708 9.53958 32.5164 10.0976 33.1446 10.5498C34.0899 11.2253 34.4502 12.0585 34.2467 13.1773C33.471 14.9589 33.5452 17.0132 32.5215 18.718C31.9747 19.2422 31.5275 19.9497 30.6034 19.8005C29.4947 19.1144 28.3159 18.55 27.0873 18.117C26.4006 17.872 26.0128 17.5033 25.9216 16.7958C25.7938 16.2367 25.796 15.6555 25.928 15.0974Z"
              fill="#FEFEFE"/>
        <path d="M34.412 13.1795V11.9478C34.5816 12.374 34.7872 12.7874 34.412 13.1795Z" fill="#0344C6"/>
        <path d="M21.5132 8.27832C24.4571 8.2357 25.928 9.79134 25.9471 12.9666C25.4384 13.4418 26.017 14.1855 25.5232 14.6714C25.485 13.8595 25.5105 13.0369 25.3982 12.2356C25.0506 9.802 24.0841 8.9368 21.6383 8.78124C21.2525 8.75566 20.8647 8.75354 20.479 8.74075C20.1865 8.64699 19.8431 8.81107 19.5485 8.57879C20.2119 8.36995 20.9198 8.68534 21.5132 8.27832Z"
              fill="#072BAD"/>
        <path d="M15.6191 18.5071C15.581 19.8518 13.1521 22.115 11.8041 22.0574C11.6013 22.0392 11.4051 21.976 11.2294 21.8724C11.0538 21.7688 10.9032 21.6273 10.7885 21.4581C10.6738 21.289 10.5978 21.0964 10.566 20.8942C10.5342 20.692 10.5473 20.4852 10.6045 20.2887C10.9328 19.315 11.1871 18.3176 11.3654 17.3052C11.4092 17.0598 11.5412 16.8391 11.7363 16.6851C12.6795 16.0778 13.5781 16.5594 14.4513 16.8982C15.1401 17.1774 15.6551 17.6547 15.6191 18.5071Z"
              fill="#063597"/>
        <path d="M13.7137 15.2401C13.2453 15.2167 12.7048 15.0995 12.3445 14.5838C11.9842 14.0681 12.1877 13.5694 12.4781 13.107C12.9566 12.3251 13.3462 11.4916 13.6395 10.6222C14.0125 9.58013 14.8667 9.13049 15.8755 9.37982C16.7233 9.59292 17.0772 10.2599 16.9352 11.3936C16.8759 11.8497 16.8081 12.3036 16.7233 12.7554C16.3651 14.6988 15.7759 15.1954 13.7137 15.2401Z"
              fill="#053BAC"/>
        <path d="M19.379 12.9663C19.5761 12.2375 20.0021 11.6387 20.4578 11.0591C20.6867 11.8348 21.3797 11.773 21.9689 12.001C22.7489 12.3057 23.1749 11.9712 23.6263 11.4768C24.1456 12.3931 24.0502 13.2668 23.4462 14.1043C23.2787 14.1192 23.2342 14.2641 23.1706 14.3792C22.3631 15.7345 22.3631 15.7324 20.9007 15.4042C19.3599 15.059 19.3345 15.0249 19.3959 13.4735C19.3959 13.3094 19.4828 13.1368 19.379 12.9663Z"
              fill="#0639A0"/>
        <path d="M23.6178 11.4747C23.4503 12.6105 23.4503 12.6105 22.1956 12.3079C21.9265 12.2419 21.6425 12.0948 21.3902 12.1332C20.4619 12.2866 20.286 11.837 20.4492 11.057C20.551 10.6031 20.4132 10.5392 20.0465 10.7949C19.8134 10.9569 19.5273 11.1508 19.3281 10.7949C19.0928 10.3687 19.4934 10.243 19.7392 10.0853C21.1783 9.1796 22.77 9.75284 23.6178 11.4747Z"
              fill="#063DAF"/>
        <path d="M19.3789 12.9666C19.6756 13.7572 20.6506 14.6842 21.5789 15.3384C22.1045 15.7113 22.2931 15.5515 22.5496 15.1253C22.7849 14.7396 23.0392 14.3645 23.2893 13.9873C23.3227 13.9889 23.3551 14 23.3825 14.0193C23.4077 14.0437 23.4291 14.0717 23.4461 14.1024C23.0392 14.9292 22.7531 15.8605 21.7082 16.1332C21.0045 16.1332 20.303 16.1141 19.6015 16.146C18.2726 15.8818 17.9971 15.5813 17.925 14.2878C17.9038 13.9362 17.8275 13.5611 17.9144 13.2223C18.0522 12.6959 17.8657 11.7114 18.599 11.8179C19.2942 11.9181 18.6604 12.7044 18.6668 13.1818C18.6668 13.8637 18.599 14.5414 19.0907 15.3341C19.3577 14.4583 18.9296 13.6442 19.3789 12.9666Z"
              fill="#103499"/>
        <path d="M19.5909 16.1629C19.9201 16.0072 20.279 15.9255 20.6428 15.9233C21.0066 15.9211 21.3665 15.9985 21.6976 16.1501C21.0003 16.4655 20.2988 16.3867 19.5909 16.1629Z"
              fill="#001981"/>
        <path d="M9.43459 26.3534C9.94325 26.6667 10.5409 26.4621 11.1174 26.6411C11.0263 27.3401 10.5982 27.8494 10.223 28.3885C9.89662 28.8595 9.67409 28.6165 9.44943 28.2969C9.34134 27.8238 9.23748 27.3507 9.12515 26.8755C9.06793 26.6049 9.08489 26.379 9.43459 26.3534Z"
              fill="#F8F9FC"/>
        <path d="M8.85599 25.5118C9.00484 25.0842 9.24668 24.6955 9.56388 24.3738C9.79278 24.1607 10.0577 23.9476 10.3777 24.2225C10.6978 24.4974 10.4413 24.7233 10.293 24.9449C9.99413 25.3967 9.75887 25.9721 9.02131 25.6865L8.85599 25.5118Z"
              fill="#EAEFF8"/>
        <path d="M8.78181 27.2657C8.82631 27.5662 8.85599 27.8347 8.47661 27.8219C7.73693 27.8006 7.93192 27.2018 7.91285 26.7926C7.89801 26.5347 7.7009 26.0233 8.18413 26.051C8.99375 26.0979 8.59106 26.8757 8.78181 27.2657Z"
              fill="#E5EBF7"/>
        <path d="M9.24599 24.0477C8.92195 24.3216 8.6896 24.6891 8.58049 25.1004C8.36855 25.3135 8.10786 25.4499 7.87049 25.1899C7.63311 24.9299 7.94679 24.7317 8.08243 24.5996C8.39186 24.2906 8.47664 23.4084 9.24599 24.0477Z"
              fill="#E9EEF8"/>
        <path d="M26.5066 20.0393C26.691 20.2332 27.1424 20.2034 27.0364 20.6445C26.3307 21.7782 25.5062 22.8608 25.5189 24.2992C25.5266 24.4972 25.4618 24.6911 25.3368 24.8442C25.2118 24.9974 25.0353 25.0992 24.8407 25.1303C24.6438 25.2073 24.4367 25.2547 24.2261 25.2709C23.5902 25.2454 22.8781 25.8463 22.3758 25.3498C21.8735 24.8533 22.5178 22.8821 23.1197 22.3323C23.4546 22.0254 23.8255 21.693 24.0057 21.2945C24.5164 20.1586 25.3918 19.888 26.5066 20.0393Z"
              fill="#FDFDFE"/>
        <path d="M14.9282 26.7754L13.9935 28.3609C13.5866 27.2549 13.0228 26.1937 13.9617 25.1516C15.1528 25.2624 15.1973 25.337 14.9282 26.7754Z"
              fill="#F4F6FA"/>
        <path d="M16.327 26.9842L15.99 27.0609C15.5661 27.0289 15.5046 26.7327 15.5343 26.3832C15.5788 26.1701 15.6212 25.9741 15.67 25.7716C15.7865 25.3071 16.1553 25.2772 16.4944 25.3859C16.8844 25.5116 16.6746 25.8526 16.6173 26.0977C16.5474 26.3918 16.4266 26.688 16.327 26.9842Z"
              fill="#E6EAF3"/>
        <path d="M18.7876 28.4867C18.5898 28.3673 18.4402 28.1814 18.3654 27.9619C18.2905 27.7424 18.2952 27.5033 18.3786 27.2869C18.5333 26.8607 19.0144 26.9737 19.3853 27.0248C19.3557 27.5831 19.4129 28.1756 18.7876 28.4867Z"
              fill="#E3E8F2"/>
        <path d="M18.0797 25.9146C17.8932 26.5539 17.6558 27.061 16.8738 26.5368C16.9416 26.3365 17.0009 26.134 17.0857 25.9401C17.3909 25.1687 17.7258 25.1538 18.0797 25.9146Z"
              fill="#EFF2F7"/>
        <path d="M19.8283 27.0696C19.966 26.799 20.2691 26.7819 20.4895 26.6434C20.5425 26.7287 20.6506 26.8182 20.6421 26.897C20.6082 27.2337 20.8859 27.7494 20.3348 27.8261C19.8876 27.8837 19.9067 27.3893 19.8283 27.0696Z"
              fill="#D6DDEB"/>
        <path d="M19.167 25.3264C19.1776 25.3969 19.1825 25.4681 19.1818 25.5395C19.1543 25.8868 19.3323 26.4345 18.777 26.4089C18.2217 26.3833 18.6732 25.8165 18.5079 25.5416C18.6562 25.2582 18.9084 25.2965 19.167 25.3264Z"
              fill="#F6F7FA"/>
        <path d="M20.4387 26.1958C19.5527 26.1127 20.0148 25.5565 20.0741 25.1431C21.0745 25.1878 20.4895 25.7845 20.4387 26.1958Z"
              fill="#FAFAFC"/>
        <path d="M12.8214 29.4009H11.9737C10.6024 28.9513 10.5812 28.9044 11.3209 27.7558C11.8251 26.9491 12.375 26.1721 12.9677 25.4287C12.8087 26.7521 13.3598 28.0968 12.8214 29.4009Z"
              fill="#FAFBFC"/>
        <path d="M10.2654 25.7525C10.4773 25.4755 10.6893 25.1963 10.9012 24.9214C11.1132 24.6465 11.2361 24.1862 11.749 24.3524C11.9318 24.4286 12.0854 24.5618 12.1873 24.7323C12.2892 24.9029 12.3339 25.1018 12.3149 25.2998C12.2959 25.4979 12.2142 25.6845 12.0818 25.8324C11.9494 25.9803 11.7733 26.0815 11.5794 26.1211C11.4438 26.1403 11.3039 26.1446 11.1555 26.1553C10.9266 25.8931 10.3671 26.3406 10.2654 25.7525Z"
              fill="#F2F4F9"/>
        <path d="M16.1807 27.7194L16.2379 28.7274C16.151 28.8361 16.0705 28.9405 15.9773 29.0535C15.6975 29.3688 15.4199 29.7162 14.9345 29.4115C14.5106 29.143 14.6886 28.7295 14.7226 28.3651C14.7734 27.8857 14.9938 27.5831 15.547 27.6875C15.7572 27.7135 15.969 27.7241 16.1807 27.7194Z"
              fill="#F3F5F9"/>
        <path d="M16.8102 27.6704C16.8987 27.4998 17.0494 27.3703 17.2308 27.3091C17.4122 27.2479 17.6101 27.2598 17.783 27.3422C18.0374 27.4722 17.9144 27.924 17.8593 28.2181C17.7809 28.6443 17.7788 29.1792 17.0921 29.0556C16.7551 28.6379 16.9204 28.1222 16.8102 27.6704Z"
              fill="#EAEEF5"/>
        <path d="M10.2654 25.7526C10.4371 26.1788 10.914 25.9145 11.1662 26.1553C10.8601 26.1947 10.5503 26.1947 10.2442 26.1553C9.76948 26.0424 10.0768 25.8783 10.2654 25.7526Z"
              fill="#0D36B2"/>
        <path d="M25.928 15.0975L25.9152 16.8023C25.7698 16.5416 25.6945 16.2472 25.6967 15.9483C25.6989 15.6493 25.7786 15.3561 25.928 15.0975Z"
              fill="#072BAD"/>
        <path d="M12.5968 17.252L11.6388 21.1922C11.2149 20.4996 11.9376 17.5695 12.5968 17.252Z" fill="#EAEEF6"/>
        <path d="M15.0129 10.2175C14.8158 11.7476 13.4043 12.796 13.5293 14.4625C13.1054 14.3218 12.7218 14.2025 12.9952 13.7379C13.576 12.6951 14.0804 11.6111 14.5043 10.4945C14.5196 10.4428 14.5449 10.3945 14.5787 10.3526C14.6126 10.3106 14.6543 10.2758 14.7015 10.2501C14.7488 10.2244 14.8006 10.2082 14.854 10.2026C14.9074 10.1971 14.9614 10.2021 15.0129 10.2175Z"
              fill="#DDE5F4"/>
    </g>
</svg>
