<svg width="40" height="40" fill="none" xmlns="http://www.w3.org/2000/svg">
    <g clip-path="url(#a)">
        <rect width="40" height="40" rx="20" fill="url(#b)"/>
        <g clip-path="url(#c)">
            <path d="M26.679 15.94h-2.161c-.24 0-.48-.109-.655-.283l-.873-.982a.713.713 0 0 0-.982-.066l-.066.066-.741.85c-.24.285-.612.437-.983.437H8.411c-.328.96-.546 1.986-.633 3.012h11.174a.762.762 0 0 0 .524-.218l1.048-1.091a.71.71 0 0 1 .502-.218h.044c.196 0 .392.087.523.24l.873.982a.884.884 0 0 0 .655.305h9.101a12.755 12.755 0 0 0-.633-3.012h-4.91v-.021Zm-7.16 6.024-.872-.982a.713.713 0 0 0-.982-.065l-.066.065-.764.851c-.24.284-.589.437-.96.437H7.952a12.855 12.855 0 0 0 1.004 3.056h5.566c.196 0 .37-.088.524-.219l1.047-1.091a.71.71 0 0 1 .502-.218h.044c.196 0 .393.087.524.24l.873.982a.884.884 0 0 0 .654.306h12.354c.458-.96.807-1.987 1.004-3.056H20.175a.818.818 0 0 1-.655-.306Zm4.279-9.515 1.047-1.092a.71.71 0 0 1 .502-.218h.044c.196 0 .393.087.524.218l.873.982a.861.861 0 0 0 .654.284H29.8c-4.104-5.413-11.808-6.482-17.242-2.4a12.507 12.507 0 0 0-2.401 2.4h13.117a.561.561 0 0 0 .524-.175ZM15.35 28.337a.871.871 0 0 1-.655-.283l-.873-.982a.692.692 0 0 0-.982-.044l-.043.044-.764.85c-.24.284-.59.437-.96.437h-.044c4.605 4.933 12.397 5.173 17.351.524.196-.175.371-.371.567-.567H15.351v.021Z"
                  fill="#fff"/>
        </g>
    </g>
    <defs>
        <clipPath id="a">
            <path fill="#fff" d="M0 0h40v40H0z"/>
        </clipPath>
        <clipPath id="c">
            <path fill="#fff" d="M7.778 7.778h24.444v24.444H7.778z"/>
        </clipPath>
        <linearGradient id="b" x1="20" y1="0" x2="20" y2="40" gradientUnits="userSpaceOnUse">
            <stop stop-color="#262626"/>
            <stop offset="1"/>
        </linearGradient>
    </defs>
</svg>
