<svg width="24" height="24" viewBox="0 0 24 24" fill="none" xmlns="http://www.w3.org/2000/svg">
    <g clip-path="url(#clip0_261_1591)">
        <path d="M12 24C18.6274 24 24 18.6274 24 12C24 5.37258 18.6274 0 12 0C5.37258 0 0 5.37258 0 12C0 18.6274 5.37258 24 12 24Z"
              fill="#2D374B"/>
        <path d="M14.1747 11.2975L15.4085 9.20406L18.734 14.3837L18.7355 15.3776L18.7247 8.53755C18.7168 8.37035 18.628 8.21738 18.4864 8.12718L12.4992 4.68328C12.3592 4.61446 12.1816 4.61519 12.0418 4.68542C12.0229 4.69491 12.0051 4.70518 11.9882 4.71639L11.9673 4.72953L6.15583 8.09726L6.13326 8.10748C6.10427 8.12082 6.07497 8.13777 6.04744 8.15748C5.93728 8.23651 5.86408 8.35335 5.84041 8.48442C5.83687 8.50428 5.83426 8.52451 5.83301 8.5449L5.84213 14.1189L8.9397 9.31787C9.32967 8.68123 10.1794 8.47618 10.9682 8.48734L11.8939 8.51179L6.43925 17.2596L7.08224 17.6298L12.6023 8.52066L15.0422 8.51179L9.53634 17.8508L11.8307 19.1704L12.1049 19.3281C12.2208 19.3752 12.3575 19.3776 12.4745 19.3354L18.5458 15.817L17.385 16.4896L14.1747 11.2975ZM14.6454 18.0773L12.328 14.4401L13.7426 12.0397L16.7861 16.8367L14.6454 18.0773Z"
              fill="#2D374B"/>
        <path d="M12.3281 14.4402L14.6455 18.0774L16.7862 16.8368L13.7428 12.0398L12.3281 14.4402Z" fill="#28A0F0"/>
        <path d="M18.7354 15.3777L18.7339 14.3837L15.4084 9.2041L14.1746 11.2976L17.3849 16.4897L18.5457 15.817C18.6595 15.7246 18.7284 15.5889 18.7356 15.4424L18.7354 15.3777Z"
              fill="#28A0F0"/>
        <path d="M4.8001 16.3151L6.43926 17.2596L11.8939 8.51182L10.9682 8.48737C10.1794 8.47621 9.32974 8.68126 8.93971 9.3179L5.84215 14.119L4.80005 15.7201V16.3151H4.8001Z"
              fill="#FAFAFA"/>
        <path d="M15.0419 8.51184L12.6021 8.5207L7.08203 17.6298L9.01143 18.7407L9.53613 17.8508L15.0419 8.51184Z"
              fill="#FAFAFA"/>
        <path d="M19.764 8.49928C19.7436 7.98903 19.4673 7.52189 19.0345 7.24995L12.9689 3.76178C12.5408 3.5462 12.006 3.54594 11.5773 3.76162C11.5266 3.78717 5.67853 7.17883 5.67853 7.17883C5.59761 7.21762 5.51967 7.26387 5.44631 7.31632C5.05998 7.59321 4.82448 8.02344 4.80029 8.49616V15.7202L5.84239 14.119L5.83326 8.54501C5.83452 8.52462 5.83707 8.5046 5.84067 8.48479C5.86418 8.35362 5.93743 8.23662 6.0477 8.15758C6.07523 8.13788 12.0231 4.69502 12.042 4.68553C12.1819 4.6153 12.3595 4.61457 12.4995 4.68339L18.4866 8.12729C18.6283 8.21749 18.7171 8.37046 18.725 8.53766V15.4425C18.7177 15.589 18.6598 15.7246 18.546 15.8171L17.3852 16.4897L16.7863 16.8368L14.6456 18.0774L12.4747 19.3355C12.3577 19.3777 12.221 19.3754 12.1051 19.3282L9.53654 17.8509L9.01185 18.7407L11.3201 20.0697C11.3964 20.1131 11.4645 20.1516 11.5203 20.183C11.6067 20.2315 11.6656 20.2638 11.6864 20.2739C11.8505 20.3536 12.0865 20.4 12.2992 20.4C12.4942 20.4 12.6844 20.3642 12.8643 20.2937L19.1699 16.6419C19.5319 16.3615 19.7448 15.9386 19.764 15.4805V8.49928Z"
              fill="#96BEDC"/>
    </g>
    <defs>
        <clipPath id="clip0_261_1591">
            <rect width="24" height="24" fill="white"/>
        </clipPath>
    </defs>
</svg>
