<svg width="24" height="24" viewBox="0 0 24 24" fill="none" xmlns="http://www.w3.org/2000/svg">
    <g clip-path="url(#clip0_14_5244)">
        <path d="M12 24C18.6274 24 24 18.6274 24 12C24 5.37258 18.6274 0 12 0C5.37258 0 0 5.37258 0 12C0 18.6274 5.37258 24 12 24Z"
              fill="#353954"/>
        <path d="M11.9999 18.9629C15.8455 18.9629 18.9629 15.8455 18.9629 11.9999C18.9629 8.1544 15.8455 5.03699 11.9999 5.03699C8.1544 5.03699 5.03699 8.1544 5.03699 11.9999C5.03699 15.8455 8.1544 18.9629 11.9999 18.9629Z"
              fill="#1B1E36"/>
        <path d="M12.0246 1.53088C10.7293 1.53088 9.67896 6.22915 9.67896 12.0247C9.67896 17.8202 10.7293 22.5185 12.0246 22.5185C13.32 22.5185 14.3703 17.8202 14.3703 12.0247C14.3703 6.22915 13.32 1.53088 12.0246 1.53088ZM12.1866 21.9259C12.0385 22.1234 11.8903 21.9753 11.8903 21.9753C11.2938 21.2839 10.9955 20 10.9955 20C9.95204 16.642 10.2004 9.4321 10.2004 9.4321C10.6908 3.70816 11.5832 2.35607 11.8864 2.05582C11.9174 2.02524 11.9583 2.0066 12.0017 2.00316C12.0452 1.99973 12.0884 2.01173 12.1239 2.03706C12.5644 2.34915 12.9338 3.65434 12.9338 3.65434C14.0247 7.70371 13.9259 11.5062 13.9259 11.5062C14.0247 14.8148 13.3792 18.5185 13.3792 18.5185C12.8824 21.3333 12.1866 21.9259 12.1866 21.9259Z"
              fill="#80839B"/>
        <path d="M21.1269 6.80245C20.482 5.6785 15.8845 7.10566 10.8553 9.99011C5.8262 12.8746 2.27805 16.1234 2.9225 17.2469C3.56694 18.3704 8.16497 16.9437 13.1941 14.0592C18.2232 11.1748 21.7714 7.92591 21.1269 6.80245ZM3.51706 17.0923C3.27015 17.0612 3.32595 16.8583 3.32595 16.8583C3.62867 15.997 4.59262 15.0992 4.59262 15.0992C6.98719 12.5229 13.365 9.1506 13.365 9.1506C18.5734 6.72739 20.1911 6.82961 20.6015 6.94221C20.6437 6.95388 20.6804 6.98013 20.7051 7.01629C20.7298 7.05245 20.7408 7.09619 20.7363 7.13974C20.6869 7.67702 19.7363 8.6469 19.7363 8.6469C16.7684 11.6099 13.4208 13.4168 13.4208 13.4168C10.6 15.1496 7.0662 16.4321 7.0662 16.4321C4.37731 17.401 3.51706 17.0923 3.51706 17.0923Z"
              fill="#80839B"/>
        <path d="M21.1042 17.284C21.7541 16.163 18.2153 12.8988 13.2029 9.99311C8.19057 7.08741 3.59451 5.64247 2.94513 6.76544C2.29574 7.88841 5.83402 11.1506 10.8488 14.0563C15.8637 16.962 20.4548 18.407 21.1042 17.284ZM3.37574 7.19852C3.27945 6.97087 3.48241 6.91605 3.48241 6.91605C4.3797 6.74667 5.63995 7.13235 5.63995 7.13235C9.06859 7.9131 15.1822 11.7428 15.1822 11.7428C19.8894 15.0366 20.6113 16.4875 20.7195 16.8993C20.7305 16.9416 20.7262 16.9863 20.7074 17.0257C20.6886 17.0651 20.6565 17.0966 20.6168 17.1146C20.1259 17.3393 18.8113 17.0045 18.8113 17.0045C14.7595 15.9181 11.519 13.9275 11.519 13.9275C8.60736 12.3571 5.72834 9.94076 5.72834 9.94076C3.54068 8.09878 3.37673 7.2005 3.37673 7.2005L3.37574 7.19852Z"
              fill="#80839B"/>
        <path d="M11.9999 13.2344C12.6817 13.2344 13.2344 12.6817 13.2344 11.9999C13.2344 11.3181 12.6817 10.7654 11.9999 10.7654C11.3181 10.7654 10.7654 11.3181 10.7654 11.9999C10.7654 12.6817 11.3181 13.2344 11.9999 13.2344Z"
              fill="#B7B9C8"/>
        <path d="M17.0617 8.00004C17.4572 8.00004 17.7778 7.6684 17.7778 7.2593C17.7778 6.8502 17.4572 6.51855 17.0617 6.51855C16.6663 6.51855 16.3457 6.8502 16.3457 7.2593C16.3457 7.6684 16.6663 8.00004 17.0617 8.00004Z"
              fill="#B7B9C8"/>
        <path d="M5.30871 10.5184C5.70418 10.5184 6.02478 10.1868 6.02478 9.77771C6.02478 9.36862 5.70418 9.03699 5.30871 9.03699C4.91324 9.03699 4.59265 9.36862 4.59265 9.77771C4.59265 10.1868 4.91324 10.5184 5.30871 10.5184Z"
              fill="#B7B9C8"/>
        <path d="M10.5432 19.6049C10.9387 19.6049 11.2593 19.2733 11.2593 18.8642C11.2593 18.4551 10.9387 18.1234 10.5432 18.1234C10.1477 18.1234 9.82715 18.4551 9.82715 18.8642C9.82715 19.2733 10.1477 19.6049 10.5432 19.6049Z"
              fill="#B7B9C8"/>
    </g>
    <defs>
        <clipPath id="clip0_14_5244">
            <rect width="24" height="24" fill="white"/>
        </clipPath>
    </defs>
</svg>
