<svg width="40" height="40" viewBox="0 0 40 40" fill="none" xmlns="http://www.w3.org/2000/svg">
    <circle cx="20" cy="20" r="20" fill="#E84142"/>
    <path d="M23.529 15.3612C24.2436 14.1236 24.2436 12.5988 23.529 11.3612L21.1554 7.25C20.5781 6.25 19.1347 6.25 18.5574 7.25L7.29904 26.75C6.72169 27.75 7.44338 29 8.59808 29H13.3453C14.7743 29 16.0948 28.2376 16.8094 27L23.529 15.3612Z"
          fill="white"/>
    <path d="M28.8695 20.6112C28.2921 19.6112 26.8488 19.6112 26.2714 20.6112L22.7272 26.75C22.1498 27.75 22.8715 29 24.0262 29H31.1147C32.2694 29 32.9911 27.75 32.4137 26.75L28.8695 20.6112Z"
          fill="white"/>
</svg>
