<svg width="40" height="40" viewBox="0 0 40 40" fill="none" xmlns="http://www.w3.org/2000/svg">
    <path d="M19.996 0c11.042 0 19.996 8.955 19.996 19.998 0 11.043-8.954 19.998-19.996 19.998C8.954 39.996 0 31.041 0 19.998 0 8.955 8.954 0 19.996 0z"
          fill="#0055D5"/>
    <path d="M10.878 13.23s-2.152-1.72-2.3 2.528c-.148 3.292-.144 9.683 1.38 12.703.644 1.136 1.504.788 3.103-.344 1.392-1.028 6.427-5.667 8.559-7.703 2.131-2.036 6.454-7.875 7.354-3.908.356 1.668.796 3.084.46 6.784-.104 1.14-.592 2.004-2.815.46-1.68-1.08-3.276-2.24-3.276-2.24s-.308-.552-1.035.344c-.572.716-.86.892.055 1.436.92.544 5.571 3.751 7.355 4.251 1.472.428 2.312.42 2.356-2.471-.008-2.296-.14-8.868-.976-11.667-.632-1.744-1.56-2.536-3.563-.576-2.004 1.96-8.323 8.087-11.778 10.863-2.292 1.72-3.271 3.271-4.135.404-.608-2.172-1.396-8.932 1.091-7.644 1.556.744 2.332.74 1.724 1.208-.608.464-2.355 2.068-2.355 2.068s-.54.436-.288 1.38c.252.66.252.988 1.607-.288 1.356-1.276 2.356-2.24 2.356-2.24s.216-.34.86.288.747.804.747.804.172.468.86-.344c.692-.812 1.136-1.308-.172-2.068-1.303-.768-7.174-4.027-7.174-4.027z"
          fill="#fff"/>
</svg>
