<svg width="40" height="40" viewBox="0 0 40 40" fill="none" xmlns="http://www.w3.org/2000/svg">
    <circle cx="20" cy="20" r="20" fill="#00C54F"/>
    <path fill-rule="evenodd" clip-rule="evenodd"
          d="M13.9438 12.6724C13.9755 12.864 13.9494 12.9475 13.7556 12.9813C12.8591 13.189 11.9681 13.4317 11.078 13.6743L11.078 13.6743C10.653 13.7901 10.2282 13.9058 9.8032 14.0176C9.8795 14.3593 9.95553 14.6735 10.0316 14.9878L10.0316 14.9878C10.1076 15.302 10.1836 15.6163 10.2599 15.9579C10.2627 16.0954 10.3465 16.1202 10.4564 16.0616C10.554 16.0369 10.6537 16.011 10.7553 15.9846L10.7553 15.9846C11.1717 15.8764 11.6203 15.7598 12.0876 15.6783C12.6689 15.5768 13.2035 15.9173 13.3244 16.4089C14.1658 19.5748 14.9233 22.716 15.6808 25.8572L15.6808 25.8572L15.6808 25.8572L15.6808 25.8573C15.8279 26.2654 15.6136 26.6578 15.1161 26.7841C14.7025 26.9352 14.205 27.0614 13.7626 27.1584C13.5977 27.2464 13.5427 27.2757 13.5743 27.4673C13.6403 27.9882 13.6802 28.5926 13.7202 29.1969C13.7229 29.3345 13.7322 29.4512 13.7415 29.5679C13.7508 29.6846 13.7601 29.8013 13.7628 29.9388C15.2552 29.56 16.6926 29.2104 18.13 28.8609C18.1638 28.9243 18.1688 28.9792 18.173 29.0247C18.176 29.0568 18.1785 29.0843 18.1904 29.1067C18.3774 30.1192 18.6483 31.1565 18.9191 32.1938C18.9219 32.3313 18.9507 32.3855 19.1445 32.3516C19.7519 32.1667 20.3592 31.9818 20.9955 31.851C21.1662 31.8212 21.1641 31.7757 21.1593 31.6712C21.1586 31.6571 21.1579 31.6419 21.1576 31.6255C21.0827 31.3527 21.0215 31.0725 20.9603 30.7923C20.8992 30.5121 20.838 30.2319 20.7631 29.9591C20.6881 29.6862 20.627 29.4061 20.5658 29.1259L20.5658 29.1259C20.5046 28.8457 20.4434 28.5655 20.3685 28.2927C20.9208 28.1371 21.4182 28.0108 21.9156 27.8846L21.9158 27.8845C22.0158 27.8812 22.0302 27.9237 22.0521 27.9882C22.0605 28.0131 22.0701 28.0414 22.0862 28.0717C22.2732 29.0842 22.544 30.1214 22.8149 31.1587C22.8176 31.2963 22.8465 31.3504 23.0403 31.3166C23.3165 31.2388 23.6136 31.1672 23.9108 31.0956C24.208 31.024 24.5051 30.9524 24.7813 30.8746C25.0996 30.8379 25.0868 30.7868 25.0321 30.5671L25.0245 30.5364C24.9036 30.0448 24.7754 29.5398 24.6472 29.0348L24.6472 29.0346C24.519 28.5294 24.3908 28.0243 24.2698 27.5327C24.2382 27.341 24.3192 27.2283 24.513 27.1945C25.6989 26.7705 26.8559 26.2925 27.9236 25.5145C28.7453 24.9372 29.3128 24.148 29.5422 23.122C29.7193 22.2628 29.6478 21.4668 29.4636 20.5919C29.311 19.9086 29.0196 19.2298 28.5921 18.6932C27.9682 18.0527 27.2109 17.6919 26.2916 17.5567C26.1384 17.5341 25.9924 17.5251 25.8464 17.5161L25.8463 17.5161C25.7003 17.507 25.5543 17.498 25.4011 17.4755C25.4655 17.4411 25.5011 17.3983 25.5306 17.3628C25.5515 17.3377 25.5693 17.3162 25.5921 17.3041C25.9452 16.9072 26.2695 16.4562 26.4261 15.9556C26.6349 15.2881 26.5661 14.6297 26.4135 13.9464C26.1716 12.9632 25.6548 12.1266 24.7271 11.5787C24.0537 11.2427 23.3281 11.0736 22.6053 11.042L20.3585 11.1976C20.1647 11.2314 20.0809 11.2066 20.0493 11.0149C20.0149 10.6857 19.9255 10.3858 19.8362 10.0859L19.8362 10.0859C19.6547 9.3485 19.4732 8.61112 19.2629 7.81963C19.2354 7.83429 19.2144 7.82808 19.1935 7.82188C19.1725 7.81568 19.1516 7.80948 19.1241 7.82414C18.8263 7.89311 18.5441 7.96669 18.2684 8.03857L18.2684 8.03857C17.9042 8.13352 17.5514 8.2255 17.1893 8.29994C17.0505 8.30445 17.0244 8.38789 17.0821 8.49613L17.2636 9.23351C17.4189 10.0543 17.6004 10.7917 17.8107 11.5832C17.802 11.611 17.7965 11.6448 17.791 11.6787C17.7801 11.7463 17.7691 11.814 17.7324 11.8335C17.4837 11.8966 17.2212 11.9671 16.9588 12.0376C16.6963 12.1081 16.4338 12.1785 16.1851 12.2417C16.1824 12.1041 16.1535 12.05 16.1246 11.9959C16.0036 11.5043 15.8754 10.9992 15.7472 10.494C15.6191 9.98893 15.4909 9.48381 15.3699 8.99223C15.3671 8.85467 15.3382 8.80055 15.1445 8.83438C14.5371 9.01929 13.9847 9.17488 13.3484 9.30567C13.1547 9.3395 13.1286 9.42293 13.1602 9.61461C13.2956 10.1333 13.4238 10.6384 13.552 11.1435C13.6802 11.6486 13.8084 12.1537 13.9438 12.6724ZM19.5409 25.8144C19.5959 25.7851 19.6797 25.8099 19.6797 25.8099C19.8355 25.7703 19.9934 25.7314 20.1526 25.6921C21.0097 25.4807 21.9042 25.26 22.7166 24.8853C23.4051 24.5877 24.0097 24.2652 24.4989 23.7263C25.37 22.8446 25.0882 21.2571 24.0217 20.7136C23.516 20.4272 22.9319 20.3912 22.3479 20.3551C21.1074 20.3419 19.8748 20.7176 18.6926 21.0778L18.5854 21.1105C18.4088 21.1413 18.4171 21.189 18.4439 21.3424C18.4465 21.3573 18.4493 21.3731 18.4521 21.3901C18.5415 21.69 18.6099 21.9837 18.6783 22.2774L18.6783 22.2775L18.6783 22.2775C18.7467 22.5712 18.8151 22.8649 18.9044 23.1648C19.0094 23.6633 19.1322 24.1524 19.2579 24.6527L19.2579 24.6527C19.3528 25.0305 19.4493 25.4147 19.5409 25.8144ZM21.8185 17.5093C21.6275 17.6807 21.3816 17.8814 21.2716 17.94C20.6338 18.2802 20.0371 18.4888 19.4207 18.7041C19.1874 18.7857 18.9512 18.8682 18.7089 18.9593C18.5845 18.9908 18.4739 19.0151 18.3632 19.0393C18.2526 19.0636 18.142 19.0878 18.0176 19.1194C17.8789 19.1239 17.795 19.0991 17.7923 18.9615C17.5159 17.6491 17.2135 16.4202 16.8821 15.1371C16.8505 14.9454 16.8766 14.862 17.0704 14.8281C17.257 14.7838 17.4403 14.7385 17.6216 14.6937C18.3537 14.5128 19.0536 14.3398 19.8091 14.2712C20.4193 14.2238 21.0871 14.2847 21.6217 14.6252C22.6621 15.2521 22.7474 16.7359 21.8185 17.5093Z"
          fill="white"/>
</svg>
