<svg width="40" height="40" viewBox="0 0 40 40" fill="none" xmlns="http://www.w3.org/2000/svg">
    <circle cx="20" cy="20" r="20" fill="url(#paint0_radial)"/>
    <path d="M10.0287 30.3488L9.9499 25.3729L11.6928 25.3453C12.2966 25.3357 12.7564 25.4447 13.0722 25.6721C13.388 25.8973 13.5494 26.2332 13.5565 26.6797C13.5604 26.9235 13.5011 27.1398 13.3788 27.3286C13.2564 27.5151 13.0842 27.6535 12.8623 27.7436C13.1185 27.8033 13.321 27.9289 13.4699 28.1202C13.6211 28.3116 13.6989 28.5473 13.7033 28.8276C13.7109 29.306 13.564 29.6707 13.2626 29.9216C12.9612 30.1725 12.528 30.3047 11.963 30.3182L10.0287 30.3488ZM11.0197 28.1659L11.0409 29.509L11.9192 29.4951C12.1607 29.4912 12.3478 29.4313 12.4804 29.3153C12.6153 29.1969 12.6811 29.0363 12.6779 28.8336C12.6707 28.3779 12.4312 28.1504 11.9595 28.151L11.0197 28.1659ZM11.0082 27.4414L11.7669 27.4293C12.2839 27.412 12.5392 27.2018 12.5329 26.7985C12.5293 26.5729 12.4607 26.4122 12.327 26.3163C12.1955 26.2181 11.9885 26.1713 11.706 26.1758L10.9883 26.1871L11.0082 27.4414ZM16.3121 28.4273L15.4953 28.4403L15.5241 30.2618L14.4989 30.278L14.42 25.3021L16.2689 25.2728C16.8567 25.2635 17.3122 25.3873 17.6353 25.6443C17.9585 25.9012 18.1238 26.269 18.1314 26.7474C18.1368 27.0869 18.0672 27.3717 17.9227 27.6019C17.7805 27.8298 17.5612 28.0133 17.2649 28.1524L18.3736 30.1688L18.3743 30.2167L17.2739 30.2341L16.3121 28.4273ZM15.4821 27.6098L16.3092 27.5967C16.5666 27.5926 16.7649 27.5245 16.9041 27.3924C17.0433 27.258 17.1111 27.0758 17.1074 26.8457C17.1037 26.611 17.0336 26.4275 16.897 26.2952C16.7627 26.1629 16.5578 26.0989 16.2821 26.1033L15.4585 26.1163L15.4821 27.6098ZM21.9286 28.0033L19.9601 28.0345L19.9812 29.3674L22.2915 29.3308L22.3045 30.1544L18.969 30.2072L18.8902 25.2313L22.2189 25.1786L22.232 26.009L19.9286 26.0455L19.9474 27.2314L21.9159 27.2002L21.9286 28.0033ZM26.9524 30.0808L25.9271 30.097L23.8794 26.8546L23.9313 30.1286L22.906 30.1449L22.8272 25.1689L23.8525 25.1527L25.9037 28.4019L25.8517 25.121L26.8736 25.1048L26.9524 30.0808ZM31.4252 25.8634L29.901 25.8876L29.9666 30.033L28.9414 30.0493L28.8757 25.9038L27.372 25.9276L27.3588 25.0972L31.4121 25.033L31.4252 25.8634Z"
          fill="black"/>
    <path d="M20.1595 22.9998C23.3789 23.0271 25.777 20.1194 25.3509 16.9541C24.8886 13.5202 21.8284 11.2884 20.5604 7.25905C20.5366 7.18379 20.4892 7.11806 20.4251 7.07145C20.361 7.02484 20.2835 6.99981 20.204 7C20.1245 7.0002 20.0471 7.02562 19.9832 7.07254C19.9193 7.11946 19.8722 7.18543 19.8488 7.2608C18.475 11.624 15 13.8793 15 17.8372C15 19.1987 15.5422 20.505 16.5085 21.4719C17.4748 22.4388 18.787 22.9879 20.1595 22.9998ZM17.4815 15.1152C17.4106 15.4691 17.3751 15.829 17.3755 16.1899C17.377 16.9189 17.5862 17.6328 17.9788 18.2491C18.3714 18.8655 18.9316 19.3593 19.5948 19.6737C19.7703 19.7594 19.9058 19.9087 19.9734 20.0908C20.0409 20.2728 20.0353 20.4737 19.9577 20.6518C19.8802 20.8298 19.7365 20.9715 19.5566 21.0475C19.3766 21.1235 19.1741 21.1279 18.9909 21.0599C18.3297 20.8134 17.7598 20.3732 17.357 19.7977C16.9541 19.2222 16.7373 18.5387 16.7355 17.8381C16.755 16.8835 17.0112 15.9483 17.4815 15.1152Z"
          fill="black"/>
    <defs>
        <radialGradient id="paint0_radial" cx="0" cy="0" r="1" gradientUnits="userSpaceOnUse"
                        gradientTransform="translate(9 7) rotate(52.3344) scale(36.0035)">
            <stop stop-color="#EEEEEE"/>
            <stop offset="1" stop-color="#D1D1D1"/>
        </radialGradient>
    </defs>
</svg>
