<svg width="40" height="40" viewBox="0 0 40 40" fill="none" xmlns="http://www.w3.org/2000/svg">
    <g clip-path="url(#clip0)">
        <path d="M39.9999 20C39.9999 31.0432 31.0449 39.9968 19.9951 39.9984C8.95337 39.9984 -0.00166043 31.0432 -6.01775e-05 19.9984C-0.00326069 8.9536 8.95177 0 19.9983 0C31.0449 0 39.9999 8.9552 39.9999 20Z"
              fill="#EAB300"/>
        <path d="M27.8684 15.1007C27.6108 12.4223 25.2984 11.5247 22.3763 11.2687V7.55194H20.1152V11.1695C19.5215 11.1695 18.9134 11.1807 18.3101 11.1935V7.55194H16.0489L16.0473 11.2655C15.5577 11.2751 15.076 11.2847 14.6071 11.2847V11.2735L11.4882 11.2719V13.6879C11.4882 13.6879 13.1589 13.6559 13.1301 13.6863C14.047 13.6863 14.3447 14.2175 14.4311 14.6767V18.9104C14.4951 18.9104 14.5767 18.9136 14.6695 18.9264H14.4311L14.4295 24.8576C14.3895 25.1456 14.2199 25.6048 13.5798 25.6064C13.6086 25.632 11.9363 25.6064 11.9363 25.6064L11.4866 28.3072H14.4311C14.9784 28.3072 15.5177 28.3168 16.0457 28.32L16.0473 32.0784H18.3069V28.36C18.9262 28.3728 19.5263 28.3776 20.1136 28.3776L20.112 32.0784H22.3731V28.328C26.1753 28.1104 28.8397 27.152 29.1694 23.5808C29.4366 20.7056 28.0844 19.4208 25.9257 18.9024C27.2395 18.2368 28.0604 17.0608 27.8684 15.1007ZM24.7031 23.136C24.7031 25.944 19.8944 25.6256 18.3597 25.6256V20.6448C19.8944 20.648 24.7031 20.208 24.7031 23.136ZM23.6501 16.1104C23.6501 18.6656 19.6367 18.3664 18.3597 18.368V13.8527C19.6383 13.8527 23.6517 13.4463 23.6501 16.1104Z"
              fill="white"/>
    </g>
    <defs>
        <clipPath id="clip0">
            <rect width="40" height="40" fill="white"/>
        </clipPath>
    </defs>
</svg>
