<svg width="40" height="40" viewBox="0 0 40 40" xmlns="http://www.w3.org/2000/svg">
    <g transform="scale(1.1111)">
        <circle fill="rgba(255,255,255,0.08)" fill-rule="nonzero" cx="18" cy="18" r="18"/>
        <path d="M16.5 6.75V9h2.0139l.2361.003V6.75h1.5l.0016 2.3817c1.0728.1785 1.9325.5384 2.5791 1.0798.9647.8077 1.447 2.0028 1.447 3.5852 0 .8407-.234 1.5845-.7023 2.2315-.4682.647-1.106 1.1476-1.9132 1.502.9526.272 1.7054.7892 2.2583 1.5515.553.7624.8295 1.671.8295 2.726 0 1.6154-.5126 2.8846-1.5378 3.8077-.7564.681-1.7434 1.1108-2.9611 1.2894L20.25 29.25h-1.5V27H16.5v2.25H15V27h-2.25V9H15V6.75h1.5zm2.4498 11.831h-3.8749v6.478h3.8386c1.0817 0 1.9354-.2863 2.561-.8591.6257-.5728.9385-1.362.9385-2.3675 0-2.1676-1.1544-3.2514-3.4632-3.2514zm-.436-7.6277H15.075v5.7239h3.5116c1.0172 0 1.8305-.2596 2.44-.7788.6095-.5193.9142-1.224.9142-2.114 0-.989-.2825-1.7082-.8476-2.1573-.5651-.4492-1.4248-.6738-2.5792-.6738z"
              fill="#FFF"/>
    </g>
</svg>
