<svg width="40" height="40" viewBox="0 0 40 40" fill="none" xmlns="http://www.w3.org/2000/svg">
    <circle cx="20" cy="20" r="20" fill="#F5B300"/>
    <path fill-rule="evenodd" clip-rule="evenodd"
          d="M17.9835 10.6818C17.9184 10.8741 17.8533 10.9382 17.658 10.8741C16.7293 10.6247 15.7884 10.4104 14.8484 10.1963L14.8484 10.1963L14.8483 10.1963C14.3996 10.0941 13.951 9.99196 13.5041 9.88605C13.4065 10.2386 13.322 10.5657 13.2376 10.8928C13.1532 11.22 13.0687 11.5471 12.9711 11.8996C12.906 12.0278 12.9711 12.0919 13.1013 12.0919C13.2034 12.1171 13.3081 12.1422 13.4148 12.1678L13.4148 12.1678C13.8519 12.2729 14.3228 12.386 14.7938 12.5406C15.3796 12.7328 15.7051 13.3097 15.5749 13.8225C14.7938 17.1554 13.9475 20.4242 13.1013 23.693C13.0362 24.1416 12.6456 24.398 12.1249 24.2698C11.6692 24.2057 11.1484 24.0775 10.6928 23.9493C10.4975 23.9493 10.4324 23.9493 10.3673 24.1416C10.172 24.6544 9.91161 25.2312 9.65122 25.8081C9.58613 25.9363 9.53731 26.0484 9.48848 26.1606L9.48847 26.1606C9.43965 26.2728 9.39083 26.3849 9.32574 26.5131C10.888 26.8977 12.3852 27.2822 13.8824 27.6668C13.8824 27.7419 13.8601 27.795 13.8416 27.839C13.8285 27.8701 13.8173 27.8966 13.8173 27.9232C13.4919 28.9487 13.2315 30.0383 12.9711 31.1279C12.906 31.2561 12.906 31.3202 13.1013 31.3843C13.7523 31.5125 14.4032 31.6406 15.0542 31.8329C15.2262 31.8894 15.2467 31.8464 15.2936 31.7477C15.3 31.7343 15.3068 31.72 15.3145 31.7047C15.3796 31.4163 15.461 31.1279 15.5424 30.8395C15.6238 30.551 15.7051 30.2626 15.7702 29.9742C15.8353 29.6858 15.9167 29.3974 15.9981 29.1089C16.0794 28.8205 16.1608 28.5321 16.2259 28.2437C16.8118 28.3718 17.3325 28.5 17.8533 28.6282C17.9471 28.6744 17.9395 28.7206 17.9279 28.7908C17.9235 28.818 17.9184 28.8488 17.9184 28.8846C17.5929 29.9101 17.3325 30.9997 17.0721 32.0893C17.007 32.2175 17.007 32.2816 17.2023 32.3457C17.4953 32.4098 17.8044 32.4899 18.1136 32.57L18.1137 32.57L18.1137 32.57C18.4229 32.6501 18.7321 32.7303 19.025 32.7943C19.3365 32.917 19.3499 32.8636 19.4075 32.6341L19.4156 32.6021C19.5458 32.0893 19.676 31.5605 19.8062 31.0318C19.9363 30.503 20.0665 29.9742 20.1967 29.4614C20.2618 29.2692 20.392 29.2051 20.5873 29.2692C21.8892 29.4614 23.1911 29.5896 24.5581 29.3974C25.5997 29.2692 26.511 28.8205 27.2271 27.9873C27.8129 27.2822 28.1384 26.5131 28.3988 25.6158C28.5941 24.9108 28.6592 24.1416 28.529 23.4366C28.2686 22.5393 27.7478 21.8342 26.9667 21.2574C26.8365 21.1612 26.7063 21.0811 26.5761 21.001C26.4459 20.9209 26.3157 20.8408 26.1855 20.7446C26.2618 20.7446 26.3157 20.7226 26.3604 20.7044C26.392 20.6915 26.419 20.6805 26.4459 20.6805C26.9667 20.4883 27.4874 20.2319 27.878 19.8473C28.3988 19.3346 28.6592 18.6936 28.8545 17.9886C29.1148 16.9631 29.0497 15.9376 28.4639 14.9761C28.0082 14.3352 27.4224 13.8225 26.7714 13.4379L24.6232 12.4765C24.4279 12.4124 24.3629 12.3483 24.4279 12.156C24.5581 11.8355 24.6232 11.5151 24.6883 11.1946L24.6883 11.1946L24.6884 11.1944C24.8836 10.4254 25.0789 9.65627 25.2742 8.8231C25.2416 8.8231 25.2254 8.80708 25.2091 8.79105C25.1928 8.77503 25.1765 8.75901 25.144 8.75901C24.8355 8.67617 24.5391 8.60522 24.2496 8.53593C23.8671 8.44437 23.4965 8.3557 23.126 8.24625C22.9958 8.18216 22.9307 8.24625 22.9307 8.37444L22.7355 9.14357C22.4751 9.9768 22.2798 10.7459 22.0845 11.5792C22.0628 11.6005 22.0411 11.629 22.0194 11.6575C21.976 11.7145 21.9326 11.7714 21.8892 11.7714C21.6289 11.7074 21.3523 11.6433 21.0757 11.5792L21.0755 11.5792C20.7989 11.5151 20.5222 11.451 20.2618 11.3869C20.3269 11.2587 20.3269 11.1946 20.3269 11.1305C20.4571 10.6177 20.5873 10.089 20.7175 9.56019L20.7175 9.56016C20.8477 9.03139 20.9779 8.50262 21.1081 7.98988C21.1732 7.86169 21.1732 7.79759 20.9779 7.7335C20.3269 7.60531 19.7411 7.47712 19.0901 7.28484C18.8948 7.22074 18.8297 7.28484 18.7646 7.47712C18.6344 8.02192 18.5042 8.5507 18.374 9.07948L18.374 9.0795C18.2439 9.60827 18.1137 10.137 17.9835 10.6818ZM16.6816 25.5517C16.7467 25.5517 16.8118 25.6158 16.8118 25.6158C16.9747 25.6559 17.1392 25.6976 17.305 25.7396L17.3056 25.7398L17.3057 25.7398C18.1999 25.9663 19.1332 26.2027 20.0665 26.2568C20.8477 26.3209 21.5638 26.3209 22.2798 26.0645C23.5166 25.6799 24.0374 24.0776 23.3213 23.0521C22.9959 22.5393 22.4751 22.2188 21.9543 21.8984C20.817 21.2762 19.4957 21.0164 18.2286 20.7673L18.1137 20.7447C17.9357 20.6862 17.9199 20.7343 17.8692 20.8889C17.8643 20.9039 17.8591 20.9199 17.8533 20.9369C17.7882 21.2574 17.7068 21.5619 17.6255 21.8663C17.5441 22.1708 17.4627 22.4752 17.3976 22.7957C17.2493 23.307 17.122 23.8182 16.9919 24.3414L16.9918 24.3414C16.8936 24.7364 16.7936 25.1381 16.6816 25.5517ZM22.8656 19.0141C22.6052 19.0782 22.2798 19.1423 22.1496 19.1423C21.3941 19.1423 20.7414 19.0411 20.0672 18.9367C19.8119 18.8971 19.5535 18.857 19.2854 18.8218C19.1552 18.7898 19.0412 18.7577 18.9273 18.7257C18.8134 18.6936 18.6995 18.6616 18.5693 18.6296C18.4391 18.5655 18.374 18.5014 18.4391 18.3732C18.8297 17.0272 19.1552 15.7453 19.4806 14.3993C19.5457 14.207 19.6108 14.143 19.8061 14.207C20 14.258 20.1913 14.3063 20.3805 14.3542C21.1444 14.5474 21.8748 14.7321 22.6052 15.0403C23.1911 15.2967 23.777 15.6812 24.1024 16.2581C24.7534 17.3477 24.1024 18.7577 22.8656 19.0141Z"
          fill="white"/>
</svg>
