<svg width="40" height="40" viewBox="0 0 40 40" fill="none" xmlns="http://www.w3.org/2000/svg">
    <circle cx="20" cy="20" r="20" fill="white"/>
    <path d="M18.9409 0H21.0249C23.1989 0.144 25.3609 0.578 27.3809 1.394C32.3809 3.36 36.5068 7.438 38.5208 12.422C41.2928 19.058 40.1028 27.152 35.4748 32.674C32.3429 36.518 27.7369 39.136 22.8209 39.802C18.2069 40.46 13.3649 39.466 9.41693 36.972C6.37294 35.076 3.85295 32.348 2.22096 29.152C0.126964 25.138 -0.509034 20.394 0.410963 15.966C1.39496 11.058 4.32495 6.58 8.41094 3.694C11.4709 1.48 15.1809 0.234 18.9409 0ZM17.7009 0.906C11.6169 1.604 6.02494 5.436 3.12495 10.824C1.16296 14.406 0.378963 18.63 0.970961 22.676C1.64096 27.548 4.29095 32.106 8.17094 35.122C11.1249 37.452 14.7789 38.882 18.5309 39.162C22.7809 39.5 27.1329 38.366 30.6609 35.972C34.9868 33.108 38.0568 28.424 38.9388 23.31C39.4468 20.296 39.2748 17.156 38.3428 14.242C37.0128 10.004 34.1628 6.258 30.4229 3.858C26.7049 1.418 22.1149 0.36 17.7009 0.906Z"
          fill="#002068"/>
    <path d="M18.183 8.7821C21.661 8.20009 25.391 9.3401 27.893 11.8361C30.113 13.9321 31.409 16.9781 31.345 20.0322C31.389 23.0702 30.087 26.0922 27.877 28.1702C25.471 30.5622 21.933 31.7042 18.579 31.2622C15.419 30.8822 12.461 29.0862 10.665 26.4562C8.67705 23.6402 8.12905 19.8922 9.16105 16.6101C10.369 12.5701 14.017 9.4121 18.183 8.7821ZM18.877 9.4741C18.879 10.4681 18.881 11.4621 18.879 12.4561C19.375 12.4561 19.871 12.4561 20.367 12.4581C20.369 11.4381 20.371 10.4181 20.367 9.4001C19.871 9.4161 19.373 9.4401 18.877 9.4741ZM22.455 12.5041C23.761 12.6801 25.165 12.8801 26.207 13.7621C27.797 15.1901 27.591 18.1882 25.645 19.2242C26.811 19.4962 27.965 20.2742 28.253 21.4982C28.627 23.1042 28.329 25.0322 27.039 26.1642C25.761 27.2162 24.031 27.3542 22.451 27.5042C22.459 28.4342 22.455 29.3642 22.453 30.2962C25.779 29.4822 28.649 27.0062 29.869 23.8022C31.027 20.8462 30.753 17.3681 29.119 14.6461C27.675 12.1901 25.219 10.3861 22.461 9.6941C22.453 10.6301 22.453 11.5661 22.455 12.5041ZM12.529 12.4641C13.969 12.5341 15.411 12.5181 16.853 12.5161C16.853 11.6381 16.855 10.7621 16.849 9.8841C15.235 10.4081 13.797 11.3481 12.529 12.4641ZM12.357 12.5801C11.975 13.0501 11.267 13.9381 10.847 14.7241C9.15305 17.6102 8.96105 21.3142 10.375 24.3502C11.595 27.0722 14.015 29.1902 16.849 30.1022C16.853 29.2262 16.851 28.3502 16.851 27.4762C15.405 27.4622 13.955 27.5142 12.511 27.4362C12.527 26.6302 12.717 25.8422 12.991 25.0822C13.699 25.0682 14.437 25.1922 15.121 24.9602C15.521 24.6242 15.407 24.0682 15.429 23.6082C15.407 20.9782 15.439 18.3482 15.415 15.7201C15.441 15.2961 15.175 14.8381 14.735 14.7541C14.009 14.6081 13.261 14.6661 12.527 14.6601C12.441 14.0681 12.431 13.4701 12.423 12.8721C12.423 12.8721 12.433 12.6841 12.369 12.5621L12.357 12.5801ZM18.939 14.8401V18.7162C20.233 18.6922 21.669 18.8362 22.801 18.0842C23.741 17.4681 23.681 15.9101 22.711 15.3561C21.577 14.6861 20.195 14.8761 18.939 14.8401ZM18.939 20.8022V25.1022C20.537 24.9742 22.329 25.2422 23.719 24.2782C24.713 23.6182 24.593 21.9842 23.569 21.4122C22.177 20.5802 20.485 20.8442 18.939 20.8022ZM18.881 27.5342C18.881 28.5282 18.879 29.5242 18.877 30.5182C19.395 30.5522 19.911 30.5722 20.429 30.5882C20.433 29.5702 20.431 28.5522 20.431 27.5342H18.881Z"
          fill="#002068"/>
    <path d="M17.817 1.94402C21.321 1.56802 24.949 2.10203 28.097 3.71803C32.147 5.70404 35.385 9.27405 36.981 13.4921C38.609 17.7161 38.573 22.5481 36.887 26.7521C34.323 33.3781 27.553 38.1422 20.425 38.1522C16.239 38.3042 12.027 36.8962 8.74903 34.2921C5.25303 31.5741 2.83503 27.5121 2.08903 23.1461C1.32703 18.8221 2.18103 14.2281 4.49303 10.4901C7.31903 5.80204 12.381 2.56203 17.817 1.94402ZM17.207 7.81205C14.359 8.45405 11.755 10.1361 10.009 12.4781C8.08103 15.0141 7.19703 18.3121 7.59103 21.4701C7.96103 24.8501 9.80703 28.0381 12.553 30.0401C15.123 31.9721 18.463 32.8201 21.643 32.3841C25.573 31.9041 29.187 29.4021 31.021 25.8921C32.395 23.3881 32.771 20.4121 32.267 17.6181C31.625 14.2301 29.509 11.1521 26.565 9.35605C23.809 7.64005 20.369 7.09004 17.207 7.81205Z"
          fill="#EAA833"/>
</svg>
