<svg width="40" height="40" viewBox="0 0 40 40" fill="none" xmlns="http://www.w3.org/2000/svg">
    <circle cx="20" cy="20" r="20" fill="#fff"/>
    <path d="M31.898 24.78c0 3.976-5.06 7.72-11.398 7.72S9 28.756 9 24.78V23h23v1.78h-.102Z" fill="#FEDC90"/>
    <path d="M13.5 11.7c-.3-1.4.8-2.7 2.2-2.7C17 9 18 10 18 11.3v5.2c.8-.1 1.6-.2 2.4-.2.8 0 1.6.1 2.3.1v-5.1c0-1.3 1-2.3 2.3-2.3 1.4 0 2.5 1.3 2.2 2.7l-1 5.5c3.3 1.2 5.5 3.4 5.5 5.9 0 3.8-5 6.9-11.2 6.9C14.3 30 9 26.8 9 23c0-2.5 2.11-4.6 5.31-5.8l-.81-5.5Z"
          fill="#D1884F"/>
    <path d="M17.3 22.7c0 1-.6 1.9-1.2 1.9s-1.2-.8-1.2-1.9c0-1 .6-1.9 1.2-1.9s1.2.8 1.2 1.9ZM25.9 22.7c0 1-.6 1.9-1.2 1.9-.7 0-1.2-.8-1.2-1.9 0-1 .6-1.9 1.2-1.9s1.2.8 1.2 1.9Z"
          fill="#633001"/>
    <path d="M12.5 11.9c-.4-2 1.2-3.9 3.2-3.9 1.8 0 3.3 1.5 3.3 3.3v4h2.7v-4C21.7 9.5 23.2 8 25 8c2 0 3.6 1.9 3.2 3.9l-.9 4.7c3 1.3 5.3 3.6 5.3 6.5v1.7c0 2.4-1.6 4.4-3.8 5.7-2.2 1.4-5.2 2.2-8.5 2.2s-6.3-.8-8.5-2.2C9.6 29.2 8 27.2 8 24.8v-1.7c0-2.9 2.3-5.2 5.3-6.5l-.8-4.7Zm13.7 5.4 1-5.5c.3-1.4-.8-2.7-2.2-2.7-1.3 0-2.3 1-2.3 2.3v5.1c-.3 0-.7-.1-1-.1h-1.3c-.5 0-.9 0-1.4.1-.3 0-.7.1-1 .1v-5.1c0-1.3-1-2.3-2.3-2.3-1.4 0-2.5 1.3-2.2 2.7l1 5.6c-3.2 1.2-5.4 3.4-5.4 5.9v1.7c0 3.8 5 6.9 11.2 6.9 6.2 0 11.2-3.1 11.2-6.9v-1.7c.1-2.7-2.1-4.9-5.3-6.1Z"
          fill="#633001"/>
</svg>
