<svg width="24" height="24" viewBox="0 0 24 24" fill="none" xmlns="http://www.w3.org/2000/svg">
    <g clip-path="url(#clip0_2470_1198)">
        <path d="M11.88 23.88C18.4411 23.88 23.76 18.5611 23.76 12C23.76 5.43885 18.4411 0.119995 11.88 0.119995C5.31886 0.119995 0 5.43885 0 12C0 18.5611 5.31886 23.88 11.88 23.88Z"
              fill="#EDCE78"/>
        <path d="M20.7 12C20.7 16.8049 16.8049 20.7 12 20.7C7.19512 20.7 3.3 16.8049 3.3 12C3.3 7.19512 7.19512 3.3 12 3.3C16.8049 3.3 20.7 7.19512 20.7 12Z"
              stroke="url(#paint0_linear_2470_1198)" stroke-width="0.6"/>
        <path d="M12.0001 10.4624C10.139 10.4624 7.50016 13.2138 7.50016 14.9505C7.50016 15.7327 8.12852 16.2 9.18155 16.2C10.3262 16.2 11.0821 15.874 12.0001 15.874C12.9261 15.874 13.6841 16.2 14.8187 16.2C15.8717 16.2 16.5001 15.7327 16.5001 14.9505C16.5001 13.2138 13.8613 10.4624 12.0001 10.4624ZM8.54828 10.1798C8.30453 9.40323 7.5536 8.9003 6.87111 9.05629C6.18862 9.21228 5.83307 9.96825 6.07682 10.7448C6.32057 11.5214 7.0715 12.0243 7.75399 11.8684C8.43648 11.7124 8.79203 10.9564 8.54828 10.1798ZM17.1289 9.05652C16.4464 8.90053 15.6957 9.40346 15.4517 10.18C15.208 10.9566 15.5635 11.7126 16.246 11.8686C16.9285 12.0246 17.6792 11.5216 17.9232 10.7451C18.1669 9.96847 17.8114 9.21251 17.1289 9.05652Z"
              fill="url(#paint1_linear_2470_1198)"/>
        <path d="M9.70608 6.6116C10.4944 6.50286 11.2801 7.16938 11.4609 8.10052C11.6417 9.03167 11.1494 9.87464 10.3611 9.98338C9.57282 10.0921 8.78711 9.4256 8.6063 8.49445C8.42549 7.5633 8.9178 6.72033 9.70608 6.6116Z"
              fill="url(#paint2_linear_2470_1198)"/>
        <path d="M14.3161 6.64127C13.5392 6.47388 12.7013 7.07956 12.4449 7.99433C12.1884 8.90909 12.6102 9.78631 13.3872 9.9537C14.1642 10.1211 15.002 9.51541 15.2585 8.60064C15.5149 7.68588 15.0931 6.80866 14.3161 6.64127Z"
              fill="url(#paint3_linear_2470_1198)"/>
    </g>
    <defs>
        <linearGradient id="paint0_linear_2470_1198" x1="10.5176" y1="17.8765" x2="20.3117" y2="7.28829"
                        gradientUnits="userSpaceOnUse">
            <stop stop-color="#FEE9B6"/>
            <stop offset="1" stop-color="#9D7430"/>
        </linearGradient>
        <linearGradient id="paint1_linear_2470_1198" x1="8.1" y1="16.2" x2="15.6" y2="7.19998"
                        gradientUnits="userSpaceOnUse">
            <stop stop-color="#87580F"/>
            <stop offset="1" stop-color="#CA903A"/>
        </linearGradient>
        <linearGradient id="paint2_linear_2470_1198" x1="8.1" y1="16.2" x2="15.6" y2="7.19998"
                        gradientUnits="userSpaceOnUse">
            <stop stop-color="#87580F"/>
            <stop offset="1" stop-color="#CA903A"/>
        </linearGradient>
        <linearGradient id="paint3_linear_2470_1198" x1="8.1" y1="16.2" x2="15.6" y2="7.19998"
                        gradientUnits="userSpaceOnUse">
            <stop stop-color="#87580F"/>
            <stop offset="1" stop-color="#CA903A"/>
        </linearGradient>
        <clipPath id="clip0_2470_1198">
            <rect width="24" height="24" fill="white"/>
        </clipPath>
    </defs>
</svg>
