<svg width="40" height="40" viewBox="0 0 40 40" fill="none" xmlns="http://www.w3.org/2000/svg">
    <circle cx="20" cy="20" r="20" fill="black"/>
    <path d="M23.7333 20.9333C23.7333 20.6666 23.7333 20.5333 23.4666 20.3999C22.5333 19.7333 21.4666 19.0666 20.5333 18.3999C20.4346 18.334 20.3186 18.2988 20.2 18.2988C20.0813 18.2988 19.9653 18.334 19.8666 18.3999L16.9333 20.5333C16.8108 20.5957 16.7084 20.6914 16.6377 20.8092C16.567 20.9271 16.5308 21.0625 16.5333 21.1999C16.5271 21.4874 16.4341 21.7662 16.2666 21.9999C16.2007 22.0986 16.1655 22.2146 16.1655 22.3333C16.1655 22.4519 16.2007 22.5679 16.2666 22.6666C17.3333 24.7999 18.2666 26.9333 19.3333 29.0666C19.7333 29.7333 20 30.5333 20.4 31.3333C20.5333 31.1999 20.5333 31.0666 20.6666 30.9333C21.8666 28.2666 22.9333 25.5999 24.1333 22.9333C24.2666 22.6666 24.2666 22.5333 24 22.3999C23.8501 22.1903 23.7484 21.9501 23.7023 21.6965C23.6562 21.4429 23.6668 21.1823 23.7333 20.9333Z"
          fill="#CD0124"/>
    <path d="M19.2 17.4667C16.5333 15.6 13.8667 13.7333 11.3333 12L11.2 12.1333C11.3333 12.4 11.3333 12.5333 11.4667 12.8L14.2667 18.8C14.5333 19.3333 14.6667 19.8667 15.4667 20C15.6971 20.0208 15.9286 19.9744 16.1333 19.8667C16.9333 19.2 17.8667 18.6667 18.6667 18L19.2 17.4667Z"
          fill="#CD0124"/>
    <path d="M20 0C16.0444 0 12.1776 1.17298 8.8886 3.37061C5.59962 5.56824 3.03617 8.69181 1.52242 12.3463C0.00866572 16.0009 -0.387401 20.0222 0.384303 23.9018C1.15601 27.7814 3.06082 31.3451 5.85787 34.1421C8.65492 36.9392 12.2186 38.844 16.0982 39.6157C19.9778 40.3874 23.9992 39.9913 27.6537 38.4776C31.3082 36.9638 34.4318 34.4004 36.6294 31.1114C38.827 27.8224 40 23.9556 40 20C40 14.6957 37.8929 9.60859 34.1421 5.85786C30.3914 2.10714 25.3043 0 20 0V0ZM30.8 11.6C30.5333 11.6 30.4 11.7333 30.2667 12C29.2 14.6667 28 17.3333 26.9333 20V20.5333C27.0398 20.7587 27.0965 21.0045 27.0994 21.2537C27.1023 21.503 27.0513 21.75 26.9501 21.9778C26.8488 22.2056 26.6996 22.4089 26.5127 22.5738C26.3257 22.7387 26.1054 22.8613 25.8667 22.9333C25.7333 22.9333 25.6 23.0667 25.4667 23.3333C24.2667 26 23.0667 28.8 22 31.4667C21.9341 31.5653 21.8989 31.6813 21.8989 31.8C21.8989 31.9187 21.9341 32.0347 22 32.1333C22.2492 32.4753 22.3601 32.8987 22.3107 33.3189C22.2612 33.7391 22.0551 34.1252 21.7333 34.4C21.4538 34.6761 21.0838 34.8417 20.6916 34.8662C20.2995 34.8908 19.9117 34.7725 19.6 34.5333C19.4335 34.4196 19.2911 34.2742 19.1808 34.1054C19.0706 33.9367 18.9947 33.7478 18.9576 33.5496C18.9204 33.3515 18.9227 33.1479 18.9643 32.9507C19.0059 32.7534 19.086 32.5663 19.2 32.4C19.2654 32.2768 19.2996 32.1395 19.2996 32C19.2996 31.8605 19.2654 31.7232 19.2 31.6C17.8667 28.9333 16.6667 26.2667 15.3333 23.6C15.2727 23.4645 15.1805 23.3454 15.0646 23.2526C14.9486 23.1599 14.8122 23.0961 14.6667 23.0667C14.395 23.0215 14.1383 22.9112 13.9185 22.7453C13.6986 22.5793 13.5222 22.3626 13.4043 22.1137C13.2864 21.8648 13.2305 21.5911 13.2414 21.3159C13.2522 21.0407 13.3295 20.7722 13.4667 20.5333C13.5326 20.4347 13.5678 20.3187 13.5678 20.2C13.5678 20.0813 13.5326 19.9653 13.4667 19.8667C12.2667 17.2 11.0667 14.6667 9.73334 12C9.73334 11.8667 9.60001 11.7333 9.20001 11.7333C8.80788 11.6782 8.44713 11.4884 8.17955 11.1965C7.91198 10.9046 7.75423 10.5288 7.73334 10.1333C7.75799 9.76292 7.8826 9.40613 8.09391 9.10091C8.30522 8.79568 8.59532 8.55346 8.93334 8.4C9.29219 8.26099 9.6883 8.25152 10.0534 8.37321C10.4185 8.49491 10.7297 8.74015 10.9333 9.06667C11.0667 9.33333 11.2 9.33333 11.6 9.33333H28.5333C28.8 9.33333 29.0667 9.33333 29.2 8.93333C29.3819 8.61926 29.6693 8.3799 30.0111 8.25783C30.3529 8.13576 30.727 8.13889 31.0667 8.26667C31.3979 8.39206 31.6866 8.60908 31.899 8.89239C32.1115 9.1757 32.239 9.51361 32.2667 9.86667C32.2716 10.2837 32.1261 10.6885 31.8567 11.0069C31.5873 11.3253 31.2121 11.5359 30.8 11.6Z"
          fill="#CD0124"/>
    <path d="M20 16.5333C20.0986 16.5992 20.2146 16.6344 20.3333 16.6344C20.452 16.6344 20.568 16.5992 20.6666 16.5333C23.2 14.6666 25.7333 12.9333 28.1333 11.0666C28.2666 10.9333 28.4 10.9333 28.4 10.8V10.6666H11.6C11.7525 10.7226 11.8896 10.814 12 10.9333L20 16.5333Z"
          fill="#CD0124"/>
    <path d="M21.3333 17.4666C22.4 18.2666 23.4666 18.9333 24.5333 19.5999C24.8 19.7333 25.2 19.5999 25.6 19.5999C25.7333 19.5999 25.8666 19.3333 25.8666 19.1999C26.8 17.0666 27.7333 14.7999 28.6666 12.6666C28.6666 12.5333 28.8 12.3999 28.8 12.2666H28.6666C26.4 13.8666 23.8666 15.5999 21.3333 17.4666Z"
          fill="#CD0124"/>
</svg>
