<svg width="40" height="40" fill="none" xmlns="http://www.w3.org/2000/svg">
    <path d="M20 40c11.046 0 20-8.954 20-20S31.046 0 20 0 0 8.954 0 20s8.954 20 20 20z" fill="#070A0E"/>
    <path fill-rule="evenodd" clip-rule="evenodd"
          d="M11.554 26.706a2.014 2.014 0 01-.964-1.716v-3.908a.839.839 0 011.264-.724l8.818 5.142c.516.3.834.852.834 1.45v4.048a1.004 1.004 0 01-1.532.86l-8.42-5.152zm13.144-7.418c.516.3.832.854.834 1.45v8.216c0 .242-.13.466-.342.584l-1.93 1.086a.336.336 0 01-.078.032v-4.562c0-.59-.31-1.138-.818-1.442L14.62 20.02v-5.15a.839.839 0 011.264-.724l8.814 5.142zm3.86-6.068c.518.3.836.854.836 1.452v12a.68.68 0 01-.354.59l-1.83.988v-8.354c0-.59-.31-1.136-.814-1.44l-7.916-4.748V8.824c0-.148.04-.294.112-.422a.842.842 0 011.148-.304l8.818 5.122z"
          fill="#00D395"/>
</svg>
