<svg width="40" height="40" viewBox="0 0 40 40" fill="none" xmlns="http://www.w3.org/2000/svg">
    <circle cx="20" cy="20" r="20" fill="#2FAB61"/>
    <path d="M19.269 10.7829C19.6644 10.3595 20.3356 10.3595 20.731 10.7829L22.0326 12.1771C22.2676 12.4289 22.6157 12.542 22.9538 12.4765L24.8263 12.1136C25.395 12.0034 25.9381 12.398 26.009 12.9729L26.2426 14.8659C26.2847 15.2077 26.4998 15.5038 26.8119 15.6495L28.5401 16.4566C29.0649 16.7017 29.2724 17.3401 28.9918 17.847L28.0681 19.5157C27.9013 19.817 27.9013 20.183 28.0681 20.4843L28.9918 22.153C29.2724 22.6599 29.0649 23.2983 28.5401 23.5434L26.8119 24.3505C26.4998 24.4962 26.2847 24.7923 26.2426 25.1341L26.009 27.0271C25.9381 27.602 25.395 27.9966 24.8263 27.8864L22.9538 27.5235C22.6157 27.458 22.2676 27.5711 22.0326 27.8229L20.731 29.2171C20.3356 29.6405 19.6644 29.6405 19.269 29.2171L17.9674 27.8229C17.7324 27.5711 17.3843 27.458 17.0462 27.5235L15.1737 27.8864C14.605 27.9966 14.0619 27.602 13.991 27.0271L13.7574 25.1341C13.7153 24.7923 13.5002 24.4962 13.1881 24.3505L11.4599 23.5434C10.9351 23.2983 10.7276 22.6599 11.0082 22.153L11.9319 20.4843C12.0987 20.183 12.0987 19.817 11.9319 19.5157L11.0082 17.847C10.7276 17.3401 10.9351 16.7017 11.4599 16.4566L13.1881 15.6495C13.5002 15.5038 13.7153 15.2077 13.7574 14.8659L13.991 12.9729C14.0619 12.398 14.605 12.0034 15.1737 12.1136L17.0462 12.4765C17.3843 12.542 17.7324 12.4289 17.9674 12.1771L19.269 10.7829Z"
          fill="white"/>
</svg>
