<svg width="40" height="40" viewBox="0 0 40 40" fill="none" xmlns="http://www.w3.org/2000/svg">
    <circle cx="20" cy="20" r="20" fill="#3B66D6"/>
    <path d="M19.1033 12.817C19.4701 12.0737 20.5299 12.0737 20.8967 12.817L22.7063 16.4835C22.8519 16.7786 23.1335 16.9832 23.4592 17.0305L27.5054 17.6185C28.3256 17.7376 28.6531 18.7456 28.0596 19.3242L25.1318 22.1781C24.8961 22.4079 24.7885 22.7389 24.8442 23.0632L25.5353 27.0931C25.6754 27.91 24.818 28.533 24.0844 28.1473L20.4653 26.2446C20.174 26.0915 19.826 26.0915 19.5347 26.2446L15.9156 28.1473C15.182 28.533 14.3246 27.91 14.4647 27.0931L15.1558 23.0632C15.2115 22.7389 15.1039 22.4079 14.8682 22.1781L11.9404 19.3242C11.3469 18.7456 11.6744 17.7376 12.4946 17.6185L16.5408 17.0305C16.8665 16.9832 17.1481 16.7786 17.2937 16.4835L19.1033 12.817Z"
          fill="white"/>
</svg>
