<svg width="40" height="40" viewBox="0 0 40 40" fill="none" xmlns="http://www.w3.org/2000/svg">
    <path d="M19.9936 40C31.0467 40 40 31.0496 40 20C40 8.95042 31.0467 0 19.9936 0C8.94042 0 0 8.95042 0 20C0 31.0496 8.9533 40 19.9936 40Z"
          fill="#008CE3"/>
    <path d="M23.526 9.98712H14.5401L13.8036 14.1399L21.9056 14.1546C25.8977 14.1546 27.0762 15.5978 27.0467 17.9982C27.032 19.2352 26.5017 21.3116 26.266 21.989C25.6473 23.7856 24.3951 25.8472 19.6518 25.8325H11.7707L11.0194 30H19.9759C23.1283 30 24.4835 29.6319 25.8977 28.9692C29.0501 27.5113 30.9357 24.4041 31.687 20.3396C32.8212 14.2872 31.4218 9.98712 23.526 9.98712Z"
          fill="white"/>
    <path d="M10.6806 17.9098C8.32367 17.9098 7.98486 19.4413 7.76389 20.3691C7.46928 21.5766 7.38089 22.0773 7.38089 22.0773H16.573C18.9299 22.0773 19.2688 20.5458 19.4897 19.618C19.7843 18.4105 19.8727 17.9098 19.8727 17.9098H10.6806Z"
          fill="white"/>
</svg>
