<svg width="24" height="24" viewBox="0 0 24 24" fill="none" xmlns="http://www.w3.org/2000/svg">
    <g clip-path="url(#clip0_2470_107)">
        <path d="M24 12C24 5.37258 18.6274 0 12 0C5.37258 0 0 5.37258 0 12C0 18.6274 5.37258 24 12 24C18.6274 24 24 18.6274 24 12Z"
              fill="black"/>
        <path fill-rule="evenodd" clip-rule="evenodd"
              d="M5.22493 6.58916L5.24233 6.62396L5.28073 6.69896C5.38453 6.89696 5.52313 7.07036 5.67793 7.22816L6.04033 7.56836L6.16573 7.68236L6.31453 7.81076L6.35533 7.84556L6.48553 7.95536L6.63613 8.08196L6.64693 8.09096L6.78133 8.20916L6.83533 8.26016L7.06333 8.48456C7.10275 8.53011 7.13771 8.57934 7.16773 8.63156L7.19173 8.66996C7.24753 8.75816 7.27033 8.85716 7.29313 8.95676L7.30873 9.02276L7.33873 9.16256L7.36453 9.28436L7.39213 9.38456L7.41733 9.47396L7.47733 9.72716L7.49893 9.81896L7.51633 9.89336L7.56193 10.0902L7.59673 10.2558L7.64653 10.4886L7.69453 10.6824L7.74253 10.8774L7.78573 11.0826L7.82413 11.2674L7.88413 11.5266L7.94953 11.8104L7.97173 11.9322L7.99573 12.0618L8.03533 12.2172L8.07793 12.384L8.12953 12.6738L8.16613 12.9882L8.19733 13.3524L8.20273 13.4202L8.20693 13.4688L8.22973 13.7748L8.24173 14.0046L8.24833 14.1414L8.25313 14.2128L8.25733 14.2686L8.26093 14.3244L8.27533 14.5728L8.28013 14.7024L8.28433 14.8128L8.29573 15.0426L8.30233 15.1704V15.1854L8.30293 15.2064L8.31253 15.2802L8.32813 15.435C8.32993 15.483 8.32693 15.5316 8.32453 15.5802L8.32033 15.672C8.31553 15.9336 8.31913 16.1946 8.34733 16.455L8.34913 16.4724L8.35633 16.5324L8.39293 16.7448L8.40133 16.7934L8.41273 16.8612L8.44273 17.0244L8.48233 17.1816L8.50093 17.253L8.52373 17.3442L8.57713 17.5464L8.67853 17.8368L8.68213 17.8458L8.83573 18.2466L8.95933 18.5364L8.96173 18.5412L9.00373 18.6372L9.15433 18.9708C9.24013 19.1478 9.36253 19.3014 9.48973 19.4496C9.57373 19.548 9.66673 19.6392 9.75973 19.7298L10.0327 19.9752L10.3705 20.2266C10.5031 20.3172 10.6459 20.3916 10.7947 20.4546C10.9267 20.5104 11.0629 20.5518 11.2051 20.55C11.3377 20.5488 11.4703 20.5326 11.6017 20.5158L11.6095 20.5146C11.7097 20.5026 11.8087 20.4828 11.9071 20.4606L11.9581 20.4492L12.2695 20.3664L12.5581 20.2494L12.7357 20.1744C12.9313 20.0958 13.1083 19.983 13.2775 19.8618C13.4467 19.7406 13.6111 19.6008 13.7701 19.461C13.8439 19.3962 13.9111 19.3236 13.9783 19.2516L14.0617 19.1634L14.1379 19.0776L14.1517 19.0608L14.3515 18.81L14.3995 18.7476L14.5981 18.4788L14.7649 18.2016L14.8069 18.1278L14.8327 18.0834L14.8399 18.0714L14.8489 18.0558L15.0547 17.6898L15.2437 17.301L15.2479 17.292L15.4315 16.881L15.4399 16.8612L15.6619 16.305L15.8635 15.7038L15.8791 15.6558L15.9985 15.2526L15.9991 15.2502L16.1497 14.7036L16.2469 14.3166L16.2763 14.1966L16.3003 14.1012L16.3753 13.791L16.4323 13.5174L16.4665 13.3506L16.5343 13.0302L16.5745 12.8406L16.5883 12.7746L16.6555 12.4548L16.6831 12.312L16.7005 12.2208L16.7155 12.1464L16.7365 12.042L16.7629 11.8974V11.8968L16.7869 11.7648L16.8055 11.6706L16.8265 11.5602L16.8457 11.4504L16.8703 11.3124L16.8883 11.2302L16.9081 11.139L16.9363 10.974L16.9813 10.7184L17.0803 10.281L17.0959 10.215L17.1895 9.85676C17.2177 9.76496 17.2543 9.67496 17.2903 9.58496L17.3233 9.50156C17.3556 9.41562 17.4147 9.34238 17.4919 9.29276L17.7439 9.14996L18.0085 9.02756L18.2551 8.91356L18.7141 8.68256L19.1569 8.44436C19.3305 8.3474 19.4924 8.23084 19.6393 8.09696C19.7791 7.96736 19.9093 7.82456 20.0317 7.67816C20.1487 7.53896 20.2411 7.38176 20.3197 7.21616C20.4115 7.02236 20.4871 6.82496 20.5309 6.61256C20.5567 6.48716 20.5633 6.36236 20.5699 6.23696V6.23336C20.5729 6.17156 20.5639 6.10796 20.5525 6.04736C20.541 5.9797 20.5221 5.91351 20.4961 5.84996C20.4523 5.74976 20.3779 5.66876 20.3047 5.58956L20.2789 5.56136C20.1505 5.42036 20.0149 5.28416 19.8577 5.17496C19.6249 5.01356 19.3717 4.89716 19.0921 4.83296C18.8923 4.78676 18.6913 4.78016 18.4891 4.77356C18.4489 4.77236 18.4087 4.77656 18.3685 4.78136L18.2713 4.78916C18.1411 4.79156 18.0139 4.81676 17.8879 4.84556L17.3383 4.98836C17.2501 5.01417 17.163 5.0438 17.0773 5.07716L16.7635 5.20136L16.7443 5.20916L16.1935 5.44676L15.7399 5.66336L15.7075 5.67896L15.5479 5.75996L15.3571 5.85656L14.8537 6.08936L14.7997 6.11336L14.4247 6.27296C14.2969 6.32096 14.1643 6.35756 14.0329 6.39356C13.9567 6.41456 13.8781 6.43196 13.7989 6.43856C13.6225 6.45236 13.4509 6.42656 13.2829 6.36896C13.1455 6.32156 13.0045 6.28676 12.8599 6.26816L12.7705 6.25436L12.7117 6.24476L12.6319 6.23216L12.4393 6.20696C12.3043 6.19796 12.1699 6.21176 12.0355 6.23036C11.9707 6.23936 11.9041 6.23996 11.8381 6.23996L11.7241 6.24236L11.5285 6.26036L11.3593 6.29036L11.1799 6.32216L10.9681 6.35096L10.7743 6.37736L10.6027 6.40616L10.3351 6.44756C10.2253 6.46016 10.1149 6.46256 10.0045 6.46496L9.95953 6.46616C9.93013 6.46676 9.89353 6.45956 9.87133 6.44216L9.58633 6.20396L9.37813 6.01376L9.25273 5.89796L9.22213 5.87036L8.98273 5.65616L8.92873 5.60936L8.55553 5.29316L8.18353 5.01536C8.02453 4.90196 7.85233 4.81016 7.66993 4.74176L7.21333 4.59296C7.16593 4.57976 7.11733 4.57316 7.06813 4.56656L6.93973 4.54496C6.79515 4.51074 6.64661 4.49621 6.49813 4.50176L6.44053 4.50296L6.15373 4.52156C6.01273 4.54256 5.87653 4.58336 5.74873 4.65296C5.62573 4.72016 5.52493 4.81016 5.44933 4.92476C5.39413 5.00756 5.35033 5.09816 5.30653 5.18756L5.29813 5.20436C5.25913 5.28416 5.22253 5.36576 5.19373 5.44976C5.16853 5.52236 5.15293 5.59916 5.13913 5.67536L5.10073 5.95196C5.09833 5.99456 5.10313 6.03716 5.10853 6.08036L5.11633 6.17036C5.12113 6.31616 5.16553 6.45056 5.22493 6.59036V6.58916ZM10.2235 10.311L10.2613 10.3392L10.4131 10.4616C10.5583 10.6008 10.6381 10.7796 10.6903 10.9686C10.7245 11.0946 10.7395 11.2266 10.7293 11.3592C10.7164 11.5799 10.6436 11.7929 10.5187 11.9754C10.3819 12.1704 10.1893 12.297 9.95533 12.3498C9.80353 12.384 9.65053 12.3744 9.50173 12.3276C9.31813 12.27 9.17353 12.159 9.05893 12.0042C8.95273 11.8614 8.90233 11.6988 8.86873 11.5278C8.85093 11.4157 8.8457 11.302 8.85313 11.1888L8.85433 11.1474C8.85613 11.076 8.87353 11.0034 8.89453 10.9344C8.92393 10.836 8.95393 10.7358 8.99893 10.644C9.05941 10.5229 9.14785 10.418 9.25693 10.338C9.35998 10.2595 9.48108 10.2081 9.60913 10.1886C9.67033 10.1796 9.73393 10.1838 9.79693 10.1886L9.88453 10.1934C9.97393 10.1958 10.0543 10.23 10.1341 10.2666L10.1755 10.287L10.2241 10.311H10.2235ZM13.0999 11.4246L13.0813 11.5092L13.0735 11.5512C13.0657 11.5944 13.0573 11.6364 13.0573 11.6784V11.7354C13.0567 11.85 13.0555 11.964 13.0813 12.0786C13.1135 12.2451 13.1874 12.4008 13.2961 12.531C13.4149 12.6684 13.5673 12.7584 13.7395 12.81C13.9699 12.879 14.2015 12.9414 14.4421 12.9654C14.5597 12.9774 14.6767 12.9798 14.7919 12.954C14.919 12.9281 15.0359 12.866 15.1285 12.7752C15.2707 12.6336 15.3487 12.4548 15.4195 12.273C15.4657 12.1542 15.5029 12.033 15.5239 11.9046L15.5317 11.8602C15.5449 11.7846 15.5581 11.709 15.5527 11.6352C15.5473 11.565 15.5299 11.4954 15.5125 11.4264L15.4873 11.3208L15.4483 11.1024L15.4393 11.0196C15.4351 10.9722 15.4309 10.9248 15.4183 10.8798C15.3889 10.776 15.3535 10.6722 15.3061 10.575C15.2407 10.4406 15.1639 10.3116 15.0661 10.1958C14.9449 10.053 14.8057 9.94076 14.6191 9.89276C14.4919 9.85976 14.3683 9.86636 14.2459 9.90356C14.0618 9.96417 13.8942 10.0667 13.7563 10.203C13.6273 10.3236 13.5223 10.464 13.4275 10.6122C13.3297 10.7646 13.2481 10.9242 13.1917 11.0964L13.1899 11.1024L13.1257 11.3124L13.0999 11.4246ZM15.5989 7.24556C15.5785 7.10156 15.4855 7.01576 15.3715 6.94676L15.3463 6.93296C15.3079 6.91316 15.2689 6.89276 15.2779 6.83996C15.2887 6.77636 15.3343 6.72776 15.3973 6.71336C15.4424 6.70494 15.4883 6.70152 15.5341 6.70316L15.5731 6.70256H15.6751L15.7909 6.70196C15.8269 6.70076 15.8623 6.69476 15.8977 6.68876C15.9619 6.67676 15.9961 6.62696 16.0279 6.57956L16.0399 6.56156C16.0939 6.48416 16.2289 6.44336 16.3087 6.53096C16.3207 6.54476 16.3363 6.55556 16.3519 6.56636L16.3867 6.59276C16.4227 6.62576 16.4203 6.64496 16.3831 6.67376L16.2793 6.76016C16.2385 6.79796 16.2409 6.80456 16.2781 6.84476C16.3086 6.87798 16.3372 6.91283 16.3639 6.94916C16.3723 6.96116 16.3783 6.97496 16.3843 6.98876L16.3921 7.00736L16.3705 7.01696L16.3231 7.03616L16.2523 7.05536C16.2094 7.06526 16.1672 7.0785 16.1263 7.09496C16.0357 7.13396 15.9961 7.21736 15.9703 7.30736C15.9379 7.42076 15.9355 7.53656 15.9325 7.65296V7.66196V7.67156V7.67996C15.9307 7.76036 15.9229 7.84076 15.8917 7.91936C15.8587 8.00276 15.7987 8.03996 15.7219 8.06576C15.6013 8.10536 15.5455 8.02136 15.5011 7.92656C15.4963 7.91576 15.4933 7.90436 15.4903 7.89236L15.4825 7.86656C15.4768 7.8487 15.4656 7.83309 15.4505 7.8219C15.4355 7.81071 15.4173 7.80451 15.3985 7.80416C15.3187 7.79756 15.2425 7.78016 15.1759 7.73216C15.1093 7.68416 15.0733 7.61216 15.0703 7.53176C15.0691 7.49696 15.1111 7.48196 15.1471 7.48016L15.2125 7.47716L15.3283 7.46996C15.4153 7.45976 15.4975 7.42736 15.5593 7.36676C15.5785 7.34756 15.5845 7.31516 15.5905 7.28216L15.5977 7.24676L15.5989 7.24556ZM12.2773 16.4754L12.1813 16.4382L12.1087 16.4214L12.0001 16.3974L11.9875 16.395L11.7919 16.3668C11.6179 16.3566 11.4463 16.3776 11.2777 16.4196C11.1307 16.4562 10.9891 16.509 10.8595 16.5852C10.6465 16.7106 10.4617 16.8708 10.3045 17.0634C10.2001 17.1906 10.1233 17.3316 10.0669 17.484L9.97273 17.7738C9.94873 17.8809 9.9303 17.9893 9.91753 18.0984L9.87253 18.5082C9.8678 18.5717 9.8678 18.6355 9.87253 18.699L9.87613 18.7596C9.88033 18.84 9.88453 18.921 9.90193 18.9984C9.92773 19.1148 9.96493 19.2282 10.0207 19.3368C10.0885 19.467 10.1797 19.575 10.2913 19.665C10.408 19.7604 10.5445 19.8285 10.6909 19.8642C10.8211 19.8948 10.9549 19.9152 11.0887 19.9278C11.2453 19.9422 11.4019 19.9224 11.5561 19.893L11.5693 19.8906L11.8933 19.8144C12.0123 19.7762 12.1284 19.7295 12.2407 19.6746C12.3577 19.6176 12.4705 19.551 12.5797 19.4802C12.6375 19.441 12.6928 19.3983 12.7453 19.3524L12.8047 19.3032C12.9163 19.2126 13.0141 19.1088 13.0975 18.9918L13.2337 18.7824C13.2763 18.7044 13.3183 18.624 13.3441 18.54L13.3579 18.4956C13.3819 18.4194 13.4065 18.3426 13.4125 18.2604L13.4221 18.1656C13.4311 18.09 13.4401 18.0144 13.4287 17.9364L13.4185 17.8428C13.4119 17.7726 13.4053 17.7024 13.3825 17.6352L13.3549 17.5512L13.2913 17.3706C13.2181 17.1954 13.1047 17.0472 12.9739 16.9116C12.9312 16.8671 12.8847 16.8265 12.8347 16.7904L12.7831 16.7526L12.5317 16.5858C12.4513 16.5426 12.3655 16.5096 12.2785 16.476L12.2773 16.4754Z"
              fill="white"/>
    </g>
    <defs>
        <clipPath id="clip0_2470_107">
            <rect width="24" height="24" fill="white"/>
        </clipPath>
    </defs>
</svg>
