<svg width="40" height="40" fill="none" xmlns="http://www.w3.org/2000/svg">
    <path d="M20 40c11.046 0 20-8.954 20-20S31.046 0 20 0 0 8.954 0 20s8.954 20 20 20z" fill="url(#paint0_linear)"/>
    <path d="M20.092 8A9.129 9.129 0 0011 17.092c0 1.004.162 2.001.48 2.953a1.3 1.3 0 001.599.797c.637-.244.976-.942.773-1.594a6 6 0 01-.354-2.317 6.559 6.559 0 116.954 6.743s-1.277.078-1.912.156c-.233.033-.465.08-.695.138a.084.084 0 01-.119 0 .083.083 0 010-.102l.197-1.078 1.199-5.39a1.246 1.246 0 00-2.438-.522s-2.85 13.195-2.85 13.315a1.198 1.198 0 00.886 1.461h.066a1.197 1.197 0 001.468-.893.31.31 0 010-.059c.035-.155.395-1.91.395-1.91a3.234 3.234 0 012.677-2.547c.275-.042 1.431-.12 1.431-.12A9.086 9.086 0 0020.092 8z"
          fill="#1E1E1E"/>
    <path d="M20.643 28.963a1.515 1.515 0 00-1.792 1.175l-.005.023a1.51 1.51 0 001.157 1.797h.042c.798.193 1.6-.298 1.792-1.095l.005-.018v-.084a1.571 1.571 0 00-1.199-1.797z"
          fill="#E6007A"/>
    <defs>
        <linearGradient id="paint0_linear" x1="20" y1="0" x2="20" y2="40" gradientUnits="userSpaceOnUse">
            <stop stop-color="#fff"/>
            <stop offset="1" stop-color="#ECECEC"/>
        </linearGradient>
    </defs>
</svg>
