<svg width="40" height="40" viewBox="0 0 40 40" fill="none" xmlns="http://www.w3.org/2000/svg">
    <circle cx="20" cy="20" r="20" fill="white"/>
    <path fill-rule="evenodd" clip-rule="evenodd"
          d="M27.8209 12.1679C27.7141 12.0614 27.6607 11.9548 27.6607 11.8216C27.6607 11.6884 27.7141 11.5819 27.8209 11.4753C28.0344 11.2888 28.3548 11.2888 28.5683 11.4753C28.6751 11.5819 28.7285 11.6884 28.7285 11.8216C28.7285 11.9548 28.6751 12.0614 28.5683 12.1679C28.4615 12.2478 28.3281 12.3011 28.1946 12.3011C28.0611 12.3277 27.9277 12.2745 27.8209 12.1679Z"
          fill="black"/>
    <path fill-rule="evenodd" clip-rule="evenodd"
          d="M26.5129 13.553C26.4328 13.4465 26.3794 13.3399 26.3794 13.2067C26.3794 13.0735 26.4328 12.967 26.5129 12.8604C26.6998 12.674 27.0201 12.674 27.2069 12.8604C27.287 12.967 27.3404 13.0735 27.3404 13.2067C27.3404 13.3399 27.287 13.4465 27.2069 13.553C27.1002 13.633 26.9934 13.6862 26.8599 13.6862C26.7265 13.6862 26.6197 13.633 26.5129 13.553Z"
          fill="black"/>
    <path fill-rule="evenodd" clip-rule="evenodd"
          d="M25.0982 14.9117C25.0181 14.8318 24.9647 14.6986 24.9647 14.5654C24.9647 14.4322 25.0181 14.3256 25.0982 14.2191C25.285 14.0326 25.6053 14.0326 25.7922 14.2191C25.8723 14.299 25.9257 14.4322 25.9257 14.5654C25.9257 14.6986 25.8723 14.8051 25.7922 14.9117C25.6854 15.0182 25.5786 15.0449 25.4452 15.0449C25.3117 15.0449 25.1782 14.9916 25.0982 14.9117Z"
          fill="black"/>
    <path fill-rule="evenodd" clip-rule="evenodd"
          d="M23.7368 16.2703C23.63 16.1904 23.5766 16.0572 23.5766 15.924C23.5766 15.7908 23.63 15.6843 23.7368 15.5777C23.9503 15.3912 24.2707 15.3912 24.4842 15.5777C24.591 15.6576 24.6444 15.7908 24.6444 15.924C24.6444 16.0572 24.591 16.1904 24.4842 16.2703C24.3774 16.3769 24.244 16.4035 24.1105 16.4035C23.977 16.4035 23.8436 16.3769 23.7368 16.2703Z"
          fill="black"/>
    <path fill-rule="evenodd" clip-rule="evenodd"
          d="M22.4288 17.6288C22.322 17.5489 22.2953 17.4157 22.2953 17.2825C22.2953 17.1493 22.3487 17.0428 22.4288 16.9362C22.6157 16.7498 22.936 16.7498 23.1228 16.9362C23.2296 17.0162 23.2563 17.1493 23.2563 17.2825C23.2563 17.4157 23.2029 17.5489 23.1228 17.6288C23.0428 17.7354 22.9093 17.762 22.7758 17.762C22.6424 17.7887 22.5089 17.7354 22.4288 17.6288Z"
          fill="black"/>
    <path fill-rule="evenodd" clip-rule="evenodd"
          d="M20.8539 18.6412C20.8539 18.508 20.9073 18.4014 20.9874 18.2949C21.1742 18.1084 21.4945 18.1084 21.6814 18.2949C21.7882 18.4014 21.8149 18.508 21.8149 18.6412C21.8149 18.7744 21.7615 18.8809 21.6814 18.9875C21.6013 19.0674 21.4678 19.1207 21.3344 19.1207C21.2009 19.1207 21.0941 19.0674 20.9874 18.9875C20.9073 18.9076 20.8539 18.7744 20.8539 18.6412Z"
          fill="black"/>
    <path fill-rule="evenodd" clip-rule="evenodd"
          d="M18.318 21.6513C18.2379 21.5714 18.1845 21.4382 18.1845 21.305C18.1845 21.1718 18.2379 21.0653 18.318 20.9587C18.5049 20.7722 18.8252 20.7722 19.012 20.9587C19.1188 21.0653 19.1455 21.1718 19.1455 21.305C19.1455 21.4382 19.0921 21.5448 19.012 21.6513C18.932 21.7579 18.7985 21.7845 18.665 21.7845C18.5316 21.8111 18.4248 21.7579 18.318 21.6513Z"
          fill="black"/>
    <path fill-rule="evenodd" clip-rule="evenodd"
          d="M16.9033 23.01C16.7965 22.93 16.7431 22.7968 16.7431 22.6636C16.7431 22.5305 16.7965 22.4239 16.9033 22.3173C17.1168 22.1309 17.4371 22.1309 17.6507 22.3173C17.7575 22.4239 17.8108 22.5305 17.8108 22.6636C17.8108 22.7968 17.7575 22.9034 17.6507 23.01C17.5439 23.1165 17.4104 23.1431 17.277 23.1431C17.1435 23.1698 17.01 23.1165 16.9033 23.01Z"
          fill="black"/>
    <path fill-rule="evenodd" clip-rule="evenodd"
          d="M15.5953 24.3951C15.5152 24.3152 15.4618 24.182 15.4618 24.0488C15.4618 23.9156 15.5152 23.7824 15.5953 23.7025C15.7821 23.516 16.1025 23.516 16.2893 23.7025C16.3694 23.7824 16.4228 23.9156 16.4228 24.0488C16.4228 24.182 16.3694 24.2885 16.2893 24.3951C16.1825 24.5016 16.0758 24.5283 15.9423 24.5283C15.8088 24.5283 15.7021 24.475 15.5953 24.3951Z"
          fill="black"/>
    <path fill-rule="evenodd" clip-rule="evenodd"
          d="M14.2339 25.7537C14.1272 25.6738 14.1005 25.5406 14.1005 25.4074C14.1005 25.2742 14.1539 25.1677 14.2339 25.0611C14.4208 24.8746 14.7411 24.8746 14.928 25.0611C15.008 25.1677 15.0614 25.2742 15.0614 25.4074C15.0614 25.5406 15.008 25.6738 14.928 25.7537C14.8212 25.8603 14.7144 25.8869 14.5809 25.8869C14.4475 25.8869 14.314 25.8603 14.2339 25.7537Z"
          fill="black"/>
    <path fill-rule="evenodd" clip-rule="evenodd"
          d="M12.8192 27.1122C12.7124 27.0323 12.659 26.8991 12.659 26.7659C12.659 26.6327 12.7124 26.5262 12.8192 26.4196C13.0327 26.2332 13.353 26.2332 13.5399 26.4196C13.6467 26.5262 13.7001 26.6327 13.7001 26.7659C13.7001 26.8991 13.6467 27.0323 13.5399 27.1122C13.4331 27.1922 13.2997 27.2454 13.1662 27.2454C13.0327 27.2454 12.8993 27.2188 12.8192 27.1122Z"
          fill="black"/>
    <path fill-rule="evenodd" clip-rule="evenodd"
          d="M11.4845 28.4709C11.3777 28.3643 11.351 28.2578 11.351 28.1246C11.351 27.9914 11.4044 27.8848 11.4845 27.7783C11.6713 27.5918 11.9917 27.5918 12.1785 27.7783C12.2853 27.8848 12.312 27.9914 12.312 28.1246C12.312 28.2578 12.2586 28.3643 12.1785 28.4709C12.0984 28.5508 11.965 28.6041 11.8315 28.6041C11.7247 28.6307 11.5913 28.5774 11.4845 28.4709Z"
          fill="black"/>
    <path fill-rule="evenodd" clip-rule="evenodd"
          d="M12.1785 12.1679C12.2586 12.0614 12.312 11.9548 12.312 11.8216C12.312 11.6884 12.2586 11.5819 12.1785 11.4753C11.9917 11.2888 11.6713 11.2888 11.4845 11.4753C11.3777 11.5819 11.351 11.6884 11.351 11.8216C11.351 11.9548 11.4044 12.0614 11.4845 12.1679C11.5646 12.2478 11.698 12.3011 11.8315 12.3011C11.965 12.3277 12.0984 12.2745 12.1785 12.1679Z"
          fill="black"/>
    <path fill-rule="evenodd" clip-rule="evenodd"
          d="M13.5399 13.553C13.6467 13.4465 13.7001 13.3399 13.7001 13.2067C13.7001 13.0735 13.6467 12.967 13.5399 12.8604C13.3264 12.674 13.006 12.674 12.7925 12.8604C12.6857 12.967 12.6323 13.0735 12.6323 13.2067C12.6323 13.3399 12.6857 13.4465 12.7925 13.553C12.8993 13.633 13.0327 13.6862 13.1662 13.6862C13.2997 13.6862 13.4331 13.633 13.5399 13.553Z"
          fill="black"/>
    <path fill-rule="evenodd" clip-rule="evenodd"
          d="M14.928 14.9117C15.008 14.8318 15.0614 14.6986 15.0614 14.5654C15.0614 14.4322 15.008 14.3256 14.928 14.2191C14.7411 14.0326 14.4208 14.0326 14.2339 14.2191C14.1539 14.299 14.1005 14.4322 14.1005 14.5654C14.1005 14.6986 14.1539 14.8051 14.2339 14.9117C14.3407 15.0182 14.4475 15.0449 14.5809 15.0449C14.6877 15.0449 14.8212 14.9916 14.928 14.9117Z"
          fill="black"/>
    <path fill-rule="evenodd" clip-rule="evenodd"
          d="M16.2893 16.2703C16.3694 16.1904 16.4228 16.0572 16.4228 15.924C16.4228 15.7908 16.3694 15.6843 16.2893 15.5777C16.1025 15.3912 15.7821 15.3912 15.5953 15.5777C15.5152 15.6576 15.4618 15.7908 15.4618 15.924C15.4618 16.0572 15.5152 16.1904 15.5953 16.2703C15.7021 16.3769 15.8088 16.4035 15.9423 16.4035C16.0491 16.4035 16.1825 16.3769 16.2893 16.2703Z"
          fill="black"/>
    <path fill-rule="evenodd" clip-rule="evenodd"
          d="M17.624 17.6288C17.7308 17.5489 17.7841 17.4157 17.7841 17.2825C17.7841 17.1493 17.7308 17.0428 17.624 16.9362C17.4371 16.7498 17.0901 16.7498 16.9033 16.9362C16.7965 17.0162 16.7431 17.1493 16.7431 17.2825C16.7431 17.4157 16.7965 17.5489 16.9033 17.6288C17.01 17.7354 17.1435 17.762 17.277 17.762C17.4104 17.7887 17.5439 17.7354 17.624 17.6288Z"
          fill="black"/>
    <path fill-rule="evenodd" clip-rule="evenodd"
          d="M19.1455 18.6412C19.1455 18.508 19.0921 18.4014 19.012 18.2949C18.8252 18.1084 18.5049 18.1084 18.318 18.2949C18.2112 18.4014 18.1845 18.508 18.1845 18.6412C18.1845 18.7744 18.2379 18.8809 18.318 18.9875C18.3981 19.0674 18.5316 19.1207 18.665 19.1207C18.7985 19.1207 18.9053 19.0674 19.012 18.9875C19.1188 18.9076 19.1455 18.7744 19.1455 18.6412Z"
          fill="black"/>
    <path fill-rule="evenodd" clip-rule="evenodd"
          d="M20.3734 20.3726C20.4802 20.2661 20.5069 20.1595 20.5069 20.0263C20.5069 19.8931 20.4535 19.7866 20.3734 19.68C20.1866 19.4935 19.8663 19.4935 19.6794 19.68C19.5726 19.7866 19.5459 19.8931 19.5459 20.0263C19.5459 20.1595 19.5993 20.2661 19.6794 20.3726C19.7595 20.4525 19.8929 20.5058 20.0264 20.5058C20.1599 20.5058 20.2933 20.4525 20.3734 20.3726Z"
          fill="black"/>
    <path fill-rule="evenodd" clip-rule="evenodd"
          d="M21.7348 21.6513C21.8416 21.5714 21.8949 21.4382 21.8949 21.305C21.8949 21.1718 21.8416 21.0653 21.7348 20.9587C21.5212 20.7722 21.2009 20.7722 21.0141 20.9587C20.9073 21.0653 20.8539 21.1718 20.8539 21.305C20.8539 21.4382 20.9073 21.5448 21.0141 21.6513C21.1208 21.7579 21.2543 21.7845 21.3878 21.7845C21.4945 21.8111 21.628 21.7579 21.7348 21.6513Z"
          fill="black"/>
    <path fill-rule="evenodd" clip-rule="evenodd"
          d="M23.1228 23.01C23.2029 22.93 23.2563 22.7968 23.2563 22.6636C23.2563 22.5305 23.2029 22.4239 23.1228 22.3173C22.936 22.1309 22.6157 22.1309 22.4288 22.3173C22.3487 22.4239 22.2953 22.5305 22.2953 22.6636C22.2953 22.7968 22.3487 22.9034 22.4288 23.01C22.5356 23.1165 22.6424 23.1431 22.7758 23.1431C22.8826 23.1698 23.0161 23.1165 23.1228 23.01Z"
          fill="black"/>
    <path fill-rule="evenodd" clip-rule="evenodd"
          d="M24.4842 24.3951C24.5643 24.3152 24.6177 24.182 24.6177 24.0488C24.6177 23.9156 24.5643 23.7824 24.4842 23.7025C24.2973 23.516 23.977 23.516 23.7902 23.7025C23.7101 23.7824 23.6567 23.9156 23.6567 24.0488C23.6567 24.182 23.7101 24.2885 23.7902 24.3951C23.8969 24.5016 24.0037 24.5283 24.1372 24.5283C24.2707 24.5283 24.3774 24.475 24.4842 24.3951Z"
          fill="black"/>
    <path fill-rule="evenodd" clip-rule="evenodd"
          d="M25.7655 25.7537C25.8723 25.6738 25.899 25.5406 25.899 25.4074C25.899 25.2742 25.8456 25.1677 25.7655 25.0611C25.5786 24.8746 25.2583 24.8746 25.0715 25.0611C24.9914 25.1677 24.938 25.2742 24.938 25.4074C24.938 25.5406 24.9914 25.6738 25.0715 25.7537C25.1782 25.8603 25.285 25.8869 25.4185 25.8869C25.5519 25.8869 25.6854 25.8603 25.7655 25.7537Z"
          fill="black"/>
    <path fill-rule="evenodd" clip-rule="evenodd"
          d="M27.2069 27.1122C27.3137 27.0323 27.3404 26.8991 27.3404 26.7659C27.3404 26.6327 27.287 26.5262 27.2069 26.4196C27.0201 26.2332 26.6998 26.2332 26.5129 26.4196C26.4061 26.5262 26.3794 26.6327 26.3794 26.7659C26.3794 26.8991 26.4328 27.0323 26.5129 27.1122C26.593 27.1922 26.7265 27.2454 26.8599 27.2454C26.9934 27.2454 27.1269 27.2188 27.2069 27.1122Z"
          fill="black"/>
    <path fill-rule="evenodd" clip-rule="evenodd"
          d="M28.5683 28.4709C28.6751 28.3643 28.7285 28.2578 28.7285 28.1246C28.7285 27.9914 28.6751 27.8848 28.5683 27.7783C28.3547 27.5918 28.0344 27.5918 27.8476 27.7783C27.7408 27.8848 27.6874 27.9914 27.6874 28.1246C27.6874 28.2578 27.7408 28.3643 27.8476 28.4709C27.9543 28.5508 28.0878 28.6041 28.2213 28.6041C28.3281 28.6307 28.4615 28.5774 28.5683 28.4709Z"
          fill="black"/>
    <path fill-rule="evenodd" clip-rule="evenodd"
          d="M15.4084 12.5409C16.7965 11.6351 18.318 11.2089 19.9997 11.1823C21.6547 11.1823 23.1762 11.6351 24.591 12.5409L27.5272 9.6106C25.2316 7.87908 22.7491 7 19.9997 7C17.2503 7 14.7411 7.87908 12.4988 9.6106L15.4084 12.5409Z"
          fill="black"/>
    <path fill-rule="evenodd" clip-rule="evenodd"
          d="M12.4722 24.555C11.5379 23.1431 11.0841 21.6247 11.0841 19.9997C11.0841 18.3481 11.5379 16.8297 12.4722 15.4445L9.56257 12.5409C7.85419 14.7785 7 17.256 7 20.0264C7 22.7435 7.85419 25.2476 9.58926 27.5119L12.4722 24.555Z"
          fill="black"/>
    <path fill-rule="evenodd" clip-rule="evenodd"
          d="M24.591 27.4586C23.2029 28.391 21.6814 28.8705 20.0264 28.8971C18.3447 28.8971 16.7965 28.4443 15.4084 27.4853L12.4722 30.3889C14.7411 32.147 17.2503 33.0261 20.0264 32.9995C22.7758 32.9728 25.2583 32.0938 27.5006 30.3889L24.591 27.4586Z"
          fill="black"/>
    <path fill-rule="evenodd" clip-rule="evenodd"
          d="M27.4472 15.4178C28.3814 16.8297 28.8619 18.3747 28.8352 20.053C28.8085 21.6779 28.3548 23.1697 27.4472 24.5283L30.3835 27.4319C32.1185 25.1943 32.9994 22.7169 32.9994 19.9997C33.0261 17.2293 32.1452 14.7252 30.3835 12.4609L27.4472 15.4178Z"
          fill="black"/>
    <path fill-rule="evenodd" clip-rule="evenodd"
          d="M30.5169 28.3643C31.638 28.3643 32.5723 29.27 32.5723 30.4154C32.5723 31.5343 31.6647 32.4666 30.5169 32.4666C29.3958 32.4666 28.4615 31.5609 28.4615 30.4154C28.4615 29.27 29.3691 28.3643 30.5169 28.3643Z"
          fill="black"/>
    <path fill-rule="evenodd" clip-rule="evenodd"
          d="M9.53587 28.3643C10.657 28.3643 11.5646 29.27 11.5646 30.4154C11.5646 31.5343 10.657 32.4666 9.53587 32.4666C8.41475 32.4666 7.50717 31.5609 7.50717 30.4154C7.50717 29.27 8.41475 28.3643 9.53587 28.3643Z"
          fill="black"/>
    <path fill-rule="evenodd" clip-rule="evenodd"
          d="M30.5436 7.45288C31.6647 7.45288 32.5723 8.3586 32.5723 9.50406C32.5723 10.6495 31.6647 11.5552 30.5436 11.5552C29.4225 11.5552 28.5149 10.6495 28.5149 9.50406C28.5149 8.3586 29.4225 7.45288 30.5436 7.45288Z"
          fill="black"/>
    <path fill-rule="evenodd" clip-rule="evenodd"
          d="M9.50918 7.45288C10.6303 7.45288 11.5646 8.3586 11.5646 9.47742C11.5646 10.5963 10.657 11.502 9.50918 11.502C8.38805 11.502 7.45378 10.5963 7.45378 9.47742C7.45378 8.3586 8.36136 7.45288 9.50918 7.45288Z"
          fill="black"/>
</svg>
