<svg width="24" height="24" viewBox="0 0 24 24" fill="none" xmlns="http://www.w3.org/2000/svg">
    <path d="M22.9304 13.2815C23.5498 12.5394 23.5498 11.4606 22.9304 10.7185L21.3382 8.81071L21.5581 6.30469C21.6448 5.31599 20.9934 4.41325 20.0277 4.18398L17.7709 3.64818L16.6081 1.59072C16.099 0.689909 14.9868 0.32615 14.0438 0.752004L12 1.67495L9.95618 0.752003C9.01315 0.326149 7.901 0.689909 7.39189 1.59072L6.22909 3.64818L3.9723 4.18398C3.00665 4.41325 2.3552 5.31599 2.44195 6.30469L2.66182 8.81071L1.06958 10.7185C0.450212 11.4606 0.450212 12.5394 1.06958 13.2815L2.66182 15.1893L2.44195 17.6953C2.3552 18.684 3.00665 19.5868 3.9723 19.816L6.22909 20.3518L7.39189 22.4093C7.901 23.3101 9.01315 23.6739 9.95618 23.248L12 22.325L14.0438 23.248C14.9868 23.6739 16.099 23.3101 16.6081 22.4093L17.7709 20.3518L20.0277 19.816C20.9934 19.5868 21.6448 18.684 21.5581 17.6953L21.3382 15.1893L22.9304 13.2815Z"
          fill="url(#paint0_linear_14_5293)"/>
    <path d="M6.05574 12.0257L5.53888 10.9457H5.51574V14.5715H4.4126V9.18689H5.69317L7.1666 11.7326L7.68345 12.8126H7.7066V9.18689H8.80974V14.5715H7.52917L6.05574 12.0257Z"
          fill="white"/>
    <path d="M11.6226 14.664C11.3141 14.664 11.0389 14.6152 10.7972 14.5175C10.5555 14.4146 10.3498 14.2732 10.1801 14.0932C10.0155 13.908 9.88948 13.6843 9.80205 13.422C9.71976 13.1597 9.67862 12.8666 9.67862 12.5426C9.67862 12.2237 9.71976 11.9357 9.80205 11.6786C9.88434 11.4163 10.0052 11.1926 10.1646 11.0075C10.3292 10.8223 10.5298 10.6809 10.7663 10.5832C11.0029 10.4803 11.2729 10.4289 11.5763 10.4289C11.9106 10.4289 12.1961 10.4855 12.4326 10.5986C12.6743 10.7117 12.8698 10.8635 13.0189 11.0537C13.1732 11.244 13.2838 11.4652 13.3506 11.7172C13.4226 11.964 13.4586 12.2237 13.4586 12.4963V12.8357H10.8589V12.8975C10.8589 13.1649 10.9309 13.3783 11.0749 13.5377C11.2189 13.692 11.4452 13.7692 11.7538 13.7692C11.9903 13.7692 12.1832 13.7229 12.3323 13.6303C12.4815 13.5326 12.6203 13.4169 12.7489 13.2832L13.3198 13.9929C13.1398 14.2037 12.9032 14.3683 12.6101 14.4866C12.3221 14.6049 11.9929 14.664 11.6226 14.664ZM11.5995 11.2697C11.3681 11.2697 11.1855 11.3469 11.0518 11.5012C10.9232 11.6503 10.8589 11.8509 10.8589 12.1029V12.1646H12.2783V12.0952C12.2783 11.8483 12.2218 11.6503 12.1086 11.5012C12.0006 11.3469 11.8309 11.2697 11.5995 11.2697Z"
          fill="white"/>
    <path d="M13.8416 10.5215H14.9447L15.3381 12.1569L15.6159 13.3912H15.6467L15.9707 12.1569L16.4336 10.5215H17.475L17.9456 12.1569L18.2773 13.3912H18.3081L18.5858 12.1569L18.9793 10.5215H20.0361L18.9176 14.5715H17.7219L17.2281 12.8589L16.9427 11.8097H16.9196L16.6419 12.8589L16.1481 14.5715H14.9756L13.8416 10.5215Z"
          fill="white"/>
    <defs>
        <linearGradient id="paint0_linear_14_5293" x1="1.09091" y1="12" x2="22.9091" y2="12"
                        gradientUnits="userSpaceOnUse">
            <stop stop-color="#FC504E"/>
            <stop offset="1" stop-color="#FF7E36"/>
        </linearGradient>
    </defs>
</svg>
