<svg width="40" height="40" viewBox="0 0 40 40" fill="none" xmlns="http://www.w3.org/2000/svg">
    <path d="M20 39.7298C31.0457 39.7298 40 30.836 40 19.8649C40 8.89381 31.0457 0 20 0C8.9543 0 0 8.89381 0 19.8649C0 30.836 8.9543 39.7298 20 39.7298Z"
          fill="url(#paint0_radial)"/>
    <path d="M20.7581 36.1046C28.853 36.1046 35.4152 29.9985 35.4152 22.4661C35.4152 14.9338 28.853 8.82764 20.7581 8.82764C12.6631 8.82764 6.10089 14.9338 6.10089 22.4661C6.10089 29.9985 12.6631 36.1046 20.7581 36.1046Z"
          fill="url(#paint1_linear)"/>
    <path d="M20.1386 40C28.8782 40 35.9631 33.4076 35.9631 25.2755C35.9631 17.1433 28.8782 10.5509 20.1386 10.5509C11.399 10.5509 4.31421 17.1433 4.31421 25.2755C4.31421 33.4076 11.399 40 20.1386 40Z"
          fill="url(#paint2_radial)"/>
    <path d="M15.7045 33.483C15.6322 33.4754 13.9235 33.2889 13.0352 32.7846C12.884 32.6988 9.31468 30.6531 7.88815 28.1027C6.68547 25.9523 4.64848 22.0681 4.51976 20.2128C4.40262 18.5264 4.49473 14.9153 5.09502 13.7229C5.13684 13.6399 5.18848 13.5263 5.25389 13.3824C5.64544 12.5208 6.46026 10.728 8.07808 9.1446C10.0833 7.18209 12.6552 6.18461 15.7222 6.17994C15.7425 6.17969 17.9546 6.15259 20.4433 6.15259C21.9053 6.15259 23.1756 6.16176 24.2187 6.18003C27.531 6.23774 30.177 6.51597 31.4364 6.73673L31.6535 6.77434C32.5363 6.92622 32.8666 6.9831 32.938 7.62153C32.9992 8.16839 33.4908 12.1362 33.4958 12.1762L33.509 12.2832L30.4575 14.1234H33.7364L34.0597 20.2214L30.4962 22.8056H33.7136L32.6135 29.2976L26.4973 32.7421L15.7193 33.4846L15.7045 33.483Z"
          fill="url(#paint3_linear)"/>
    <path d="M20.4433 6.31944C21.7017 6.31944 23.0377 6.32628 24.2158 6.3468C27.7495 6.40835 30.3533 6.71627 31.4073 6.901C32.4612 7.08573 32.7092 7.08573 32.7712 7.63993C32.8331 8.19413 33.3291 12.1966 33.3291 12.1966L29.8574 14.2902H33.5771L33.8871 20.1399L29.9814 22.9724H33.5151L32.4612 29.1916L26.4477 32.5783L15.7226 33.3172C15.7226 33.3172 13.9867 33.1325 13.1188 32.6399C12.2509 32.1473 9.27506 30.2385 8.03519 28.0217C6.79531 25.8049 4.81147 21.9872 4.68745 20.2015C4.56343 18.4158 4.68745 14.9059 5.24542 13.7975C5.80339 12.6891 8.0351 6.35848 15.7226 6.3468C15.7224 6.3468 17.9269 6.31944 20.4433 6.31944ZM20.4433 5.98584C17.9536 5.98584 15.7403 6.01295 15.7183 6.0132C12.6094 6.01787 9.99795 7.03152 7.9602 9.02581C6.32005 10.631 5.49657 12.443 5.10083 13.3138C5.03878 13.4504 4.98512 13.5683 4.9449 13.6483C4.33101 14.8679 4.23402 18.5216 4.35225 20.2244C4.48333 22.1118 6.53199 26.0213 7.74147 28.1836C9.19042 30.7742 12.7991 32.8427 12.952 32.9295C13.8704 33.4507 15.613 33.6411 15.6867 33.6489L15.7162 33.6521L15.7457 33.6501L26.4709 32.9111L26.5469 32.9059L26.6133 32.8685L32.6268 29.4818L32.7659 29.4035L32.7924 29.247L33.8463 23.0278L33.9122 22.6388H33.515H31.0109L34.085 20.4093L34.232 20.3028L34.2224 20.1224L33.9124 14.2727L33.8957 13.9566H33.577H31.0577L33.5034 12.4817L33.6889 12.3698L33.6624 12.1558C33.6575 12.1157 33.166 8.14893 33.1049 7.60307C33.0196 6.84012 32.5727 6.76322 31.6822 6.61001C31.6141 6.59825 31.542 6.58591 31.4656 6.57248C30.2003 6.35072 27.5439 6.07116 24.2217 6.01328C23.1776 5.9951 21.9063 5.98584 20.4433 5.98584Z"
          fill="#692CC2"/>
    <path d="M4.87175 20.2152C4.87175 20.2152 5.03969 22.3837 5.93538 24.3854C6.83107 26.3871 9.01836 29.5528 9.79809 30.3906C10.9585 31.6372 13.2132 33.0983 14.6127 33.2651C16.0122 33.4319 19.8373 33.1671 20.7032 33.1551C21.2658 33.1472 25.8318 32.6894 26.4476 32.5783C27.0634 32.4671 32.3141 29.4811 32.4611 29.1916C32.5814 28.9548 32.6481 28.0884 32.6481 28.0884L28.3706 29.0663L15.4846 29.6711C15.0627 29.688 14.4349 29.6191 13.9388 29.5764C13.3144 29.5226 12.7174 29.4058 11.9923 29.1783C11.215 28.9345 10.2424 28.4353 9.44836 27.837C8.33125 26.9952 6.99178 25.6735 6.2155 23.7739C5.72243 22.5677 4.87175 20.2152 4.87175 20.2152Z"
          fill="white"/>
    <path d="M11.0728 14.3517L12.6227 12.258C12.6227 12.258 12.5607 11.7038 15.4745 11.6423C18.3882 11.5807 32.6471 12.0733 32.6471 12.0733L29.7333 14.3517H11.0728Z"
          fill="url(#paint4_linear)"/>
    <path d="M33.1431 20.2014L29.4853 22.9723L13.3046 23.465C13.3046 23.465 11.8788 22.295 11.6307 21.8332C11.3828 21.3715 11.0728 20.7556 11.0728 20.7556C11.0728 20.7556 27.9354 20.6324 29.5473 20.5709C31.1592 20.5092 33.1431 20.2014 33.1431 20.2014Z"
          fill="url(#paint5_linear)"/>
    <path d="M31.2832 29.3762C31.2832 29.3762 26.5715 32.1472 26.1995 32.2703C25.8276 32.3935 16.8524 33.009 15.9704 33.0093C14.8326 33.0095 13.4285 32.6398 12.4986 31.9625C11.5686 31.2852 10.1428 29.9305 9.83277 29.3763C9.52276 28.8221 8.65486 27.8369 8.65486 27.8369C8.65486 27.8369 10.7627 29.1916 12.2506 29.6226C13.7385 30.0536 16.8739 29.9561 18.2999 29.8945C19.7258 29.833 31.2832 29.3762 31.2832 29.3762Z"
          fill="url(#paint6_linear)"/>
    <path d="M29.5333 4.93934C29.5333 4.93934 26.2263 3.95396 24.1004 4.00091C21.9744 4.04787 19.2344 4.23552 17.8171 4.70474C16.3998 5.17395 15.8329 5.45551 15.8329 5.45551C15.8329 5.45551 16.7305 6.53472 16.6361 7.56706C16.5416 8.5994 15.5022 9.81939 14.274 10.1478C13.0457 10.4763 11.8174 10.664 10.8725 10.4763C9.92759 10.2886 7.75449 9.06853 7.75449 9.06853L6.10098 7.89541C6.10098 7.89541 7.75449 5.64308 10.4945 4.32926C13.2346 3.01545 16.0219 1.88928 19.5179 1.88928C23.0138 1.88928 25.5177 2.68701 26.9822 3.39084C28.4466 4.09474 29.5333 4.93934 29.5333 4.93934Z"
          fill="white"/>
    <path d="M6.10089 7.89551C6.10089 7.89551 4.84313 9.47663 4.52413 10.1735C4.20514 10.8705 3.15259 12.898 2.96123 14.8939C2.76987 16.8897 2.73796 18.4365 2.96123 19.4848C3.1845 20.5329 3.56723 21.9903 3.56723 21.9903C3.56723 21.9903 4.87495 16.6364 5.06632 15.3375C5.25768 14.0386 6.18268 11.2824 6.98004 10.332C7.7774 9.38155 8.51103 8.24112 8.51103 8.24112L6.10089 7.89551Z"
          fill="url(#paint7_linear)"/>
    <path d="M8.51103 8.24097C8.51103 8.24097 7.1164 10.0493 6.81562 10.5508C6.51485 11.0523 5.27035 13.034 5.19386 14.0384C5.11736 15.0428 4.90677 17.1747 4.90677 17.1747C4.90677 17.1747 7.13949 13.1831 7.74549 12.4861C8.35149 11.7891 10.1058 9.47647 10.1058 9.47647L8.51103 8.24097Z"
          fill="url(#paint8_linear)"/>
    <defs>
        <radialGradient id="paint0_radial" cx="0" cy="0" r="1" gradientUnits="userSpaceOnUse"
                        gradientTransform="translate(10.4542 7.61212) scale(21.59 21.4442)">
            <stop stop-color="#21FFE3"/>
            <stop offset="1" stop-color="#8549DF"/>
        </radialGradient>
        <linearGradient id="paint1_linear" x1="21.4053" y1="36.1262" x2="20.2462" y2="11.3282"
                        gradientUnits="userSpaceOnUse">
            <stop stop-color="#21FFE3"/>
            <stop offset="1" stop-color="#8549DF"/>
        </linearGradient>
        <radialGradient id="paint2_radial" cx="0" cy="0" r="1" gradientUnits="userSpaceOnUse"
                        gradientTransform="translate(20.1386 25.2754) scale(18.7134 18.5869)">
            <stop stop-color="#21FFE3"/>
            <stop offset="0.1916" stop-color="#23FCE3" stop-opacity="0.8084"/>
            <stop offset="0.3419" stop-color="#28F2E3" stop-opacity="0.6581"/>
            <stop offset="0.478" stop-color="#31E1E2" stop-opacity="0.522"/>
            <stop offset="0.6059" stop-color="#3ECAE2" stop-opacity="0.3941"/>
            <stop offset="0.728" stop-color="#4FACE1" stop-opacity="0.272"/>
            <stop offset="0.8458" stop-color="#6386E0" stop-opacity="0.1542"/>
            <stop offset="0.958" stop-color="#7B5BDF" stop-opacity="0.042"/>
            <stop offset="1" stop-color="#8549DF" stop-opacity="0"/>
        </radialGradient>
        <linearGradient id="paint3_linear" x1="6.50116" y1="10.3745" x2="32.013" y2="25.4717"
                        gradientUnits="userSpaceOnUse">
            <stop stop-color="#21FFE3"/>
            <stop offset="1" stop-color="#F8FFFB"/>
        </linearGradient>
        <linearGradient id="paint4_linear" x1="11.0728" y1="12.9943" x2="32.6471" y2="12.9943"
                        gradientUnits="userSpaceOnUse">
            <stop stop-color="#692CC2"/>
            <stop offset="0.5189" stop-color="#3E5BDE"/>
            <stop offset="1" stop-color="#229EE7"/>
        </linearGradient>
        <linearGradient id="paint5_linear" x1="11.0728" y1="21.8332" x2="33.1431" y2="21.8332"
                        gradientUnits="userSpaceOnUse">
            <stop stop-color="#692CC2"/>
            <stop offset="0.5189" stop-color="#3E5BDE"/>
            <stop offset="1" stop-color="#229EE7"/>
        </linearGradient>
        <linearGradient id="paint6_linear" x1="8.65497" y1="30.423" x2="31.2832" y2="30.423"
                        gradientUnits="userSpaceOnUse">
            <stop stop-color="#677CF4"/>
            <stop offset="0.2764" stop-color="#374CD7"/>
            <stop offset="0.3631" stop-color="#3752D8"/>
            <stop offset="0.4747" stop-color="#3562DB"/>
            <stop offset="0.5999" stop-color="#337CE1"/>
            <stop offset="0.7351" stop-color="#30A1E9"/>
            <stop offset="0.8766" stop-color="#2DD0F2"/>
            <stop offset="1" stop-color="#29FFFC"/>
        </linearGradient>
        <linearGradient id="paint7_linear" x1="5.8701" y1="11.357" x2="2.07744" y2="21.0767"
                        gradientUnits="userSpaceOnUse">
            <stop stop-color="#F8FFFB"/>
            <stop offset="1" stop-color="#F8FFFB" stop-opacity="0"/>
        </linearGradient>
        <linearGradient id="paint8_linear" x1="7.61223" y1="11.8834" x2="6.98081" y2="20.6017"
                        gradientUnits="userSpaceOnUse">
            <stop stop-color="#F8FFFB"/>
            <stop offset="1" stop-color="#F8FFFB" stop-opacity="0"/>
        </linearGradient>
    </defs>
</svg>
