<svg width="40" height="40" viewBox="0 0 40 40" fill="none" xmlns="http://www.w3.org/2000/svg">
    <circle cx="20" cy="20" r="20" fill="white"/>
    <path d="M11 21.3371C14.1715 23.0696 17.481 24.8833 20.0369 26.2865L29 21.3371C25.7546 26.2967 23.0509 30.4254 20.0369 34.9949C17.0181 30.4355 13.684 25.405 11 21.3371ZM11.3447 19.9693L20.0468 15.1921L28.6356 19.9338L20.0517 24.7161L11.3447 19.9693ZM20.0369 13.6622L11 18.5559L19.9975 5.00452L29 18.5863L20.0369 13.6622Z"
          fill="#40B849"/>
    <path d="M20.0369 26.2868L28.9999 21.3374C25.7545 26.297 20.0369 34.9952 20.0369 34.9952V26.2868ZM20.0467 15.1924L28.6354 19.9341L20.0516 24.7164L20.0467 15.1924ZM20.0369 13.6625L19.9975 5.00482L28.9999 18.5866L20.0369 13.6625Z"
          fill="#158324"/>
    <path d="M11.3448 19.9695L20.0468 20.704L28.6356 19.9391L20.0517 24.7213L11.3448 19.9695Z" fill="#158324"/>
    <path d="M20.0468 20.704L28.6356 19.9391L20.0517 24.7213L20.0468 20.704Z" fill="#196720"/>
</svg>
