<svg width="40" height="40" viewBox="0 0 40 40" fill="none" xmlns="http://www.w3.org/2000/svg">
    <circle cx="20" cy="20" r="20" fill="#1A36D8"/>
    <path d="M20 3L20.8981 5.76393H23.8042L21.4531 7.47214L22.3511 10.2361L20 8.52786L17.6489 10.2361L18.5469 7.47214L16.1958 5.76393H19.1019L20 3Z"
          fill="#FFD600"/>
    <path d="M20 29L20.8981 31.7639H23.8042L21.4531 33.4721L22.3511 36.2361L20 34.5279L17.6489 36.2361L18.5469 33.4721L16.1958 31.7639H19.1019L20 29Z"
          fill="#FFD600"/>
    <path d="M7 16L7.89806 18.7639H10.8042L8.45308 20.4721L9.35114 23.2361L7 21.5279L4.64886 23.2361L5.54692 20.4721L3.19577 18.7639H6.10194L7 16Z"
          fill="#FFD600"/>
    <path d="M33 16L33.8981 18.7639H36.8042L34.4531 20.4721L35.3511 23.2361L33 21.5279L30.6489 23.2361L31.5469 20.4721L29.1958 18.7639H32.1019L33 16Z"
          fill="#FFD600"/>
    <path d="M29.1924 6.80762L30.0904 9.57155H32.9966L30.6455 11.2798L31.5435 14.0437L29.1924 12.3355L26.8412 14.0437L27.7393 11.2798L25.3882 9.57155H28.2943L29.1924 6.80762Z"
          fill="#FFD600"/>
    <path d="M10.8076 25.1924L11.7057 27.9563H14.6118L12.2607 29.6645L13.1588 32.4285L10.8076 30.7202L8.45648 32.4285L9.35453 29.6645L7.00339 27.9563H9.90956L10.8076 25.1924Z"
          fill="#FFD600"/>
    <path d="M10.8076 6.80762L11.7057 9.57155H14.6118L12.2607 11.2798L13.1588 14.0437L10.8076 12.3355L8.45648 14.0437L9.35453 11.2798L7.00339 9.57155H9.90956L10.8076 6.80762Z"
          fill="#FFD600"/>
    <path d="M29.1924 25.1924L30.0904 27.9563H32.9966L30.6455 29.6645L31.5435 32.4285L29.1924 30.7202L26.8412 32.4285L27.7393 29.6645L25.3882 27.9563H28.2943L29.1924 25.1924Z"
          fill="#FFD600"/>
</svg>
