<svg width="40" height="40" viewBox="0 0 40 40" fill="none" xmlns="http://www.w3.org/2000/svg">
    <circle cx="20" cy="20" r="20" fill="white"/>
    <path d="M5.2826 14.1261L26.5586 14.1995L30.5052 19.3737L26.3192 24.9147L5.2826 24.9392V14.1261Z" fill="white"/>
    <path d="M7.5091 22.8738V16.1409H8.56012C10.6776 16.1409 11.643 17.1801 11.643 19.4655C11.643 21.8623 10.7499 22.8738 8.58889 22.8738H7.5091ZM17.1304 20.7267L18.4557 16.2239L19.7951 20.7267H17.1304ZM5.53545 24.5358H8.66116C11.9742 24.5358 13.6448 22.832 13.6448 19.4655C13.6448 16.1686 11.9742 14.4648 8.73342 14.4648H5.53545V24.5358ZM4.94118 13.9054H26.624L29.2417 17.3778L31.8595 13.9054H35.0588L30.8414 19.4999L35.0588 25.0945H31.8595L29.2417 21.6221L26.624 25.0945H4.94118V13.9054ZM27.5838 19.4999L23.7852 24.5385L26.4016 24.5405L30.2015 19.4999L26.4023 14.4648H23.7852L27.5838 19.4999ZM14.1197 24.5358H15.9924L16.6547 22.3333H20.2701L20.9184 24.5358H22.8921L19.7376 14.4648H17.2742L14.1197 24.5358Z"
          fill="#000199"/>
</svg>
