<svg width="40" height="40" viewBox="0 0 40 40" fill="none" xmlns="http://www.w3.org/2000/svg">
    <circle cx="20" cy="20" r="20" fill="#0090FF"/>
    <path fill-rule="evenodd" clip-rule="evenodd"
          d="M21.7949 17.5977L21.1795 20.88L27.0256 21.7006L26.6154 23.2392L20.8718 22.4186C20.4615 23.752 20.2564 25.188 19.7436 26.4189C19.2308 27.8549 18.7179 29.2909 18.1026 30.6244C17.2821 32.3681 15.8462 33.5989 13.8974 33.9067C12.7692 34.1118 11.5385 34.0092 10.6154 33.2912C10.3077 33.0861 10 32.6758 10 32.3681C10 31.9578 10.2051 31.4449 10.5128 31.2398C10.7179 31.1372 11.2308 31.2398 11.5385 31.3424C11.8462 31.6501 12.1538 32.0604 12.359 32.4707C12.9744 33.2912 13.7949 33.3938 14.6154 32.7784C15.5385 31.9578 16.0513 30.8295 16.359 29.7012C16.9744 27.2395 17.5897 24.8803 18.1026 22.4186V22.0083L12.6667 21.1877L12.8718 19.6491L18.5128 20.4697L19.2308 17.29L13.3846 16.3668L13.5897 14.7257L19.641 15.5463C19.8462 14.9308 19.9487 14.418 20.1538 13.9051C20.6667 12.0588 21.1795 10.2125 22.4103 8.57135C23.641 6.93019 25.0769 5.90447 27.2308 6.00704C28.1538 6.00704 29.0769 6.31476 29.6923 7.03276C29.7949 7.13534 30 7.34048 30 7.54562C30 7.95591 30 8.46877 29.6923 8.77649C29.2821 9.08421 28.7692 8.98163 28.359 8.57135C28.0513 8.26363 27.8462 7.95591 27.5385 7.6482C26.9231 6.82762 26 6.72505 25.2821 7.44305C24.7692 7.95591 24.2564 8.67392 23.9487 9.39192C23.2308 11.5459 22.7179 13.8025 22 16.0591L27.641 16.8797L27.2308 18.4183L21.7949 17.5977Z"
          fill="white"/>
</svg>
