<svg width="40" height="40" fill="none" xmlns="http://www.w3.org/2000/svg">
    <path d="M20 40c11.046 0 20-8.954 20-20S31.046 0 20 0 0 8.954 0 20s8.954 20 20 20Z" fill="#00EF8B"/>
    <path fill-rule="evenodd" clip-rule="evenodd"
          d="M23.22 21.942h5.17v-5.177h-5.17v5.177ZM18.049 23.882a1.94 1.94 0 1 1-3.878 0 1.94 1.94 0 0 1 1.94-1.941h1.938v-5.177H16.11c-3.92 0-7.11 3.193-7.11 7.118C9 27.807 12.19 31 16.11 31c3.92 0 7.11-3.193 7.11-7.118v-1.941h-5.171v1.941Z"
          fill="#fff"/>
    <path fill-rule="evenodd" clip-rule="evenodd"
          d="M25.158 14.177h5.818V9h-5.818c-3.92 0-7.11 3.193-7.11 7.118v.647h5.172v-.647a1.942 1.942 0 0 1 1.938-1.941Z"
          fill="#fff"/>
</svg>
