<svg width="40" height="40" viewBox="0 0 40 40" fill="none" xmlns="http://www.w3.org/2000/svg">
    <circle cx="20" cy="20" r="20" fill="white"/>
    <path d="M6.14672 18.5882H4.36175V18.0342C4.36175 17.6851 4.34474 17.4665 4.31079 17.3786C4.27684 17.2907 4.19628 17.2467 4.06909 17.2466C3.95884 17.2466 3.88394 17.2844 3.84439 17.3597C3.80484 17.4351 3.78496 17.6285 3.78496 17.94V20.868C3.78496 21.1419 3.80477 21.3221 3.84446 21.4088C3.88415 21.4955 3.96304 21.5388 4.08183 21.5388C4.21182 21.5388 4.30022 21.4898 4.34684 21.3918C4.39346 21.2938 4.41684 21.1029 4.41684 20.819V20.0955H4.05642V19.1684H6.14672V22.4432H5.0231L4.85776 22.006C4.73624 22.1943 4.58288 22.3357 4.39773 22.43C4.21259 22.5242 3.99419 22.5713 3.74268 22.5713C3.44309 22.5713 3.16254 22.5067 2.90109 22.3773C2.63965 22.248 2.44106 22.0877 2.3054 21.8968C2.16975 21.706 2.08491 21.5055 2.05096 21.2958C2.01701 21.086 2 20.7714 2 20.3518V18.5392C2 17.9564 2.03535 17.5331 2.10605 17.2692C2.17675 17.0054 2.37953 16.7636 2.71448 16.5438C3.04942 16.324 3.48264 16.2141 4.014 16.2141C4.53696 16.2141 4.97088 16.3095 5.31569 16.5004C5.66051 16.6915 5.88527 16.9183 5.98992 17.1808C6.0945 17.4432 6.14679 17.8245 6.14679 18.3245V18.5882H6.14672ZM8.17332 19.3794H6.56636V19.0441C6.56636 18.6572 6.61655 18.3588 6.71685 18.1491C6.81723 17.9394 7.01862 17.754 7.32108 17.5933C7.62348 17.4325 8.01645 17.3522 8.49986 17.3522C9.07924 17.3522 9.59016 17.4432 9.88415 17.6254C10.1781 17.8075 10.3548 18.0311 10.4141 18.2961C10.4735 18.5612 10.5031 19.107 10.5031 19.9335V22.4432H8.76263V21.9985C8.65806 22.1769 8.52303 22.3107 8.35769 22.3998C8.19235 22.489 7.99517 22.5335 7.76627 22.5335C7.46668 22.5335 7.19173 22.4589 6.94169 22.3094C6.69145 22.1599 6.56636 21.8326 6.56636 21.3277V20.917C6.56636 20.5426 6.63286 20.2877 6.76571 20.1519C6.8985 20.0163 7.22784 19.8581 7.7536 19.6772C8.31604 19.4812 8.61711 19.3493 8.65666 19.2816C8.6962 19.2138 8.71615 19.0756 8.71615 18.867C8.71615 18.6058 8.69417 18.4355 8.65036 18.3564C8.60654 18.2773 8.53374 18.2377 8.43203 18.2377C8.31611 18.2377 8.24401 18.2711 8.2158 18.3376C8.18753 18.4041 8.17339 18.5769 8.17339 18.8557V19.3795L8.17332 19.3794ZM8.71608 20.0653C8.4419 20.2437 8.28293 20.3932 8.23911 20.5137C8.19529 20.6343 8.17339 20.8077 8.17339 21.0338C8.17339 21.2925 8.19242 21.4596 8.23064 21.5349C8.26879 21.6103 8.34439 21.648 8.45744 21.648C8.56482 21.648 8.63482 21.6185 8.6673 21.5594C8.69984 21.5004 8.71608 21.3452 8.71608 21.094V20.0654V20.0653ZM12.7101 17.4425L12.6804 17.9173C12.8132 17.7289 12.9716 17.5876 13.1553 17.4933C13.339 17.3991 13.5482 17.3519 13.7828 17.3519C14.2407 17.3519 14.6011 17.5403 14.864 17.9172C15.0082 17.7288 15.1707 17.5875 15.3516 17.4932C15.5325 17.399 15.7332 17.3518 15.9537 17.3518C16.2449 17.3518 16.4858 17.4147 16.6766 17.5403C16.8674 17.6659 16.9896 17.8198 17.0434 18.0019C17.0971 18.1841 17.1239 18.4799 17.1239 18.8894V22.443H15.4618V19.1834C15.4618 18.7563 15.4455 18.4918 15.4131 18.3902C15.3805 18.2884 15.3049 18.2375 15.1863 18.2375C15.0647 18.2375 14.9863 18.2878 14.9509 18.3882C14.9156 18.4887 14.8979 18.7538 14.8979 19.1833V22.443H13.2358V19.2663C13.2358 18.7763 13.2225 18.4824 13.1956 18.3844C13.1686 18.2865 13.0946 18.2375 12.973 18.2375C12.8967 18.2375 12.8316 18.2632 12.778 18.3147C12.7254 18.3638 12.6935 18.4312 12.6889 18.503C12.6833 18.5772 12.6805 18.7349 12.6805 18.9761V22.443H10.9628V17.4423H12.7101V17.4425V17.4425ZM21.5971 20.0314H19.3795V21.1129C19.3795 21.3389 19.3979 21.4848 19.4347 21.5501C19.4714 21.6154 19.5421 21.648 19.6466 21.648C19.7766 21.648 19.8636 21.6046 19.9075 21.518C19.9513 21.4314 19.9731 21.2636 19.9731 21.0149V20.3554H21.5971V20.7248C21.5971 21.0338 21.5752 21.2712 21.5314 21.437C21.4875 21.6028 21.3851 21.7799 21.2239 21.9683C21.0628 22.1567 20.8585 22.298 20.6112 22.3924C20.3639 22.4866 20.0537 22.5337 19.6805 22.5337C19.3187 22.5337 18.9994 22.4872 18.7223 22.3942C18.4453 22.3013 18.2298 22.1738 18.0757 22.0118C17.9217 21.8497 17.815 21.6714 17.7556 21.4766C17.6963 21.282 17.6667 20.9987 17.6667 20.6269V19.1684C17.6667 18.7314 17.7331 18.3865 17.8659 18.1341C17.9988 17.8816 18.2164 17.6882 18.5189 17.5537C18.8214 17.4193 19.169 17.3521 19.5619 17.3521C20.0424 17.3521 20.439 17.4331 20.7512 17.5952C21.0636 17.7572 21.2826 17.9721 21.4085 18.2396C21.5342 18.5072 21.5971 18.8833 21.5971 19.3682V20.0314V20.0314ZM19.8799 19.2174V18.8519C19.8799 18.5931 19.8643 18.426 19.8333 18.3507C19.8022 18.2753 19.7386 18.2377 19.6424 18.2377C19.5237 18.2377 19.4502 18.2697 19.422 18.3338C19.3937 18.3978 19.3796 18.5706 19.3796 18.8519V19.2174H19.8799Z"
          fill="black"/>
    <path d="M25.994 18.0487H24.3361V17.5965C24.3361 17.3855 24.3149 17.2511 24.2726 17.1933C24.2302 17.1355 24.1595 17.1067 24.0606 17.1066C23.9532 17.1066 23.8719 17.1456 23.8168 17.2234C23.7617 17.3013 23.7341 17.4194 23.7341 17.5776C23.7341 17.7812 23.7652 17.9345 23.8274 18.0374C23.8867 18.1405 24.055 18.2648 24.3319 18.4105C25.1263 18.83 25.6266 19.1742 25.8329 19.443C26.0392 19.7119 26.1424 20.1452 26.1424 20.7431C26.1424 21.1777 26.0852 21.498 25.9707 21.7041C25.8562 21.9101 25.635 22.0828 25.3072 22.2222C24.9793 22.3615 24.5977 22.4313 24.1624 22.4313C23.6847 22.4313 23.277 22.351 22.9392 22.1902C22.6014 22.0294 22.3802 21.8247 22.2756 21.5759C22.171 21.3272 22.1188 20.9742 22.1188 20.5171V20.1176H23.7766V20.8599C23.7766 21.0885 23.7999 21.2355 23.8466 21.3008C23.8931 21.3662 23.9759 21.3987 24.0946 21.3987C24.2132 21.3987 24.3016 21.3573 24.3595 21.2744C24.4175 21.1914 24.4465 21.0685 24.4465 20.9052C24.4465 20.5458 24.3913 20.311 24.2811 20.2005C24.1681 20.0899 23.8896 19.9053 23.4458 19.6465C23.002 19.3853 22.6524 19.1956 22.5082 19.0774C22.364 18.9593 22.2446 18.796 22.1499 18.5876C22.0552 18.379 22.0079 18.1128 22.0079 17.7887C22.0079 17.3214 22.0751 16.9056 22.2093 16.6896C22.3435 16.4735 22.5605 16.3045 22.8601 16.1827C23.1597 16.0609 23.5774 16 24.0013 16C24.4649 16 24.8599 16.0665 25.1864 16.1998C25.5129 16.3331 25.7292 16.5006 25.8352 16.7029C25.9412 16.9052 25.9941 17.3228 25.9941 17.8077V18.0487H25.994ZM28.5359 16.6356V17.2377H29.0166V18.029H28.5359V20.8901C28.5359 21.2192 28.5549 21.4025 28.5931 21.4403C28.6313 21.4779 28.7161 21.4968 28.9959 21.4968V22.3032H28.3048C27.9147 22.3032 27.6363 22.2889 27.4695 22.26C27.3027 22.2311 27.1558 22.1645 27.0285 22.0602C26.9013 21.9559 26.8222 21.8366 26.791 21.7022C26.7599 21.5678 26.7444 21.2519 26.7444 20.7544V18.0291H26.3755V17.2377H26.7444V16.6356H28.5359ZM33.3065 19.0586V20.2834C33.3065 20.733 33.2811 21.0628 33.2302 21.2726C33.1792 21.4823 33.0704 21.6783 32.9037 21.8604C32.7369 22.0426 32.5229 22.1769 32.2613 22.2635C31.9997 22.3502 31.6995 22.3936 31.3603 22.3936C30.9816 22.3936 30.6607 22.3565 30.3978 22.2824C30.1349 22.2082 29.9307 22.0965 29.7852 21.947C29.6396 21.7976 29.5357 21.6166 29.4735 21.4044C29.4113 21.1921 29.3802 20.8737 29.3802 20.4491V19.1679C29.3802 18.7031 29.4368 18.3401 29.5498 18.0787C29.6629 17.8173 29.8664 17.6077 30.1604 17.4494C30.4544 17.2912 30.8303 17.212 31.2882 17.212C31.6727 17.212 32.0027 17.2629 32.2783 17.3646C32.554 17.4664 32.7666 17.599 32.9164 17.7622C33.0662 17.9255 33.1687 18.0939 33.2239 18.2673C33.2789 18.4406 33.3065 18.7044 33.3065 19.0586ZM31.5936 18.6819C31.5936 18.4256 31.5779 18.2642 31.5468 18.1976C31.5157 18.131 31.4493 18.0977 31.3475 18.0977C31.2458 18.0977 31.1779 18.131 31.144 18.1976C31.1102 18.2642 31.0932 18.4256 31.0932 18.6819V20.9391C31.0932 21.1752 31.1101 21.329 31.144 21.4007C31.1779 21.4723 31.2444 21.5081 31.3433 21.5081C31.4451 21.5081 31.5122 21.4754 31.5447 21.4101C31.5773 21.3448 31.5935 21.2042 31.5935 20.988V18.6819L31.5936 18.6819ZM35.5245 17.3025L35.4948 17.7435C35.6474 17.5651 35.8156 17.432 35.9994 17.344C36.1831 17.2561 36.3838 17.2121 36.6015 17.2121C37.6179 17.1753 37.9726 17.7318 37.9848 18.6856V20.7921C37.9848 21.2468 37.9544 21.5703 37.8936 21.7624C37.5569 22.433 36.6363 22.5393 35.9909 22.2617C35.81 22.1738 35.6446 22.0432 35.4948 21.8697V23.0154H33.7818V17.3025H35.5245ZM36.0121 18.7571C36.0121 18.4482 35.9994 18.261 35.974 18.1957C35.9485 18.1304 35.8779 18.0977 35.762 18.0977C35.6489 18.0977 35.5761 18.1354 35.5436 18.2108C35.5111 18.2862 35.4949 18.4684 35.4949 18.7572V20.8298C35.4949 21.1312 35.5119 21.3197 35.5458 21.395C35.5797 21.4704 35.6532 21.508 35.7663 21.508C35.8765 21.508 35.9451 21.4735 35.9719 21.4045C35.9987 21.3354 36.0121 21.1676 36.0121 20.9013V18.7571Z"
          fill="#FD0000"/>
</svg>
