<svg width="40" height="40" viewBox="0 0 40 40" fill="none" xmlns="http://www.w3.org/2000/svg">
    <rect width="40" height="40" rx="20" fill="url(#paint0_linear_4330_1850)"/>
    <circle cx="20" cy="20" r="14.5" stroke="#050303"/>
    <rect x="12.5" y="14.1174" width="15.5882" height="1.25" rx="0.625" fill="#050303"/>
    <path fill-rule="evenodd" clip-rule="evenodd"
          d="M17.832 15.2942C17.4869 15.2942 17.207 15.0144 17.207 14.6692V10.6251C17.207 10.2799 17.4869 10.0001 17.832 10.0001C18.1772 10.0001 18.457 10.2799 18.457 10.6251V14.6692C18.457 15.0144 18.1772 15.2942 17.832 15.2942ZM13.6719 14.7425C13.6719 14.3973 13.3921 14.1175 13.0469 14.1175C12.7017 14.1175 12.4219 14.3973 12.4219 14.7425V24.9631C12.4219 25.075 12.4513 25.1801 12.5028 25.2709C12.501 25.2907 12.5 25.3106 12.5 25.3309C12.5 25.676 12.7798 25.9559 13.125 25.9559H17.207V29.3751C17.207 29.7202 17.4869 30.0001 17.832 30.0001C18.1772 30.0001 18.457 29.7202 18.457 29.3751V25.9559H21.6211V29.3751C21.6211 29.7202 21.9009 30.0001 22.2461 30.0001C22.5913 30.0001 22.8711 29.7202 22.8711 29.3751V25.9559H27.1691C27.2756 25.9559 27.3759 25.9292 27.4636 25.8823C27.8076 25.8808 28.0859 25.6015 28.0859 25.2573V20.0367C28.0859 20.0244 28.0856 20.0122 28.0849 20.0001C28.0856 19.9879 28.0859 19.9757 28.0859 19.9634C28.0859 19.6183 27.8061 19.3384 27.4609 19.3384L17.8286 19.3384C17.4834 19.3384 17.2036 19.6182 17.2036 19.9634C17.2036 20.3086 17.4834 20.5884 17.8286 20.5884L26.8359 20.5884V24.7059H13.6719L13.6719 14.7425ZM22.2461 15.2942C21.9009 15.2942 21.6211 15.0144 21.6211 14.6692V10.6251C21.6211 10.2799 21.9009 10.0001 22.2461 10.0001C22.5913 10.0001 22.8711 10.2799 22.8711 10.6251V14.6692C22.8711 15.0144 22.5913 15.2942 22.2461 15.2942Z"
          fill="#050303"/>
    <defs>
        <linearGradient id="paint0_linear_4330_1850" x1="20" y1="0" x2="20" y2="40" gradientUnits="userSpaceOnUse">
            <stop stop-color="#FBD462"/>
            <stop offset="1" stop-color="#F9BB1A"/>
        </linearGradient>
    </defs>
</svg>
