<svg width="40" height="40" viewBox="0 0 40 40" fill="none" xmlns="http://www.w3.org/2000/svg">
    <circle cx="20" cy="20" r="20" fill="white"/>
    <path d="M31.6867 20.2667C31.6867 19.2801 31.6061 18.5601 31.4316 17.8134H20.085V22.2667H26.7452C26.611 23.3734 25.8859 25.0401 24.2745 26.16L24.2519 26.3091L27.8395 29.0688L28.088 29.0934C30.3707 27 31.6867 23.92 31.6867 20.2667Z"
          fill="#4285F4"/>
    <path d="M20.0851 32C23.348 32 26.0873 30.9333 28.0881 29.0934L24.2745 26.1599C23.2541 26.8666 21.8844 27.3599 20.0851 27.3599C16.8893 27.3599 14.1769 25.2667 13.21 22.3734L13.0683 22.3853L9.33786 25.252L9.28908 25.3866C11.2764 29.3066 15.3584 32 20.0851 32Z"
          fill="#34A853"/>
    <path d="M13.2099 22.3734C12.9548 21.6267 12.8072 20.8266 12.8072 20C12.8072 19.1733 12.9548 18.3733 13.1965 17.6267L13.1898 17.4677L9.41262 14.5549L9.28904 14.6133C8.46998 16.24 8 18.0667 8 20C8 21.9333 8.46998 23.7599 9.28904 25.3866L13.2099 22.3734Z"
          fill="#FBBC05"/>
    <path d="M20.0851 12.64C22.3544 12.64 23.8851 13.6133 24.7579 14.4267L28.1686 11.12C26.0739 9.18667 23.348 8 20.0851 8C15.3584 8 11.2764 10.6933 9.28908 14.6133L13.1966 17.6266C14.1769 14.7333 16.8893 12.64 20.0851 12.64Z"
          fill="#EB4335"/>
</svg>
