<svg width="24" height="24" viewBox="0 0 24 24" fill="none" xmlns="http://www.w3.org/2000/svg">
    <g clip-path="url(#clip0_2470_1207)">
        <path d="M11.88 23.88C18.4411 23.88 23.76 18.5611 23.76 12C23.76 5.43885 18.4411 0.119995 11.88 0.119995C5.31886 0.119995 0 5.43885 0 12C0 18.5611 5.31886 23.88 11.88 23.88Z"
              fill="#FCDC37"/>
        <path d="M11.8799 22.14C17.5132 22.14 22.0799 17.5733 22.0799 11.94C22.0799 6.30669 17.5132 1.73999 11.8799 1.73999C6.24663 1.73999 1.67993 6.30669 1.67993 11.94C1.67993 17.5733 6.24663 22.14 11.8799 22.14Z"
              fill="#EB9812"/>
        <path d="M19.5599 12.84C19.3799 12.36 19.0799 11.88 18.5999 11.52C18.4799 11.1 18.2999 10.8 17.9999 10.5C17.9999 10.44 18.0599 10.32 18.0599 10.26C18.1799 10.14 18.2399 10.08 18.2999 9.96004C18.4199 9.78004 18.5399 9.60004 18.6599 9.42004C19.4399 8.94004 19.6799 7.92004 19.4999 7.08004C19.4999 6.00004 18.8399 4.92004 17.4599 4.92004C16.9199 4.92004 16.4999 5.10004 16.1399 5.34004C16.0799 5.34004 16.0199 5.34004 16.0199 5.34004C15.4799 5.34004 15.0599 5.52004 14.7599 5.76004C14.1599 5.28004 13.3199 5.04004 12.3599 5.04004C11.4599 5.04004 10.6799 5.28004 10.0799 5.70004C10.0199 5.70004 9.89994 5.76004 9.83994 5.76004C9.77994 5.70004 9.77994 5.70004 9.71994 5.64004C9.71994 5.58004 9.71994 5.58004 9.71994 5.52004C9.71994 5.46004 9.65994 5.46004 9.65994 5.46004C9.65994 5.46004 9.59994 5.40004 9.53994 5.40004C9.47994 5.40004 9.35994 5.40004 9.29994 5.46004C9.29994 5.46004 9.29994 5.46004 9.23994 5.52004H9.17994C8.93994 5.52004 8.75994 5.58004 8.63994 5.70004C8.51994 5.70004 8.45994 5.76004 8.33994 5.76004C8.21994 5.58004 8.03994 5.46004 7.85994 5.40004C7.61994 5.16004 7.31994 5.04004 6.89994 5.04004C6.77994 4.98004 6.59994 4.98004 6.41994 4.98004C5.99994 4.98004 5.69994 5.10004 5.51994 5.28004C4.79994 5.40004 4.43994 6.06004 4.43994 6.72004C4.37994 6.96004 4.37994 7.20004 4.37994 7.44004C4.37994 7.62004 4.37994 7.86004 4.43994 8.04004C4.43994 8.22004 4.49994 8.34004 4.55994 8.46004C4.61994 8.76004 4.73994 9.06004 4.91994 9.30004C4.97994 9.42004 5.09994 9.54004 5.21994 9.60004C5.39994 9.96004 5.63994 10.2 6.05994 10.32C5.93994 10.44 5.87994 10.62 5.81994 10.74C5.57994 10.98 5.39994 11.28 5.27994 11.58C5.21994 11.7 5.15994 11.76 5.09994 11.88C4.85994 12.12 4.73994 12.42 4.61994 12.72C4.01994 13.38 3.89994 14.46 4.31994 15.24C4.49994 16.02 4.91994 16.8 5.57994 17.22C5.93994 17.52 6.35994 17.76 6.83994 17.88C7.31994 18.24 7.97994 18.48 8.75994 18.48C8.81994 18.48 8.81994 18.48 8.87994 18.48C9.23994 18.72 9.65994 18.84 10.1399 18.9C10.4399 19.02 10.7999 19.02 11.1599 19.02C11.2799 19.02 11.3399 19.02 11.3999 19.02C11.5799 19.02 11.6999 19.08 11.8799 19.08C12.1199 19.08 12.3599 19.08 12.5399 19.02C12.7799 19.08 12.9599 19.08 13.1999 19.08C13.9199 19.08 14.5199 18.9 14.9999 18.6C15.6599 18.6 16.1999 18.42 16.6799 18.12C17.2799 18.06 17.7599 17.82 18.1799 17.52C18.5999 17.34 18.8999 16.98 19.0799 16.62C19.4399 16.26 19.6799 15.72 19.6799 15.18C20.0999 14.34 19.9799 13.5 19.5599 12.84Z"
              fill="#FCDC37"/>
        <path d="M19.68 7.56C19.68 8.16 19.5 8.82 19.14 9.3C18.78 9.84 17.94 10.08 18.3 10.74C18.66 11.4 19.2 12.06 19.56 12.72C19.8 13.08 20.22 14.1 19.92 14.52C19.74 14.34 19.86 14.04 19.8 13.8C19.74 13.5 19.68 13.2 19.5 12.9C19.2 12.3 18.78 11.82 18.42 11.28C18.24 10.98 18.06 10.74 17.88 10.44C17.76 10.2 17.58 10.2 17.4 9.96C17.22 9.72 17.1 9.24 16.98 8.94C16.86 8.58 16.62 8.34 16.8 7.98C16.86 8.28 17.04 8.58 17.16 8.82C17.28 9.12 17.46 9.6 17.7 9.78C18.06 10.08 18.42 9.66 18.72 9.36C19.44 8.52 19.68 7.44 19.44 6.42C19.2 5.58 18.6 4.98 17.7 4.98C17.16 4.98 16.68 5.16 16.26 5.4C15.96 5.58 15.6 6.12 15.48 5.58C15.06 5.76 14.76 5.88 14.34 5.76C13.98 5.7 13.62 5.58 13.2 5.52C13.26 5.4 13.38 5.28 13.5 5.16C13.02 5.1 12.54 5.04 12.06 5.16C11.64 5.28 11.4 5.64 11.04 5.76C11.04 5.58 11.1 5.4 11.22 5.22C10.68 5.34 10.2 5.7 9.72005 6.06C9.60005 5.82 9.54004 5.64 9.48004 5.4C9.18004 5.58 9.00004 5.76 8.70004 5.58C8.64004 5.76 8.58004 5.88 8.58004 6.06C7.62004 4.92 5.94004 4.5 4.98004 5.82C4.50004 6.48 4.38004 7.32 4.62004 8.04C4.74004 8.52 5.58004 10.14 6.24004 9.96C6.60004 9.9 6.72004 9.24 6.84004 9C7.02004 8.52 7.20004 8.1 7.26004 7.62C7.38004 6.66 6.96004 6.3 6.24004 5.7C6.00004 5.52 5.52004 5.04 6.18004 5.16C6.48004 5.22 6.72004 5.46 6.90004 5.7C7.14004 6 7.26004 6.36 7.44004 6.72C7.56004 6.96 7.86004 7.26 7.38004 7.2C7.50004 7.62 7.50004 7.8 7.44004 8.22C7.44004 8.34 7.50004 8.7 7.50004 8.82C7.38004 9 7.20004 8.82 7.08004 8.94C6.78004 9.12 6.54004 9.84 6.30004 10.2C5.88004 10.92 5.40004 11.64 4.92004 12.36C4.68004 12.72 4.50004 13.08 4.38004 13.5C4.32004 13.92 4.26004 14.22 4.08004 14.52C3.84004 13.56 4.44004 12.6 4.98004 11.82C5.22004 11.46 5.70004 11.04 5.82004 10.62C5.94004 10.2 5.46004 9.96 5.16004 9.66C4.02004 8.4 3.84004 5.94 5.52004 5.04C6.18004 4.68 7.02004 4.74 7.68004 5.04C8.04004 5.22 8.22004 5.46 8.64004 5.4C8.88004 5.4 9.36004 5.1 9.54004 5.16C9.72004 5.22 9.66004 5.46 9.78004 5.52C9.96004 5.58 10.26 5.34 10.38 5.28C10.98 5.04 11.52 4.98 12.18 4.98C12.66 4.98 13.38 4.86 13.8 5.1C14.04 5.22 14.16 5.4 14.34 5.52C14.64 5.7 14.82 5.58 15.18 5.52C16.14 5.22 17.52 4.56 18.48 5.04C19.38 5.46 19.68 6.66 19.68 7.56Z"
              fill="#BB5203"/>
        <path d="M13.7399 19.08C12.8999 19.14 12.0599 19.26 11.2199 19.14C10.4399 19.02 9.7199 18.84 8.9399 18.66C8.2199 18.54 7.5599 18.18 6.8999 18.06C6.1799 17.94 5.9399 18.48 5.3999 18.66C5.9999 17.82 7.1399 17.1 7.9799 16.56C8.4599 16.26 8.9999 15.9 9.5399 15.84C10.0799 15.72 9.6599 15.9 9.8399 16.2C9.7199 16.2 9.5999 16.2 9.4799 16.2C9.9599 16.44 10.4999 16.56 11.0399 16.38C11.5199 16.2 11.6999 15.84 11.9999 15.48C12.1799 15.78 12.2999 16.08 12.5399 16.32C12.1199 16.38 11.6399 16.44 11.2199 16.44C11.5799 17.16 12.1799 16.98 12.7199 16.56C12.8399 16.44 12.7799 16.44 12.9599 16.38C13.0799 16.32 13.3199 16.38 13.4999 16.38C13.8599 16.38 14.3399 16.44 14.6399 16.2C14.4599 16.14 14.3999 16.14 14.1599 16.14C14.2199 15.84 14.2799 15.84 14.5199 15.9C14.8799 16.02 15.2399 16.32 15.5999 16.5C16.1399 16.8 16.9799 17.1 17.2799 17.64C16.3199 17.34 15.3599 15.96 14.2199 16.5C13.9799 16.62 13.7999 16.74 13.6799 16.92C13.6199 17.1 13.6199 17.28 13.4999 17.46C13.1999 17.82 12.1799 18.06 11.6999 18.06C11.1599 18.12 10.6799 17.88 10.3799 17.46C10.0799 17.04 10.0199 16.68 9.5399 16.44C9.0599 16.26 8.7599 16.32 8.2799 16.62C7.7399 16.92 7.0199 17.28 6.5999 17.76C6.7799 17.82 7.1999 17.82 7.3199 17.94C7.4399 18.06 7.2599 18.18 7.3799 18.24C7.4999 18.3 7.7999 18.18 7.9199 18.18C8.0999 18.18 8.3399 18.06 8.4599 18.06C8.5799 18.06 8.6399 18.3 8.7599 18.3C8.9999 18.42 9.2399 18.24 9.4799 18.24C9.4199 18.36 9.2999 18.48 9.1799 18.6C9.4799 18.72 9.8399 18.78 10.1399 18.72C10.4999 18.72 10.7399 18.36 11.0999 18.36C11.0399 18.54 10.8599 18.72 10.7399 18.9C11.1599 18.9 11.4599 18.78 11.8199 18.78C12.2399 18.78 12.5399 18.96 12.9599 18.9C13.4399 18.84 13.8599 18.78 14.3399 18.66C14.8199 18.54 15.1799 18.24 15.5999 18.12C15.8399 18.06 16.0199 18.24 16.2599 18.18C16.4999 18.12 16.4999 17.88 16.7399 17.76C17.2199 17.46 18.2399 18 18.3599 18.48C17.9999 18.36 17.7599 17.94 17.3399 17.94C17.0999 17.94 16.8599 18.06 16.6799 18.18C16.4399 18.36 16.4999 18.36 16.1999 18.36C15.4199 18.54 14.6399 18.9 13.7399 19.08C13.7399 19.02 13.7399 19.02 13.7399 19.08ZM10.7399 16.5C9.7199 17.1 11.1599 17.7 11.7599 17.82C12.2399 17.88 12.6599 17.82 13.0199 17.52C13.4999 17.22 13.3199 17.16 13.2599 16.68C12.8399 16.8 12.5399 17.16 12.0599 17.16C11.5799 17.22 11.1599 16.8 10.7399 16.5Z"
              fill="#BB5203"/>
        <path d="M10.3801 11.34C10.3201 10.98 10.3201 10.62 10.0201 10.44C9.84006 11.16 10.1401 11.76 9.54006 12.36C9.06006 12.84 8.40006 12.9 8.04006 12.36C7.92006 12.18 7.68006 11.82 7.68006 11.58C7.68006 11.28 7.98006 11.04 8.04006 10.74C8.16006 10.38 8.10006 10.26 7.80006 10.02C7.44006 9.72 7.56006 9.84 7.68006 9.48C7.68006 9.42 7.56006 9.3 7.62006 9.24C7.68006 9.12 7.86006 8.94 7.92006 8.88C8.22006 8.7 8.76006 8.76 9.12006 8.7C9.48006 8.64 9.66006 8.52 9.96006 8.82C10.0801 8.94 10.2601 9.24 10.3201 9.42C10.4401 9.72 10.3801 10.02 10.4401 10.32C10.5001 10.56 10.5001 10.98 10.6801 11.22C11.1601 11.7 12.0601 10.86 12.6001 11.22C12.1201 11.28 11.5801 11.22 11.1601 11.4C10.9801 11.46 10.3201 12 10.3201 12.18C10.3801 12.36 10.6801 12.18 10.8001 12.36C10.8601 12.48 10.8601 12.78 10.9201 12.9C11.1001 13.44 11.1601 14.04 11.8201 14.04C12.0001 14.04 12.4801 13.92 12.6001 14.22C12.7201 14.58 12.1201 15.12 11.9401 15.3C11.5801 14.88 11.2201 14.52 10.9801 13.98C10.7401 13.5 10.5601 12.96 10.3801 12.42C9.96006 12.78 9.66006 13.14 9.36006 13.56C9.30006 13.68 9.12006 13.92 9.00006 13.92C8.82006 13.92 8.76006 13.62 8.82006 13.5C8.88006 13.2 9.54006 12.72 9.78006 12.48C10.1401 12.06 10.2601 11.88 10.3801 11.34ZM9.24006 10.26C8.28006 10.32 7.62006 12.06 8.76006 12.12C9.66006 12.18 10.3201 10.44 9.24006 10.26ZM8.94006 8.7C8.64006 8.82 7.98006 8.94 7.80006 9.24C8.64006 9.42 9.36006 9.84 10.2001 9.96C10.1401 9.66 10.0801 9.42 9.96006 9.18C9.84006 9 9.72006 8.88 9.66006 8.64C9.60006 8.76 9.54006 8.88 9.54006 9.06C9.36006 9 9.12006 8.88 8.94006 8.7ZM11.7601 13.92C11.5801 14.1 11.5201 14.22 11.4001 14.34C11.6401 14.52 11.8801 14.7 12.1201 14.88C12.2401 14.7 12.4801 14.4 12.4201 14.4C12.3001 14.22 12.0001 14.1 11.7601 13.92ZM8.28006 9.96C8.40006 9.96 8.52006 9.9 8.58006 9.9C8.52006 9.78 8.16006 9.6 7.98006 9.6C7.74006 9.6 7.80006 9.6 7.62006 9.78C7.86006 9.9 8.04006 9.9 8.28006 9.96Z"
              fill="#BB5203"/>
        <path d="M13.9799 11.1001C13.7999 10.7401 13.5599 10.3801 13.4399 10.0201C13.9199 10.1401 14.3999 9.90006 14.8199 9.72006C15.0599 9.60006 15.3599 9.54006 15.5999 9.42006C15.7799 9.30006 15.9599 9.12006 16.1999 9.06006C16.2599 9.48006 15.4199 9.66006 15.1799 10.0201C15.2999 10.0801 15.4799 10.1401 15.5999 10.2001C15.6599 10.1401 15.6599 10.1401 15.7199 10.0801C15.8999 10.0201 16.1399 9.96006 16.3199 9.90006C15.9599 10.3201 15.7199 10.2601 15.8399 10.8601C15.9599 11.3401 16.1999 12.0001 15.8399 12.4801C15.5999 12.8401 15.1199 12.9001 14.6999 12.7201C14.0999 12.4201 13.9199 11.7601 13.7399 11.2201C13.7999 11.1601 13.9199 11.1001 13.9799 11.1001ZM14.5799 10.2601C13.6799 10.2601 13.7399 12.3001 14.8799 12.1801C15.3599 12.1201 15.8399 11.5801 15.7799 11.1001C15.6599 10.6201 14.9999 10.3201 14.5799 10.2601Z"
              fill="#BB5203"/>
        <path d="M8.40016 15.4801C7.74016 15.5401 7.08016 15.7801 6.48016 16.0201C6.06016 16.1401 5.16016 16.2601 4.86016 16.6201C5.34016 16.8001 5.76016 17.1001 6.30016 17.1601C6.18016 17.2201 6.00016 17.2801 5.88016 17.4001C6.00016 17.5201 6.06016 17.5801 6.12016 17.7601C5.64016 17.7601 5.34016 17.1601 4.92016 16.9201C4.50016 16.6801 4.08016 16.9801 3.66016 17.0401C4.56016 16.3201 5.70016 15.9001 6.78016 15.6001C7.86016 15.2401 9.12016 14.8801 10.2602 14.8201C9.78016 15.0601 9.06016 15.1201 8.76016 15.5401C8.88016 15.6001 9.00016 15.6601 9.06016 15.7201C8.76016 15.9601 8.64016 15.7801 8.34016 15.6001C8.40016 15.5401 8.40016 15.5401 8.40016 15.4801Z"
              fill="#BB5203"/>
        <path d="M8.3401 14.1C8.7001 14.04 9.2401 13.92 9.6001 13.98C9.9001 14.04 9.9001 14.16 9.6601 14.28C9.4801 14.34 9.2401 14.28 9.0601 14.4C8.7601 14.58 8.9401 14.82 8.5801 14.88C8.7001 14.04 7.5001 14.4 6.9601 14.4C6.2401 14.46 5.1601 14.4 4.5001 14.76C4.1401 14.94 4.3201 15.12 4.4401 15.48C4.5001 15.54 4.7401 16.38 4.3801 16.32C4.2601 16.32 4.1401 15.6 4.1401 15.48C4.0201 15.06 4.0801 14.88 3.6001 14.88C4.2601 14.52 5.1001 14.52 5.8201 14.34C6.6001 14.16 7.4401 14.04 8.2201 13.92C8.2801 13.98 8.2801 14.04 8.3401 14.1Z"
              fill="#BB5203"/>
        <path d="M20.04 14.9401C19.86 15.2401 19.86 15.7201 19.74 16.0201C19.68 16.2601 19.5 16.4401 19.44 16.0801C19.32 15.6601 20.16 15.0601 19.62 14.7001C19.32 14.5201 18.72 14.5801 18.36 14.5201C17.88 14.4601 17.46 14.4001 16.98 14.3401C16.62 14.2801 16.02 14.1001 15.72 14.2201C15.42 14.3401 15.48 14.5201 15.48 14.8201C15.18 14.7001 15.36 14.4601 15.06 14.2801C14.82 14.1601 14.46 14.1601 14.22 14.0401C15.24 13.9201 16.32 14.1601 17.34 14.2201C18.24 14.2801 19.56 14.1601 20.34 14.8201C20.28 14.9401 20.22 14.9401 20.04 14.9401Z"
              fill="#BB5203"/>
        <path d="M19.14 16.5001C18.42 16.2601 17.76 16.0201 17.04 15.7801C16.74 15.6601 16.44 15.5401 16.08 15.5401C15.66 15.4801 15.42 15.7201 15.12 15.9001C15.3 15.1201 14.1 15.2401 13.74 14.8201C14.7 14.9401 15.72 15.2401 16.68 15.4801C17.1 15.6001 17.58 15.7201 18 15.9001C18.3 16.0201 18.9 16.2001 19.14 16.5001Z"
              fill="#BB5203"/>
        <path d="M17.7598 5.22009C17.9998 5.22009 18.1198 5.22009 18.3598 5.34009C17.8798 5.40009 17.3998 5.94009 17.0998 6.36009C16.7998 6.84009 16.9798 7.56009 16.5598 7.92009C16.5598 7.80009 16.7398 7.44009 16.7398 7.38009C16.7398 7.08009 16.4398 7.38009 16.3198 7.20009C16.2598 7.14009 16.7998 6.12009 16.8598 6.00009C17.1598 5.58009 17.3998 5.46009 17.7598 5.22009Z"
              fill="#BB5203"/>
        <path d="M13.56 11.9401C13.92 12.3601 14.28 12.7201 14.64 13.0801C14.76 13.2001 15.54 13.9201 15 13.8601C14.64 13.8001 14.16 13.0201 13.92 12.7801C13.8 12.6601 13.56 12.4801 13.44 12.3001C13.26 12.0001 13.2 12.1201 13.56 11.9401Z"
              fill="#BB5203"/>
        <path d="M19.0802 16.5C19.4402 16.68 20.2802 17.22 20.5202 16.8C20.5202 17.34 19.6202 16.86 19.3202 16.86C18.6602 16.92 18.3602 17.4 17.8802 17.76C17.7602 17.46 18.9002 16.86 19.0802 16.5Z"
              fill="#BB5203"/>
        <path d="M13.5 12.54C13.32 12.96 13.08 13.8 12.72 14.04C12.6 13.74 12.96 13.08 13.08 12.78C13.26 12.42 13.2 12.12 13.5 12.54Z"
              fill="#BB5203"/>
        <path d="M14.88 8.75998C14.64 8.81998 14.46 8.87998 14.28 9.11998C14.28 8.69998 14.4 8.51998 14.82 8.57998C15.06 8.63998 15.6 8.75998 15.78 8.99998C15.54 8.99998 15.18 8.81998 14.88 8.75998Z"
              fill="#BB5203"/>
    </g>
    <defs>
        <clipPath id="clip0_2470_1207">
            <rect width="24" height="24" fill="white"/>
        </clipPath>
    </defs>
</svg>
