<svg width="40" height="40" viewBox="0 0 40 40" fill="none" xmlns="http://www.w3.org/2000/svg">
    <circle cx="20" cy="20" r="20" fill="#F4FBFF"/>
    <path d="M19.39 28.017l-.178.06c-1.145.38-2.839.966-4.36 1.665-.081.038-.135.145-.135.145l-.103.237-.006.011c-.17.389-.405.971-.506 1.209l-.079.187a.078.078 0 00.02.086.07.07 0 00.052.022c.01 0 .023-.002.034-.008l.183-.088c.417-.197.943-.498 1.496-.76l.02-.01c1.05-.497 2.235-1.06 2.948-1.4 0 0 .115-.062.173-.176l.535-1.072a.079.079 0 00-.01-.085.081.081 0 00-.085-.023zM15.12 26.355c.074-.145.421-.813.5-.962l.014-.025a66.17 66.17 0 018.4-12.266l.09-.104a.107.107 0 00.013-.117.107.107 0 00-.106-.053l-.136.018a67.053 67.053 0 00-6.425 1.21.861.861 0 00-.378.23 72.597 72.597 0 00-4.486 5.974c-.07.104-.077.353-.077.353s.35 2.68.857 4.655c-1.259 3.62-2.382 8.389-2.382 8.389a.104.104 0 00.016.09c.019.025.049.04.082.042h.716a.106.106 0 00.101-.068l.049-.134a66.698 66.698 0 013.152-7.232z"
          fill="#00C805"/>
    <path d="M25.085 13.884l-.001-.137a.106.106 0 00-.068-.095.101.101 0 00-.114.029l-.089.103a65.066 65.066 0 00-9.479 14.477l-.057.121a.104.104 0 00.017.117c.02.02.046.031.074.032a.124.124 0 00.041-.008l.124-.052a62.201 62.201 0 016.47-2.273.49.49 0 00.301-.247c.948-1.848 3.149-5.424 3.149-5.424.056-.081.041-.2.041-.2s-.385-4.278-.41-6.443z"
          fill="#00C805"/>
    <path d="M29.991 7.714c-.539-.467-1.32-.686-2.534-.712-1.102-.025-2.411.213-3.894.702a1.477 1.477 0 00-.557.357 71.178 71.178 0 00-4.363 4.47l-.106.119a.104.104 0 00-.013.12c.023.04.068.06.112.05l.156-.033a67.22 67.22 0 016.705-1.086.518.518 0 01.573.524 61.56 61.56 0 00.24 6.563l.012.141a.104.104 0 00.19.05l.08-.116a61.989 61.989 0 014.033-5.146h-.001a.84.84 0 00.232-.463c.45-2.876-.244-5.002-.865-5.54z"
          fill="#00C805"/>
</svg>
