<svg width="40" height="40" viewBox="0 0 40 40" fill="none" xmlns="http://www.w3.org/2000/svg">
    <circle cx="20" cy="20" r="20" fill="white"/>
    <g clip-path="url(#clip0)">
        <path d="M28.6496 12C26.7959 12 24.7737 12.9879 22.6392 14.9359C21.6278 15.8534 20.7433 16.8413 20.0972 17.6319C20.0972 17.6319 21.1363 18.8034 22.2739 20.0594C22.8918 19.2973 23.7764 18.2672 24.8014 17.3357C26.6973 15.5994 27.9331 15.2463 28.6496 15.2463C31.3174 15.2463 33.48 17.4343 33.48 20.1444C33.48 22.8263 31.3174 25.0143 28.6496 25.0424C28.5228 25.0424 28.3683 25.0283 28.1862 24.9861C28.9585 25.3382 29.8008 25.5927 30.5873 25.5927C35.4741 25.5927 36.4291 22.2896 36.4855 22.0497C36.6258 21.4431 36.7099 20.8078 36.7099 20.1584C36.6963 15.6557 33.087 12 28.6496 12Z"
              fill="url(#paint0_linear)"/>
        <path d="M30.5737 25.48C28.0739 25.4095 25.476 23.3624 24.9422 22.8544C23.566 21.5416 22.2739 20.0457 22.2739 20.0457C21.1367 18.7893 20.0972 17.6178 20.0972 17.6178C19.7324 18.0554 17.935 20.1298 17.935 20.1298C17.935 20.1298 19.1426 21.4289 19.2408 21.5416C21.6001 24.4212 25.153 28.2605 28.6636 28.2605C32.455 28.2464 35.6431 25.5786 36.4859 22.0074C36.4155 22.2614 35.1515 25.6067 30.5737 25.48Z"
              fill="#29ABE2"/>
        <path d="M11.588 28.2746C13.4417 28.2746 15.4639 27.2867 17.5979 25.3387C18.6093 24.4212 19.4938 23.4333 20.1399 22.6427C20.1399 22.6427 19.1009 21.4712 17.9632 20.2152C17.3453 20.9773 16.4607 22.0074 15.4358 22.9389C13.5398 24.6611 12.2899 25.0283 11.588 25.0283C8.9197 25.0283 6.75708 22.8403 6.75708 20.1302C6.75708 17.4483 8.9197 15.2603 11.588 15.2322C11.7143 15.2322 11.8688 15.2463 12.0514 15.2885C11.2791 14.9359 10.4363 14.6819 9.64981 14.6819C4.76301 14.6819 3.808 17.9845 3.75212 18.2249C3.60568 18.8448 3.53023 19.4793 3.52722 20.1162C3.52722 24.6189 7.13645 28.2746 11.588 28.2746Z"
              fill="url(#paint1_linear)"/>
        <path d="M9.64982 14.7523C12.1491 14.8228 14.7611 16.8981 15.2949 17.4061C16.6711 18.7189 17.9632 20.2148 17.9632 20.2148C18.6924 21.0208 19.418 21.8301 20.1399 22.6427C20.5047 22.2051 22.3021 20.1303 22.3021 20.1303C22.3021 20.1303 21.0945 18.8316 20.9963 18.7189C18.6511 15.8393 15.0982 12 11.5875 12C7.79614 12.0141 4.60808 14.6819 3.76528 18.2531C3.80754 18.0132 5.05741 14.6397 9.64982 14.7523Z"
              fill="#29ABE2"/>
    </g>
    <defs>
        <linearGradient id="paint0_linear" x1="24.4215" y1="13.1785" x2="35.5765" y2="24.6706"
                        gradientUnits="userSpaceOnUse">
            <stop offset="0.21" stop-color="#F15A24"/>
            <stop offset="0.684" stop-color="#FBB03B"/>
        </linearGradient>
        <linearGradient id="paint1_linear" x1="15.8062" y1="27.09" x2="4.65173" y2="15.5979"
                        gradientUnits="userSpaceOnUse">
            <stop offset="0.21" stop-color="#ED1E79"/>
            <stop offset="0.893" stop-color="#522785"/>
        </linearGradient>
        <clipPath id="clip0">
            <rect width="34" height="16.4333" fill="white" transform="translate(3 12)"/>
        </clipPath>
    </defs>
</svg>
