<svg width="24" height="24" viewBox="0 0 24 24" fill="none" xmlns="http://www.w3.org/2000/svg">
    <g clip-path="url(#clip0_14_5259)">
        <path d="M12 24C18.6274 24 24 18.6274 24 12C24 5.37258 18.6274 0 12 0C5.37258 0 0 5.37258 0 12C0 18.6274 5.37258 24 12 24Z"
              fill="#FAFAFA"/>
        <path d="M16.1072 5.05538C16.7079 5.05538 17.1949 4.56841 17.1949 3.96769C17.1949 3.36698 16.7079 2.88 16.1072 2.88C15.5065 2.88 15.0195 3.36698 15.0195 3.96769C15.0195 4.56841 15.5065 5.05538 16.1072 5.05538Z"
              fill="black"/>
        <path d="M16.4043 7.74191C16.9129 7.74191 17.3252 7.32961 17.3252 6.82103C17.3252 6.31244 16.9129 5.90015 16.4043 5.90015C15.8957 5.90015 15.4834 6.31244 15.4834 6.82103C15.4834 7.32961 15.8957 7.74191 16.4043 7.74191Z"
              fill="black"/>
        <path d="M18.819 8.08461C19.3264 8.08461 19.7377 7.67329 19.7377 7.1659C19.7377 6.65851 19.3264 6.24719 18.819 6.24719C18.3116 6.24719 17.9003 6.65851 17.9003 7.1659C17.9003 7.67329 18.3116 8.08461 18.819 8.08461Z"
              fill="black"/>
        <path d="M18.5225 10.3851C18.9564 10.3851 19.3082 10.0333 19.3082 9.59936C19.3082 9.1654 18.9564 8.8136 18.5225 8.8136C18.0885 8.8136 17.7367 9.1654 17.7367 9.59936C17.7367 10.0333 18.0885 10.3851 18.5225 10.3851Z"
              fill="black"/>
        <path d="M20.4547 11.134C20.8914 11.134 21.2455 10.7799 21.2455 10.3432C21.2455 9.90642 20.8914 9.55237 20.4547 9.55237C20.018 9.55237 19.6639 9.90642 19.6639 10.3432C19.6639 10.7799 20.018 11.134 20.4547 11.134Z"
              fill="black"/>
        <path d="M16.0937 10.072C16.5383 10.072 16.8987 9.71164 16.8987 9.26709C16.8987 8.82254 16.5383 8.46216 16.0937 8.46216C15.6491 8.46216 15.2887 8.82254 15.2887 9.26709C15.2887 9.71164 15.6491 10.072 16.0937 10.072Z"
              fill="black"/>
        <path d="M15.3917 11.9011C15.7645 11.9011 16.0668 11.5989 16.0668 11.226C16.0668 10.8532 15.7645 10.5509 15.3917 10.5509C15.0188 10.5509 14.7166 10.8532 14.7166 11.226C14.7166 11.5989 15.0188 11.9011 15.3917 11.9011Z"
              fill="black"/>
        <path d="M17.8085 12.2265C18.1786 12.2265 18.4786 11.9265 18.4786 11.5564C18.4786 11.1864 18.1786 10.8864 17.8085 10.8864C17.4384 10.8864 17.1384 11.1864 17.1384 11.5564C17.1384 11.9265 17.4384 12.2265 17.8085 12.2265Z"
              fill="black"/>
        <path d="M19.7376 12.9723C20.111 12.9723 20.4137 12.6696 20.4137 12.2962C20.4137 11.9228 20.111 11.6201 19.7376 11.6201C19.3642 11.6201 19.0615 11.9228 19.0615 12.2962C19.0615 12.6696 19.3642 12.9723 19.7376 12.9723Z"
              fill="black"/>
        <path d="M18.7807 14.3579C19.0957 14.3579 19.351 14.1026 19.351 13.7876C19.351 13.4727 19.0957 13.2174 18.7807 13.2174C18.4658 13.2174 18.2104 13.4727 18.2104 13.7876C18.2104 14.1026 18.4658 14.3579 18.7807 14.3579Z"
              fill="black"/>
        <path d="M16.8443 13.624C17.1662 13.624 17.4271 13.3632 17.4271 13.0413C17.4271 12.7195 17.1662 12.4586 16.8443 12.4586C16.5225 12.4586 16.2616 12.7195 16.2616 13.0413C16.2616 13.3632 16.5225 13.624 16.8443 13.624Z"
              fill="black"/>
        <path d="M14.4289 13.284C14.7478 13.284 15.0063 13.0255 15.0063 12.7066C15.0063 12.3877 14.7478 12.1292 14.4289 12.1292C14.11 12.1292 13.8514 12.3877 13.8514 12.7066C13.8514 13.0255 14.11 13.284 14.4289 13.284Z"
              fill="black"/>
        <path d="M15.768 14.5882C16.0459 14.5882 16.2713 14.3628 16.2713 14.0849C16.2713 13.8069 16.0459 13.5815 15.768 13.5815C15.49 13.5815 15.2646 13.8069 15.2646 14.0849C15.2646 14.3628 15.49 14.5882 15.768 14.5882Z"
              fill="black"/>
        <path d="M17.7045 15.336C17.9848 15.336 18.2121 15.1087 18.2121 14.8284C18.2121 14.5481 17.9848 14.3208 17.7045 14.3208C17.4242 14.3208 17.1969 14.5481 17.1969 14.8284C17.1969 15.1087 17.4242 15.336 17.7045 15.336Z"
              fill="black"/>
        <path d="M16.6099 15.8858C16.8309 15.8858 17.01 15.7067 17.01 15.4858C17.01 15.2648 16.8309 15.0857 16.6099 15.0857C16.389 15.0857 16.2098 15.2648 16.2098 15.4858C16.2098 15.7067 16.389 15.8858 16.6099 15.8858Z"
              fill="black"/>
        <path d="M15.5743 16.1847C15.7751 16.1847 15.9379 16.0219 15.9379 15.8211C15.9379 15.6203 15.7751 15.4575 15.5743 15.4575C15.3735 15.4575 15.2107 15.6203 15.2107 15.8211C15.2107 16.0219 15.3735 16.1847 15.5743 16.1847Z"
              fill="black"/>
        <path d="M14.6732 15.1934C14.9117 15.1934 15.105 15.0001 15.105 14.7617C15.105 14.5232 14.9117 14.33 14.6732 14.33C14.4348 14.33 14.2415 14.5232 14.2415 14.7617C14.2415 15.0001 14.4348 15.1934 14.6732 15.1934Z"
              fill="black"/>
        <path d="M13.3494 14.2565C13.6266 14.2565 13.8514 14.0317 13.8514 13.7544C13.8514 13.4771 13.6266 13.2523 13.3494 13.2523C13.0721 13.2523 12.8473 13.4771 12.8473 13.7544C12.8473 14.0317 13.0721 14.2565 13.3494 14.2565Z"
              fill="black"/>
        <path d="M17.3128 20.3114C17.9104 20.3114 18.3949 19.8269 18.3949 19.2293C18.3949 18.6316 17.9104 18.1471 17.3128 18.1471C16.7151 18.1471 16.2306 18.6316 16.2306 19.2293C16.2306 19.8269 16.7151 20.3114 17.3128 20.3114Z"
              fill="black"/>
        <path d="M14.6794 18.9856C15.1779 18.9856 15.582 18.5815 15.582 18.083C15.582 17.5845 15.1779 17.1804 14.6794 17.1804C14.1809 17.1804 13.7767 17.5845 13.7767 18.083C13.7767 18.5815 14.1809 18.9856 14.6794 18.9856Z"
              fill="black"/>
        <path d="M13.1807 20.88C13.6835 20.88 14.0911 20.4724 14.0911 19.9697C14.0911 19.4669 13.6835 19.0593 13.1807 19.0593C12.678 19.0593 12.2704 19.4669 12.2704 19.9697C12.2704 20.4724 12.678 20.88 13.1807 20.88Z"
              fill="black"/>
        <path d="M12.7245 17.3777C13.16 17.3777 13.5129 17.0247 13.5129 16.5893C13.5129 16.1539 13.16 15.8009 12.7245 15.8009C12.2891 15.8009 11.9362 16.1539 11.9362 16.5893C11.9362 17.0247 12.2891 17.3777 12.7245 17.3777Z"
              fill="black"/>
        <path d="M11.2265 19.2982C11.6609 19.2982 12.013 18.9461 12.013 18.5117C12.013 18.0773 11.6609 17.7252 11.2265 17.7252C10.7922 17.7252 10.4401 18.0773 10.4401 18.5117C10.4401 18.9461 10.7922 19.2982 11.2265 19.2982Z"
              fill="black"/>
        <path d="M9.61659 20.6028C10.0495 20.6028 10.4004 20.2519 10.4004 19.819C10.4004 19.3861 10.0495 19.0352 9.61659 19.0352C9.1837 19.0352 8.83276 19.3861 8.83276 19.819C8.83276 20.2519 9.1837 20.6028 9.61659 20.6028Z"
              fill="black"/>
        <path d="M8.26874 18.8946C8.63775 18.8946 8.93689 18.5955 8.93689 18.2265C8.93689 17.8575 8.63775 17.5583 8.26874 17.5583C7.89973 17.5583 7.60059 17.8575 7.60059 18.2265C7.60059 18.5955 7.89973 18.8946 8.26874 18.8946Z"
              fill="black"/>
        <path d="M9.88367 17.5855C10.2533 17.5855 10.553 17.2858 10.553 16.9162C10.553 16.5465 10.2533 16.2468 9.88367 16.2468C9.51402 16.2468 9.21436 16.5465 9.21436 16.9162C9.21436 17.2858 9.51402 17.5855 9.88367 17.5855Z"
              fill="black"/>
        <path d="M11.3902 15.665C11.7603 15.665 12.0603 15.365 12.0603 14.9949C12.0603 14.6248 11.7603 14.3248 11.3902 14.3248C11.0201 14.3248 10.7201 14.6248 10.7201 14.9949C10.7201 15.365 11.0201 15.665 11.3902 15.665Z"
              fill="black"/>
        <path d="M9.08154 15.9213C9.40177 15.9213 9.66137 15.6617 9.66137 15.3415C9.66137 15.0212 9.40177 14.7616 9.08154 14.7616C8.76131 14.7616 8.50171 15.0212 8.50171 15.3415C8.50171 15.6617 8.76131 15.9213 9.08154 15.9213Z"
              fill="black"/>
        <path d="M7.47469 17.2253C7.79227 17.2253 8.04972 16.9678 8.04972 16.6502C8.04972 16.3327 7.79227 16.0752 7.47469 16.0752C7.15711 16.0752 6.89966 16.3327 6.89966 16.6502C6.89966 16.9678 7.15711 17.2253 7.47469 17.2253Z"
              fill="black"/>
        <path d="M7.10262 15.6912C7.37752 15.6912 7.60038 15.4683 7.60038 15.1934C7.60038 14.9185 7.37752 14.6957 7.10262 14.6957C6.82771 14.6957 6.60486 14.9185 6.60486 15.1934C6.60486 15.4683 6.82771 15.6912 7.10262 15.6912Z"
              fill="black"/>
        <path d="M7.08465 14.3428C7.32044 14.3428 7.51158 14.1516 7.51158 13.9158C7.51158 13.68 7.32044 13.4889 7.08465 13.4889C6.84886 13.4889 6.65771 13.68 6.65771 13.9158C6.65771 14.1516 6.84886 14.3428 7.08465 14.3428Z"
              fill="black"/>
        <path d="M7.30501 13.2211C7.50568 13.2211 7.66836 13.0584 7.66836 12.8577C7.66836 12.6571 7.50568 12.4944 7.30501 12.4944C7.10433 12.4944 6.94165 12.6571 6.94165 12.8577C6.94165 13.0584 7.10433 13.2211 7.30501 13.2211Z"
              fill="black"/>
        <path d="M8.69531 13.0414C8.93377 13.0414 9.12708 12.8481 9.12708 12.6096C9.12708 12.3712 8.93377 12.1779 8.69531 12.1779C8.45686 12.1779 8.26355 12.3712 8.26355 12.6096C8.26355 12.8481 8.45686 13.0414 8.69531 13.0414Z"
              fill="black"/>
        <path d="M10.2168 12.464C10.4946 12.464 10.7198 12.2387 10.7198 11.9609C10.7198 11.6831 10.4946 11.4579 10.2168 11.4579C9.93896 11.4579 9.71375 11.6831 9.71375 11.9609C9.71375 12.2387 9.93896 12.464 10.2168 12.464Z"
              fill="black"/>
        <path d="M10.5819 13.9891C10.8981 13.9891 11.1543 13.7328 11.1543 13.4167C11.1543 13.1006 10.8981 12.8444 10.5819 12.8444C10.2658 12.8444 10.0095 13.1006 10.0095 13.4167C10.0095 13.7328 10.2658 13.9891 10.5819 13.9891Z"
              fill="black"/>
        <path d="M8.71539 14.3882C8.99082 14.3882 9.21411 14.1649 9.21411 13.8895C9.21411 13.614 8.99082 13.3907 8.71539 13.3907C8.43996 13.3907 8.21667 13.614 8.21667 13.8895C8.21667 14.1649 8.43996 14.3882 8.71539 14.3882Z"
              fill="black"/>
        <path d="M3.48702 13.7343C4.08283 13.7343 4.56583 13.2513 4.56583 12.6555C4.56583 12.0597 4.08283 11.5767 3.48702 11.5767C2.8912 11.5767 2.4082 12.0597 2.4082 12.6555C2.4082 13.2513 2.8912 13.7343 3.48702 13.7343Z"
              fill="black"/>
        <path d="M5.81915 11.8829C6.32947 11.8829 6.74316 11.4692 6.74316 10.9589C6.74316 10.4486 6.32947 10.0349 5.81915 10.0349C5.30883 10.0349 4.89514 10.4486 4.89514 10.9589C4.89514 11.4692 5.30883 11.8829 5.81915 11.8829Z"
              fill="black"/>
        <path d="M4.9048 9.61511C5.41246 9.61511 5.82401 9.20357 5.82401 8.69592C5.82401 8.18827 5.41246 7.77673 4.9048 7.77673C4.39714 7.77673 3.9856 8.18827 3.9856 8.69592C3.9856 9.20357 4.39714 9.61511 4.9048 9.61511Z"
              fill="black"/>
        <path d="M7.15353 8.52981C7.5887 8.52981 7.94147 8.17705 7.94147 7.74189C7.94147 7.30674 7.5887 6.95398 7.15353 6.95398C6.71837 6.95398 6.3656 7.30674 6.3656 7.74189C6.3656 8.17705 6.71837 8.52981 7.15353 8.52981Z"
              fill="black"/>
        <path d="M8.07414 10.7897C8.51077 10.7897 8.86472 10.4357 8.86472 9.99907C8.86472 9.56245 8.51077 9.2085 8.07414 9.2085C7.63752 9.2085 7.28357 9.56245 7.28357 9.99907C7.28357 10.4357 7.63752 10.7897 8.07414 10.7897Z"
              fill="black"/>
        <path d="M10.1201 10.3107C10.4919 10.3107 10.7933 10.0093 10.7933 9.63747C10.7933 9.26565 10.4919 8.96423 10.1201 8.96423C9.7483 8.96423 9.4469 9.26565 9.4469 9.63747C9.4469 10.0093 9.7483 10.3107 10.1201 10.3107Z"
              fill="black"/>
        <path d="M11.8893 10.3088C12.2094 10.3088 12.4689 10.0493 12.4689 9.72923C12.4689 9.40914 12.2094 9.14966 11.8893 9.14966C11.5692 9.14966 11.3097 9.40914 11.3097 9.72923C11.3097 10.0493 11.5692 10.3088 11.8893 10.3088Z"
              fill="black"/>
        <path d="M13.3494 10.6311C13.619 10.6311 13.8375 10.4126 13.8375 10.143C13.8375 9.87335 13.619 9.65479 13.3494 9.65479C13.0798 9.65479 12.8612 9.87335 12.8612 10.143C12.8612 10.4126 13.0798 10.6311 13.3494 10.6311Z"
              fill="black"/>
        <path d="M13.5365 8.92364C13.7716 8.92364 13.9622 8.73302 13.9622 8.49789C13.9622 8.26276 13.7716 8.07214 13.5365 8.07214C13.3013 8.07214 13.1107 8.26276 13.1107 8.49789C13.1107 8.73302 13.3013 8.92364 13.5365 8.92364Z"
              fill="black"/>
        <path d="M12.4136 8.3741C12.686 8.3741 12.9068 8.15329 12.9068 7.8809C12.9068 7.60851 12.686 7.3877 12.4136 7.3877C12.1412 7.3877 11.9204 7.60851 11.9204 7.8809C11.9204 8.15329 12.1412 8.3741 12.4136 8.3741Z"
              fill="black"/>
        <path d="M10.9709 8.04492C11.2892 8.04492 11.5473 7.78682 11.5473 7.46844C11.5473 7.15006 11.2892 6.89197 10.9709 6.89197C10.6525 6.89197 10.3944 7.15006 10.3944 7.46844C10.3944 7.78682 10.6525 8.04492 10.9709 8.04492Z"
              fill="black"/>
        <path d="M9.20725 8.05537C9.57931 8.05537 9.88093 7.75375 9.88093 7.38169C9.88093 7.00962 9.57931 6.70801 9.20725 6.70801C8.83519 6.70801 8.53357 7.00962 8.53357 7.38169C8.53357 7.75375 8.83519 8.05537 9.20725 8.05537Z"
              fill="black"/>
        <path d="M6.8285 6.45436C7.25054 6.45436 7.59267 6.11223 7.59267 5.69019C7.59267 5.26816 7.25054 4.92603 6.8285 4.92603C6.40646 4.92603 6.06433 5.26816 6.06433 5.69019C6.06433 6.11223 6.40646 6.45436 6.8285 6.45436Z"
              fill="black"/>
        <path d="M8.87289 6.00237C9.24521 6.00237 9.54704 5.70054 9.54704 5.32821C9.54704 4.95588 9.24521 4.65405 8.87289 4.65405C8.50056 4.65405 8.19873 4.95588 8.19873 5.32821C8.19873 5.70054 8.50056 6.00237 8.87289 6.00237Z"
              fill="black"/>
        <path d="M10.6417 6.00239C10.9628 6.00239 11.223 5.74214 11.223 5.42111C11.223 5.10009 10.9628 4.83984 10.6417 4.83984C10.3207 4.83984 10.0604 5.10009 10.0604 5.42111C10.0604 5.74214 10.3207 6.00239 10.6417 6.00239Z"
              fill="black"/>
        <path d="M12.0913 6.32469C12.3616 6.32469 12.5807 6.10559 12.5807 5.83532C12.5807 5.56505 12.3616 5.34595 12.0913 5.34595C11.821 5.34595 11.6019 5.56505 11.6019 5.83532C11.6019 6.10559 11.821 6.32469 12.0913 6.32469Z"
              fill="black"/>
        <path d="M13.2056 6.89188C13.4472 6.89188 13.6431 6.696 13.6431 6.45436C13.6431 6.21273 13.4472 6.01685 13.2056 6.01685C12.9639 6.01685 12.7681 6.21273 12.7681 6.45436C12.7681 6.696 12.9639 6.89188 13.2056 6.89188Z"
              fill="black"/>
        <path d="M14.0196 7.54104C14.2184 7.54104 14.3796 7.37987 14.3796 7.18104C14.3796 6.98222 14.2184 6.82104 14.0196 6.82104C13.8208 6.82104 13.6597 6.98222 13.6597 7.18104C13.6597 7.37987 13.8208 7.54104 14.0196 7.54104Z"
              fill="black"/>
    </g>
    <defs>
        <clipPath id="clip0_14_5259">
            <rect width="24" height="24" fill="white"/>
        </clipPath>
    </defs>
</svg>
