<svg width="24" height="24" viewBox="0 0 24 24" fill="none" xmlns="http://www.w3.org/2000/svg">
<g clip-path="url(#clip0_1825_2567)">
<path d="M12.0003 22.656C17.9915 22.656 22.8483 17.7991 22.8483 11.808C22.8483 5.81678 17.9915 0.959961 12.0003 0.959961C6.00916 0.959961 1.15234 5.81678 1.15234 11.808C1.15234 17.7991 6.00916 22.656 12.0003 22.656Z" fill="white"/>
<path d="M9.94462 1.20955C6.83422 1.77595 4.06942 3.77275 2.55262 6.55675C2.01502 7.54555 1.47742 9.16795 1.33342 10.2624C1.08382 12.1056 1.44862 14.3712 2.25502 16.08C3.70462 19.1328 6.69022 21.4176 9.98302 21.9936C10.895 22.1472 12.7958 22.1472 13.727 21.984C14.4854 21.8592 15.9062 21.3792 16.6166 21.024C18.6422 19.9872 20.351 18.2112 21.359 16.0992C22.127 14.4864 22.319 13.5744 22.319 11.568C22.319 10.0992 22.2902 9.83035 22.0502 8.93755C21.0134 4.98235 17.6822 1.91035 13.6694 1.20955C12.6326 1.02715 10.9622 1.02715 9.94462 1.20955ZM14.159 2.95675C17.8262 4.03195 20.3414 7.02715 20.7254 10.7712C20.975 13.2864 20.111 15.792 18.3446 17.6832C17.1542 18.9504 15.7238 19.8144 14.063 20.2752C12.9782 20.5728 10.6646 20.5728 9.57982 20.2752C6.21982 19.3536 3.64702 16.6176 3.01342 13.2864C2.82142 12.2688 2.87902 10.2624 3.11902 9.38875C4.06942 5.93275 6.77662 3.45595 10.367 2.74555C10.5014 2.72635 11.2598 2.71675 12.047 2.73595C13.151 2.75515 13.6406 2.81275 14.159 2.95675Z" fill="black"/>
<path d="M10.0422 3.64805C8.33336 4.01285 6.52856 5.13605 5.42456 6.54725C4.06136 8.27525 3.46616 10.4353 3.73496 12.6529C3.86936 13.7089 4.01336 14.1697 4.53176 15.2545C5.55896 17.3569 7.54616 18.9505 9.82136 19.4881C12.0198 20.0161 14.1702 19.6897 16.0422 18.5665C17.7702 17.5201 18.9606 15.9841 19.6422 13.9201C19.8822 13.1713 19.911 12.9793 19.911 11.6161C19.9206 10.1665 19.911 10.0993 19.5942 9.16806C18.8262 6.90245 17.4822 5.33765 15.4086 4.31045C13.7574 3.48485 11.895 3.25445 10.0422 3.64805ZM14.4966 6.70086L14.7174 6.88325L13.335 8.24646C11.6838 9.86886 11.4054 10.0321 10.3206 10.0321C9.65816 10.0225 9.48536 9.98406 9.06296 9.75365C8.79416 9.60965 8.31416 9.23526 8.00696 8.91846L7.45016 8.35206L7.87256 7.92006L8.29496 7.48806L8.83256 8.00646C9.64856 8.82246 10.311 9.01446 11.0214 8.64966C11.2134 8.54405 11.7222 8.11206 12.1446 7.68006C12.567 7.24805 13.047 6.80646 13.2006 6.71045C13.575 6.48005 14.2182 6.47046 14.4966 6.70086ZM15.5334 7.70886L15.9366 8.12165L15.4086 8.64006C14.8134 9.23526 14.5926 9.62886 14.5926 10.1185C14.5926 10.6657 14.8806 11.1073 15.879 12.0961C16.8582 13.0657 17.0502 13.4017 16.8966 13.9297C16.695 14.6209 16.6758 14.6113 15.2454 13.1809C13.6038 11.5489 13.3926 11.2129 13.3926 10.1281C13.3926 9.51366 13.4406 9.27366 13.623 8.92806C13.815 8.54406 14.9286 7.29606 15.0726 7.29606C15.1014 7.29606 15.3126 7.47846 15.5334 7.70886ZM10.0998 12.0001C10.2534 12.3169 10.311 12.6241 10.311 13.1521C10.3206 14.0737 10.0326 14.6977 9.21656 15.5041L8.64056 16.0705L8.20856 15.6481L7.77656 15.2257L8.29496 14.6881C8.89976 14.0545 9.12056 13.6609 9.12056 13.2097C9.12056 12.6433 8.94776 12.3841 7.92056 11.3281C7.37336 10.7713 6.87416 10.1953 6.81656 10.0417C6.69176 9.71526 6.76856 9.24486 6.98936 8.99525C7.13336 8.83206 7.21976 8.90885 8.51576 10.1953C9.37976 11.0593 9.96536 11.7217 10.0998 12.0001ZM14.5254 13.4401C14.7654 13.5553 15.2358 13.9297 15.5622 14.2657L16.167 14.8801L15.7926 15.2641C15.591 15.4753 15.3702 15.6481 15.3126 15.6481C15.2646 15.6481 15.0054 15.4273 14.7462 15.1585C14.2182 14.6113 13.815 14.4001 13.2966 14.4001C12.7302 14.4001 12.3846 14.6209 11.4726 15.5521C11.0022 16.0321 10.4934 16.4929 10.3494 16.5697C10.0038 16.7521 9.56216 16.7425 9.19736 16.5505L8.89016 16.3969L10.3782 14.9281C11.6358 13.6801 11.9334 13.4401 12.3366 13.3057C12.9894 13.0945 13.959 13.1521 14.5254 13.4401Z" fill="black"/>
</g>
<defs>
<clipPath id="clip0_1825_2567">
<rect width="24" height="24" fill="white"/>
</clipPath>
</defs>
</svg>
