<svg width="24" height="24" viewBox="0 0 24 24" fill="none" xmlns="http://www.w3.org/2000/svg">
<g clip-path="url(#clip0_1825_2565)">
<mask id="mask0_1825_2565" style="mask-type:luminance" maskUnits="userSpaceOnUse" x="0" y="0" width="24" height="24">
<path d="M0 0.363647H23.48V23.6364H0V0.363647Z" fill="white"/>
</mask>
<g mask="url(#mask0_1825_2565)">
<path d="M2.24805 18.6669C3.2313 20.0345 4.49255 21.1789 5.94909 22.0249C7.40562 22.8709 9.02454 23.3995 10.6997 23.576C9.83786 22.2785 8.5855 21.0858 7.02186 20.1774C5.45823 19.2683 3.8015 18.7731 2.24877 18.6669H2.24805Z" fill="url(#paint0_linear_1825_2565)"/>
<path d="M9.1229 16.56C6.10981 14.8102 2.84872 14.3636 0.515625 15.152C0.74108 15.8967 1.03781 16.6175 1.4029 17.3047C3.42981 17.2575 5.6429 17.808 7.70326 19.0044C9.7629 20.2007 11.3382 21.8516 12.3018 23.6364C13.08 23.6124 13.8538 23.5127 14.6124 23.3404C14.1411 20.9236 12.1353 18.3113 9.1229 16.56Z" fill="url(#paint1_linear_1825_2565)"/>
<path d="M23.48 9.45454C23.0969 7.89639 22.4037 6.43141 21.4419 5.1471C20.4801 3.86279 19.2693 2.78548 17.8818 1.97951C16.4944 1.17355 14.9587 0.655454 13.3666 0.45617C11.7745 0.256887 10.1585 0.380502 8.61523 0.819634C11.1941 1.13527 14.0552 2.10327 16.8625 3.73382C19.6698 5.36436 21.9294 7.37091 23.4807 9.456L23.48 9.45454Z" fill="url(#paint2_linear_1825_2565)"/>
<path d="M19.7287 15.1695C18.4087 12.9782 16.1483 10.8786 13.3629 9.2611C10.5774 7.64292 7.63562 6.71928 5.07998 6.65746C2.83198 6.6051 1.14471 7.25819 0.452347 8.45092L0.437801 8.47128C0.375983 8.69528 0.322165 8.91928 0.273438 9.14401C1.24071 8.76219 2.36071 8.54983 3.60726 8.52583C6.37816 8.47419 9.47853 9.36001 12.3403 11.0226C15.2022 12.6851 17.5098 14.9411 18.8363 17.3731C19.4313 18.4684 19.8029 19.5476 19.9491 20.5782C20.1207 20.4255 20.2887 20.2669 20.4516 20.1026L20.4633 20.0793C21.1556 18.8858 20.888 17.096 19.7287 15.1695Z" fill="url(#paint3_linear_1825_2565)"/>
<path d="M11.2436 12.9077C6.98036 10.4306 2.26691 10.0429 0 11.7709C0.00436364 12.3128 0.0458182 12.8531 0.123636 13.3884C0.790337 13.1862 1.47748 13.0589 2.17236 13.0088C4.70545 12.8182 7.49746 13.5244 10.0313 14.9971C12.5651 16.4698 14.5622 18.5462 15.6516 20.8393C15.9527 21.4677 16.1825 22.1273 16.336 22.8073C16.8407 22.6095 17.3302 22.3782 17.8029 22.1142C18.1825 19.288 15.5105 15.3862 11.2444 12.9077H11.2436Z" fill="url(#paint4_linear_1825_2565)"/>
<path d="M21.9226 11.5012C20.5881 9.31208 18.3081 7.20735 15.503 5.57826C12.6979 3.9499 9.74446 3.01099 7.18083 2.93608C5.22592 2.87935 3.71173 3.35354 2.92773 4.24808C6.18592 3.69535 10.4856 4.62408 14.6521 7.04445C18.8194 9.46554 21.7554 12.7404 22.8892 15.8444C23.2776 14.7208 22.9401 13.171 21.9226 11.5012Z" fill="url(#paint5_linear_1825_2565)"/>
</g>
</g>
<defs>
<linearGradient id="paint0_linear_1825_2565" x1="15.6371" y1="5.09087" x2="4.8495" y2="23.6363" gradientUnits="userSpaceOnUse">
<stop stop-color="#C7F284"/>
<stop offset="1" stop-color="#00BEF0"/>
</linearGradient>
<linearGradient id="paint1_linear_1825_2565" x1="15.6371" y1="5.09092" x2="4.84944" y2="23.6364" gradientUnits="userSpaceOnUse">
<stop stop-color="#C7F284"/>
<stop offset="1" stop-color="#00BEF0"/>
</linearGradient>
<linearGradient id="paint2_linear_1825_2565" x1="15.6363" y1="5.09091" x2="4.84869" y2="23.6364" gradientUnits="userSpaceOnUse">
<stop stop-color="#C7F284"/>
<stop offset="1" stop-color="#00BEF0"/>
</linearGradient>
<linearGradient id="paint3_linear_1825_2565" x1="15.6363" y1="5.09092" x2="4.84871" y2="23.6364" gradientUnits="userSpaceOnUse">
<stop stop-color="#C7F284"/>
<stop offset="1" stop-color="#00BEF0"/>
</linearGradient>
<linearGradient id="paint4_linear_1825_2565" x1="15.6364" y1="5.09093" x2="4.84873" y2="23.6364" gradientUnits="userSpaceOnUse">
<stop stop-color="#C7F284"/>
<stop offset="1" stop-color="#00BEF0"/>
</linearGradient>
<linearGradient id="paint5_linear_1825_2565" x1="15.6368" y1="5.09099" x2="4.84919" y2="23.6364" gradientUnits="userSpaceOnUse">
<stop stop-color="#C7F284"/>
<stop offset="1" stop-color="#00BEF0"/>
</linearGradient>
<clipPath id="clip0_1825_2565">
<rect width="24" height="24" fill="white"/>
</clipPath>
</defs>
</svg>
