<svg width="24" height="24" viewBox="0 0 24 24" fill="none" xmlns="http://www.w3.org/2000/svg">
    <g clip-path="url(#clip0_2470_1211)">
        <path d="M12 0C18.624 0 24 5.376 24 12C24 18.624 18.624 24 12 24C5.376 24 0 18.624 0 12C0 5.376 5.376 0 12 0Z"
              fill="url(#paint0_linear_2470_1211)"/>
        <g filter="url(#filter0_f_2470_1211)">
            <ellipse cx="11.8499" cy="12.75" rx="6.45" ry="7.95" fill="white" fill-opacity="0.5"/>
        </g>
        <mask id="mask0_2470_1211" style="mask-type:luminance" maskUnits="userSpaceOnUse" x="6" y="10" width="13"
              height="10">
            <path d="M12.0421 13.437L7.08189 10.6051L6.94831 10.8099C5.42551 13.152 5.76391 16.2154 7.7676 18.1835C10.1275 20.4989 13.9568 20.4989 16.3167 18.1835C18.3204 16.2154 18.6588 13.152 17.136 10.8099L17.0024 10.6051L12.0421 13.437Z"
                  fill="white"/>
        </mask>
        <g mask="url(#mask0_2470_1211)">
            <path d="M12.042 20.0981C15.3815 20.0981 18.0887 17.3909 18.0887 14.0514C18.0887 10.712 15.3815 8.00476 12.042 8.00476C8.70255 8.00476 5.99536 10.712 5.99536 14.0514C5.99536 17.3909 8.70255 20.0981 12.042 20.0981Z"
                  fill="url(#paint1_radial_2470_1211)"/>
        </g>
        <path d="M12.0419 7.11426L7.76733 9.5543L12.0419 11.9943L16.3164 9.5543L12.0419 7.11426Z"
              fill="url(#paint2_radial_2470_1211)"/>
        <path d="M12.0509 7.74646L7.08179 10.6051L12.042 13.4369L16.9934 10.6051L12.0509 7.74646Z"
              fill="url(#paint3_radial_2470_1211)"/>
        <path d="M12.0419 3L7.76733 9.55428L12.0419 11.9943V3Z" fill="url(#paint4_linear_2470_1211)"/>
        <path d="M12.042 11.9943L16.3165 9.55428L12.042 3V11.9943Z" fill="url(#paint5_linear_2470_1211)"/>
    </g>
    <defs>
        <filter id="filter0_f_2470_1211" x="1.86419" y="1.26433" width="19.9713" height="22.9715"
                filterUnits="userSpaceOnUse" color-interpolation-filters="sRGB">
            <feFlood flood-opacity="0" result="BackgroundImageFix"/>
            <feBlend mode="normal" in="SourceGraphic" in2="BackgroundImageFix" result="shape"/>
            <feGaussianBlur stdDeviation="1.76786" result="effect1_foregroundBlur_2470_1211"/>
        </filter>
        <linearGradient id="paint0_linear_2470_1211" x1="12" y1="0" x2="12" y2="24" gradientUnits="userSpaceOnUse">
            <stop stop-color="#F89791"/>
            <stop offset="1" stop-color="#F7C882"/>
        </linearGradient>
        <radialGradient id="paint1_radial_2470_1211" cx="0" cy="0" r="1" gradientUnits="userSpaceOnUse"
                        gradientTransform="translate(12.0306 19.0007) rotate(-90.4664) scale(8.07505 9.62497)">
            <stop stop-color="#C5C6AB"/>
            <stop offset="1" stop-color="#7985AB"/>
        </radialGradient>
        <radialGradient id="paint2_radial_2470_1211" cx="0" cy="0" r="1" gradientUnits="userSpaceOnUse"
                        gradientTransform="translate(12.0419 9.5543) scale(0.213727)">
            <stop stop-color="#0066FF" stop-opacity="0"/>
            <stop offset="1" stop-color="#00C2FF" stop-opacity="0.4"/>
        </radialGradient>
        <radialGradient id="paint3_radial_2470_1211" cx="0" cy="0" r="1" gradientUnits="userSpaceOnUse"
                        gradientTransform="translate(12.0376 10.5917) scale(0.249419)">
            <stop stop-color="#AEE6F9" stop-opacity="0.8588"/>
            <stop offset="1" stop-color="#C8D6DC"/>
        </radialGradient>
        <linearGradient id="paint4_linear_2470_1211" x1="9.9046" y1="2.55474" x2="9.9046" y2="11.46"
                        gradientUnits="userSpaceOnUse">
            <stop stop-color="#77D4FF"/>
            <stop offset="1" stop-color="#93D6F2" stop-opacity="0.898"/>
        </linearGradient>
        <linearGradient id="paint5_linear_2470_1211" x1="14.1793" y1="2.55474" x2="14.1793" y2="11.46"
                        gradientUnits="userSpaceOnUse">
            <stop stop-color="#506AAC"/>
            <stop offset="1" stop-color="#96CFEF" stop-opacity="0.8196"/>
        </linearGradient>
        <clipPath id="clip0_2470_1211">
            <rect width="24" height="24" fill="white"/>
        </clipPath>
    </defs>
</svg>
