<svg width="40" height="40" viewBox="0 0 40 40" fill="none" xmlns="http://www.w3.org/2000/svg">
    <circle cx="20" cy="20" r="20" fill="#366BF4"/>
    <path d="M18.8352 26.1146C22.3283 26.1783 25.7568 26.242 29.2499 26.3694C29.1206 26.879 28.9912 27.3248 28.9265 27.7707C28.7324 28.4076 28.5384 28.9809 28.409 29.6178C28.3443 29.9363 28.2149 30 27.8915 30C23.5574 30 19.288 30 14.9539 30C13.7248 30 12.4958 30 11.202 30C11.7842 27.7707 12.3664 25.6688 12.9486 23.4395C12.0429 23.758 11.2667 24.0764 10.3611 24.4586C10.6198 23.5032 10.8786 22.6752 11.202 21.7834C11.202 21.6561 11.3961 21.5924 11.5254 21.5924C12.1076 21.3376 12.7545 21.1465 13.3367 20.8917C13.5308 20.828 13.7248 20.6369 13.7248 20.4459C14.6305 17.1338 15.5361 13.8217 16.4417 10.5096C16.5064 10.1274 16.6358 10 17.0886 10C18.8999 10 20.7111 10 22.5224 10C22.6518 10 22.7811 10 22.9752 10C22.2636 12.6115 21.6168 15.2229 20.9052 17.9618C21.9402 17.5159 22.9105 17.1338 24.0102 16.7516C23.8808 17.2611 23.6868 17.707 23.6221 18.1529C23.4927 19.172 22.9105 19.7452 21.8755 20C21.4227 20.1274 20.9699 20.3185 20.5171 20.5096C20.3877 20.5732 20.1936 20.7643 20.1289 20.8917C19.6761 22.6115 19.2233 24.2675 18.8352 25.9873C18.8352 25.9873 18.8352 26.051 18.8352 26.1146Z"
          fill="white"/>
</svg>
