<svg width="40" height="40" viewBox="0 0 40 40" fill="none" xmlns="http://www.w3.org/2000/svg">
    <circle cx="20" cy="20" r="20" fill="#172852"/>
    <path d="M15.9782 8.69717C18.3932 7.79774 21.1113 7.79568 23.5717 8.53494C26.7745 9.52473 29.4782 11.9314 30.8909 14.9521C31.2807 15.8125 31.654 16.7099 31.6911 17.6668C29.8907 16.6278 27.9171 15.9542 25.9393 15.3402C22.7756 14.2046 19.4635 13.4161 16.469 11.8554C15.7719 11.4406 14.8831 11.0156 14.6933 10.151C14.617 9.40357 15.411 8.98671 15.9782 8.69717Z"
          fill="#FFD83D"/>
    <path d="M8.6878 15.9664C9.38693 14.0772 10.5336 12.3235 12.0907 11.0237C12.4866 14.2662 13.8725 17.3998 16.1617 19.7572C18.9067 22.5972 22.8169 24.3406 26.7951 24.2749C28.3749 24.3242 29.9196 23.9607 31.4602 23.6671C29.9443 29.1211 23.9409 32.7415 18.3787 31.8708C15.0212 31.4436 11.9215 29.4641 10.051 26.6693C7.94123 23.5808 7.40915 19.48 8.6878 15.9664Z"
          fill="#FFD83D"/>
    <path d="M25.9393 15.3401C27.9171 15.9541 29.8907 16.6276 31.6911 17.6667L31.8128 17.7304C31.9799 18.9809 32.1015 20.2562 31.8788 21.5088C30.9734 21.1268 30.2392 20.4553 29.4721 19.8619C27.9954 18.638 26.4879 17.2375 25.9393 15.3401Z"
          fill="#FF6F03"/>
</svg>
