<svg width="40" height="40" viewBox="0 0 40 40" fill="none" xmlns="http://www.w3.org/2000/svg">
    <circle cx="20" cy="20" r="19.5" fill="#E3F1FF" stroke="#2B6DEF"/>
    <circle cx="20" cy="20" r="18.5" fill="#E3F1FF" stroke="#2BBDF7"/>
    <path d="M19.9708 24.5978L24.2453 22.0254L24.1869 17.4713L23.9183 17.3113C23.9183 17.3113 23.3273 17.2891 23.019 17.3359C22.7107 17.3827 19.7326 18.2184 19.6438 18.259C19.5551 18.2996 18.2424 19.4037 18.2424 19.4037L19.9708 24.5978Z"
          fill="#2BBDF7"/>
    <path d="M12.0409 14.7253L16.0817 12.479V27.5284L12.0409 29.9877V14.7253Z" fill="#2BBDF7"/>
    <path d="M12.0409 14.7376L8 12.4421V27.5408L12.0409 30V14.7376Z" fill="#2891F9"/>
    <path d="M19.9709 19.6867V24.5978L9.31969 17.7543L9.67006 14.1848L11.9241 12.8678L17.1796 16.4619L19.9709 19.6867Z"
          fill="#2891F9"/>
    <path d="M8 12.4493L19.9708 19.6989L23.965 17.3234L12.0526 10L8 12.4493Z" fill="#2B6DEF"/>
    <path d="M23.9183 12.437L27.9942 10.0245L32 12.437L31.1241 14.0371L27.2934 15.6125L25.7986 13.8894L23.9183 12.437Z"
          fill="#2B6DEF"/>
    <path d="M27.9591 14.7252L32 12.4297V27.5284L27.9591 29.9876V14.7252Z" fill="#2BBDF7"/>
    <path d="M27.9591 14.7252L23.9183 12.4297V27.5284L27.9591 29.9876V14.7252Z" fill="#2891F9"/>
</svg>
