<svg width="40" height="40" viewBox="0 0 40 40" fill="none" xmlns="http://www.w3.org/2000/svg">
    <path d="M20 40C31.0457 40 40 31.0457 40 20C40 8.95431 31.0457 0 20 0C8.95431 0 0 8.95431 0 20C0 31.0457 8.95431 40 20 40Z"
          fill="url(#paint0_linear)"/>
    <path d="M10.1559 26V16.587L17.2944 21.959V26H19.1169V21.5801C19.1169 21.2461 18.96 20.9314 18.6931 20.7306L10.0358 14.2156C9.33513 13.6883 8.33333 14.1882 8.33333 15.0651V26H10.1559ZM29.8986 26V16.587L22.7602 21.959V26H20.9377V21.5801C20.9377 21.2461 21.0946 20.9314 21.3615 20.7306L30.0188 14.2156C30.7194 13.6883 31.7212 14.1882 31.7212 15.0651V26H29.8986Z"
          fill="white"/>
    <defs>
        <linearGradient id="paint0_linear" x1="20" y1="0" x2="20" y2="40" gradientUnits="userSpaceOnUse">
            <stop stop-color="#4FA89B"/>
            <stop offset="1" stop-color="#6ACEBB"/>
        </linearGradient>
    </defs>
</svg>
