<svg width="24" height="24" viewBox="0 0 24 24" fill="none" xmlns="http://www.w3.org/2000/svg">
    <g clip-path="url(#clip0_2470_1240)">
        <circle cx="12" cy="12" r="12" fill="#E8AB3D"/>
        <path fill-rule="evenodd" clip-rule="evenodd"
              d="M16.9363 18.6H7.0638C6.68652 18.6 6.37212 18.5371 5.99481 18.3484C5.55464 18.1598 5.30311 17.8454 5.17734 17.5938C5.17734 17.5938 5.17734 17.5309 5.11446 17.5309C4.92581 17.2165 4.80005 16.8393 4.80005 16.3991C4.80005 16.0218 4.86293 15.6445 5.11446 15.2672L11.3398 4.57724C11.4656 4.32572 11.7171 4.19995 12.0315 4.19995C12.283 4.19995 12.5345 4.32572 12.7232 4.57724L18.8228 15.2672C18.9485 15.5187 19.2001 15.8331 19.2001 16.3362C19.2629 16.7764 19.1372 17.1537 18.9485 17.5309C18.7599 17.9083 18.4454 18.2227 18.0053 18.3484C17.628 18.5999 17.1878 18.6 16.9363 18.6ZM12.7861 17.0908H16.9363C17.1878 17.0908 17.3136 17.0908 17.3765 17.0279C17.5022 16.965 17.5651 16.9021 17.628 16.7764C17.6909 16.7135 17.6909 16.5877 17.6909 16.462C17.6909 16.3991 17.628 16.3362 17.5022 16.0847L12.7861 7.90999V17.0908ZM11.2769 17.0908V7.84711L6.49788 16.0847C6.435 16.2105 6.435 16.3362 6.435 16.462C6.435 16.5877 6.435 16.7135 6.49788 16.7764C6.56076 16.8392 6.56076 16.9021 6.62364 16.9021L6.68652 16.965C6.81228 17.0279 6.93804 17.0279 7.12668 17.0279H11.2769V17.0908Z"
              fill="#673F0F"/>
    </g>
    <defs>
        <clipPath id="clip0_2470_1240">
            <rect width="24" height="24" fill="white"/>
        </clipPath>
    </defs>
</svg>
