<svg width="40" height="40" viewBox="0 0 40 40" fill="none" xmlns="http://www.w3.org/2000/svg">
    <path d="M20 40C31.0457 40 40 31.0457 40 20C40 8.95431 31.0457 0 20 0C8.95431 0 0 8.95431 0 20C0 31.0457 8.95431 40 20 40Z"
          fill="#1A53F0"/>
    <path d="M16.064 22.7088C13.5098 22.7088 11.4392 24.7854 11.4392 27.347C11.4392 29.9086 13.51 31.9852 16.0642 31.9852C18.6184 31.9852 20.6891 29.9086 20.6891 27.347C20.6891 24.7854 18.6186 22.7088 16.0642 22.7088H16.064ZM16.064 30.5822C14.284 30.5822 12.8398 29.1346 12.8398 27.3486C12.8398 25.5626 14.2834 24.115 16.064 24.115C17.8446 24.115 19.2884 25.5626 19.2884 27.3486C19.2853 29.133 17.8436 30.58 16.064 30.5822ZM25.9412 12.815C23.387 12.815 21.3162 14.8916 21.3162 17.4532C21.3162 20.0148 23.387 22.0914 25.9412 22.0914C28.4953 22.0914 30.5662 20.0148 30.5662 17.4532C30.5662 14.8916 28.4957 12.8148 25.9413 12.8148L25.9412 12.815ZM25.9412 20.6884C24.1612 20.6884 22.7169 19.2408 22.7169 17.4548C22.7169 15.6688 24.1599 14.2212 25.9413 14.2212C27.7227 14.2212 29.1658 15.6688 29.1658 17.4548C29.1628 19.24 27.7199 20.6852 25.9413 20.6882L25.9412 20.6884ZM16.064 12.8148C13.8622 12.8134 11.964 14.3686 11.5264 16.5328C11.0888 18.697 12.2326 20.8706 14.26 21.73C15.2462 22.1443 16.3454 22.2048 17.3711 21.9014C18.3969 21.5979 19.2862 20.9492 19.8884 20.065C20.4906 19.1809 20.7686 18.1157 20.6752 17.0501C20.5819 15.9844 20.123 14.9838 19.3764 14.2178H20.6878V12.8148H16.064ZM19.2886 17.453C19.2886 19.2388 17.845 20.6866 16.0642 20.6866C14.2834 20.6866 12.84 19.2388 12.84 17.453C12.84 15.6672 14.2834 14.22 16.064 14.22C17.8446 14.22 19.287 15.6682 19.2902 17.4536H19.2886V17.453Z"
          fill="white"/>
</svg>
