<svg width="24" height="24" viewBox="0 0 24 24" fill="none" xmlns="http://www.w3.org/2000/svg">
    <g clip-path="url(#clip0_261_1632)">
        <path d="M12 24C18.6274 24 24 18.6274 24 12C24 5.37258 18.6274 0 12 0C5.37258 0 0 5.37258 0 12C0 18.6274 5.37258 24 12 24Z"
              fill="#8247E5"/>
        <path d="M15.7035 9.25054C15.4404 9.10111 15.1018 9.10111 14.801 9.25054L12.6957 10.4846L11.267 11.2695L9.19906 12.5044C8.93596 12.6538 8.59745 12.6538 8.29664 12.5044L6.6806 11.5323C6.54317 11.4518 6.42924 11.337 6.35009 11.1993C6.27093 11.0616 6.22928 10.9057 6.22925 10.7471V8.87669C6.22925 8.57755 6.37979 8.27841 6.6806 8.09149L8.29664 7.15686C8.55974 7.00715 8.89826 7.00715 9.19906 7.15686L10.8151 8.12898C10.9526 8.20945 11.0665 8.32423 11.1457 8.46195C11.2249 8.59966 11.2665 8.75555 11.2665 8.91418V10.1479L12.6951 9.32525V8.05427C12.6951 7.75513 12.5448 7.45599 12.244 7.26907L9.23649 5.51231C8.97339 5.3626 8.63515 5.3626 8.33434 5.51231L5.25112 7.30629C4.95031 7.45599 4.80005 7.75513 4.80005 8.05427V11.5686C4.80005 11.8678 4.95031 12.1661 5.25112 12.3538L8.29664 14.1115C8.55974 14.2612 8.89826 14.2612 9.19906 14.1115L11.267 12.9149L12.6957 12.0925L14.7636 10.8959C15.0267 10.7465 15.3652 10.7465 15.666 10.8959L17.2821 11.8308C17.4197 11.9114 17.5338 12.0263 17.6131 12.1643C17.6923 12.3022 17.7339 12.4583 17.7337 12.6172V14.4864C17.7337 14.7856 17.5834 15.0847 17.2826 15.2716L15.7035 16.2065C15.4404 16.356 15.1018 16.356 14.801 16.2065L13.185 15.2716C13.0476 15.1911 12.9337 15.0763 12.8546 14.9386C12.7755 14.8009 12.7339 14.645 12.7339 14.4864V13.2888L11.3044 14.1115V15.3452C11.3044 15.6444 11.455 15.9435 11.7558 16.1304L14.801 17.8877C15.0644 18.0375 15.4027 18.0375 15.7035 17.8877L18.749 16.1301C18.8864 16.0496 19.0003 15.9348 19.0794 15.7971C19.1585 15.6594 19.2001 15.5035 19.2 15.3449V11.7925C19.2 11.4934 19.0498 11.1942 18.749 11.0073L15.7035 9.25054Z"
              fill="#FAFAFA"/>
    </g>
    <defs>
        <clipPath id="clip0_261_1632">
            <rect width="24" height="24" fill="white"/>
        </clipPath>
    </defs>
</svg>
