<svg width="24" height="24" viewBox="0 0 24 24" fill="none" xmlns="http://www.w3.org/2000/svg">
    <circle cx="12" cy="12" r="12" fill="#FAFAFA"/>
    <path d="M14.3213 19.4979H9.51252L5.63244 16.6361L4.15356 12.0137L5.62926 7.39123L9.50934 4.52942H14.3213L18.2013 7.39123L19.677 12.0137L18.2013 16.6361L18.1473 16.6905L14.3213 19.4979ZM9.62065 19.165H14.2131L17.931 16.4152L19.3526 12.0137L17.931 7.61211L14.2131 4.86234H9.62065L5.90596 7.61211L4.48432 12.0137L5.90596 16.4152L9.62065 19.165Z"
          fill="#288BFF"/>
    <path d="M20.2273 18.7264L17.9851 16.6905L15.797 15.8646L11.9169 16.3608L7.98277 15.8646L5.79466 16.6905L5.68652 16.3608L7.92552 15.4805H7.98277L11.9169 16.0311L15.8542 15.4805L15.9083 15.5349L18.2045 16.4152L20.4435 18.5055L20.2273 18.7264Z"
          fill="#288BFF"/>
    <path d="M14.2131 19.6612L11.9169 16.4697L9.51252 19.6612L7.76331 15.7558L8.09089 15.5894L9.62065 19.0018L11.9169 15.8647L14.1591 19.0018L15.6888 15.5894L17.7656 11.4087L18.2586 16.5241H17.931L17.5462 12.6187L16.0164 15.7558L14.2131 19.6612Z"
          fill="#288BFF"/>
    <path d="M4.37305 11.8472H19.5689V12.1769H4.37305V11.8472Z" fill="#288BFF"/>
    <path d="M17.7656 12.6186L15.8542 8.82204L14.2131 12.3977L11.9169 8.27144L9.56658 12.3977L7.9255 8.82204L6.01409 12.6186L5.5752 7.55759L5.90596 7.50317L6.23354 11.463L7.9255 8.10819L9.56658 11.6838L11.9169 7.61201L14.1591 11.6838L15.8542 8.10819L17.5462 11.4085L17.8197 7.50317H18.1504L17.7656 12.6186Z"
          fill="#288BFF"/>
    <path d="M15.6888 8.54678L14.1591 5.07996L11.9169 8.27149L9.62065 5.07996L8.09088 8.54678L7.81737 8.38353L9.51251 4.42053L11.9169 7.66647L14.2131 4.42053L16.0164 8.38353L15.6888 8.54678ZM17.931 16.524L17.5462 12.6186L15.8542 16.031L14.1591 12.3977L11.9169 16.524L9.56658 12.3977L7.9255 16.031L6.23354 12.6186L5.90596 16.524H5.5752L6.01409 11.4086L7.9255 15.2595L9.56658 11.6839L11.9169 15.8101L14.2131 11.6839L15.8542 15.314L17.7656 11.4086L18.2586 16.524H17.931Z"
          fill="#288BFF"/>
    <path d="M15.8542 8.65886L11.8628 8.10827L7.92552 8.65886L5.68652 7.66651L5.79466 7.33679L7.98276 8.27152L11.8628 7.77855L15.8542 8.27152L17.9851 7.33679L18.1505 7.66651L15.8542 8.65886Z"
          fill="#288BFF"/>
    <path d="M9.56654 19.9908C9.92837 19.9908 10.2217 19.6956 10.2217 19.3314C10.2217 18.9672 9.92837 18.672 9.56654 18.672C9.2047 18.672 8.91138 18.9672 8.91138 19.3314C8.91138 19.6956 9.2047 19.9908 9.56654 19.9908Z"
          fill="#288BFF"/>
    <path d="M14.1589 19.9908C14.5208 19.9908 14.8141 19.6956 14.8141 19.3314C14.8141 18.9672 14.5208 18.672 14.1589 18.672C13.7971 18.672 13.5038 18.9672 13.5038 19.3314C13.5038 19.6956 13.7971 19.9908 14.1589 19.9908Z"
          fill="#288BFF"/>
    <path d="M9.56654 5.40969C9.92837 5.40969 10.2217 5.11445 10.2217 4.75025C10.2217 4.38606 9.92837 4.09082 9.56654 4.09082C9.2047 4.09082 8.91138 4.38606 8.91138 4.75025C8.91138 5.11445 9.2047 5.40969 9.56654 5.40969Z"
          fill="#288BFF"/>
    <path d="M14.1589 5.40969C14.5208 5.40969 14.8141 5.11445 14.8141 4.75025C14.8141 4.38606 14.5208 4.09082 14.1589 4.09082C13.7971 4.09082 13.5038 4.38606 13.5038 4.75025C13.5038 5.11445 13.7971 5.40969 14.1589 5.40969Z"
          fill="#288BFF"/>
    <path d="M17.9849 8.16262C18.3467 8.16262 18.64 7.86738 18.64 7.50318C18.64 7.13899 18.3467 6.84375 17.9849 6.84375C17.623 6.84375 17.3297 7.13899 17.3297 7.50318C17.3297 7.86738 17.623 8.16262 17.9849 8.16262Z"
          fill="#288BFF"/>
    <path d="M5.74049 8.16262C6.10232 8.16262 6.39565 7.86738 6.39565 7.50318C6.39565 7.13899 6.10232 6.84375 5.74049 6.84375C5.37865 6.84375 5.08533 7.13899 5.08533 7.50318C5.08533 7.86738 5.37865 8.16262 5.74049 8.16262Z"
          fill="#288BFF"/>
    <path d="M5.74049 17.2411C6.10232 17.2411 6.39565 16.9459 6.39565 16.5817C6.39565 16.2175 6.10232 15.9222 5.74049 15.9222C5.37865 15.9222 5.08533 16.2175 5.08533 16.5817C5.08533 16.9459 5.37865 17.2411 5.74049 17.2411Z"
          fill="#288BFF"/>
    <path d="M4.37293 12.673C4.73477 12.673 5.0281 12.3777 5.0281 12.0136C5.0281 11.6494 4.73477 11.3541 4.37293 11.3541C4.0111 11.3541 3.71777 11.6494 3.71777 12.0136C3.71777 12.3777 4.0111 12.673 4.37293 12.673Z"
          fill="#288BFF"/>
    <path d="M19.5148 12.673C19.8766 12.673 20.1699 12.3777 20.1699 12.0136C20.1699 11.6494 19.8766 11.3541 19.5148 11.3541C19.1529 11.3541 18.8596 11.6494 18.8596 12.0136C18.8596 12.3777 19.1529 12.673 19.5148 12.673Z"
          fill="#288BFF"/>
    <path d="M17.6574 12.673C18.0192 12.673 18.3125 12.3777 18.3125 12.0136C18.3125 11.6494 18.0192 11.3541 17.6574 11.3541C17.2955 11.3541 17.0022 11.6494 17.0022 12.0136C17.0022 12.3777 17.2955 12.673 17.6574 12.673Z"
          fill="#288BFF"/>
    <path d="M6.1222 12.673C6.48404 12.673 6.77736 12.3777 6.77736 12.0136C6.77736 11.6494 6.48404 11.3541 6.1222 11.3541C5.76037 11.3541 5.46704 11.6494 5.46704 12.0136C5.46704 12.3777 5.76037 12.673 6.1222 12.673Z"
          fill="#288BFF"/>
    <path d="M9.56654 12.673C9.92837 12.673 10.2217 12.3777 10.2217 12.0136C10.2217 11.6494 9.92837 11.3541 9.56654 11.3541C9.2047 11.3541 8.91138 11.6494 8.91138 12.0136C8.91138 12.3777 9.2047 12.673 9.56654 12.673Z"
          fill="#288BFF"/>
    <path d="M14.1589 12.673C14.5208 12.673 14.8141 12.3777 14.8141 12.0136C14.8141 11.6494 14.5208 11.3541 14.1589 11.3541C13.7971 11.3541 13.5038 11.6494 13.5038 12.0136C13.5038 12.3777 13.7971 12.673 14.1589 12.673Z"
          fill="#288BFF"/>
    <path d="M12.5635 8.04805C12.6215 7.68856 12.3789 7.34984 12.0218 7.29149C11.6646 7.23314 11.3281 7.47727 11.2701 7.83676C11.2122 8.19625 11.4547 8.53497 11.8119 8.59332C12.169 8.65166 12.5055 8.40754 12.5635 8.04805Z"
          fill="#288BFF"/>
    <path d="M7.9253 9.15175C8.28714 9.15175 8.58046 8.85651 8.58046 8.49232C8.58046 8.12812 8.28714 7.83289 7.9253 7.83289C7.56347 7.83289 7.27014 8.12812 7.27014 8.49232C7.27014 8.85651 7.56347 9.15175 7.9253 9.15175Z"
          fill="#288BFF"/>
    <path d="M15.8541 9.15175C16.216 9.15175 16.5093 8.85651 16.5093 8.49232C16.5093 8.12812 16.216 7.83289 15.8541 7.83289C15.4923 7.83289 15.199 8.12812 15.199 8.49232C15.199 8.85651 15.4923 9.15175 15.8541 9.15175Z"
          fill="#288BFF"/>
    <path d="M11.9168 16.8537C12.2786 16.8537 12.5719 16.5584 12.5719 16.1942C12.5719 15.83 12.2786 15.5348 11.9168 15.5348C11.5549 15.5348 11.2616 15.83 11.2616 16.1942C11.2616 16.5584 11.5549 16.8537 11.9168 16.8537Z"
          fill="#288BFF"/>
    <path d="M7.9253 16.3031C8.28714 16.3031 8.58046 16.0079 8.58046 15.6437C8.58046 15.2795 8.28714 14.9843 7.9253 14.9843C7.56347 14.9843 7.27014 15.2795 7.27014 15.6437C7.27014 16.0079 7.56347 16.3031 7.9253 16.3031Z"
          fill="#288BFF"/>
    <path d="M15.8541 16.3031C16.216 16.3031 16.5093 16.0079 16.5093 15.6437C16.5093 15.2795 16.216 14.9843 15.8541 14.9843C15.4923 14.9843 15.199 15.2795 15.199 15.6437C15.199 16.0079 15.4923 16.3031 15.8541 16.3031Z"
          fill="#288BFF"/>
    <path d="M20.3353 19.4978C20.8183 19.4978 21.2099 19.1037 21.2099 18.6175C21.2099 18.1313 20.8183 17.7372 20.3353 17.7372C19.8523 17.7372 19.4607 18.1313 19.4607 18.6175C19.4607 19.1037 19.8523 19.4978 20.3353 19.4978Z"
          fill="#288BFF"/>
</svg>
