<svg width="40" height="40" viewBox="0 0 40 40" fill="none" xmlns="http://www.w3.org/2000/svg">
    <circle cx="20" cy="20" r="20" fill="#fff"/>
    <path d="M31.852 10.152c-2.35-3.004-5.789-4.917-9.591-4.917-7.363 0-12.763 6.854-12.763 14.265 0 5.159 3.439 9.034 7.241 9.034.363 0 .702-.025 1.066-.097-2.567-1.865-4.19-5.256-4.19-8.937 0-5.86 3.972-10.438 8.646-10.438 5.11 0 8.646 5.061 8.646 10.438-.024 3.972-1.429 7.92-3.923 10.826-2.18 2.543-4.99 4.141-8.09 4.65 0 0 .267.024.606.024C28.05 35 35 28.05 35 19.5a15.31 15.31 0 0 0-3.148-9.348Zm-2.35 9.348c0-5.159-3.439-9.034-7.241-9.034-.363 0-.702.025-1.066.097 2.567 1.865 4.19 5.256 4.19 8.937 0 5.86-3.972 10.438-8.646 10.438-5.11 0-8.646-5.061-8.646-10.438.024-3.972 1.429-7.92 3.923-10.826 2.18-2.543 4.99-4.141 8.09-4.65 0 0-.267-.024-.606-.024C10.95 4 4 10.95 4 19.5a15.31 15.31 0 0 0 3.148 9.348c2.35 3.004 5.789 4.893 9.591 4.893 7.363.024 12.763-6.83 12.763-14.241Z"
          fill="#0089DB"/>
</svg>
