<svg width="40" height="40" fill="none" xmlns="http://www.w3.org/2000/svg">
    <path d="M20 40c11.046 0 20-8.954 20-20S31.046 0 20 0 0 8.954 0 20s8.954 20 20 20z" fill="url(#paint0_linear)"/>
    <path d="M14.832 16.285a.66.66 0 00-.517-.24h-4.19a.121.121 0 01-.09-.035.108.108 0 01-.035-.078v-2.82c0-.027.012-.053.035-.077a.121.121 0 01.09-.035h4.428c1.117 0 2.081.456 2.891 1.367l1.076 1.311-2.095 2.552-1.593-1.945zm7.738-1.931C23.38 13.45 24.348 13 25.475 13h4.413c.038 0 .065.01.084.028.019.02.028.047.028.085v2.82c0 .027-.01.054-.028.077-.019.023-.046.035-.084.035h-4.19a.66.66 0 00-.516.24l-3.087 3.75 3.1 3.778c.14.15.308.226.503.226h4.19c.038 0 .065.012.084.035a.144.144 0 01.028.092v2.82c0 .027-.01.053-.028.077-.019.023-.046.035-.084.035h-4.413c-1.127 0-2.09-.456-2.891-1.368l-2.57-3.13-2.57 3.13c-.81.912-1.778 1.368-2.905 1.368h-4.413c-.038 0-.066-.012-.084-.035a.142.142 0 01-.028-.092v-2.82a.12.12 0 01.028-.077c.018-.024.046-.036.084-.036h4.19c.195 0 .367-.08.516-.24l3.03-3.693 4.708-5.752z"
          fill="#00DCFF"/>
    <path d="M14.832 16.285a.66.66 0 00-.517-.24h-4.19a.121.121 0 01-.09-.035.108.108 0 01-.035-.078v-2.82c0-.027.012-.053.035-.077a.121.121 0 01.09-.035h4.428c1.117 0 2.081.456 2.891 1.367l1.076 1.311-2.095 2.552-1.593-1.945zm7.738-1.931C23.38 13.45 24.348 13 25.475 13h4.413c.038 0 .065.01.084.028.019.02.028.047.028.085v2.82c0 .027-.01.054-.028.077-.019.023-.046.035-.084.035h-4.19a.66.66 0 00-.516.24l-3.087 3.75 3.1 3.778c.14.15.308.226.503.226h4.19c.038 0 .065.012.084.035a.144.144 0 01.028.092v2.82c0 .027-.01.053-.028.077-.019.023-.046.035-.084.035h-4.413c-1.127 0-2.09-.456-2.891-1.368l-2.57-3.13-2.57 3.13c-.81.912-1.778 1.368-2.905 1.368h-4.413c-.038 0-.066-.012-.084-.035a.142.142 0 01-.028-.092v-2.82a.12.12 0 01.028-.077c.018-.024.046-.036.084-.036h4.19c.195 0 .367-.08.516-.24l3.03-3.693 4.708-5.752z"
          fill="#00D1FF"/>
    <defs>
        <linearGradient id="paint0_linear" x1="20" y1="0" x2="20" y2="40" gradientUnits="userSpaceOnUse">
            <stop stop-color="#08021E"/>
            <stop offset="1" stop-color="#0F043A"/>
        </linearGradient>
    </defs>
</svg>
