<svg width="40" height="40" fill="none" xmlns="http://www.w3.org/2000/svg">
    <circle cx="20" cy="20" r="20" fill="#000"/>
    <path d="M22.046 24.825c0 .237-.003.373 0 .51.041 2.328-.064 4.653-.109 6.98-.007.354-.019.709.109 1.053.17.462.536.696 1.04.617.465-.074.74-.386.752-.832.012-.515-.154-1.021-.21-1.538-.051-.484-.201-.98-.227-1.467-.106-1.886-.026-3.775-.026-5.664 0-.517.212-.837.64-1.11 1.052-.666 2.102-1.332 3.2-1.923 2.467-1.331 4.865-2.81 7.597-3.589.279-.08.53-.225.733-.422.242-.232.467-.496.454-.864-.019-.629-.646-.889-1.387-.563-.406.177-.795.397-1.198.582-.629.287-.902.124-.967-.57-.012-.14.007-.283.012-.426.038-.909.093-1.82.11-2.731.016-.789-.558-1.154-1.297-.853-.354.145-.636.395-.878.679-.252.294-.527.401-.933.367-1.027-.086-1.567.432-1.621 1.45-.057 1.083-.126 2.165-.181 3.248-.016.294-.111.647.219.82.34.179.657-.01.947-.197.273-.175.38-.454.416-.76.068-.552-.02-1.108.09-1.668.156-.78.15-1.603.855-2.165.222-.174.45-.315.732-.203.283.112.214.386.209.603-.025.852-.06 1.703-.102 2.554-.018.372.034.706.418.964-2.692 1.448-5.316 2.912-7.835 4.49 0-.768-.02-1.495.003-2.222.042-1.205.272-2.399.268-3.61 0-.528-.323-.762-.834-.616-.534.153-.62.584-.643 1.047-.062 1.19-.199 2.373-.353 3.555-.058.44-.191.831-.637 1.036-.463.212-.78.085-.781-.411-.002-.84-.04-1.684.274-2.508.203-.528.66-.875.845-1.395.054-.15.128-.31 0-.454-.134-.154-.304-.154-.489-.091-.186.062-.366.118-.537.225-.638.4-1.014.994-1.246 1.677-.389 1.15-.366 2.348-.299 3.536.037.685.49 1.038 1.186 1.03.49-.007.945-.134 1.361-.4.092-.056.168-.203.335-.093-.043.32.108.655-.281.932-2.437 1.734-4.846 3.506-7.133 5.433-1.13.953-2.274 1.891-3.239 3.02-.306.356-.281.745.042 1.048.326.305.746.34 1.125.066.23-.164.418-.385.615-.59 1.158-1.202 2.284-2.441 3.577-3.502 1.474-1.208 2.982-2.37 4.48-3.548.229-.18.484-.327.799-.537zM9.08 24.9c-.208-.328-.244-.672-.28-1.018-.05-.48-.145-.956-.178-1.435-.059-.854-.41-1.641-.51-2.488-.126-1.054-.333-2.098-.52-3.145-.07-.384-.237-.716-.693-.766-.435-.049-.741.163-.876.55a406.861 406.861 0 00-1.986 5.777c-.155.463.18.8.667.735.32-.043.498-.234.607-.525.289-.76.575-1.519.886-2.27.044-.105.066-.327.248-.294.143.027.169.203.2.342.372 1.698.593 3.42.85 5.138.246 1.646.557 3.28.888 4.91.073.354.223.664.643.662.41-.001.65-.246.735-.644.025-.12.065-.24.083-.361.32-2.282.628-4.566.959-6.846.112-.783.274-1.56.418-2.34.325-1.77.985-3.444 1.486-5.163.387-1.323.767-2.645 1.32-3.918.565-1.304 1.037-2.633 2.176-3.598.615-.521.625-1.419.105-1.872-.603-.527-1.34-.42-1.908.27-.207.249-.357.53-.473.827-1.003 2.556-2.053 5.096-2.777 7.75-.556 2.037-1.132 4.07-1.48 6.157-.198 1.188-.393 2.376-.59 3.565zm6.21-2.065l.016.001c0 .319-.014.64.003.958.028.539.273.682.781.479.534-.212.816-.586.826-1.177.012-.585.057-1.169.095-1.754.05-.811.31-1.518 1.03-1.99.176-.115.366-.223.47-.423.138-.272.163-.537-.045-.794-.209-.258-.446-.157-.675-.055-.374.167-.743.33-1.153.403-.696.122-1.028.463-1.099 1.174-.102 1.058-.168 2.119-.249 3.178zm-2.94 1.756h-.016c0 .302-.016.605.005.906.012.196.083.379.318.438.328.08 1.066-.412 1.107-.756.118-.948.185-1.902.327-2.849.093-.637.221-1.286.175-1.946-.04-.556-.303-.72-.811-.463-.651.329-.857.92-.905 1.586-.075 1.028-.133 2.056-.2 3.084zm12.493-5.3c-.021.313-.044.64.39.673.536.04 1.198-.632 1.137-1.16-.059-.517.083-1.015.112-1.521.047-.825.147-1.649.175-2.475.014-.472-.254-.613-.702-.444-.49.187-.703.576-.751 1.066-.126 1.286-.242 2.574-.361 3.86zm-11.462-1.874c-.038.33.212.627.489.52.447-.174.869-.427 1.066-.906.149-.363-.092-.73-.434-.7-.458.042-1.071.636-1.121 1.086zm12.88-4.509c.373-.007 1.023-.654 1.02-1.026-.004-.28-.175-.403-.44-.422-.447-.034-.929.32-1.07.792-.118.393.084.665.49.656z"
          fill="#fff"/>
</svg>
