<svg width="24" height="24" viewBox="0 0 24 24" fill="none" xmlns="http://www.w3.org/2000/svg">
    <g clip-path="url(#clip0_2470_1241)">
        <path fill-rule="evenodd" clip-rule="evenodd"
              d="M0.292725 12C0.292725 18.4659 5.5342 23.7074 12 23.7074C18.4659 23.7074 23.7077 18.4659 23.7077 12C23.7077 5.5342 18.4659 0.292725 12 0.292725C5.5342 0.292725 0.292725 5.5342 0.292725 12Z"
              fill="#0C0C4F"/>
        <path fill-rule="evenodd" clip-rule="evenodd"
              d="M6.56744 9.42525L6.85644 8.53239C6.91515 8.35081 7.0585 8.2095 7.24073 8.15377L8.13798 7.87783C8.26219 7.8399 8.26319 7.6647 8.13997 7.62478L7.24682 7.33578C7.06553 7.27701 6.92422 7.13371 6.8682 6.95143L6.59261 6.05418C6.55468 5.93032 6.37948 5.92897 6.3395 6.05254L6.0505 6.9454C5.99179 7.12663 5.84844 7.26794 5.66618 7.32402L4.76895 7.59961C4.64476 7.63783 4.64342 7.81274 4.76694 7.85266L5.66013 8.14166C5.84139 8.20043 5.98272 8.34407 6.03874 8.52636L6.31433 9.4232C6.35226 9.54741 6.52746 9.54876 6.56744 9.42525Z"
              fill="#FAFAFA"/>
        <path fill-rule="evenodd" clip-rule="evenodd"
              d="M20.7489 8.90553C20.379 8.49191 19.8017 8.25899 19.2405 8.16352C18.6747 8.07179 18.0816 8.08028 17.5231 8.1795C16.3931 8.37068 15.3666 8.83856 14.4713 9.41573C14.0063 9.69905 13.6098 10.0268 13.199 10.3606C13.0011 10.5294 12.8206 10.7093 12.6326 10.8865L12.1191 11.3974C11.5611 11.9807 11.0111 12.5119 10.479 12.9523C9.9447 13.3906 9.44515 13.7234 8.95291 13.9559C8.46091 14.1896 7.93449 14.327 7.24838 14.349C6.56831 14.373 5.76363 14.2503 4.90294 14.0477C4.03762 13.846 3.12895 13.5584 2.11353 13.311C2.46783 14.294 3.00137 15.1626 3.68637 15.9566C4.37941 16.7368 5.24481 17.448 6.35652 17.9157C7.45215 18.3938 8.82905 18.5654 10.1165 18.3064C11.4073 18.058 12.5402 17.4606 13.4558 16.7699C14.3738 16.072 15.1165 15.277 15.7426 14.4506C15.9154 14.2222 16.0069 14.0944 16.132 13.916L16.4776 13.4039C16.7179 13.0871 16.9366 12.7264 17.1744 12.4126C17.6406 11.7553 18.1002 11.0988 18.6344 10.494C18.9033 10.1872 19.1866 9.89374 19.5213 9.61177C19.6882 9.47409 19.8686 9.3394 20.0683 9.21805C20.2711 9.08717 20.4852 8.98473 20.7489 8.90553Z"
              fill="url(#paint0_linear_2470_1241)"/>
        <path fill-rule="evenodd" clip-rule="evenodd"
              d="M20.7488 8.9053C20.3514 7.90257 19.6128 7.05853 18.6212 6.4357C17.6357 5.81973 16.2669 5.50538 14.9105 5.77335C14.2405 5.90296 13.5913 6.15244 13.0215 6.48469C12.4544 6.81566 11.9462 7.214 11.5063 7.64143C11.2867 7.8558 11.0873 8.07946 10.8893 8.30442L10.3759 8.95886L9.58311 10.0123C8.57236 11.3678 7.48393 12.9563 5.69778 13.427C3.94427 13.8891 3.18374 13.4799 2.11353 13.3108C2.30921 13.816 2.55161 14.3066 2.88022 14.7383C3.20271 15.1787 3.58362 15.5923 4.0572 15.9468C4.29652 16.1171 4.5492 16.2851 4.82983 16.4277C5.10918 16.5654 5.41044 16.6866 5.73199 16.7778C6.37162 16.9531 7.09168 17.0145 7.7889 16.9202C8.48649 16.8272 9.15322 16.6061 9.73601 16.3125C10.3231 16.0217 10.8345 15.6676 11.2911 15.2937C12.1989 14.5399 12.9051 13.7069 13.5015 12.8649C13.8015 12.444 14.0738 12.0151 14.3257 11.586L14.6221 11.0753C14.7127 10.926 14.8044 10.7758 14.8975 10.6359C15.2731 10.0737 15.6405 9.62301 16.0867 9.28473C16.5268 8.93767 17.1395 8.68128 17.9583 8.62169C18.7737 8.56145 19.715 8.67279 20.7488 8.9053Z"
              fill="#FAFAFA"/>
        <path fill-rule="evenodd" clip-rule="evenodd"
              d="M16.3376 17.2363C16.3376 17.9728 16.935 18.5701 17.6714 18.5701C18.4079 18.5701 19.0045 17.9728 19.0045 17.2363C19.0045 16.4999 18.4079 15.9026 17.6714 15.9026C16.935 15.9026 16.3376 16.4999 16.3376 17.2363Z"
              fill="#EC796B"/>
    </g>
    <defs>
        <linearGradient id="paint0_linear_2470_1241" x1="20.6492" y1="8.55366" x2="-9.80549" y2="24.3986"
                        gradientUnits="userSpaceOnUse">
            <stop stop-color="#EC796B"/>
            <stop offset="1" stop-color="#D672EF"/>
        </linearGradient>
        <clipPath id="clip0_2470_1241">
            <rect width="24" height="24" fill="white"/>
        </clipPath>
    </defs>
</svg>
