<svg width="40" height="40" viewBox="0 0 40 40" fill="none" xmlns="http://www.w3.org/2000/svg">
    <circle cx="20" cy="20" r="20" fill="white"/>
    <path d="M11.7766 8.49365L33.5276 23.501L28.1483 31.5364L6.39732 16.4109L11.7766 8.49365Z"
          fill="url(#paint0_linear)"/>
    <path d="M33.5286 23.5011C31.6575 26.2189 25.3427 25.1554 19.3787 20.9014C13.2978 16.7655 10.0234 11.2116 11.7775 8.49374C13.6486 5.77588 19.9634 6.83939 25.9274 11.0934C32.0083 15.1111 35.2827 20.7832 33.5286 23.5011Z"
          fill="url(#paint1_linear)"/>
    <path d="M28.1493 31.4183C26.2782 34.1362 19.9634 33.0727 13.9994 28.8186C8.03543 24.5646 4.64414 19.1288 6.51519 16.2928C8.38625 13.575 14.7011 14.6385 20.665 18.8925C26.629 23.1466 29.9034 28.7004 28.1493 31.4183Z"
          fill="url(#paint2_linear)"/>
    <path d="M33.5285 23.501L28.1493 31.5364C26.2782 34.2543 19.9634 33.0726 13.9994 28.9367C12.83 28.1096 11.7775 27.2824 10.7251 26.3371C11.5436 26.2189 12.5961 25.7462 13.6486 24.5645C15.5196 22.5557 16.4552 22.083 17.2738 22.2012C18.0923 22.2012 19.0279 23.0284 20.5481 25.0372C22.0683 27.0461 24.1733 27.6369 25.4596 26.5734C25.5766 26.4552 25.6935 26.4552 25.8104 26.3371C26.8629 25.5099 27.2137 25.1554 29.2017 21.374C29.6695 20.4287 31.3067 18.8925 33.5285 19.6015C34.1132 21.1377 34.1132 22.4375 33.5285 23.501Z"
          fill="#0E0F23"/>
    <path fill-rule="evenodd" clip-rule="evenodd"
          d="M32.71 23.0284C31.0728 25.3918 25.3427 24.2101 19.8465 20.3106C14.2333 16.411 10.959 11.448 12.5961 9.08462C14.2333 6.72126 19.9634 7.90294 25.4596 11.8025C30.9559 15.702 34.2302 20.6651 32.71 23.0284ZM27.5646 19.4834C26.746 20.6651 23.9394 20.0742 21.1328 18.1835C18.4432 16.2929 16.806 13.8113 17.6246 12.6297C18.4432 11.448 21.2498 12.0388 24.0563 13.9295C26.746 15.8202 28.3832 18.3017 27.5646 19.4834Z"
          fill="white"/>
    <path d="M11.3098 11.2114C11.3098 11.0933 11.1928 10.9751 11.0759 11.0933C10.959 11.2114 10.842 11.2114 10.842 11.3296C10.959 11.6841 11.0759 11.9204 11.0759 12.1568C11.0759 12.2749 11.1928 12.3931 11.3098 12.2749C11.4267 12.2749 11.5437 12.1568 11.4267 12.0386C11.4267 11.8023 11.4267 11.5659 11.3098 11.2114Z"
          fill="white"/>
    <path d="M11.8945 13.1024C11.8945 12.9842 11.7775 12.8661 11.6606 12.9842C11.5437 13.1024 11.5437 13.1024 11.5437 13.2206C12.83 16.1748 15.5196 19.3653 19.0279 21.7287C19.1448 21.8468 19.2618 21.7287 19.3787 21.7287C19.4956 21.6105 19.3787 21.4923 19.3787 21.3742C15.7535 19.0108 13.1808 15.9384 11.8945 13.1024Z"
          fill="white"/>
    <path d="M26.0443 24.6827C25.9274 24.6827 25.8104 24.6827 25.8104 24.8009C25.8104 24.9191 25.8104 25.0372 25.9274 25.0372C26.2782 25.1554 26.746 25.2736 27.0968 25.3917C27.2137 25.3917 27.3307 25.3917 27.3307 25.2736C27.3307 25.1554 27.3307 25.0372 27.2137 25.0372C26.8629 24.9191 26.3952 24.8009 26.0443 24.6827Z"
          fill="white"/>
    <path d="M28.1493 25.1555C28.0323 25.1555 27.9154 25.2737 27.9154 25.3919C27.9154 25.51 28.0323 25.6282 28.1493 25.6282C29.0848 25.7464 30.1373 25.8645 30.9558 25.7464C31.0728 25.7464 31.1897 25.6282 31.1897 25.51C31.1897 25.3919 31.0728 25.2737 30.9558 25.2737C30.0203 25.3919 29.0848 25.2737 28.1493 25.1555Z"
          fill="white"/>
    <defs>
        <linearGradient id="paint0_linear" x1="16.0382" y1="6.35989" x2="20.4354" y2="21.3026"
                        gradientUnits="userSpaceOnUse">
            <stop stop-color="#03B8FF"/>
            <stop offset="1" stop-color="#FA52A0"/>
        </linearGradient>
        <linearGradient id="paint1_linear" x1="19.5913" y1="5.31456" x2="23.9886" y2="20.2574"
                        gradientUnits="userSpaceOnUse">
            <stop stop-color="#03B8FF"/>
            <stop offset="1" stop-color="#FA52A0"/>
        </linearGradient>
        <linearGradient id="paint2_linear" x1="12.4979" y1="7.40198" x2="16.8952" y2="22.3448"
                        gradientUnits="userSpaceOnUse">
            <stop stop-color="#03B8FF"/>
            <stop offset="1" stop-color="#FA52A0"/>
        </linearGradient>
    </defs>
</svg>
