<svg width="40" height="40" viewBox="0 0 40 40" fill="none" xmlns="http://www.w3.org/2000/svg">
    <path d="M20 40C31.0457 40 40 31.0457 40 20C40 8.9543 31.0457 0 20 0C8.9543 0 0 8.9543 0 20C0 31.0457 8.9543 40 20 40Z"
          fill="white"/>
    <path d="M32.7639 14.0788C31.6295 13.2853 30.4164 12.4394 29.2295 11.6001C29.2033 11.5804 29.177 11.5607 29.1443 11.5411C29.0131 11.4427 28.8623 11.3378 28.6787 11.2788L28.6656 11.2722C25.4918 10.505 22.2656 9.7181 19.1443 8.95745C16.3115 8.26892 13.4852 7.5804 10.6525 6.89187C10.5803 6.8722 10.5082 6.85253 10.4295 6.83286C10.1738 6.76073 9.87869 6.68204 9.56393 6.72138C9.47213 6.7345 9.39344 6.76728 9.32131 6.81319L9.24262 6.87876C9.11803 6.99679 9.05246 7.14761 9.01967 7.23286L9 7.28532V7.58696L9.01311 7.63286C10.8033 12.6493 12.6393 17.7378 14.4098 22.6624C15.7738 26.4525 17.1902 30.3804 18.5738 34.2361C18.659 34.4984 18.9016 34.6689 19.2033 34.6952H19.2689C19.5508 34.6952 19.8 34.5574 19.9246 34.3345L25.118 26.7607C26.3836 24.9181 27.6492 23.0689 28.9148 21.2263C29.4328 20.4722 29.9508 19.7115 30.4688 18.9574C31.3213 17.7115 32.2 16.4263 33.0721 15.1738L33.118 15.1083V15.0296C33.1377 14.8001 33.1443 14.3279 32.7639 14.0788ZM26.6787 16.8394C25.459 17.4755 24.2131 18.1312 22.9607 18.7804C23.6885 18.0001 24.4229 17.2132 25.1508 16.4329C26.0623 15.4493 27.0131 14.4329 27.9443 13.4361L27.9639 13.4165C28.0426 13.3115 28.141 13.2132 28.2459 13.1083C28.318 13.0361 28.3967 12.964 28.4688 12.8788C28.9541 13.2132 29.4459 13.5542 29.918 13.8886C30.259 14.1312 30.6066 14.3738 30.9607 14.6165C29.518 15.3509 28.0754 16.105 26.6787 16.8394ZM23.5443 16.5247C22.6066 17.5411 21.6361 18.5837 20.6721 19.6132C18.8033 17.3443 16.8951 15.0427 15.0459 12.8197C14.2066 11.8099 13.3607 10.7935 12.5213 9.78368L12.5148 9.77712C12.3246 9.56073 12.141 9.32466 11.9574 9.10171C11.8393 8.95089 11.7148 8.80663 11.5902 8.65581C12.3508 8.85253 13.118 9.03614 13.8721 9.21319C14.5344 9.37056 15.2229 9.5345 15.8984 9.70499C19.7016 10.6296 23.5115 11.5542 27.3148 12.4788C26.0492 13.8296 24.777 15.2001 23.5443 16.5247ZM20.2459 29.305C20.318 28.6165 20.3967 27.9083 20.4623 27.2132C20.5213 26.6558 20.5803 26.0853 20.6393 25.5411C20.7311 24.6689 20.8295 23.764 20.9082 22.8788L20.9279 22.7214C20.9934 22.1574 21.059 21.5738 21.0984 20.9902C21.1705 20.9509 21.2492 20.9115 21.3344 20.8788C21.4328 20.8329 21.5311 20.7935 21.6295 20.7345C23.1443 19.9411 24.659 19.1476 26.1803 18.3607C27.6951 17.5738 29.2492 16.7607 30.7902 15.9542C29.3869 17.987 27.977 20.0394 26.6131 22.0394C25.4393 23.7509 24.2328 25.5148 23.0328 27.2525C22.5607 27.9476 22.0689 28.6558 21.6033 29.3378C21.0787 30.0984 20.541 30.8788 20.0164 31.6591C20.082 30.8722 20.1607 30.0788 20.2459 29.305ZM11.1049 10.2033C11.0197 9.96728 10.9279 9.72466 10.8492 9.49515C12.6197 11.6329 14.4033 13.7837 16.141 15.8689C17.0393 16.9509 17.9377 18.0263 18.8361 19.1148C19.0131 19.3181 19.1902 19.5345 19.3607 19.7443C19.5836 20.0132 19.8066 20.2952 20.0492 20.564C19.9705 21.2394 19.9049 21.9214 19.8328 22.5771C19.7869 23.0361 19.741 23.4952 19.6885 23.9607V23.9673C19.6689 24.2624 19.6295 24.5574 19.5967 24.846C19.5508 25.246 19.4459 26.1509 19.4459 26.1509L19.4393 26.1968C19.3213 27.5214 19.177 28.8591 19.0393 30.1574C18.9803 30.6952 18.9279 31.246 18.8689 31.7968C18.8361 31.6984 18.7967 31.6001 18.7639 31.5083C18.6656 31.246 18.5672 30.9706 18.4754 30.7017L17.7738 28.7542C15.5508 22.5706 13.3279 16.3935 11.1049 10.2033Z"
          fill="#FF4242"/>
</svg>
