<svg width="40" height="40" viewBox="0 0 40 40" fill="none" xmlns="http://www.w3.org/2000/svg">
    <circle cx="20" cy="20" r="20" fill="#E82127"/>
    <path d="M20.0588 33L23.4324 14.036C26.6481 14.036 27.6624 14.3884 27.8088 15.827C27.8088 15.827 29.966 15.023 31.054 13.3903C26.8083 11.4239 22.5424 11.3353 22.5424 11.3353L20.0532 14.3656L20.0588 14.3652L17.5695 11.3348C17.5695 11.3348 13.3035 11.4236 9.05843 13.3899C10.1455 15.0227 12.3035 15.8266 12.3035 15.8266C12.4508 14.3879 13.4639 14.0355 16.6579 14.0332L20.0588 33Z"
          fill="white"/>
    <path d="M20.0574 10.4599C23.4894 10.4337 27.4178 10.9906 31.4392 12.7424C31.9767 11.7755 32.1148 11.3482 32.1148 11.3482C27.7188 9.60983 23.602 9.01492 20.0569 9C16.512 9.01492 12.3954 9.60993 8 11.3482C8 11.3482 8.19609 11.8746 8.67518 12.7424C12.6958 10.9906 16.6248 10.4337 20.0569 10.4599H20.0574Z"
          fill="white"/>
</svg>
