<svg width="40" height="40" fill="none" xmlns="http://www.w3.org/2000/svg">
    <path d="M20 40c11.046 0 20-8.954 20-20S31.046 0 20 0 0 8.954 0 20s8.954 20 20 20Z" fill="#3375BB"/>
    <path fill-rule="evenodd" clip-rule="evenodd"
          d="M19.25 7.292a1.254 1.254 0 0 1 1.608 0c3.41 2.847 7.297 2.825 8.802 2.817l.207-.001a1.254 1.254 0 0 1 1.254 1.273c-.071 4.72-.26 8.088-.631 10.557-.371 2.467-.94 4.158-1.857 5.432-.923 1.283-2.11 2.011-3.373 2.71l-.67.365c-1.11.602-2.342 1.27-3.805 2.32a1.254 1.254 0 0 1-1.462 0c-1.462-1.049-2.693-1.717-3.8-2.318-.23-.125-.454-.246-.674-.368-1.262-.698-2.447-1.427-3.368-2.71-.915-1.274-1.482-2.965-1.851-5.432C9.26 19.469 9.07 16.1 9 11.381a1.254 1.254 0 0 1 1.254-1.273h.205c1.492.01 5.38.031 8.79-2.816Zm-7.719 5.316c.084 4.023.267 6.875.58 8.957.343 2.296.828 3.534 1.407 4.34.573.798 1.324 1.303 2.545 1.979.2.11.409.224.63.343.938.51 2.069 1.122 3.36 1.992 1.295-.87 2.427-1.484 3.368-1.994.219-.119.428-.232.626-.341 1.223-.676 1.976-1.181 2.55-1.98.58-.807 1.067-2.044 1.412-4.34.313-2.081.497-4.933.581-8.955-1.93-.063-5.331-.461-8.536-2.768-3.201 2.304-6.597 2.705-8.523 2.768Z"
          fill="#fff"/>
</svg>
