<svg width="40" height="40" fill="none" xmlns="http://www.w3.org/2000/svg">
    <path d="M20 40c11.046 0 20-8.954 20-20S31.046 0 20 0 0 8.954 0 20s8.954 20 20 20z" fill="#FF4A4A"/>
    <path d="M23.676 23.512h-1.1a.374.374 0 01-.373-.372v-2.898l-1.93 1.207a.5.5 0 01-.53 0l-1.93-1.207v2.898a.373.373 0 01-.375.372h-1.1a.373.373 0 01-.373-.372v-5.586a.499.499 0 01.78-.41l3.051 2.084a.375.375 0 00.423 0l3.05-2.084a.499.499 0 01.781.41v5.586a.375.375 0 01-.374.372zM14.308 23.463H7.496A.496.496 0 017 22.967v-5.596A.371.371 0 017.372 17h1.095a.372.372 0 01.372.371v4.257h4.127v-4.257a.372.372 0 01.373-.371h1.094a.371.371 0 01.372.371v5.597a.496.496 0 01-.496.495M25.69 17h6.814a.496.496 0 01.496.495v5.597a.37.37 0 01-.372.371h-1.095a.37.37 0 01-.373-.371v-4.01a.248.248 0 00-.248-.247h-3.63a.248.248 0 00-.248.247v4.01a.37.37 0 01-.372.371h-1.095a.372.372 0 01-.372-.371v-5.597A.496.496 0 0125.69 17z"
          fill="#fff"/>
    <path d="M28.177 20.401v1.102a.37.37 0 00.373.369h1.094a.37.37 0 00.373-.369v-1.102a.368.368 0 00-.373-.369H28.55a.371.371 0 00-.373.37"
          fill="#fff"/>
</svg>
