<svg width="40" height="40" fill="none" xmlns="http://www.w3.org/2000/svg">
    <path d="M20 40c11.046 0 20-8.954 20-20S31.046 0 20 0 0 8.954 0 20s8.954 20 20 20z" fill="url(#paint0_linear)"/>
    <g style="mix-blend-mode:darken">
        <path d="M15.919 9.749c-.314-.048-.327-.054-.18-.077.283-.043.95.016 1.41.124 1.074.254 2.05.902 3.093 2.054l.277.306.397-.064c1.669-.266 3.367-.054 4.788.597.39.179 1.006.536 1.084.627.024.03.069.217.1.418.105.694.052 1.225-.162 1.623-.116.216-.123.284-.044.47a.457.457 0 00.409.256c.353 0 .733-.567.909-1.354l.07-.313.138.155c.76.854 1.357 2.02 1.46 2.848l.026.216-.128-.196c-.22-.338-.44-.568-.723-.754-.51-.335-1.049-.449-2.477-.523-1.289-.068-2.019-.177-2.742-.41-1.231-.4-1.852-.93-3.314-2.833-.65-.845-1.051-1.313-1.45-1.69-.908-.856-1.8-1.305-2.941-1.48z"
              fill="#F50579"/>
        <path d="M27.078 11.636c.033-.566.11-.94.266-1.281a1.37 1.37 0 01.128-.246c.009 0-.018.1-.06.222-.113.331-.131.784-.053 1.311.099.669.155.765.867 1.488.335.338.723.766.864.95l.256.333-.256-.239c-.313-.291-1.034-.86-1.193-.94-.107-.056-.122-.054-.188.01-.061.06-.074.15-.082.576-.013.663-.104 1.089-.324 1.514-.12.23-.138.181-.03-.079.08-.194.088-.279.088-.92-.002-1.29-.156-1.6-1.061-2.132-.23-.134-.607-.329-.84-.431-.232-.103-.417-.192-.41-.199.025-.025.908.23 1.264.366.528.202.615.228.68.204.043-.017.063-.141.084-.507zM16.527 13.843c-.636-.869-1.03-2.201-.945-3.197l.027-.308.144.026c.272.05.741.222.96.355.603.363.864.84 1.13 2.068.077.36.179.766.226.904.076.221.36.74.593 1.075.167.243.056.357-.313.324-.565-.05-1.33-.574-1.822-1.247zM26.306 20.31c-2.973-1.188-4.02-2.219-4.02-3.958 0-.256.01-.466.02-.466s.126.085.256.188c.602.48 1.277.685 3.146.955 1.1.16 1.719.288 2.29.476 1.814.597 2.937 1.808 3.204 3.458.078.48.033 1.38-.094 1.853-.099.374-.403 1.049-.484 1.075-.022.007-.044-.078-.05-.194-.03-.62-.346-1.222-.876-1.674-.602-.514-1.412-.923-3.392-1.714zM24.22 20.803c-.037-.22-.102-.501-.144-.625L24 19.954l.141.157c.195.217.35.495.48.865.1.283.11.367.11.826 0 .45-.013.544-.105.799-.145.4-.326.685-.628.99-.543.548-1.24.852-2.248.978-.175.021-.686.058-1.135.081-1.13.059-1.875.18-2.544.412-.096.034-.182.054-.19.046-.027-.027.428-.296.804-.476.53-.254 1.058-.392 2.241-.587.584-.097 1.188-.214 1.341-.26 1.447-.44 2.19-1.577 1.953-2.982z"
              fill="#F50579"/>
        <path d="M25.583 23.203c-.395-.842-.486-1.655-.27-2.414.024-.08.06-.147.083-.147.023 0 .116.05.207.111.182.122.548.326 1.52.852 1.214.657 1.906 1.165 2.376 1.746.412.508.667 1.088.79 1.794.07.4.029 1.363-.075 1.765-.326 1.27-1.084 2.268-2.166 2.85-.158.086-.3.156-.316.156-.016 0 .042-.145.128-.323.364-.755.405-1.489.13-2.306-.168-.5-.512-1.11-1.205-2.142-.806-1.2-1.004-1.519-1.202-1.942zM14.417 27.748c1.103-.924 2.475-1.58 3.726-1.782.539-.087 1.436-.052 1.935.075.8.203 1.516.657 1.888 1.2.363.529.52.99.682 2.017.064.405.134.812.155.904.122.533.359.958.653 1.172.467.339 1.272.36 2.063.054.135-.053.251-.088.26-.08.028.028-.37.293-.651.432-.379.187-.68.26-1.08.26-.724 0-1.326-.366-1.828-1.112-.099-.147-.321-.586-.494-.977-.53-1.2-.792-1.565-1.407-1.965-.536-.348-1.227-.41-1.747-.157-.682.332-.873 1.197-.384 1.746.195.218.557.406.853.442a.908.908 0 001.031-.905c0-.36-.14-.566-.491-.724-.48-.215-.997.037-.994.484 0 .191.084.31.277.398.124.055.127.06.026.039-.44-.091-.544-.618-.19-.968.426-.42 1.306-.235 1.608.339.127.24.141.72.03 1.01-.247.648-.97.989-1.701.803-.5-.126-.702-.263-1.304-.877-1.044-1.068-1.45-1.275-2.956-1.508l-.289-.045.329-.275z"
              fill="#F50579"/>
        <path fill-rule="evenodd" clip-rule="evenodd"
              d="M9.514 8.639c3.489 4.2 5.892 5.934 6.16 6.3.22.303.137.575-.241.788-.21.118-.642.238-.858.238-.245 0-.329-.093-.329-.093-.142-.134-.221-.11-.95-1.393a220.677 220.677 0 00-1.88-2.869c-.053-.05-.052-.048 1.777 3.2.296.676.06.925.06 1.021 0 .196-.055.3-.299.57-.406.45-.588.955-.72 2-.146 1.174-.56 2.002-1.706 3.42-.67.83-.78.982-.95 1.317-.213.42-.271.657-.295 1.189-.025.562.024.926.197 1.463.151.471.31.782.714 1.404.35.536.55.935.55 1.091 0 .124.024.125.566.003 1.295-.29 2.346-.8 2.938-1.425.366-.387.452-.601.454-1.131.002-.347-.01-.42-.105-.62-.154-.324-.434-.595-1.051-1.013-.809-.549-1.154-.99-1.25-1.598-.078-.498.013-.85.46-1.78.463-.964.578-1.374.656-2.345.05-.627.12-.874.301-1.073.19-.207.36-.277.829-.34.764-.104 1.25-.3 1.651-.666.347-.317.492-.623.514-1.083l.017-.35-.194-.224C15.829 13.829 9.043 8 9 8c-.009 0 .222.287.514.639zm1.625 16.324a.614.614 0 00-.191-.813c-.251-.165-.641-.087-.641.129 0 .065.037.113.12.156.139.07.149.15.039.314-.11.165-.102.311.025.41.205.16.496.071.648-.196zM17.207 17.145c-.359.11-.708.487-.816.883-.066.241-.028.664.07.795.16.211.314.267.731.264.817-.006 1.528-.353 1.61-.788.068-.356-.244-.85-.674-1.067-.221-.112-.693-.156-.921-.087zm.955.742c.126-.178.071-.37-.143-.5-.409-.247-1.026-.043-1.026.34 0 .19.322.398.617.398.197 0 .465-.116.552-.238z"
              fill="#F50579"/>
    </g>
    <defs>
        <linearGradient id="paint0_linear" x1="20" y1="0" x2="20" y2="40" gradientUnits="userSpaceOnUse">
            <stop stop-color="#FCFCFE"/>
            <stop offset="1" stop-color="#FCDCEB"/>
        </linearGradient>
    </defs>
</svg>
