<svg width="40" height="40" viewBox="0 0 40 40" fill="none" xmlns="http://www.w3.org/2000/svg">
    <mask id="mask0" mask-type="alpha" maskUnits="userSpaceOnUse" x="0" y="0" width="40" height="40">
        <circle cx="20" cy="20" r="20" fill="#A6A6A6"/>
    </mask>
    <g mask="url(#mask0)">
        <rect x="20" width="20" height="5" fill="white"/>
        <rect x="20" y="5" width="20" height="5" fill="#D10009"/>
        <rect x="20" y="10" width="20" height="5" fill="white"/>
        <rect x="20" y="15" width="20" height="5" fill="#D10009"/>
        <rect y="20" width="40" height="5" fill="white"/>
        <rect y="25" width="40" height="5" fill="#D10009"/>
        <rect y="30" width="40" height="5" fill="white"/>
        <rect y="35" width="40" height="5" fill="#D10009"/>
        <rect width="20" height="20" fill="#0021BC"/>
        <path d="M16 14L16.449 15.382H17.9021L16.7265 16.2361L17.1756 17.618L16 16.7639L14.8244 17.618L15.2735 16.2361L14.0979 15.382H15.551L16 14Z"
              fill="white"/>
        <path d="M13 11L13.449 12.382H14.9021L13.7265 13.2361L14.1756 14.618L13 13.7639L11.8244 14.618L12.2735 13.2361L11.0979 12.382H12.551L13 11Z"
              fill="white"/>
        <path d="M7 11L7.44903 12.382H8.90211L7.72654 13.2361L8.17557 14.618L7 13.7639L5.82443 14.618L6.27346 13.2361L5.09789 12.382H6.55097L7 11Z"
              fill="white"/>
        <path d="M4 8L4.44903 9.38197H5.90211L4.72654 10.2361L5.17557 11.618L4 10.7639L2.82443 11.618L3.27346 10.2361L2.09789 9.38197H3.55097L4 8Z"
              fill="white"/>
        <path d="M7 5L7.44903 6.38197H8.90211L7.72654 7.23607L8.17557 8.61803L7 7.76393L5.82443 8.61803L6.27346 7.23607L5.09789 6.38197H6.55097L7 5Z"
              fill="white"/>
        <path d="M10 2L10.449 3.38197H11.9021L10.7265 4.23607L11.1756 5.61803L10 4.76393L8.82443 5.61803L9.27346 4.23607L8.09789 3.38197H9.55097L10 2Z"
              fill="white"/>
        <path d="M13 -1L13.449 0.381966H14.9021L13.7265 1.23607L14.1756 2.61803L13 1.76393L11.8244 2.61803L12.2735 1.23607L11.0979 0.381966H12.551L13 -1Z"
              fill="white"/>
        <path d="M1 11L1.44903 12.382H2.90211L1.72654 13.2361L2.17557 14.618L1 13.7639L-0.17557 14.618L0.273458 13.2361L-0.902113 12.382H0.550972L1 11Z"
              fill="white"/>
        <path d="M10 8L10.449 9.38197H11.9021L10.7265 10.2361L11.1756 11.618L10 10.7639L8.82443 11.618L9.27346 10.2361L8.09789 9.38197H9.55097L10 8Z"
              fill="white"/>
        <path d="M13 5L13.449 6.38197H14.9021L13.7265 7.23607L14.1756 8.61803L13 7.76393L11.8244 8.61803L12.2735 7.23607L11.0979 6.38197H12.551L13 5Z"
              fill="white"/>
        <path d="M16 8L16.449 9.38197H17.9021L16.7265 10.2361L17.1756 11.618L16 10.7639L14.8244 11.618L15.2735 10.2361L14.0979 9.38197H15.551L16 8Z"
              fill="white"/>
        <path d="M16 2L16.449 3.38197H17.9021L16.7265 4.23607L17.1756 5.61803L16 4.76393L14.8244 5.61803L15.2735 4.23607L14.0979 3.38197H15.551L16 2Z"
              fill="white"/>
        <path d="M10 14L10.449 15.382H11.9021L10.7265 16.2361L11.1756 17.618L10 16.7639L8.82443 17.618L9.27346 16.2361L8.09789 15.382H9.55097L10 14Z"
              fill="white"/>
        <path d="M4 14L4.44903 15.382H5.90211L4.72654 16.2361L5.17557 17.618L4 16.7639L2.82443 17.618L3.27346 16.2361L2.09789 15.382H3.55097L4 14Z"
              fill="white"/>
    </g>
</svg>
