<svg width="40" height="40" viewBox="0 0 40 40" fill="none" xmlns="http://www.w3.org/2000/svg">
    <path d="M20 40C31.0834 40 40 31.0834 40 20C40 8.9166 31.0834 0 20 0C8.9166 0 0 8.9166 0 20C0 31.0834 8.9166 40 20 40Z"
          fill="#2775CA"/>
    <path d="M25 22.5933C25 19.5436 23.2761 18.498 19.8283 18.0623C17.3656 17.7137 16.8731 17.0167 16.8731 15.7967C16.8731 14.5766 17.6941 13.7926 19.3358 13.7926C20.8134 13.7926 21.6344 14.3154 22.0448 15.6225C22.1269 15.8839 22.3732 16.0581 22.6195 16.0581H23.9328C24.2612 16.0581 24.5075 15.7967 24.5075 15.4483V15.361C24.179 13.444 22.7014 11.9627 20.8134 11.7885V9.69723C20.8134 9.34862 20.5671 9.08721 20.1568 9H18.9254C18.597 9 18.3507 9.26141 18.2686 9.69723V11.7013C15.8059 12.0499 14.2463 13.7926 14.2463 15.9711C14.2463 18.8466 15.888 19.9792 19.3358 20.415C21.6344 20.8507 22.3732 21.3735 22.3732 22.7677C22.3732 24.162 21.2238 25.1204 19.6642 25.1204C17.5297 25.1204 16.7909 24.1618 16.5447 22.8547C16.4627 22.5063 16.2164 22.3319 15.9702 22.3319H14.5745C14.2463 22.3319 14 22.5933 14 22.9419V23.0291C14.3282 25.2074 15.6417 26.7759 18.3507 27.2117V29.303C18.3507 29.6514 18.597 29.9128 19.0074 30H20.2387C20.5671 30 20.8134 29.7386 20.8956 29.303V27.2117C23.3583 26.7759 25 24.946 25 22.5933Z"
          fill="white"/>
    <path d="M15.7615 32.1387C9.27908 29.7111 5.9547 22.1677 8.36496 15.4912C9.61158 11.8496 12.3541 9.07509 15.7615 7.77451C16.094 7.60117 16.2601 7.34105 16.2601 6.90738V5.69358C16.2601 5.34668 16.094 5.08657 15.7615 5C15.6783 5 15.5122 5 15.429 5.08657C7.53381 7.68773 3.21214 16.4451 5.70537 24.6821C7.20132 29.5375 10.775 33.266 15.429 34.8267C15.7615 35 16.094 34.8267 16.177 34.4798C16.2601 34.3932 16.2601 34.3064 16.2601 34.1331V32.9191C16.2601 32.6589 16.0108 32.3123 15.7615 32.1387ZM24.571 5.08657C24.2385 4.91322 23.906 5.08657 23.823 5.43346C23.7399 5.52023 23.7399 5.6068 23.7399 5.78035V6.99416C23.7399 7.34105 23.9892 7.68774 24.2385 7.86129C30.7209 10.2889 34.0453 17.8323 31.635 24.5088C30.3884 28.1504 27.6459 30.9249 24.2385 32.2255C23.906 32.3988 23.7399 32.659 23.7399 33.0926V34.3064C23.7399 34.6533 23.906 34.9134 24.2385 35C24.3217 35 24.4878 35 24.571 34.9134C32.4662 32.3123 36.7879 23.5549 34.2946 15.3179C32.7987 10.3757 29.1418 6.64727 24.571 5.08657Z"
          fill="white"/>
</svg>
