<svg width="40" height="40" viewBox="0 0 40 40" fill="none" xmlns="http://www.w3.org/2000/svg">
    <circle cx="20" cy="20" r="20" fill="#00A478"/>
    <path d="M17.7656 19.3812V14.812H11.6354V10.8069H28.7656V14.8684H22.6354V19.3812H17.7656Z" fill="white"/>
    <path fill-rule="evenodd" clip-rule="evenodd"
          d="M9 19.7688C9 18.3119 13.9016 17.1248 20 17.1248C26.0984 17.1248 31 18.3119 31 19.7688C31 21.2256 26.0984 22.4127 20 22.4127C13.9016 22.4127 9 21.2256 9 19.7688ZM30.0881 19.7688C29.6892 19.2293 26.3835 17.5565 20.0001 17.5565C13.6166 17.5565 10.3109 19.1753 9.91197 19.7688C10.3109 20.3084 13.6166 21.1178 20.0001 21.1178C26.4405 21.1178 29.6892 20.3084 30.0881 19.7688Z"
          fill="white"/>
    <path d="M22.6354 20.7915V17.6325C21.8333 17.5761 20.974 17.5197 20.1146 17.5197C19.3125 17.5197 18.5117 17.5197 17.7669 17.5761V20.7351C18.4722 20.8456 19.3224 20.8668 20.1146 20.8668C20.9068 20.8668 21.8333 20.8479 22.6354 20.7915Z"
          fill="white"/>
    <path d="M20 22.6421C19.1979 22.6421 18.5104 22.62 17.7656 22.5636V31.0018H22.5781V22.5402C21.776 22.5966 20.8594 22.6421 20 22.6421Z"
          fill="white"/>
</svg>
