<svg width="40" height="40" fill="none" xmlns="http://www.w3.org/2000/svg">
    <path d="M20 40c11.046 0 20-8.954 20-20S31.046 0 20 0 0 8.954 0 20s8.954 20 20 20z" fill="url(#paint0_linear)"/>
    <path d="M18.457 30.833L9.048 11.668A.465.465 0 019.464 11h3.26c.175 0 .34.099.416.252l6.872 13.904c.613 1.247 2.384 1.247 2.997 0l6.85-13.893a.468.468 0 01.416-.252h.404c.241 0 .394.252.285.46l-9.508 19.362c-.613 1.246-2.386 1.246-2.998 0z"
          fill="#fff"/>
    <path opacity=".1"
          d="M18.457 30.832l-5.317-19.57a.452.452 0 00-.394-.252H9.475c-.361 0-.569.361-.427.668l9.41 19.154z"
          fill="#fff"/>
    <path opacity=".1"
          d="M20.01 25.166L9.048 11.668c-.13-.317.066-.635.372-.668h3.315a.49.49 0 01.394.252l6.883 13.914z"
          fill="#fff"/>
    <defs>
        <linearGradient id="paint0_linear" x1="20" y1="0" x2="20" y2="40" gradientUnits="userSpaceOnUse">
            <stop stop-color="#599FEA"/>
            <stop offset="1" stop-color="#22B2F9"/>
        </linearGradient>
    </defs>
</svg>
