<svg width="24" height="24" viewBox="0 0 24 24" fill="none" xmlns="http://www.w3.org/2000/svg">
<g clip-path="url(#clip0_1825_2569)">
<mask id="mask0_1825_2569" style="mask-type:luminance" maskUnits="userSpaceOnUse" x="0" y="0" width="24" height="24">
<path d="M0 0H24V24H0V0Z" fill="white"/>
</mask>
<g mask="url(#mask0_1825_2569)">
<path d="M0 12C0 5.37257 5.37257 0 12 0C18.6274 0 24 5.37257 24 12C24 18.6274 18.6274 24 12 24C5.37257 24 0 18.6274 0 12Z" fill="#BEBEBE"/>
<path d="M9.10506 9.23772H15.0125L14.1511 6.92643C14.1176 6.8316 14.0564 6.74902 13.9753 6.68943L9.10506 9.23772ZM9.08877 6.49443C9.29792 5.93215 9.7582 5.57129 10.2656 5.57129H13.7589C14.2663 5.57129 14.7266 5.93215 14.9362 6.49443L15.7976 8.80572C16.0552 9.49915 15.6382 10.2856 15.0125 10.2856H9.01249C8.38677 10.2856 7.96977 9.49915 8.2282 8.80572L9.08963 6.49443H9.08877ZM4.3852 15.2377H10.2811L9.41963 12.9264C9.38613 12.8316 9.32491 12.749 9.24392 12.6894L4.3852 15.2377ZM4.36849 12.4944C4.57849 11.9321 5.03877 11.5713 5.54577 11.5713H9.02749C9.53492 11.5713 9.99606 11.9321 10.2048 12.4944L11.0662 14.8057C11.3242 15.4991 10.9076 16.2856 10.2811 16.2856H4.29177C3.66606 16.2856 3.24906 15.4991 3.50749 14.8057L4.36849 12.4944ZM19.7499 15.2377H13.8142L18.7128 12.6899C18.7899 12.7439 18.8512 12.8253 18.8898 12.9269L19.7499 15.2377ZM14.9756 11.5713C14.4678 11.5713 14.0071 11.9321 13.7979 12.4944L12.9369 14.8057C12.6785 15.4991 13.0955 16.2856 13.7216 16.2856H19.7503C20.3761 16.2856 20.7931 15.4991 20.5346 14.8057L19.6732 12.4944C19.4653 11.9321 19.0051 11.5713 18.4976 11.5713H14.9756Z" fill="white"/>
</g>
</g>
<defs>
<clipPath id="clip0_1825_2569">
<rect width="24" height="24" fill="white"/>
</clipPath>
</defs>
</svg>
