<svg width="40" height="40" viewBox="0 0 40 40" fill="none" xmlns="http://www.w3.org/2000/svg">
    <circle cx="20" cy="20" r="20" fill="url(#paint0_radial)"/>
    <path d="M25.3621 19.6697L23.6868 14.4204C23.6483 14.2982 23.5717 14.1915 23.4682 14.1159C23.3648 14.0402 23.2399 13.9996 23.1117 14H16.8883C16.7601 13.9996 16.6352 14.0402 16.5318 14.1159C16.4283 14.1915 16.3517 14.2982 16.3132 14.4204L14.6379 19.6697H25.3621Z"
          fill="#5E5E5E"/>
    <path d="M28.7497 20.0725H22.5262C22.398 20.0722 22.2731 20.1129 22.1697 20.1886C22.0662 20.2643 21.9896 20.3711 21.9511 20.4933L20.2759 25.7427H31L29.3247 20.4933C29.2862 20.3711 29.2096 20.2643 29.1062 20.1886C29.0028 20.1129 28.8778 20.0722 28.7497 20.0725Z"
          fill="#5E5E5E"/>
    <path d="M18.0489 20.4933C18.0104 20.3711 17.9338 20.2643 17.8303 20.1886C17.7269 20.1129 17.602 20.0722 17.4738 20.0725H11.2503C11.1222 20.0722 10.9972 20.1129 10.8938 20.1886C10.7904 20.2643 10.7138 20.3711 10.6753 20.4933L9 25.7427H19.7241L18.0489 20.4933Z"
          fill="#5E5E5E"/>
    <defs>
        <radialGradient id="paint0_radial" cx="0" cy="0" r="1" gradientUnits="userSpaceOnUse"
                        gradientTransform="translate(9 7) rotate(52.3344) scale(36.0035)">
            <stop stop-color="#EAEAEA"/>
            <stop offset="1" stop-color="#CBCBCB"/>
        </radialGradient>
    </defs>
</svg>
