<svg width="24" height="24" viewBox="0 0 24 24" fill="none" xmlns="http://www.w3.org/2000/svg">
<g clip-path="url(#clip0_1825_2568)">
<path d="M0 12C0 5.37257 5.37257 0 12 0C18.6274 0 24 5.37257 24 12C24 18.6274 18.6274 24 12 24C5.37257 24 0 18.6274 0 12Z" fill="#D69A00"/>
<path d="M9.10701 9.23772H15.0144L14.153 6.92643C14.1195 6.8316 14.0583 6.74902 13.9773 6.68943L9.10701 9.23772ZM9.09073 6.49443C9.29987 5.93215 9.76016 5.57129 10.2676 5.57129H13.7609C14.2683 5.57129 14.7286 5.93215 14.9382 6.49443L15.7992 8.80572C16.0576 9.49915 15.6402 10.2856 15.0144 10.2856H9.01444C8.38873 10.2856 7.97173 9.49915 8.22973 8.80572L9.09116 6.49443H9.09073ZM4.38716 15.2377H10.283L9.42159 12.9264C9.38808 12.8316 9.32687 12.749 9.24587 12.6894L4.38716 15.2377ZM4.37044 12.4944C4.58001 11.9321 5.04073 11.5713 5.54773 11.5713H9.02944C9.53687 11.5713 9.99758 11.9321 10.2067 12.4944L11.0677 14.8057C11.3262 15.4991 10.9092 16.2856 10.283 16.2856H4.29373C3.66801 16.2856 3.25101 15.4991 3.50944 14.8057L4.37044 12.4944ZM19.7519 15.2377H13.8162L18.7147 12.6899C18.7914 12.7439 18.8532 12.8253 18.8917 12.9269L19.7523 15.2377H19.7519ZM14.9772 11.5713C14.4697 11.5713 14.009 11.9321 13.7999 12.4944L12.9389 14.8057C12.6804 15.4991 13.0974 16.2856 13.7236 16.2856H19.7523C20.378 16.2856 20.795 15.4991 20.5366 14.8057L19.6752 12.4944C19.4673 11.9321 19.007 11.5713 18.4996 11.5713H14.9772Z" fill="white"/>
</g>
<defs>
<clipPath id="clip0_1825_2568">
<rect width="24" height="24" fill="white"/>
</clipPath>
</defs>
</svg>
