<svg width="40" height="40" viewBox="0 0 40 40" fill="none" xmlns="http://www.w3.org/2000/svg">
    <circle cx="20" cy="20" r="20" fill="black"/>
    <path d="M6.99908 12.37C8.74991 11.3569 10.5827 10.5634 12.5106 9.98966C15.1369 9.20932 17.8025 8.84211 20.5402 8.89457C21.8123 8.9208 23.9304 9.12736 24.2878 9.26506C24.3009 9.29129 24.2746 9.30769 24.2451 9.30769C24.1238 9.36343 23.9861 9.40277 23.8615 9.45851C21.6058 10.4028 20.0057 12.3864 19.5402 14.793C19.4713 15.1897 19.432 15.5864 19.4189 15.9832C19.4057 16.5864 19.35 17.1864 19.173 17.7733C18.5697 19.8947 16.8352 21.5471 14.6877 22.0422C11.868 22.6816 9.02205 21.2881 7.79253 18.675C7.72367 18.5242 7.67121 18.3733 7.64171 18.2225C7.43515 17.334 7.2876 16.4455 7.17613 15.5405C7.05482 14.5438 6.98596 13.5438 6.98596 12.5471C6.99908 12.4782 6.99908 12.4389 6.99908 12.37Z"
          fill="#F6A832"/>
    <path d="M27.1311 28.7661C27.1573 28.5071 27.1868 28.2743 27.1999 28.0284C27.2688 26.6743 26.9803 25.389 26.3376 24.1988C25.7212 23.0644 24.8589 22.1595 23.754 21.4775C23.6589 21.4086 23.5474 21.3562 23.4524 21.2873C21.9343 20.3299 21.0032 18.9758 20.6753 17.2119C20.0884 14.0381 22.0851 10.9757 25.2163 10.2216C26.3245 9.96263 27.4032 9.98886 28.4852 10.3298C29.3737 10.6053 30.2229 10.9725 31.0688 11.3692C31.6557 11.6446 32.2164 11.943 32.7803 12.2577C32.8492 12.3004 32.9016 12.3266 32.9869 12.379C32.9869 12.4348 33 12.4741 33 12.5299C33 13.2545 32.9574 13.9922 32.9049 14.7168C32.8098 15.7824 32.6459 16.8512 32.4262 17.8906C31.7541 20.9824 30.5672 23.8414 28.8426 26.4939C28.3639 27.2316 27.8458 27.9431 27.2983 28.6284C27.2426 28.671 27.213 28.7235 27.1311 28.7661Z"
          fill="#69B2E5"/>
    <path d="M19.995 34.8864C19.7884 34.8044 19.1622 34.4208 18.49 33.9716C16.9982 32.9749 15.6179 31.824 14.3588 30.5388C13.1031 29.2502 11.9818 27.8437 11.0211 26.3256C10.1195 24.9158 9.36863 23.4403 8.76535 21.8797C8.75223 21.8371 8.73912 21.8108 8.72272 21.742C8.79158 21.7846 8.81781 21.7977 8.86043 21.8239C9.33912 22.1944 9.84405 22.5092 10.3916 22.7387C11.09 23.0403 11.8146 23.2469 12.5785 23.3125C14.1228 23.4633 15.572 23.1485 16.9425 22.3813C17.654 21.9846 18.4212 21.7256 19.2277 21.6141C22.0868 21.26 24.9327 22.9551 25.8212 25.9092C26.2737 27.4273 26.136 28.9027 25.4376 30.3421C25.3425 30.5322 25.2606 30.7125 25.1622 30.8896C25.1065 30.9978 25.0409 31.1093 24.9425 31.1912C23.4966 32.5617 21.9097 33.765 20.1884 34.7782C20.1195 34.8175 20.0507 34.8601 19.995 34.8864Z"
          fill="#19C4B3"/>
</svg>
