<svg width="40" height="40" viewBox="0 0 40 40" fill="none" xmlns="http://www.w3.org/2000/svg">
    <circle cx="20" cy="20" r="20" fill="white"/>
    <path d="M20.0001 0C8.95605 0 2.61688e-05 8.956 2.61688e-05 20C-0.00345806 22.1466 0.341009 24.2796 1.02003 26.316H7.00005V9.488L20.0001 22.488L33.0001 9.488V26.316H38.9801C39.6569 24.2791 40.0013 22.1464 40.0001 20C40.0001 8.956 31.0441 0 20.0001 0Z"
          fill="#FA6800"/>
    <path d="M17.012 25.48L11.336 19.804V30.392H2.90799C6.41999 36.152 12.76 40 20 40C27.24 40 33.58 36.152 37.088 30.392H28.66V19.804L22.988 25.48L20 28.468L17.012 25.48Z"
          fill="#4C4C4C"/>
</svg>
