<svg width="40" height="40" viewBox="0 0 40 40" fill="none" xmlns="http://www.w3.org/2000/svg">
    <path d="M20 40C31.0385 40 40 31.0396 40 20.0026C40 8.96561 31.0437 0 20 0C8.95632 0 0 8.96038 0 19.9974C0 31.0344 8.96155 40 20 40Z"
          fill="#2C71D2"/>
    <path d="M22.9372 34.7275C20.8344 34.7275 19.3017 34.2358 18.3393 33.221C17.3768 32.2062 16.9112 31.1443 16.9112 29.9726C16.9112 29.5594 16.9897 29.1932 17.1728 28.9056C17.3297 28.6179 17.5599 28.3877 17.8476 28.2308C18.1353 28.0739 18.4962 27.9692 18.9147 27.9692C19.3331 27.9692 19.6941 28.0477 19.9818 28.2308C20.2694 28.3877 20.4996 28.6179 20.6565 28.9056C20.8135 29.1932 20.9181 29.5542 20.9181 29.9726C20.9181 30.4905 20.7873 30.909 20.5519 31.2176C20.3165 31.5314 20.0079 31.7616 19.6679 31.8662C19.9556 32.2533 20.4211 32.541 21.0436 32.7241C21.6661 32.9071 22.2885 32.9856 22.9163 32.9856C23.8003 32.9856 24.5797 32.7502 25.2806 32.2847C25.9815 31.8191 26.4994 31.1182 26.8394 30.208C27.1794 29.2979 27.3311 28.2622 27.3311 27.0905C27.3311 25.8194 27.148 24.7523 26.7871 23.8683C26.4209 22.9581 25.9031 22.2833 25.2021 21.8701C24.5012 21.4307 23.748 21.2215 22.9163 21.2215C22.3722 21.2215 21.7236 21.4569 20.9181 21.8962L19.4534 22.5972V21.8701L26.0757 13.0405H16.9112V22.2101C16.9112 22.9633 17.0682 23.5858 17.4029 24.0827C17.743 24.5744 18.2608 24.8098 18.9356 24.8098C19.4796 24.8098 19.9765 24.6267 20.4682 24.2658C20.9599 23.8997 21.3784 23.4603 21.7393 22.9686C21.7916 22.864 21.8439 22.7855 21.8962 22.7593C21.9747 22.707 22.027 22.6809 22.1055 22.6809C22.2362 22.6809 22.367 22.7332 22.5449 22.864C22.7018 23.047 22.7802 23.251 22.7802 23.4864C22.7802 23.591 22.7279 23.748 22.7018 23.952C22.3356 24.8098 21.8178 25.4584 21.143 25.8978C20.4682 26.3372 19.7411 26.5726 18.9356 26.5726C16.9374 26.5726 15.5826 26.1855 14.8032 25.4061C14.05 24.6267 13.6629 23.5597 13.6629 22.2363V13.0405H8.98653V11.3247H13.6891V7.42778L12.622 6.36069V5.47668H15.7395L16.906 6.073V11.2986L29.0363 11.2724L30.229 12.4651L22.8064 19.9242C23.2458 19.7411 23.7166 19.6365 24.2083 19.5842C25.0138 19.5842 25.924 19.8458 26.9074 20.3636C27.9222 20.8553 28.7016 21.5562 29.2456 22.4403C29.7896 23.3243 30.1557 24.156 30.3127 24.9615C30.4696 25.7671 30.5742 26.468 30.5742 27.1166C30.5742 28.5446 30.2603 29.868 29.664 31.092C29.0677 32.3108 28.1576 33.2471 26.9126 33.8435C25.6886 34.4398 24.3652 34.7275 22.9372 34.7275Z"
          fill="white"/>
</svg>
