<svg width="40" height="40" fill="none" xmlns="http://www.w3.org/2000/svg">
    <path d="M20 40c11.046 0 20-8.954 20-20S31.046 0 20 0 0 8.954 0 20s8.954 20 20 20z" fill="#006AE3"/>
    <path d="M19.176 28.432v-16.64h1.812v16.64h-1.812z" fill="#fff"/>
    <path d="M28.4 17.336l-5.596 1.484-1.248-5.808 1.664-.376.656 2.752s1.512-2.48-.504-5.048c-1.188-1.32-1.752-1.376-3.084-1.584-1.172-.168-3.896.228-4.708 3.408-.344 2.048.044 3.564 2.684 5.548l-.148 2.208s-2.948-2.076-3.708-3.532c-.588-1.152-1.596-3.428.224-6.596.98-1.584 2.912-3.104 6.316-2.944 1.712.072 5.892 2.164 5.244 7.052-.112.916-.588 2.136-.588 2.136l2.296-.512.5 1.812zM25.204 30.356c-1.024 1.556-2.996 3.024-6.392 2.776-1.712-.116-5.832-2.32-5.056-7.188.136-.912.644-2.116.644-2.116l-2.308.448-.452-1.82 5.636-1.336 1.096 5.84-1.676.332-.584-2.772s-1.576 2.436.368 5.06c1.152 1.352 1.712 1.42 3.044 1.664 1.164.2 3.9-.128 4.796-3.284.396-2.036.048-3.564-2.536-5.62l.208-2.204s2.892 2.152 3.612 3.628c.552 1.172 1.5 3.476-.4 6.592z"
          fill="#fff"/>
</svg>
