<svg width="40" height="40" viewBox="0 0 40 40" fill="none" xmlns="http://www.w3.org/2000/svg">
    <circle cx="20" cy="20" r="20" fill="#13A3D7"/>
    <path d="M11.8064 19.9732V9.28003L17.799 9.29476L23.7916 9.30949L24.3042 9.43558C26.7896 10.0469 28.6126 11.606 29.5047 13.8832C29.7194 14.4314 29.9164 15.3195 29.9525 15.9028L29.982 16.3785H28.1713H26.3606L26.3325 16.1508C26.2388 15.394 25.9958 14.7911 25.5602 14.2352C25.1246 13.6791 24.4691 13.2283 23.7428 12.9852L23.3522 12.8545L19.4101 12.8409L15.4679 12.8273V19.9728V27.1183H17.2742H19.0805V28.8923V30.6663H15.4435H11.8064V19.9732Z"
          fill="white"/>
    <path d="M21.8144 28.9065V27.1329L22.4613 27.1006C22.8171 27.0829 23.2472 27.0363 23.4173 26.9971C24.4609 26.7565 25.4715 25.9728 25.9421 25.0391C26.3358 24.258 26.3216 24.3812 26.342 21.5686L26.3602 19.0635H28.1667H29.9731L29.9547 21.7844L29.9363 24.5053L29.81 25.0087C29.455 26.4235 28.839 27.5061 27.8187 28.5082C26.9905 29.3216 26.0753 29.8877 24.9954 30.2548C24.189 30.5289 23.6581 30.62 22.681 30.6518L21.8144 30.68V28.9065Z"
          fill="white"/>
</svg>
