<svg width="40" height="40" viewBox="0 0 40 40" fill="none" xmlns="http://www.w3.org/2000/svg">
    <circle cx="20" cy="20" r="20" fill="#FFC630"/>
    <path fill-rule="evenodd" clip-rule="evenodd"
          d="M20 35.5556C28.5911 35.5556 35.5556 28.5911 35.5556 20C35.5556 11.4089 28.5911 4.44445 20 4.44445C11.4089 4.44445 4.44445 11.4089 4.44445 20C4.44445 28.5911 11.4089 35.5556 20 35.5556ZM20 37.7778C29.8184 37.7778 37.7778 29.8184 37.7778 20C37.7778 10.1816 29.8184 2.22223 20 2.22223C10.1816 2.22223 2.22223 10.1816 2.22223 20C2.22223 29.8184 10.1816 37.7778 20 37.7778Z"
          fill="#191B1E"/>
    <path d="M18.7995 24.9778H27.4655V29.3325H22.1296C22.2164 30.5785 22.2642 31.7334 22.351 32.9752H17.8617V29.3759H12.5258C12.5258 27.9518 12.3477 26.5321 12.6126 25.1992C12.7472 24.4871 13.5461 23.8663 14.0367 23.2454C15.7256 21.2439 17.4145 19.2901 19.1468 17.2886C19.8155 16.5332 20.4797 15.8211 21.2352 14.9788H12.9252V10.6241H17.8574V6.98145H22.1687V10.5373H27.548C27.548 12.0048 27.726 13.4245 27.4612 14.7618C27.3266 15.4738 26.5277 16.0947 25.9937 16.7155C24.3048 18.717 22.6158 20.6708 20.8835 22.6723C20.2236 23.4668 19.5593 24.1745 18.7995 24.9778Z"
          fill="#191B1E"/>
</svg>
