<svg width="24" height="24" viewBox="0 0 24 24" fill="none" xmlns="http://www.w3.org/2000/svg">
    <g clip-path="url(#clip0_2470_4206)">
        <circle cx="12" cy="12" r="12" fill="black"/>
        <path d="M11.9968 5.09998C11.4785 5.10256 10.9658 5.20776 10.4879 5.4096C10.0101 5.61143 9.57646 5.90596 9.21183 6.27631C8.84719 6.64666 8.55869 7.0856 8.36279 7.56806C8.16689 8.05053 8.06745 8.56707 8.07012 9.08818V10.4055H11.2606V8.49697C11.2605 8.40733 11.2781 8.31858 11.3122 8.23576C11.3463 8.15294 11.3963 8.07769 11.4593 8.01431C11.5223 7.95092 11.5971 7.90066 11.6795 7.86637C11.7619 7.83207 11.8502 7.81443 11.9393 7.81445H12.0543C12.1435 7.81443 12.2318 7.83207 12.3141 7.86637C12.3965 7.90066 12.4713 7.95092 12.5344 8.01431C12.5974 8.07769 12.6474 8.15294 12.6815 8.23576C12.7156 8.31858 12.7332 8.40733 12.7332 8.49697V13.6133C13.1522 13.6133 13.5671 13.5304 13.9541 13.3692C14.3412 13.208 14.6929 12.9717 14.9892 12.6738C15.2855 12.3759 15.5205 12.0223 15.6808 11.6331C15.8411 11.2439 15.9236 10.8268 15.9236 10.4055V9.08818C15.9259 8.03234 15.5124 7.01851 14.7734 6.26829C14.4109 5.89807 13.9786 5.60411 13.5019 5.40353C13.0252 5.20295 12.5136 5.09976 11.9968 5.09998Z"
              fill="#F2F2F2"/>
        <path d="M12.0545 16.2032H11.9395C11.8503 16.2032 11.7621 16.1855 11.6797 16.1513C11.5973 16.117 11.5225 16.0667 11.4595 16.0033C11.3965 15.94 11.3465 15.8647 11.3124 15.7819C11.2783 15.6992 11.2607 15.6104 11.2607 15.5208V10.4045C10.8417 10.4044 10.4269 10.4873 10.0397 10.6485C9.65265 10.8097 9.30093 11.046 9.00466 11.3439C8.70839 11.6418 8.47338 11.9954 8.31306 12.3846C8.15273 12.7738 8.07024 13.191 8.07027 13.6122V14.9112C8.06496 15.4331 8.1626 15.9508 8.35756 16.4345C8.55251 16.9182 8.84091 17.3583 9.20607 17.7292C9.57123 18.1001 10.0059 18.3946 10.485 18.5955C10.964 18.7965 11.478 18.9 11.997 18.9C12.5161 18.9 13.03 18.7965 13.5091 18.5955C13.9881 18.3946 14.4228 18.1001 14.788 17.7292C15.1532 17.3583 15.4416 16.9182 15.6365 16.4345C15.8315 15.9508 15.9291 15.4331 15.9238 14.9112V13.6122H12.7333V15.5208C12.7333 15.6104 12.7158 15.6992 12.6817 15.7819C12.6475 15.8647 12.5975 15.94 12.5345 16.0033C12.4715 16.0667 12.3966 16.117 12.3142 16.1513C12.2319 16.1855 12.1436 16.2032 12.0545 16.2032Z"
              fill="#F2F2F2"/>
    </g>
    <defs>
        <clipPath id="clip0_2470_4206">
            <rect width="24" height="24" fill="white"/>
        </clipPath>
    </defs>
</svg>
