<svg width="40" height="40" fill="none" xmlns="http://www.w3.org/2000/svg">
    <path d="M20 40c11.046 0 20-8.954 20-20S31.046 0 20 0 0 8.954 0 20s8.954 20 20 20z" fill="url(#paint0_linear)"/>
    <path d="M27.063 24.498c.939 1.26 1.906 2.55 2.874 3.841-1.935 2.287-4.34 3.754-7.243 4.37-3.226.674-6.275.175-9.237-1.467 2.639-1.965 5.22-3.9 7.83-5.835.586.557 1.143 1.114 1.7 1.642.616.586.381.616 1.173.176a8.132 8.132 0 002.698-2.493c.03-.058.088-.117.117-.176-.03 0 0 0 .088-.058zm-11.524 2.58c-.733.557-1.408 1.056-2.082 1.584-.499.38-.997.733-1.496 1.114-.205.176-.352.176-.586-.03-2.229-1.993-3.636-4.457-4.164-7.389-.528-2.962-.059-5.777 1.349-8.445.029-.059.088-.147.117-.206 0-.029.03-.029.088-.058 1.935 2.55 3.9 5.102 5.835 7.653-.058.088-.088.147-.146.206a52.341 52.341 0 01-1.789 1.818c-.176.176-.205.322-.088.527a8.675 8.675 0 002.522 2.933c.146.088.264.176.44.293zm10.938-18.21c-.939.674-1.877 1.349-2.815 1.994-1.613 1.143-3.226 2.316-4.81 3.46-.205.147-.352.176-.527-.03-.528-.556-1.085-1.055-1.613-1.612-.147-.147-.293-.176-.499-.088-1.26.645-2.258 1.554-3.079 2.698-.059.059-.117.147-.176.234-.469-.615-.909-1.172-1.349-1.759-.469-.616-.909-1.232-1.349-1.818-.146-.205-.175-.352.03-.557 2.258-2.493 5.044-3.96 8.387-4.31 2.639-.294 5.16.234 7.506 1.495.088.058.176.088.264.146 0 .088 0 .118.03.147zm4.78 17.594c-.616-.791-1.173-1.524-1.73-2.258-1.29-1.7-2.581-3.43-3.9-5.131-.177-.235-.177-.381.029-.587.557-.557 1.085-1.114 1.642-1.671.146-.147.205-.294.088-.499a8.694 8.694 0 00-2.669-3.079c-.088-.059-.176-.146-.293-.205.088-.088.176-.147.235-.205 1.114-.85 2.228-1.672 3.343-2.522.175-.147.322-.205.527 0 2.786 2.522 4.282 5.66 4.428 9.442.059 2.2-.44 4.282-1.437 6.246a2.217 2.217 0 00-.263.47z"
          fill="#fff"/>
    <defs>
        <linearGradient id="paint0_linear" x1="20" y1="0" x2="20" y2="40" gradientUnits="userSpaceOnUse">
            <stop stop-color="#222"/>
            <stop offset="1" stop-color="#151515"/>
        </linearGradient>
    </defs>
</svg>
